<?xml version="1.0" encoding="UTF-8"?>
<!DOCTYPE svg PUBLIC "-//W3C//DTD SVG 1.1//EN" "http://www.w3.org/Graphics/SVG/1.1/DTD/svg11.dtd">
<svg xmlns="http://www.w3.org/2000/svg" version="1.1" width="512px" height="512px" style="shape-rendering:geometricPrecision; text-rendering:geometricPrecision; image-rendering:optimizeQuality; fill-rule:evenodd; clip-rule:evenodd" xmlns:xlink="http://www.w3.org/1999/xlink">
<g><path style="opacity:0.983" fill="#020100" d="M 396.5,135.5 C 394.115,133.398 392.782,130.731 392.5,127.5C 394.894,120.485 397.394,113.485 400,106.5C 401.124,103.558 401.458,100.558 401,97.5C 372.478,126.022 343.978,154.522 315.5,183C 317.267,187.467 318.933,191.967 320.5,196.5C 330.103,190.865 340.103,186.032 350.5,182C 360.611,172.895 369.611,162.895 377.5,152C 380.736,150.276 384.07,150.11 387.5,151.5C 390.111,154.924 390.611,158.591 389,162.5C 385.5,166.833 382,171.167 378.5,175.5C 384.655,178.472 390.155,182.472 395,187.5C 410.916,209.666 422.249,234 429,260.5C 453.473,254.552 477.639,255.719 501.5,264C 505.311,265.07 508.644,266.903 511.5,269.5C 511.5,272.5 511.5,275.5 511.5,278.5C 506.824,290.848 500.324,302.181 492,312.5C 472.732,333.716 449.898,349.883 423.5,361C 416.036,378.459 406.87,394.959 396,410.5C 365.997,441.838 330.497,450.005 289.5,435C 281.841,431.988 274.674,428.155 268,423.5C 201.316,446.935 146.65,430.602 104,374.5C 84.907,346.466 75.5737,315.466 76,281.5C 78.7239,275.215 83.5573,272.049 90.5,272C 42.8277,244.777 12.4944,204.611 -0.5,151.5C -0.5,143.5 -0.5,135.5 -0.5,127.5C 1.01027,126.164 2.67694,124.997 4.5,124C 27.5487,122.178 49.2153,126.845 69.5,138C 87.0487,147.712 103.049,159.545 117.5,173.5C 135.497,131.004 163.83,97.1705 202.5,72C 214.186,67.8799 225.186,69.2132 235.5,76C 256.708,91.5407 274.874,110.041 290,131.5C 312.021,105.07 339.187,85.9035 371.5,74C 385.565,69.3624 399.899,68.0291 414.5,70C 415.333,70.8333 416.167,71.6667 417,72.5C 419.787,93.9055 416.121,114.239 406,133.5C 403.096,135.227 399.93,135.893 396.5,135.5 Z"/></g>
<g><path style="opacity:1" fill="#08a56b" d="M 386.5,85.5 C 387.873,85.3433 389.207,85.51 390.5,86C 363.653,113.014 336.653,139.847 309.5,166.5C 305.699,159.73 302.032,152.897 298.5,146C 321.496,116.487 350.829,96.32 386.5,85.5 Z"/></g>
<g><path style="opacity:1" fill="#028f5c" d="M 396.5,135.5 C 394.019,141.13 391.019,146.463 387.5,151.5C 384.07,150.11 380.736,150.276 377.5,152C 369.611,162.895 360.611,172.895 350.5,182C 340.103,186.032 330.103,190.865 320.5,196.5C 318.933,191.967 317.267,187.467 315.5,183C 343.978,154.522 372.478,126.022 401,97.5C 401.458,100.558 401.124,103.558 400,106.5C 397.394,113.485 394.894,120.485 392.5,127.5C 392.782,130.731 394.115,133.398 396.5,135.5 Z"/></g>
<g><path style="opacity:1" fill="#a14d3d" d="M 214.5,98.5 C 216.262,101.503 217.428,104.837 218,108.5C 223.812,138.334 228.145,168.334 231,198.5C 238.668,202.749 243.168,200.582 244.5,192C 241.921,162.608 238.088,133.441 233,104.5C 259.628,144.052 273.628,187.718 275,235.5C 265.431,246.412 257.431,258.412 251,271.5C 249.644,272.38 248.144,272.714 246.5,272.5C 246.667,257.163 246.5,241.83 246,226.5C 243.565,221.776 239.731,220.276 234.5,222C 233.667,222.833 232.833,223.667 232,224.5C 231.5,240.497 231.333,256.497 231.5,272.5C 220.833,272.5 210.167,272.5 199.5,272.5C 197.663,213.869 202.663,155.869 214.5,98.5 Z"/></g>
<g><path style="opacity:1" fill="#a14d3d" d="M 197.5,103.5 C 198.097,103.735 198.43,104.235 198.5,105C 187.378,160.259 182.711,216.093 184.5,272.5C 174.5,272.5 164.5,272.5 154.5,272.5C 150.549,211.299 164.883,154.966 197.5,103.5 Z"/></g>
<g><path style="opacity:1" fill="#a04d3c" d="M 259.5,118.5 C 282.985,143.519 298.485,172.852 306,206.5C 300.377,210.455 295.043,214.788 290,219.5C 285.977,183.935 275.81,150.268 259.5,118.5 Z"/></g>
<g><path style="opacity:1" fill="#a04d3c" d="M 169.5,119.5 C 170.043,119.56 170.376,119.893 170.5,120.5C 146.853,168.361 136.52,219.028 139.5,272.5C 132.5,272.5 125.5,272.5 118.5,272.5C 114.158,214.191 131.158,163.191 169.5,119.5 Z"/></g>
<g><path style="opacity:1" fill="#08a46b" d="M 26.5,140.5 C 26.7352,139.903 27.2352,139.57 28,139.5C 61.1249,147.883 88.7916,164.883 111,190.5C 111.167,191.333 111.333,192.167 111.5,193C 109.105,201.413 107.105,209.913 105.5,218.5C 79.1458,192.479 52.8125,166.479 26.5,140.5 Z"/></g>
<g><path style="opacity:1" fill="#018d5b" d="M 15.5,150.5 C 44.7987,179.298 73.9653,208.298 103,237.5C 103.018,245.167 102.518,252.834 101.5,260.5C 67.6472,241.814 42.1472,215.147 25,180.5C 20.719,170.825 17.5523,160.825 15.5,150.5 Z"/></g>
<g><path style="opacity:1" fill="#a14d3c" d="M 351.5,206.5 C 332.495,244.914 316.329,284.914 303,326.5C 293.984,354.225 287.984,382.558 285,411.5C 276.664,399.169 272.497,385.502 272.5,370.5C 277.481,305.214 303.814,250.548 351.5,206.5 Z"/></g>
<g><path style="opacity:1" fill="#853e2d" d="M 369.5,207.5 C 368.556,227.533 365.722,247.533 361,267.5C 351.031,310.711 337.364,352.711 320,393.5C 315.496,403.853 309.496,413.186 302,421.5C 300.164,411.284 300.164,400.95 302,390.5C 315.523,326.087 338.023,265.087 369.5,207.5 Z"/></g>
<g><path style="opacity:1" fill="#843d2c" d="M 319.5,214.5 C 320.239,214.369 320.906,214.536 321.5,215C 285.791,256.94 264.624,305.44 258,360.5C 257.553,370.889 257.886,381.223 259,391.5C 250.488,378.128 246.322,363.461 246.5,347.5C 249.989,291.435 274.322,247.102 319.5,214.5 Z"/></g>
<g><path style="opacity:1" fill="#a14d3c" d="M 388.5,336.5 C 387.039,342.884 385.372,349.217 383.5,355.5C 379.713,354.814 376.546,355.814 374,358.5C 366.558,379.902 354.725,398.402 338.5,414C 333.611,417.612 328.277,420.445 322.5,422.5C 353.995,357.482 374.828,288.816 385,216.5C 388.022,226.276 390.022,236.276 391,246.5C 392.947,274.421 390.447,301.921 383.5,329C 383.804,332.45 385.471,334.95 388.5,336.5 Z"/></g>
<g><path style="opacity:1" fill="#843d2c" d="M 383.5,355.5 C 385.372,349.217 387.039,342.884 388.5,336.5C 391.602,336.846 394.435,336.179 397,334.5C 405.959,302.996 408.625,270.996 405,238.5C 422.414,282.849 421.414,326.849 402,370.5C 395.174,385.325 386.008,398.492 374.5,410C 367.447,415.436 359.781,419.436 351.5,422C 358.73,415.768 364.897,408.601 370,400.5C 375.861,390.112 381.194,379.446 386,368.5C 388.585,363.318 387.752,358.985 383.5,355.5 Z"/></g>
<g><path style="opacity:1" fill="#08a169" d="M 433.5,296.5 C 432.833,293.167 432.167,289.833 431.5,286.5C 431.428,283.807 431.095,281.14 430.5,278.5C 430.709,277.006 431.376,275.839 432.5,275C 449.192,271.734 465.859,271.734 482.5,275C 466.179,282.271 449.846,289.437 433.5,296.5 Z"/></g>
<g><path style="opacity:1" fill="#856143" d="M 242.5,290.5 C 203.514,288.506 164.181,287.839 124.5,288.5C 113.5,288.5 102.5,288.5 91.5,288.5C 91.5,289.833 91.5,291.167 91.5,292.5C 90.5489,291.081 90.2155,289.415 90.5,287.5C 141.5,287.5 192.5,287.5 243.5,287.5C 243.737,288.791 243.404,289.791 242.5,290.5 Z"/></g>
<g><path style="opacity:1" fill="#f3a76b" d="M 124.5,288.5 C 124.907,294.199 125.573,299.866 126.5,305.5C 121.07,306.69 118.903,310.023 120,315.5C 122.305,320.072 125.805,321.405 130.5,319.5C 133.461,335.75 139.461,350.75 148.5,364.5C 142.801,366.902 141.301,370.902 144,376.5C 148.163,380.435 152.33,380.435 156.5,376.5C 171.736,394.611 190.07,408.611 211.5,418.5C 169.533,415.603 137.033,396.603 114,361.5C 100.986,340.292 93.4863,317.292 91.5,292.5C 91.5,291.167 91.5,289.833 91.5,288.5C 102.5,288.5 113.5,288.5 124.5,288.5 Z"/></g>
<g><path style="opacity:1" fill="#febc85" d="M 124.5,288.5 C 164.181,287.839 203.514,288.506 242.5,290.5C 234.178,312.741 230.678,335.741 232,359.5C 234.039,379.405 241.872,396.572 255.5,411C 241.488,416.921 226.822,419.421 211.5,418.5C 190.07,408.611 171.736,394.611 156.5,376.5C 158.819,369.133 156.153,365.133 148.5,364.5C 139.461,350.75 133.461,335.75 130.5,319.5C 135.345,315.753 135.679,311.586 131.5,307C 129.975,305.991 128.308,305.491 126.5,305.5C 125.573,299.866 124.907,294.199 124.5,288.5 Z"/></g>
<g><path style="opacity:1" fill="#018c5a" d="M 487.5,288.5 C 488.239,288.369 488.906,288.536 489.5,289C 473.643,311.69 453.31,329.19 428.5,341.5C 428.167,341.167 427.833,340.833 427.5,340.5C 429.058,331.489 430.724,322.489 432.5,313.5C 451.043,305.391 469.376,297.058 487.5,288.5 Z"/></g>
<g><path style="opacity:1" fill="#045336" d="M 431.5,286.5 C 432.167,289.833 432.833,293.167 433.5,296.5C 433.44,297.043 433.107,297.376 432.5,297.5C 431.511,293.893 431.177,290.226 431.5,286.5 Z"/></g>
<g><path style="opacity:1" fill="#0a0604" d="M 126.5,305.5 C 128.308,305.491 129.975,305.991 131.5,307C 135.679,311.586 135.345,315.753 130.5,319.5C 125.805,321.405 122.305,320.072 120,315.5C 118.903,310.023 121.07,306.69 126.5,305.5 Z"/></g>
<g><path style="opacity:1" fill="#0a0603" d="M 122.5,335.5 C 129.657,335.155 132.824,338.488 132,345.5C 127.333,352.167 122.667,352.167 118,345.5C 117.077,341.017 118.577,337.683 122.5,335.5 Z"/></g>
<g><path style="opacity:1" fill="#0a0704" d="M 154.5,336.5 C 161.657,336.155 164.824,339.488 164,346.5C 159.333,353.167 154.667,353.167 150,346.5C 149.077,342.017 150.577,338.683 154.5,336.5 Z"/></g>
<g><path style="opacity:1" fill="#0a0604" d="M 148.5,364.5 C 156.153,365.133 158.819,369.133 156.5,376.5C 152.33,380.435 148.163,380.435 144,376.5C 141.301,370.902 142.801,366.902 148.5,364.5 Z"/></g>
<g><path style="opacity:1" fill="#0a0704" d="M 178.5,380.5 C 185.657,380.155 188.824,383.488 188,390.5C 183.333,397.167 178.667,397.167 174,390.5C 173.077,386.017 174.577,382.683 178.5,380.5 Z"/></g>
</svg>
