<?xml version="1.0" encoding="UTF-8"?>
<!DOCTYPE svg PUBLIC "-//W3C//DTD SVG 1.1//EN" "http://www.w3.org/Graphics/SVG/1.1/DTD/svg11.dtd">
<svg xmlns="http://www.w3.org/2000/svg" version="1.1" width="512px" height="512px" style="shape-rendering:geometricPrecision; text-rendering:geometricPrecision; image-rendering:optimizeQuality; fill-rule:evenodd; clip-rule:evenodd" xmlns:xlink="http://www.w3.org/1999/xlink">
<g><path style="opacity:0.971" fill="#020100" d="M 511.5,213.5 C 511.5,225.833 511.5,238.167 511.5,250.5C 508.14,276.407 499.14,300.24 484.5,322C 481.21,323.735 477.877,323.901 474.5,322.5C 472.348,319.876 471.515,316.876 472,313.5C 497.951,272.056 503.284,228.056 488,181.5C 483.807,169.443 477.807,158.443 470,148.5C 469.739,156.87 469.072,165.203 468,173.5C 467.361,182.471 462.528,186.971 453.5,187C 418.249,191.456 390.749,178.956 371,149.5C 367.62,143.408 364.787,137.074 362.5,130.5C 361.168,124.512 359.835,118.512 358.5,112.5C 323.48,129.348 301.646,156.682 293,194.5C 304.176,204.167 313.676,215.167 321.5,227.5C 338.398,255.417 347.065,285.75 347.5,318.5C 346.846,327.743 346.846,336.91 347.5,346C 361.983,354.704 377.649,358.537 394.5,357.5C 416.49,356.782 435.824,349.282 452.5,335C 456.021,334.309 459.355,334.809 462.5,336.5C 464.701,342.61 463.034,347.443 457.5,351C 421.719,376.221 383.719,380.055 343.5,362.5C 335.619,404.505 314.285,437.671 279.5,462C 251.814,478.374 222.481,482.041 191.5,473C 185.38,470.773 179.38,468.273 173.5,465.5C 118.45,489.112 71.9499,477.779 34,431.5C 14.6659,404.838 3.1659,375.171 -0.5,342.5C -0.5,329.5 -0.5,316.5 -0.5,303.5C 4.52701,255.772 25.527,216.772 62.5,186.5C 29.984,158.783 18.8173,124.117 29,82.5C 30.1667,81.3333 31.3333,80.1667 32.5,79C 64.2355,69.5667 93.2355,74.9001 119.5,95C 121.689,98.6788 122.023,102.512 120.5,106.5C 117.355,108.191 114.021,108.691 110.5,108C 97.6966,97.5638 83.0299,91.7305 66.5,90.5C 58.2674,88.9282 50.1007,89.5949 42,92.5C 36.4841,128.303 48.3174,156.803 77.5,178C 86.3728,174.876 95.3728,172.043 104.5,169.5C 105.873,169.657 107.207,169.49 108.5,169C 95.6314,156.298 82.9647,143.465 70.5,130.5C 70.0679,129.29 69.4013,128.29 68.5,127.5C 68.8021,120.368 72.4688,117.535 79.5,119C 95.8333,135.333 112.167,151.667 128.5,168C 133.156,168.665 137.823,169.165 142.5,169.5C 142.25,155.751 138.417,143.084 131,131.5C 129.812,127.259 130.645,123.592 133.5,120.5C 136.546,119.115 139.546,119.281 142.5,121C 153.369,137.112 158.702,154.946 158.5,174.5C 160.677,174.586 162.677,175.253 164.5,176.5C 165.333,164.848 165.833,153.181 166,141.5C 171,134.833 176,134.833 181,141.5C 181.167,153.181 181.667,164.848 182.5,176.5C 183.748,175.96 184.915,175.293 186,174.5C 200.981,132.516 229.815,105.349 272.5,93C 293.948,88.4123 314.781,90.2456 335,98.5C 335.333,78.5 335.667,58.5 336,38.5C 339.274,33.2625 343.774,32.0958 349.5,35C 350.126,35.7504 350.626,36.5838 351,37.5C 351.333,44.8333 351.667,52.1667 352,59.5C 358.5,66 365,72.5 371.5,79C 406.611,73.3889 434.944,84.7222 456.5,113C 481.298,132.166 497.798,156.999 506,187.5C 508.172,196.235 510.005,204.902 511.5,213.5 Z M 351.5,82.5 C 355.012,85.1783 358.012,88.345 360.5,92C 360.097,93.4728 359.43,94.8061 358.5,96C 356.385,96.5573 354.385,97.3906 352.5,98.5C 351.505,93.2079 351.172,87.8746 351.5,82.5 Z"/></g>
<g><path style="opacity:1" fill="#76a61e" d="M 66.5,90.5 C 64.5,90.5 62.5,90.5 60.5,90.5C 59.7248,104.319 62.3914,116.652 68.5,127.5C 69.4013,128.29 70.0679,129.29 70.5,130.5C 69.5354,131.721 69.702,133.054 71,134.5C 79.2832,148.949 90.4498,160.616 104.5,169.5C 95.3728,172.043 86.3728,174.876 77.5,178C 48.3174,156.803 36.4841,128.303 42,92.5C 50.1007,89.5949 58.2674,88.9282 66.5,90.5 Z"/></g>
<g><path style="opacity:0.997" fill="#7eb522" d="M 66.5,90.5 C 83.0299,91.7305 97.6966,97.5638 110.5,108C 114.021,108.691 117.355,108.191 120.5,106.5C 125.54,110.539 129.873,115.206 133.5,120.5C 130.645,123.592 129.812,127.259 131,131.5C 138.417,143.084 142.25,155.751 142.5,169.5C 137.823,169.165 133.156,168.665 128.5,168C 112.167,151.667 95.8333,135.333 79.5,119C 72.4688,117.535 68.8021,120.368 68.5,127.5C 62.3914,116.652 59.7248,104.319 60.5,90.5C 62.5,90.5 64.5,90.5 66.5,90.5 Z"/></g>
<g><path style="opacity:1" fill="#7eb422" d="M 454.5,162.5 C 444.052,161.682 434.386,158.682 425.5,153.5C 433.339,152.82 435.839,148.82 433,141.5C 416.986,125.653 401.153,109.653 385.5,93.5C 419.266,94.0745 441.766,110.408 453,142.5C 454.274,149.103 454.774,155.77 454.5,162.5 Z"/></g>
<g><path style="opacity:1" fill="#76a61e" d="M 425.5,153.5 C 434.386,158.682 444.052,161.682 454.5,162.5C 454.384,165.86 454.051,169.193 453.5,172.5C 419.075,176.873 394.242,163.54 379,132.5C 374.787,123.558 373.287,114.225 374.5,104.5C 391.217,121.219 408.217,137.552 425.5,153.5 Z"/></g>
<g><path style="opacity:1" fill="#f78601" d="M 298.5,106.5 C 270.931,120.07 251.264,141.07 239.5,169.5C 228.134,168.566 216.801,168.232 205.5,168.5C 220.738,136.095 245.738,115.595 280.5,107C 286.491,106.501 292.491,106.334 298.5,106.5 Z"/></g>
<g><path style="opacity:1" fill="#fb9701" d="M 298.5,106.5 C 308.709,106.034 318.375,108.034 327.5,112.5C 304.625,131.898 288.458,155.898 279,184.5C 266.773,177.035 253.606,172.035 239.5,169.5C 251.264,141.07 270.931,120.07 298.5,106.5 Z"/></g>
<g><path style="opacity:1" fill="#f88601" d="M 362.5,130.5 C 359.269,132.22 356.436,134.553 354,137.5C 333.575,163.936 322.741,193.936 321.5,227.5C 313.676,215.167 304.176,204.167 293,194.5C 301.646,156.682 323.48,129.348 358.5,112.5C 359.835,118.512 361.168,124.512 362.5,130.5 Z"/></g>
<g><path style="opacity:1" fill="#fd9801" d="M 362.5,130.5 C 364.787,137.074 367.62,143.408 371,149.5C 390.749,178.956 418.249,191.456 453.5,187C 462.528,186.971 467.361,182.471 468,173.5C 469.072,165.203 469.739,156.87 470,148.5C 477.807,158.443 483.807,169.443 488,181.5C 503.284,228.056 497.951,272.056 472,313.5C 471.515,316.876 472.348,319.876 474.5,322.5C 470.845,327.486 466.845,332.153 462.5,336.5C 459.355,334.809 456.021,334.309 452.5,335C 435.824,349.282 416.49,356.782 394.5,357.5C 375.947,348.046 360.28,335.046 347.5,318.5C 347.065,285.75 338.398,255.417 321.5,227.5C 322.741,193.936 333.575,163.936 354,137.5C 356.436,134.553 359.269,132.22 362.5,130.5 Z"/></g>
<g><path style="opacity:1" fill="#80b622" d="M 70.5,130.5 C 82.9647,143.465 95.6314,156.298 108.5,169C 107.207,169.49 105.873,169.657 104.5,169.5C 90.4498,160.616 79.2832,148.949 71,134.5C 69.702,133.054 69.5354,131.721 70.5,130.5 Z"/></g>
<g><path style="opacity:1" fill="#fca413" d="M 126.5,183.5 C 97.2962,198.541 76.1296,221.208 63,251.5C 42.2341,304.021 44.2341,355.688 69,406.5C 82.461,431.129 101.628,449.796 126.5,462.5C 102.119,462.803 80.7859,454.97 62.5,439C 29.8418,406.824 13.8418,367.657 14.5,321.5C 14.5689,283.79 26.0689,250.124 49,220.5C 65.0633,201.551 85.2299,189.384 109.5,184C 115.157,183.501 120.824,183.334 126.5,183.5 Z"/></g>
<g><path style="opacity:1" fill="#fcb340" d="M 126.5,183.5 C 134.046,183.309 141.379,184.476 148.5,187C 156.999,189.836 165.166,193.336 173,197.5C 227.385,171.431 272.051,183.097 307,232.5C 333.147,275.67 339.481,321.67 326,370.5C 317.491,401.385 300.658,426.552 275.5,446C 250.738,462.596 224.071,466.596 195.5,458C 188.262,454.546 180.929,451.38 173.5,448.5C 164.078,452.875 154.412,456.708 144.5,460C 138.552,461.255 132.552,462.088 126.5,462.5C 101.628,449.796 82.461,431.129 69,406.5C 44.2341,355.688 42.2341,304.021 63,251.5C 76.1296,221.208 97.2962,198.541 126.5,183.5 Z"/></g>
<g><path style="opacity:1" fill="#040201" d="M 232.5,311.5 C 229.03,312.125 226.196,311.125 224,308.5C 219.79,291.897 210.956,278.397 197.5,268C 194.09,265.628 190.423,263.795 186.5,262.5C 181.657,259.454 176.323,257.954 170.5,258C 140.281,268.389 124.281,289.556 122.5,321.5C 123.293,356.42 140.46,378.753 174,388.5C 178.306,386.904 182.473,385.238 186.5,383.5C 199.983,377.854 210.149,368.52 217,355.5C 219.866,348.567 222.533,341.567 225,334.5C 227.135,332.722 229.635,332.055 232.5,332.5C 235.892,333.564 237.892,335.897 238.5,339.5C 231.315,370.849 212.482,391.515 182,401.5C 181.917,407.942 181.251,414.275 180,420.5C 175.667,425.833 171.333,425.833 167,420.5C 166.5,414.175 166.334,407.842 166.5,401.5C 129.133,389.313 109.467,363.48 107.5,324C 108.186,289.275 123.853,263.942 154.5,248C 158.307,246.119 162.307,244.953 166.5,244.5C 166.334,238.158 166.5,231.825 167,225.5C 170.745,220.521 174.912,220.188 179.5,224.5C 180.294,230.783 180.794,237.116 181,243.5C 210.877,253.376 229.711,273.543 237.5,304C 237.682,307.82 236.015,310.32 232.5,311.5 Z"/></g>
<g><path style="opacity:1" fill="#873e2d" d="M 186.5,262.5 C 157.829,287.326 149.996,317.659 163,353.5C 168.693,365.241 176.526,375.241 186.5,383.5C 182.473,385.238 178.306,386.904 174,388.5C 140.46,378.753 123.293,356.42 122.5,321.5C 124.281,289.556 140.281,268.389 170.5,258C 176.323,257.954 181.657,259.454 186.5,262.5 Z"/></g>
<g><path style="opacity:1" fill="#a34e3d" d="M 186.5,262.5 C 190.423,263.795 194.09,265.628 197.5,268C 210.956,278.397 219.79,291.897 224,308.5C 226.196,311.125 229.03,312.125 232.5,311.5C 232.5,318.5 232.5,325.5 232.5,332.5C 229.635,332.055 227.135,332.722 225,334.5C 222.533,341.567 219.866,348.567 217,355.5C 210.149,368.52 199.983,377.854 186.5,383.5C 176.526,375.241 168.693,365.241 163,353.5C 149.996,317.659 157.829,287.326 186.5,262.5 Z"/></g>
<g><path style="opacity:1" fill="#f58501" d="M 347.5,318.5 C 360.28,335.046 375.947,348.046 394.5,357.5C 377.649,358.537 361.983,354.704 347.5,346C 346.846,336.91 346.846,327.743 347.5,318.5 Z"/></g>
</svg>
