<?xml version="1.0" encoding="UTF-8"?>
<!DOCTYPE svg PUBLIC "-//W3C//DTD SVG 1.1//EN" "http://www.w3.org/Graphics/SVG/1.1/DTD/svg11.dtd">
<svg xmlns="http://www.w3.org/2000/svg" version="1.1" width="512px" height="512px" style="shape-rendering:geometricPrecision; text-rendering:geometricPrecision; image-rendering:optimizeQuality; fill-rule:evenodd; clip-rule:evenodd" xmlns:xlink="http://www.w3.org/1999/xlink">
<g><path style="opacity:0.977" fill="#030303" d="M 94.5,31.5 C 201.834,31.3333 309.167,31.5 416.5,32C 422.069,56.3466 427.069,80.8466 431.5,105.5C 431.449,107.1 431.116,108.6 430.5,110C 426.179,110.499 421.846,110.666 417.5,110.5C 417.667,226.5 417.5,342.5 417,458.5C 414.265,468.902 407.765,475.736 397.5,479C 302.833,479.667 208.167,479.667 113.5,479C 103.235,475.736 96.7353,468.902 94,458.5C 93.5,342.5 93.3333,226.5 93.5,110.5C 89.1539,110.666 84.8206,110.499 80.5,110C 79.8333,108.667 79.1667,107.333 78.5,106C 83.6425,81.1206 88.9758,56.2873 94.5,31.5 Z"/></g>
<g><path style="opacity:1" fill="#ebd6b0" d="M 100.5,39.5 C 203.833,39.5 307.167,39.5 410.5,39.5C 414.755,60.4419 418.755,81.4419 422.5,102.5C 311.167,102.5 199.833,102.5 88.5,102.5C 92.2429,81.4522 96.2429,60.4522 100.5,39.5 Z"/></g>
<g><path style="opacity:1" fill="#0d0c0a" d="M 124.5,52.5 C 211.834,52.3333 299.167,52.5 386.5,53C 389.167,55.3333 389.167,57.6667 386.5,60C 299.167,60.6667 211.833,60.6667 124.5,60C 121.914,57.506 121.914,55.006 124.5,52.5 Z"/></g>
<g><path style="opacity:1" fill="#fef3dd" d="M 101.5,110.5 C 204.167,110.5 306.833,110.5 409.5,110.5C 409.5,133.833 409.5,157.167 409.5,180.5C 306.833,180.5 204.167,180.5 101.5,180.5C 101.5,157.167 101.5,133.833 101.5,110.5 Z"/></g>
<g><path style="opacity:1" fill="#00c8fe" d="M 101.5,188.5 C 204.167,188.5 306.833,188.5 409.5,188.5C 409.5,256.833 409.5,325.167 409.5,393.5C 306.833,393.5 204.167,393.5 101.5,393.5C 101.5,325.167 101.5,256.833 101.5,188.5 Z"/></g>
<g><path style="opacity:1" fill="#050707" d="M 189.5,234.5 C 199.492,233.652 205.825,237.985 208.5,247.5C 218.033,244.85 225.2,247.85 230,256.5C 243.58,254.039 250.413,259.706 250.5,273.5C 290.835,273.333 331.168,273.5 371.5,274C 372,274.5 372.5,275 373,275.5C 373.667,284.167 373.667,292.833 373,301.5C 372.5,302 372,302.5 371.5,303C 328.5,303.333 285.5,303.667 242.5,304C 225.739,329.281 202.739,337.615 173.5,329C 147.339,316.532 135.173,295.699 137,266.5C 141.421,256.518 148.921,253.185 159.5,256.5C 162.73,247.387 169.063,244.387 178.5,247.5C 180.425,241.584 184.091,237.251 189.5,234.5 Z"/></g>
<g><path style="opacity:1" fill="#ededed" d="M 190.5,242.5 C 193.602,242.154 196.435,242.821 199,244.5C 200.245,250.39 200.912,256.39 201,262.5C 202.808,264.396 204.975,264.896 207.5,264C 207.653,258.507 210.32,255.007 215.5,253.5C 217.728,254.219 219.561,255.552 221,257.5C 221.093,260.007 221.926,262.174 223.5,264C 227.001,264.336 230.501,264.169 234,263.5C 240.777,263.356 243.61,266.69 242.5,273.5C 209.833,273.5 177.167,273.5 144.5,273.5C 143.705,269.406 145.038,266.239 148.5,264C 153.851,263.737 159.184,263.737 164.5,264C 166.074,262.174 166.907,260.007 167,257.5C 170.272,252.597 173.939,252.263 178,256.5C 178.96,258.98 179.793,261.48 180.5,264C 183.025,264.896 185.192,264.396 187,262.5C 187.333,257.167 187.667,251.833 188,246.5C 188.662,245.016 189.496,243.683 190.5,242.5 Z"/></g>
<g><path style="opacity:1" fill="#cfe2e6" d="M 146.5,281.5 C 178.167,281.5 209.833,281.5 241.5,281.5C 236.767,308.734 220.6,323.067 193,324.5C 165.972,322.578 150.472,308.245 146.5,281.5 Z"/></g>
<g><path style="opacity:1" fill="#cbdee2" d="M 248.5,281.5 C 287.5,281.5 326.5,281.5 365.5,281.5C 365.5,286.5 365.5,291.5 365.5,296.5C 325.833,296.5 286.167,296.5 246.5,296.5C 247.648,291.57 248.315,286.57 248.5,281.5 Z"/></g>
<g><path style="opacity:1" fill="#fef3dd" d="M 101.5,401.5 C 204.167,401.5 306.833,401.5 409.5,401.5C 409.667,419.836 409.5,438.17 409,456.5C 406.928,463.573 402.428,468.406 395.5,471C 302.167,471.667 208.833,471.667 115.5,471C 108.572,468.406 104.072,463.573 102,456.5C 101.5,438.17 101.333,419.836 101.5,401.5 Z"/></g>
</svg>
