<?xml version="1.0" encoding="UTF-8"?>
<!DOCTYPE svg PUBLIC "-//W3C//DTD SVG 1.1//EN" "http://www.w3.org/Graphics/SVG/1.1/DTD/svg11.dtd">
<svg xmlns="http://www.w3.org/2000/svg" version="1.1" width="512px" height="512px" style="shape-rendering:geometricPrecision; text-rendering:geometricPrecision; image-rendering:optimizeQuality; fill-rule:evenodd; clip-rule:evenodd" xmlns:xlink="http://www.w3.org/1999/xlink">
<g><path style="opacity:0.995" fill="#000000" d="M 24.5,7.5 C 178.5,7.33333 332.5,7.5 486.5,8C 494.667,10.8333 500.167,16.3333 503,24.5C 503.955,40.9004 503.622,57.2337 502,73.5C 499.167,79 495,83.1667 489.5,86C 480.241,87.2514 470.908,87.918 461.5,88C 454.686,99.9426 454.853,111.776 462,123.5C 474.42,132.585 484.753,143.585 493,156.5C 498.125,165.542 501.458,175.209 503,185.5C 503.667,276.5 503.667,367.5 503,458.5C 497.5,482.667 482.667,497.5 458.5,503C 323.167,503.667 187.833,503.667 52.5,503C 28.3333,497.5 13.5,482.667 8,458.5C 7.33333,367.5 7.33333,276.5 8,185.5C 10.5547,169.729 16.888,155.729 27,143.5C 33.7657,136.133 41.099,129.466 49,123.5C 56.1473,111.776 56.3139,99.9426 49.5,88C 40.0924,87.918 30.7591,87.2514 21.5,86C 14.8513,82.6859 10.3513,77.5192 8,70.5C 7.33333,55.1667 7.33333,39.8333 8,24.5C 11.0191,16.3156 16.5191,10.649 24.5,7.5 Z"/></g>
<g><path style="opacity:1" fill="#538ff4" d="M 39.5,23.5 C 40.2051,35.5875 45.5384,44.9208 55.5,51.5C 55.5,58.1667 55.5,64.8333 55.5,71.5C 46.4938,71.6664 37.4938,71.4998 28.5,71C 26.3333,70.1667 24.8333,68.6667 24,66.5C 23.3333,53.8333 23.3333,41.1667 24,28.5C 24.8333,26.3333 26.3333,24.8333 28.5,24C 32.1516,23.5014 35.8183,23.3347 39.5,23.5 Z"/></g>
<g><path style="opacity:1" fill="#80b3fb" d="M 39.5,23.5 C 44.8333,23.5 50.1667,23.5 55.5,23.5C 55.5,32.8333 55.5,42.1667 55.5,51.5C 45.5384,44.9208 40.2051,35.5875 39.5,23.5 Z"/></g>
<g><path style="opacity:1" fill="#80b3fb" d="M 103.5,57.5 C 92.8333,57.5 82.1667,57.5 71.5,57.5C 71.5,46.1667 71.5,34.8333 71.5,23.5C 82.1667,23.5 92.8333,23.5 103.5,23.5C 103.5,34.8333 103.5,46.1667 103.5,57.5 Z"/></g>
<g><path style="opacity:1" fill="#80b3fb" d="M 151.5,57.5 C 140.833,57.5 130.167,57.5 119.5,57.5C 119.5,46.1667 119.5,34.8333 119.5,23.5C 130.167,23.5 140.833,23.5 151.5,23.5C 151.5,34.8333 151.5,46.1667 151.5,57.5 Z"/></g>
<g><path style="opacity:1" fill="#80b3fb" d="M 199.5,57.5 C 188.833,57.5 178.167,57.5 167.5,57.5C 167.5,46.1667 167.5,34.8333 167.5,23.5C 178.167,23.5 188.833,23.5 199.5,23.5C 199.5,34.8333 199.5,46.1667 199.5,57.5 Z"/></g>
<g><path style="opacity:1" fill="#80b3fb" d="M 247.5,57.5 C 236.833,57.5 226.167,57.5 215.5,57.5C 215.5,46.1667 215.5,34.8333 215.5,23.5C 226.167,23.5 236.833,23.5 247.5,23.5C 247.5,34.8333 247.5,46.1667 247.5,57.5 Z"/></g>
<g><path style="opacity:1" fill="#80b3fb" d="M 295.5,57.5 C 284.833,57.5 274.167,57.5 263.5,57.5C 263.5,46.1667 263.5,34.8333 263.5,23.5C 274.167,23.5 284.833,23.5 295.5,23.5C 295.5,34.8333 295.5,46.1667 295.5,57.5 Z"/></g>
<g><path style="opacity:1" fill="#80b3fb" d="M 343.5,57.5 C 332.833,57.5 322.167,57.5 311.5,57.5C 311.5,46.1667 311.5,34.8333 311.5,23.5C 322.167,23.5 332.833,23.5 343.5,23.5C 343.5,34.8333 343.5,46.1667 343.5,57.5 Z"/></g>
<g><path style="opacity:1" fill="#80b3fb" d="M 391.5,57.5 C 380.833,57.5 370.167,57.5 359.5,57.5C 359.5,46.1667 359.5,34.8333 359.5,23.5C 370.167,23.5 380.833,23.5 391.5,23.5C 391.5,34.8333 391.5,46.1667 391.5,57.5 Z"/></g>
<g><path style="opacity:1" fill="#80b3fb" d="M 439.5,57.5 C 428.833,57.5 418.167,57.5 407.5,57.5C 407.5,46.1667 407.5,34.8333 407.5,23.5C 418.167,23.5 428.833,23.5 439.5,23.5C 439.5,34.8333 439.5,46.1667 439.5,57.5 Z"/></g>
<g><path style="opacity:1" fill="#80b3fb" d="M 487.5,57.5 C 476.833,57.5 466.167,57.5 455.5,57.5C 455.5,46.1667 455.5,34.8333 455.5,23.5C 464.506,23.3336 473.506,23.5002 482.5,24C 483.931,24.4652 485.097,25.2986 486,26.5C 487.451,36.729 487.951,47.0623 487.5,57.5 Z"/></g>
<g><path style="opacity:1" fill="#5490f5" d="M 71.5,57.5 C 82.1667,57.5 92.8333,57.5 103.5,57.5C 103.5,62.1667 103.5,66.8333 103.5,71.5C 92.8333,71.5 82.1667,71.5 71.5,71.5C 71.5,66.8333 71.5,62.1667 71.5,57.5 Z"/></g>
<g><path style="opacity:1" fill="#5490f5" d="M 119.5,57.5 C 130.167,57.5 140.833,57.5 151.5,57.5C 151.5,62.1667 151.5,66.8333 151.5,71.5C 140.833,71.5 130.167,71.5 119.5,71.5C 119.5,66.8333 119.5,62.1667 119.5,57.5 Z"/></g>
<g><path style="opacity:1" fill="#5490f5" d="M 167.5,57.5 C 178.167,57.5 188.833,57.5 199.5,57.5C 199.5,62.1667 199.5,66.8333 199.5,71.5C 188.833,71.5 178.167,71.5 167.5,71.5C 167.5,66.8333 167.5,62.1667 167.5,57.5 Z"/></g>
<g><path style="opacity:1" fill="#5490f5" d="M 215.5,57.5 C 226.167,57.5 236.833,57.5 247.5,57.5C 247.5,62.1667 247.5,66.8333 247.5,71.5C 236.833,71.5 226.167,71.5 215.5,71.5C 215.5,66.8333 215.5,62.1667 215.5,57.5 Z"/></g>
<g><path style="opacity:1" fill="#5490f5" d="M 263.5,57.5 C 274.167,57.5 284.833,57.5 295.5,57.5C 295.5,62.1667 295.5,66.8333 295.5,71.5C 284.833,71.5 274.167,71.5 263.5,71.5C 263.5,66.8333 263.5,62.1667 263.5,57.5 Z"/></g>
<g><path style="opacity:1" fill="#5490f5" d="M 311.5,57.5 C 322.167,57.5 332.833,57.5 343.5,57.5C 343.5,62.1667 343.5,66.8333 343.5,71.5C 332.833,71.5 322.167,71.5 311.5,71.5C 311.5,66.8333 311.5,62.1667 311.5,57.5 Z"/></g>
<g><path style="opacity:1" fill="#5490f5" d="M 359.5,57.5 C 370.167,57.5 380.833,57.5 391.5,57.5C 391.5,62.1667 391.5,66.8333 391.5,71.5C 380.833,71.5 370.167,71.5 359.5,71.5C 359.5,66.8333 359.5,62.1667 359.5,57.5 Z"/></g>
<g><path style="opacity:1" fill="#5490f5" d="M 407.5,57.5 C 418.167,57.5 428.833,57.5 439.5,57.5C 439.5,62.1667 439.5,66.8333 439.5,71.5C 428.833,71.5 418.167,71.5 407.5,71.5C 407.5,66.8333 407.5,62.1667 407.5,57.5 Z"/></g>
<g><path style="opacity:1" fill="#538ff3" d="M 455.5,57.5 C 466.167,57.5 476.833,57.5 487.5,57.5C 487.665,60.5184 487.498,63.5184 487,66.5C 486.167,68.6667 484.667,70.1667 482.5,71C 473.506,71.4998 464.506,71.6664 455.5,71.5C 455.5,66.8333 455.5,62.1667 455.5,57.5 Z"/></g>
<g><path style="opacity:1" fill="#d8d4c9" d="M 115.5,87.5 C 121.67,101.796 120.503,115.462 112,128.5C 104.667,135.167 97.3333,141.833 90,148.5C 79.3757,160.87 73.5424,175.204 72.5,191.5C 56.5,191.5 40.5,191.5 24.5,191.5C 25.7736,175.62 31.9402,161.953 43,150.5C 52.0859,144.149 59.7526,136.483 66,127.5C 72.5722,114.499 73.0722,101.332 67.5,88C 83.4965,87.5001 99.4965,87.3334 115.5,87.5 Z"/></g>
<g><path style="opacity:1" fill="#f1eedf" d="M 115.5,87.5 C 224.835,87.1667 334.169,87.5 443.5,88.5C 436.897,106.432 439.731,122.765 452,137.5C 467.828,147.667 478.828,161.667 485,179.5C 486.156,183.418 486.656,187.418 486.5,191.5C 348.5,191.5 210.5,191.5 72.5,191.5C 73.5424,175.204 79.3757,160.87 90,148.5C 97.3333,141.833 104.667,135.167 112,128.5C 120.503,115.462 121.67,101.796 115.5,87.5 Z"/></g>
<g><path style="opacity:1" fill="#538ff4" d="M 71.5,207.5 C 71.5,251.167 71.5,294.833 71.5,338.5C 71.5,341.5 71.5,344.5 71.5,347.5C 71.5,375.5 71.5,403.5 71.5,431.5C 55.5,431.5 39.5,431.5 23.5,431.5C 23.5,356.833 23.5,282.167 23.5,207.5C 39.5,207.5 55.5,207.5 71.5,207.5 Z"/></g>
<g><path style="opacity:1" fill="#80b3fb" d="M 71.5,207.5 C 210.167,207.5 348.833,207.5 487.5,207.5C 487.5,282.167 487.5,356.833 487.5,431.5C 348.833,431.5 210.167,431.5 71.5,431.5C 71.5,403.5 71.5,375.5 71.5,347.5C 72.7123,383.422 90.7123,405.922 125.5,415C 152.353,417.818 173.52,408.318 189,386.5C 192.628,380.583 195.128,374.25 196.5,367.5C 260.501,367.667 324.501,367.5 388.5,367C 402.651,362.203 408.817,352.369 407,337.5C 403.631,328.129 397.131,322.296 387.5,320C 322.168,319.5 256.834,319.333 191.5,319.5C 190.464,303.754 182.464,293.421 167.5,288.5C 159.467,267.205 144.467,259.705 122.5,266C 112.799,270.582 106.799,278.082 104.5,288.5C 91.592,291.574 83.4253,299.574 80,312.5C 79.6667,317.167 79.3333,321.833 79,326.5C 75.1924,329.802 72.6924,333.802 71.5,338.5C 71.5,294.833 71.5,251.167 71.5,207.5 Z"/></g>
<g><path style="opacity:1" fill="#010102" d="M 297.5,223.5 C 311.873,222.262 321.706,228.262 327,241.5C 327.918,256.879 327.584,272.213 326,287.5C 319.451,300.857 308.951,305.691 294.5,302C 286.215,298.051 281.382,291.551 280,282.5C 279.333,268.833 279.333,255.167 280,241.5C 283.353,232.982 289.186,226.982 297.5,223.5 Z"/></g>
<g><path style="opacity:1" fill="#010102" d="M 340.5,223.5 C 348.507,223.334 356.507,223.5 364.5,224C 374.231,226.064 380.397,231.897 383,241.5C 383.667,255.833 383.667,270.167 383,284.5C 380.936,294.231 375.103,300.397 365.5,303C 357.167,303.667 348.833,303.667 340.5,303C 337.898,302.065 336.398,300.232 336,297.5C 335.333,274.5 335.333,251.5 336,228.5C 337.025,226.313 338.525,224.646 340.5,223.5 Z"/></g>
<g><path style="opacity:1" fill="#030304" d="M 404.5,223.5 C 409.93,223.161 415.264,223.661 420.5,225C 421.701,225.903 422.535,227.069 423,228.5C 428.541,251.914 433.708,275.414 438.5,299C 438.415,300.107 438.081,301.107 437.5,302C 433.649,302.754 429.816,303.588 426,304.5C 425.167,304.167 424.333,303.833 423.5,303.5C 422.243,298.217 421.243,292.884 420.5,287.5C 414.5,287.5 408.5,287.5 402.5,287.5C 401.806,293.673 400.473,299.673 398.5,305.5C 393.925,304.014 389.259,302.848 384.5,302C 388.944,277.553 394.111,253.053 400,228.5C 401.025,226.313 402.525,224.646 404.5,223.5 Z"/></g>
<g><path style="opacity:1" fill="#030304" d="M 241.5,223.5 C 259.027,222.379 269.027,230.379 271.5,247.5C 266.167,247.5 260.833,247.5 255.5,247.5C 254.608,241.048 250.941,238.548 244.5,240C 240.139,242.226 238.639,245.726 240,250.5C 240.833,252.667 242.333,254.167 244.5,255C 262.95,256.44 271.783,266.274 271,284.5C 266.203,298.651 256.369,304.817 241.5,303C 230.409,299.074 224.409,291.241 223.5,279.5C 228.833,279.5 234.167,279.5 239.5,279.5C 240.392,285.952 244.059,288.452 250.5,287C 254.861,284.774 256.361,281.274 255,276.5C 254.167,274.333 252.667,272.833 250.5,272C 231.655,270.491 222.822,260.324 224,241.5C 227.353,232.982 233.186,226.982 241.5,223.5 Z"/></g>
<g><path style="opacity:1" fill="#80b3fa" d="M 351.5,239.5 C 355.182,239.335 358.848,239.501 362.5,240C 364.286,240.785 365.786,241.951 367,243.5C 367.167,250 367.333,256.5 367.5,263C 367.632,270.267 367.132,277.434 366,284.5C 365.097,285.701 363.931,286.535 362.5,287C 358.848,287.499 355.182,287.665 351.5,287.5C 351.5,271.5 351.5,255.5 351.5,239.5 Z"/></g>
<g><path style="opacity:1" fill="#80b2f8" d="M 300.5,239.5 C 305.28,238.641 308.78,240.308 311,244.5C 311.667,257.167 311.667,269.833 311,282.5C 307.987,287.535 303.82,288.702 298.5,286C 297.299,285.097 296.465,283.931 296,282.5C 295.333,269.833 295.333,257.167 296,244.5C 297.025,242.313 298.525,240.646 300.5,239.5 Z"/></g>
<g><path style="opacity:1" fill="#7ba6e4" d="M 410.5,251.5 C 411.586,251.62 412.253,252.287 412.5,253.5C 413.678,259.213 415.012,264.88 416.5,270.5C 413.167,271.833 409.833,271.833 406.5,270.5C 408.309,264.265 409.642,257.931 410.5,251.5 Z"/></g>
<g><path style="opacity:1" fill="#010101" d="M 71.5,347.5 C 71.5,344.5 71.5,341.5 71.5,338.5C 72.6924,333.802 75.1924,329.802 79,326.5C 79.3333,321.833 79.6667,317.167 80,312.5C 83.4253,299.574 91.592,291.574 104.5,288.5C 106.799,278.082 112.799,270.582 122.5,266C 144.467,259.705 159.467,267.205 167.5,288.5C 182.464,293.421 190.464,303.754 191.5,319.5C 256.834,319.333 322.168,319.5 387.5,320C 397.131,322.296 403.631,328.129 407,337.5C 408.817,352.369 402.651,362.203 388.5,367C 324.501,367.5 260.501,367.667 196.5,367.5C 195.128,374.25 192.628,380.583 189,386.5C 173.52,408.318 152.353,417.818 125.5,415C 90.7123,405.922 72.7123,383.422 71.5,347.5 Z"/></g>
<g><path style="opacity:1" fill="#f3f5fc" d="M 130.5,279.5 C 144.859,279.022 152.359,286.022 153,300.5C 153.903,301.701 155.069,302.535 156.5,303C 167.697,303.037 174.03,308.537 175.5,319.5C 148.833,319.5 122.167,319.5 95.5,319.5C 95.5705,313.86 97.9039,309.36 102.5,306C 107.82,304.441 112.986,302.608 118,300.5C 118.107,290.935 122.273,283.935 130.5,279.5 Z"/></g>
<g><path style="opacity:1" fill="#fed45c" d="M 390.5,346.5 C 323.874,347.326 257.207,347.826 190.5,348C 189.663,349.011 189.33,350.178 189.5,351.5C 187.321,351.84 185.488,352.84 184,354.5C 182.253,364.321 178.586,373.321 173,381.5C 171.629,383.041 170.129,384.375 168.5,385.5C 146.541,398.794 124.541,398.794 102.5,385.5C 96.3149,379.811 92.1482,372.811 90,364.5C 89.0679,357.679 88.2345,350.845 87.5,344C 87.3996,340.196 89.0662,337.529 92.5,336C 190.5,335.333 288.5,335.333 386.5,336C 391.128,338.399 392.461,341.899 390.5,346.5 Z"/></g>
<g><path style="opacity:1" fill="#fec23a" d="M 390.5,346.5 C 390.084,348.752 388.751,350.252 386.5,351C 320.834,351.5 255.168,351.667 189.5,351.5C 189.33,350.178 189.663,349.011 190.5,348C 257.207,347.826 323.874,347.326 390.5,346.5 Z"/></g>
<g><path style="opacity:1" fill="#f3b937" d="M 102.5,385.5 C 124.541,398.794 146.541,398.794 168.5,385.5C 159.579,394.787 148.579,399.453 135.5,399.5C 122.421,399.453 111.421,394.787 102.5,385.5 Z"/></g>
<g><path style="opacity:1" fill="#d7d3c9" d="M 71.5,447.5 C 72.2043,464.246 79.2043,477.579 92.5,487.5C 80.1622,487.667 67.8288,487.5 55.5,487C 35.4047,481.41 24.738,468.244 23.5,447.5C 39.5,447.5 55.5,447.5 71.5,447.5 Z"/></g>
<g><path style="opacity:1" fill="#f1eedf" d="M 71.5,447.5 C 210.167,447.5 348.833,447.5 487.5,447.5C 486.262,468.244 475.595,481.41 455.5,487C 334.5,487.5 213.5,487.667 92.5,487.5C 79.2043,477.579 72.2043,464.246 71.5,447.5 Z"/></g>
</svg>
