<?xml version="1.0" encoding="UTF-8"?>
<!DOCTYPE svg PUBLIC "-//W3C//DTD SVG 1.1//EN" "http://www.w3.org/Graphics/SVG/1.1/DTD/svg11.dtd">
<svg xmlns="http://www.w3.org/2000/svg" version="1.1" width="512px" height="512px" style="shape-rendering:geometricPrecision; text-rendering:geometricPrecision; image-rendering:optimizeQuality; fill-rule:evenodd; clip-rule:evenodd" xmlns:xlink="http://www.w3.org/1999/xlink">
<g><path style="opacity:0.976" fill="#020202" d="M 469.5,133.5 C 465.904,135.722 462.237,135.889 458.5,134C 448.667,119.492 437.334,106.158 424.5,94C 415.41,86.7867 405.41,81.12 394.5,77C 373.031,72.6033 352.031,74.27 331.5,82C 326.027,83.9014 321.027,86.5681 316.5,90C 354.572,146.025 377.739,207.858 386,275.5C 390.431,322.346 381.431,366.346 359,407.5C 343.879,431.621 324.379,451.455 300.5,467C 365.194,478.884 417.694,459.05 458,407.5C 475.051,381.686 485.384,353.353 489,322.5C 493.37,282.712 491.536,243.212 483.5,204C 483.351,198.319 486.018,194.819 491.5,193.5C 498.062,192.207 502.228,194.873 504,201.5C 507.418,219.858 509.918,238.192 511.5,256.5C 511.5,274.5 511.5,292.5 511.5,310.5C 509.004,344.803 499.504,377.137 483,407.5C 438.121,476.668 374.954,503.168 293.5,487C 287.026,485.632 280.692,483.798 274.5,481.5C 216.113,504.131 158.446,502.631 101.5,477C 40.6153,443.433 6.61526,391.933 -0.5,322.5C -0.5,307.167 -0.5,291.833 -0.5,276.5C 7.23603,216.343 26.4027,160.01 57,107.5C 78.8023,71.6962 108.302,44.1962 145.5,25C 188.478,6.62725 228.811,11.2939 266.5,39C 279.618,49.1179 291.785,60.2846 303,72.5C 335.71,53.6846 370.21,49.1846 406.5,59C 435.73,72.5634 458.23,93.3968 474,121.5C 475.53,126.717 474.03,130.717 469.5,133.5 Z"/></g>
<g><path style="opacity:1" fill="#fefefe" d="M 183.5,34.5 C 204.93,34.0305 224.93,39.1971 243.5,50C 266.822,63.9859 286.322,82.1526 302,104.5C 340.859,162.743 362.359,226.91 366.5,297C 367.724,371.933 335.391,426.6 269.5,461C 229.843,476.067 189.176,479.733 147.5,472C 81.9521,453.119 40.7854,410.619 24,344.5C 18.4397,315.566 18.1064,286.566 23,257.5C 32.2263,208.063 49.5596,161.73 75,118.5C 92.033,90.2564 114.533,67.4231 142.5,50C 155.639,43.0828 169.306,37.9162 183.5,34.5 Z"/></g>
<g><path style="opacity:0.999" fill="#fefefe" d="M 469.5,133.5 C 473.046,139.925 476.046,146.592 478.5,153.5C 471.921,156.004 469.754,160.67 472,167.5C 475.317,173.313 480.15,174.98 486.5,172.5C 488.009,179.535 489.675,186.535 491.5,193.5C 486.018,194.819 483.351,198.319 483.5,204C 491.536,243.212 493.37,282.712 489,322.5C 485.384,353.353 475.051,381.686 458,407.5C 417.694,459.05 365.194,478.884 300.5,467C 324.379,451.455 343.879,431.621 359,407.5C 381.431,366.346 390.431,322.346 386,275.5C 377.739,207.858 354.572,146.025 316.5,90C 321.027,86.5681 326.027,83.9014 331.5,82C 352.031,74.27 373.031,72.6033 394.5,77C 405.41,81.12 415.41,86.7867 424.5,94C 437.334,106.158 448.667,119.492 458.5,134C 462.237,135.889 465.904,135.722 469.5,133.5 Z"/></g>
<g><path style="opacity:0.946" fill="#020202" d="M 486.5,172.5 C 480.15,174.98 475.317,173.313 472,167.5C 469.754,160.67 471.921,156.004 478.5,153.5C 488.285,152.795 492.452,157.462 491,167.5C 490.004,169.66 488.504,171.327 486.5,172.5 Z"/></g>
<g><path style="opacity:1" fill="#040303" d="M 100.5,281.5 C 104.107,283.438 106.107,286.438 106.5,290.5C 94.2549,341.316 110.922,379.15 156.5,404C 195.559,418.441 230.059,411.274 260,382.5C 283.069,355.383 289.403,324.716 279,290.5C 259.571,246.456 225.738,226.623 177.5,231C 167.446,233.074 157.779,236.241 148.5,240.5C 145.184,239.844 142.517,238.177 140.5,235.5C 138.28,231.909 138.113,228.243 140,224.5C 150.359,217.266 161.859,212.766 174.5,211C 233.296,205.517 274.463,229.684 298,283.5C 312.067,331.291 300.9,372.125 264.5,406C 231.229,431.519 194.562,437.852 154.5,425C 108.192,405.406 84.1917,370.406 82.5,320C 82.0135,308.117 83.8469,296.617 88,285.5C 91.2978,281.835 95.4645,280.502 100.5,281.5 Z"/></g>
<g><path style="opacity:1" fill="#fec043" d="M 100.5,281.5 C 102.988,275.19 105.988,269.19 109.5,263.5C 118.429,268.706 124.096,266.206 126.5,256C 126.452,253.078 125.452,250.578 123.5,248.5C 128.308,243.024 133.974,238.69 140.5,235.5C 142.517,238.177 145.184,239.844 148.5,240.5C 157.779,236.241 167.446,233.074 177.5,231C 225.738,226.623 259.571,246.456 279,290.5C 289.403,324.716 283.069,355.383 260,382.5C 230.059,411.274 195.559,418.441 156.5,404C 110.922,379.15 94.2549,341.316 106.5,290.5C 106.107,286.438 104.107,283.438 100.5,281.5 Z"/></g>
<g><path style="opacity:1" fill="#080604" d="M 123.5,248.5 C 125.452,250.578 126.452,253.078 126.5,256C 124.096,266.206 118.429,268.706 109.5,263.5C 103.755,251.833 107.422,246.333 120.5,247C 121.527,247.513 122.527,248.013 123.5,248.5 Z"/></g>
</svg>
