<?xml version="1.0" encoding="UTF-8"?>
<!DOCTYPE svg PUBLIC "-//W3C//DTD SVG 1.1//EN" "http://www.w3.org/Graphics/SVG/1.1/DTD/svg11.dtd">
<svg xmlns="http://www.w3.org/2000/svg" version="1.1" width="512px" height="512px" style="shape-rendering:geometricPrecision; text-rendering:geometricPrecision; image-rendering:optimizeQuality; fill-rule:evenodd; clip-rule:evenodd" xmlns:xlink="http://www.w3.org/1999/xlink">
<g><path style="opacity:0.977" fill="#98e8f2" d="M 116.5,-0.5 C 118.5,-0.5 120.5,-0.5 122.5,-0.5C 125.561,8.51426 128.727,17.5143 132,26.5C 139.424,30.1285 146.924,33.6285 154.5,37C 157.167,39.6667 157.167,42.3333 154.5,45C 146.924,48.3715 139.424,51.8715 132,55.5C 128.932,64.205 125.765,72.8717 122.5,81.5C 120.305,82.7691 118.139,82.7691 116,81.5C 113,73.1667 110,64.8333 107,56.5C 99.5259,51.8461 91.6926,47.8461 83.5,44.5C 82.1667,42.1667 82.1667,39.8333 83.5,37.5C 91.6926,34.1539 99.5259,30.1539 107,25.5C 110.077,16.7665 113.244,8.09987 116.5,-0.5 Z"/></g>
<g><path style="opacity:0.967" fill="#98e8f2" d="M 451.5,22.5 C 452.822,22.33 453.989,22.6634 455,23.5C 457.727,29.6794 460.06,36.0128 462,42.5C 467.643,45.7149 473.476,48.5482 479.5,51C 480.833,53 480.833,55 479.5,57C 473.437,59.4488 467.603,62.2822 462,65.5C 460.197,71.2422 458.197,76.9089 456,82.5C 454.522,85.9931 452.522,86.3264 450,83.5C 447.945,77.0578 445.612,70.7245 443,64.5C 437.575,61.8713 432.075,59.3713 426.5,57C 425.167,55 425.167,53 426.5,51C 432.246,48.256 437.912,45.4227 443.5,42.5C 445.647,35.5522 448.314,28.8855 451.5,22.5 Z"/></g>
<g><path style="opacity:0.913" fill="#74b7f2" d="M 242.5,29.5 C 250.684,29.5366 253.851,33.5366 252,41.5C 249.459,46.0685 245.625,47.5685 240.5,46C 233.633,39.4705 234.3,33.9705 242.5,29.5 Z"/></g>
<g><path style="opacity:0.989" fill="#4e0425" d="M 206.5,511.5 C 154.833,511.5 103.167,511.5 51.5,511.5C 24.2028,504.698 8.03616,487.365 3,459.5C 1.30672,443.251 5.30672,428.584 15,415.5C 35.4714,394.028 56.3048,372.862 77.5,352C 88.4155,343.378 100.749,337.711 114.5,335C 95.225,306.013 83.5584,274.18 79.5,239.5C 81.0154,219.986 91.3487,208.32 110.5,204.5C 105.028,173.795 117.362,154.295 147.5,146C 152.167,145.667 156.833,145.333 161.5,145C 194.351,105.419 236.684,86.7527 288.5,89C 321.06,69.0813 354.06,68.4147 387.5,87C 406.837,101.019 420.003,119.519 427,142.5C 451.402,156.247 467.736,176.581 476,203.5C 498.825,208.316 509.491,222.316 508,245.5C 497.442,311.664 464.108,362.664 408,398.5C 411.694,403.543 414.694,409.21 417,415.5C 420.254,438.172 410.754,452.006 388.5,457C 343.835,457.5 299.168,457.667 254.5,457.5C 250.81,486.519 234.81,504.519 206.5,511.5 Z"/></g>
<g><path style="opacity:1" fill="#e69c8d" d="M 328.5,94.5 C 359.686,91.8413 383.186,103.841 399,130.5C 403.449,139.179 407.115,148.179 410,157.5C 430.979,167.145 445.812,182.645 454.5,204C 347.597,204.832 240.764,204.665 134,203.5C 125.847,186.292 130.681,174.125 148.5,167C 156.271,166.934 163.938,166.267 171.5,165C 184.749,148.408 200.416,134.741 218.5,124C 233.994,116.632 250.328,112.299 267.5,111C 276.5,110.667 285.5,110.333 294.5,110C 304.795,102.349 316.129,97.1822 328.5,94.5 Z"/></g>
<g><path style="opacity:0.964" fill="#74b7f2" d="M 37.5,108.5 C 56.1586,107.518 63.9919,116.184 61,134.5C 55.0341,145.159 46.2007,148.325 34.5,144C 25.5037,138.012 22.6703,129.846 26,119.5C 28.4123,114.252 32.2456,110.586 37.5,108.5 Z"/></g>
<g><path style="opacity:1" fill="#510627" d="M 361.5,130.5 C 365.273,129.822 368.106,131.156 370,134.5C 370.667,141.167 370.667,147.833 370,154.5C 366.74,159.285 363.073,159.619 359,155.5C 358.333,148.167 358.333,140.833 359,133.5C 360.045,132.627 360.878,131.627 361.5,130.5 Z"/></g>
<g><path style="opacity:1" fill="#510727" d="M 317.5,147.5 C 320.785,147.269 323.285,148.603 325,151.5C 325.667,158.167 325.667,164.833 325,171.5C 321.74,176.285 318.073,176.619 314,172.5C 313.333,165.167 313.333,157.833 314,150.5C 315.145,149.364 316.312,148.364 317.5,147.5 Z"/></g>
<g><path style="opacity:1" fill="#98e7f1" d="M 111.5,225.5 C 209.502,225.167 307.502,225.5 405.5,226.5C 405.595,250.737 399.428,273.404 387,294.5C 351.457,350.617 300.29,377.117 233.5,374C 219.438,372.422 205.771,369.255 192.5,364.5C 179.096,349.962 162.762,340.295 143.5,335.5C 141.5,332.833 139.167,330.5 136.5,328.5C 115.719,301.002 103.886,270.002 101,235.5C 102.72,230.279 106.22,226.946 111.5,225.5 Z"/></g>
<g><path style="opacity:1" fill="#a4adf1" d="M 111.5,225.5 C 232.666,224.334 353.999,224.167 475.5,225C 482.652,226.484 486.652,230.817 487.5,238C 477.276,308.15 440.609,359.15 377.5,391C 324.167,391.667 270.833,391.667 217.5,391C 209.328,381.995 200.995,373.162 192.5,364.5C 205.771,369.255 219.438,372.422 233.5,374C 300.29,377.117 351.457,350.617 387,294.5C 399.428,273.404 405.595,250.737 405.5,226.5C 307.502,225.5 209.502,225.167 111.5,225.5 Z"/></g>
<g><path style="opacity:1" fill="#fefefe" d="M 139.5,252.5 C 145.509,252.334 151.509,252.501 157.5,253C 164.798,256.794 166.298,262.294 162,269.5C 160.581,270.46 159.081,271.293 157.5,272C 150.724,272.92 144.057,272.586 137.5,271C 131.721,264.067 132.388,257.901 139.5,252.5 Z"/></g>
<g><path style="opacity:1" fill="#fefefe" d="M 191.5,252.5 C 207.17,252.333 222.837,252.5 238.5,253C 245.498,256.182 247.331,261.349 244,268.5C 242.786,270.049 241.286,271.215 239.5,272C 223.167,272.667 206.833,272.667 190.5,272C 182.31,264.999 182.643,258.499 191.5,252.5 Z"/></g>
<g><path style="opacity:1" fill="#a0a6e6" d="M 136.5,328.5 C 139.167,330.5 141.5,332.833 143.5,335.5C 142.448,335.649 141.448,335.483 140.5,335C 138.915,332.931 137.581,330.764 136.5,328.5 Z"/></g>
<g><path style="opacity:1" fill="#e69c8d" d="M 134.5,355.5 C 148.465,369.965 162.631,384.299 177,398.5C 191.616,415.922 192.283,433.922 179,452.5C 172.384,459.727 164.217,464.227 154.5,466C 113.833,466.667 73.1667,466.667 32.5,466C 30.3225,464.798 27.9892,464.298 25.5,464.5C 21.1158,449.932 23.9491,436.932 34,425.5C 54.1949,404.971 74.6949,384.805 95.5,365C 107.346,357.22 120.346,354.054 134.5,355.5 Z"/></g>
<g><path style="opacity:1" fill="#dd748d" d="M 134.5,355.5 C 146.827,356.775 157.827,361.275 167.5,369C 187.362,388.528 206.862,408.362 226,428.5C 233.132,438.371 235.465,449.371 233,461.5C 228.099,478.398 216.932,488.232 199.5,491C 151.833,491.667 104.167,491.667 56.5,491C 41.3848,487.715 31.0515,478.882 25.5,464.5C 27.9892,464.298 30.3225,464.798 32.5,466C 73.1667,466.667 113.833,466.667 154.5,466C 164.217,464.227 172.384,459.727 179,452.5C 192.283,433.922 191.616,415.922 177,398.5C 162.631,384.299 148.465,369.965 134.5,355.5 Z"/></g>
<g><path style="opacity:1" fill="#97e5ef" d="M 239.5,413.5 C 289.332,412.335 339.332,412.168 389.5,413C 396.99,417.979 398.49,424.479 394,432.5C 392.065,434.102 389.899,435.269 387.5,436C 342.496,436.833 297.496,436.667 252.5,435.5C 249.665,427.146 245.332,419.812 239.5,413.5 Z"/></g>
<g><path style="opacity:1" fill="#560d2a" d="M 159.5,424.5 C 163.273,423.822 166.106,425.156 168,428.5C 168.667,435.167 168.667,441.833 168,448.5C 164,453.833 160,453.833 156,448.5C 155.333,441.833 155.333,435.167 156,428.5C 157.376,427.295 158.542,425.962 159.5,424.5 Z"/></g>
</svg>
