<?xml version="1.0" encoding="UTF-8"?>
<!DOCTYPE svg PUBLIC "-//W3C//DTD SVG 1.1//EN" "http://www.w3.org/Graphics/SVG/1.1/DTD/svg11.dtd">
<svg xmlns="http://www.w3.org/2000/svg" version="1.1" width="512px" height="512px" style="shape-rendering:geometricPrecision; text-rendering:geometricPrecision; image-rendering:optimizeQuality; fill-rule:evenodd; clip-rule:evenodd" xmlns:xlink="http://www.w3.org/1999/xlink">
<g><path style="opacity:0.989" fill="#030303" d="M 511.5,122.5 C 511.5,211.167 511.5,299.833 511.5,388.5C 510.038,389.458 508.705,390.624 507.5,392C 362.167,392.667 216.833,392.667 71.5,392C 67.9933,390.67 66.3266,388.17 66.5,384.5C 67.1077,381.042 69.1077,378.542 72.5,377C 169.833,376.667 267.167,376.333 364.5,376C 365.381,375.292 366.047,374.458 366.5,373.5C 367.497,353.34 367.83,333.007 367.5,312.5C 338.662,312.169 309.995,312.502 281.5,313.5C 280.078,313.709 278.745,314.209 277.5,315C 264.403,332.265 247.736,344.765 227.5,352.5C 204.303,360.087 180.969,360.42 157.5,353.5C 136.608,345.119 119.274,331.952 105.5,314C 104.552,313.517 103.552,313.351 102.5,313.5C 73.3381,312.502 44.0047,312.169 14.5,312.5C 14.3334,333.169 14.5,353.836 15,374.5C 15.5,375 16,375.5 16.5,376C 26.8333,376.333 37.1667,376.667 47.5,377C 52.0105,377.68 54.6772,380.18 55.5,384.5C 54.9588,387.749 53.2921,390.249 50.5,392C 38.5,392.667 26.5,392.667 14.5,392C 7.38267,389.71 2.38267,385.21 -0.5,378.5C -0.5,296.5 -0.5,214.5 -0.5,132.5C 2.38267,125.79 7.38267,121.29 14.5,119C 178.833,118.333 343.167,118.333 507.5,119C 508.705,120.376 510.038,121.542 511.5,122.5 Z"/></g>
<g><path style="opacity:1" fill="#193e5b" d="M 485.5,134.5 C 454.662,134.169 423.995,134.502 393.5,135.5C 392.957,135.44 392.624,135.107 392.5,134.5C 423.664,133.17 454.664,133.17 485.5,134.5 Z"/></g>
<g><path style="opacity:1" fill="#3d97dd" d="M 49.5,134.5 C 48.5226,155.454 48.1893,176.454 48.5,197.5C 65.5,197.5 82.5,197.5 99.5,197.5C 71.3382,198.498 43.0049,198.831 14.5,198.5C 14.3334,177.831 14.5,157.164 15,136.5C 15.5,136 16,135.5 16.5,135C 27.495,134.5 38.495,134.333 49.5,134.5 Z"/></g>
<g><path style="opacity:1" fill="#77b8ea" d="M 49.5,134.5 C 154.501,134.333 259.501,134.5 364.5,135C 365,135.5 365.5,136 366,136.5C 366.5,157.164 366.667,177.831 366.5,198.5C 355.162,198.333 343.828,198.5 332.5,199C 329.307,200.026 327.974,202.192 328.5,205.5C 324.167,205.5 319.833,205.5 315.5,205.5C 315.256,202.737 313.923,200.571 311.5,199C 301.401,198.951 291.401,198.284 281.5,197C 252.431,157.472 213.764,142.472 165.5,152C 150.279,156.11 136.613,163.11 124.5,173C 116.43,180.4 109.096,188.4 102.5,197C 101.552,197.483 100.552,197.649 99.5,197.5C 82.5,197.5 65.5,197.5 48.5,197.5C 48.1893,176.454 48.5226,155.454 49.5,134.5 Z"/></g>
<g><path style="opacity:1" fill="#3c98e0" d="M 485.5,134.5 C 470.204,150.964 454.704,167.297 439,183.5C 423.629,167.631 408.462,151.631 393.5,135.5C 423.995,134.502 454.662,134.169 485.5,134.5 Z"/></g>
<g><path style="opacity:1" fill="#2f7ab5" d="M 495.5,376.5 C 495.5,368.833 495.5,361.167 495.5,353.5C 495.833,284.665 495.499,215.998 494.5,147.5C 494.783,146.711 495.283,146.044 496,145.5C 496.832,222.668 496.666,299.668 495.5,376.5 Z"/></g>
<g><path style="opacity:1" fill="#3c99e1" d="M 382.5,146.5 C 398.8,162.967 414.966,179.634 431,196.5C 431.333,211.167 431.667,225.833 432,240.5C 436.671,246.998 441.338,246.998 446,240.5C 446.333,225.833 446.667,211.167 447,196.5C 462.7,179.967 478.534,163.634 494.5,147.5C 495.499,215.998 495.833,284.665 495.5,353.5C 479.5,353.5 463.5,353.5 447.5,353.5C 447.831,323.662 447.498,293.995 446.5,264.5C 445.767,260.107 443.1,257.774 438.5,257.5C 435.312,257.856 433.145,259.523 432,262.5C 431.5,292.832 431.333,323.165 431.5,353.5C 415.167,353.5 398.833,353.5 382.5,353.5C 382.5,284.5 382.5,215.5 382.5,146.5 Z"/></g>
<g><path style="opacity:1" fill="#fdd221" d="M 315.5,205.5 C 319.833,205.5 324.167,205.5 328.5,205.5C 328.43,209.601 330.43,212.101 334.5,213C 345.161,213.5 355.828,213.667 366.5,213.5C 366.5,241.5 366.5,269.5 366.5,297.5C 336.831,297.333 307.165,297.5 277.5,298C 274.623,298.956 271.956,300.289 269.5,302C 260.451,313.049 250.118,322.716 238.5,331C 202.652,349.689 168.319,347.355 135.5,324C 128.135,316.97 121.135,309.636 114.5,302C 112.283,300.725 109.949,299.725 107.5,299C 87.8795,297.562 68.2129,297.062 48.5,297.5C 48.5,269.5 48.5,241.5 48.5,213.5C 65.5033,213.667 82.5033,213.5 99.5,213C 106.594,212.703 112.427,209.869 117,204.5C 134.497,178.498 158.997,165.165 190.5,164.5C 225.066,164.614 251.733,179.114 270.5,208C 273.554,210.194 276.888,211.861 280.5,213C 290.167,213.667 299.833,213.667 309.5,213C 313.531,212.097 315.531,209.597 315.5,205.5 Z"/></g>
<g><path style="opacity:1" fill="#ecbd00" d="M 48.5,213.5 C 48.5,241.5 48.5,269.5 48.5,297.5C 37.1667,297.5 25.8333,297.5 14.5,297.5C 14.5,269.5 14.5,241.5 14.5,213.5C 25.8333,213.5 37.1667,213.5 48.5,213.5 Z"/></g>
<g><path style="opacity:1" fill="#060401" d="M 62.5,226.5 C 71.8845,226.184 81.2178,226.684 90.5,228C 92.6238,229.122 94.4571,230.622 96,232.5C 98.2098,238.647 97.8765,244.647 95,250.5C 94.0975,251.701 92.9308,252.535 91.5,253C 96.8863,255.946 99.553,260.446 99.5,266.5C 98.7012,281.613 90.7012,287.946 75.5,285.5C 71.5,285.333 67.5,285.167 63.5,285C 62.5838,284.626 61.7504,284.126 61,283.5C 60.3333,265.167 60.3333,246.833 61,228.5C 61.7172,227.956 62.2172,227.289 62.5,226.5 Z"/></g>
<g><path style="opacity:1" fill="#0c0901" d="M 108.5,226.5 C 111.883,226.257 115.049,226.924 118,228.5C 118.333,242.5 118.667,256.5 119,270.5C 120.393,273.366 122.726,274.699 126,274.5C 129.274,274.699 131.607,273.366 133,270.5C 133.333,256.5 133.667,242.5 134,228.5C 137.809,225.882 141.643,225.882 145.5,228.5C 146.649,242.788 146.816,257.122 146,271.5C 143.94,279.559 138.774,284.059 130.5,285C 118.379,287.361 110.212,282.861 106,271.5C 105.333,257.167 105.333,242.833 106,228.5C 106.995,227.934 107.828,227.267 108.5,226.5 Z"/></g>
<g><path style="opacity:1" fill="#090601" d="M 153.5,226.5 C 165.838,226.333 178.171,226.5 190.5,227C 192.768,230.071 193.101,233.404 191.5,237C 187.179,237.499 182.846,237.666 178.5,237.5C 178.667,252.504 178.5,267.504 178,282.5C 176.352,284.028 174.352,284.695 172,284.5C 169.648,284.695 167.648,284.028 166,282.5C 165.5,267.504 165.333,252.504 165.5,237.5C 161.486,237.666 157.486,237.499 153.5,237C 150.88,233.502 150.88,230.002 153.5,226.5 Z"/></g>
<g><path style="opacity:1" fill="#010000" d="M 209.5,281.5 C 209.5,266.833 209.5,252.167 209.5,237.5C 205.5,237.5 201.5,237.5 197.5,237.5C 194.054,234.319 193.721,230.819 196.5,227C 209.167,226.333 221.833,226.333 234.5,227C 237.077,230.262 237.077,233.595 234.5,237C 230.179,237.499 225.846,237.666 221.5,237.5C 221.833,252.848 221.499,268.181 220.5,283.5C 217.562,284.575 214.562,284.741 211.5,284C 210.619,283.292 209.953,282.458 209.5,281.5 Z"/></g>
<g><path style="opacity:1" fill="#0d0902" d="M 244.5,226.5 C 255.505,226.333 266.505,226.5 277.5,227C 280.077,230.262 280.077,233.595 277.5,237C 269.841,237.5 262.174,237.666 254.5,237.5C 254.5,241.833 254.5,246.167 254.5,250.5C 258.846,250.334 263.179,250.501 267.5,251C 270.167,254 270.167,257 267.5,260C 263.179,260.499 258.846,260.666 254.5,260.5C 254.5,265.167 254.5,269.833 254.5,274.5C 262.174,274.334 269.841,274.5 277.5,275C 280.343,278.619 280.01,281.952 276.5,285C 265.833,285.667 255.167,285.667 244.5,285C 243.667,284.167 242.833,283.333 242,282.5C 241.333,264.5 241.333,246.5 242,228.5C 242.995,227.934 243.828,227.267 244.5,226.5 Z"/></g>
<g><path style="opacity:1" fill="#090701" d="M 286.5,226.5 C 294.84,226.334 303.173,226.5 311.5,227C 317.64,227.645 321.807,230.812 324,236.5C 326.921,246.579 324.087,254.412 315.5,260C 318.841,266.349 322.174,272.682 325.5,279C 323.968,283.959 320.635,285.959 315.5,285C 311.207,277.581 307.04,270.081 303,262.5C 301.301,261.594 299.467,261.261 297.5,261.5C 297.666,268.508 297.5,275.508 297,282.5C 295.352,284.028 293.352,284.695 291,284.5C 288.648,284.695 286.648,284.028 285,282.5C 284.333,264.5 284.333,246.5 285,228.5C 285.717,227.956 286.217,227.289 286.5,226.5 Z"/></g>
<g><path style="opacity:1" fill="#f9cf21" d="M 72.5,237.5 C 76.1817,237.335 79.8484,237.501 83.5,238C 86.4133,241.74 86.08,245.074 82.5,248C 79.1832,248.498 75.8499,248.665 72.5,248.5C 72.5,244.833 72.5,241.167 72.5,237.5 Z"/></g>
<g><path style="opacity:1" fill="#f6cd20" d="M 297.5,237.5 C 301.514,237.334 305.514,237.501 309.5,238C 313.122,242.002 313.456,246.335 310.5,251C 306.3,252.367 301.967,252.867 297.5,252.5C 297.5,247.5 297.5,242.5 297.5,237.5 Z"/></g>
<g><path style="opacity:1" fill="#c9a71b" d="M 197.5,237.5 C 201.5,237.5 205.5,237.5 209.5,237.5C 209.5,252.167 209.5,266.833 209.5,281.5C 208.504,267.343 208.171,253.01 208.5,238.5C 204.629,238.815 200.962,238.482 197.5,237.5 Z"/></g>
<g><path style="opacity:1" fill="#f8ce21" d="M 72.5,258.5 C 84.4867,255.321 88.9867,259.655 86,271.5C 85.5,272 85,272.5 84.5,273C 80.6372,274.354 76.6372,274.854 72.5,274.5C 72.5,269.167 72.5,263.833 72.5,258.5 Z"/></g>
<g><path style="opacity:1" fill="#3d99e0" d="M 102.5,313.5 C 84.5,313.5 66.5,313.5 48.5,313.5C 48.3336,321.507 48.5003,329.507 49,337.5C 51.0133,344.181 55.18,349.014 61.5,352C 93.4374,353.478 125.437,353.978 157.5,353.5C 180.969,360.42 204.303,360.087 227.5,352.5C 273.664,353.499 319.997,353.832 366.5,353.5C 366.5,360.167 366.5,366.833 366.5,373.5C 366.047,374.458 365.381,375.292 364.5,376C 267.167,376.333 169.833,376.667 72.5,377C 69.1077,378.542 67.1077,381.042 66.5,384.5C 62.8333,384.5 59.1667,384.5 55.5,384.5C 54.6772,380.18 52.0105,377.68 47.5,377C 37.1667,376.667 26.8333,376.333 16.5,376C 16,375.5 15.5,375 15,374.5C 14.5,353.836 14.3334,333.169 14.5,312.5C 44.0047,312.169 73.3381,312.502 102.5,313.5 Z"/></g>
<g><path style="opacity:1" fill="#77b8ea" d="M 102.5,313.5 C 103.552,313.351 104.552,313.517 105.5,314C 119.274,331.952 136.608,345.119 157.5,353.5C 125.437,353.978 93.4374,353.478 61.5,352C 55.18,349.014 51.0133,344.181 49,337.5C 48.5003,329.507 48.3336,321.507 48.5,313.5C 66.5,313.5 84.5,313.5 102.5,313.5 Z"/></g>
<g><path style="opacity:1" fill="#77b8ea" d="M 281.5,313.5 C 309.833,313.5 338.167,313.5 366.5,313.5C 366.5,326.833 366.5,340.167 366.5,353.5C 319.997,353.832 273.664,353.499 227.5,352.5C 247.736,344.765 264.403,332.265 277.5,315C 278.745,314.209 280.078,313.709 281.5,313.5 Z"/></g>
<g><path style="opacity:1" fill="#2f4b61" d="M 281.5,313.5 C 309.995,312.502 338.662,312.169 367.5,312.5C 367.83,333.007 367.497,353.34 366.5,373.5C 366.5,366.833 366.5,360.167 366.5,353.5C 366.5,340.167 366.5,326.833 366.5,313.5C 338.167,313.5 309.833,313.5 281.5,313.5 Z"/></g>
<g><path style="opacity:1" fill="#1f7ac1" d="M 382.5,146.5 C 382.5,215.5 382.5,284.5 382.5,353.5C 398.833,353.5 415.167,353.5 431.5,353.5C 431.5,361.167 431.5,368.833 431.5,376.5C 414.833,376.5 398.167,376.5 381.5,376.5C 381.167,299.096 381.5,222.429 382.5,146.5 Z"/></g>
<g><path style="opacity:1" fill="#1f7fca" d="M 446.5,264.5 C 447.498,293.995 447.831,323.662 447.5,353.5C 463.5,353.5 479.5,353.5 495.5,353.5C 495.5,361.167 495.5,368.833 495.5,376.5C 479.167,376.5 462.833,376.5 446.5,376.5C 446.5,339.167 446.5,301.833 446.5,264.5 Z"/></g>
</svg>
