<?xml version="1.0" encoding="UTF-8"?>
<!DOCTYPE svg PUBLIC "-//W3C//DTD SVG 1.1//EN" "http://www.w3.org/Graphics/SVG/1.1/DTD/svg11.dtd">
<svg xmlns="http://www.w3.org/2000/svg" version="1.1" width="512px" height="512px" style="shape-rendering:geometricPrecision; text-rendering:geometricPrecision; image-rendering:optimizeQuality; fill-rule:evenodd; clip-rule:evenodd" xmlns:xlink="http://www.w3.org/1999/xlink">
<g><path style="opacity:0.97" fill="#010000" d="M 230.5,-0.5 C 241.833,-0.5 253.167,-0.5 264.5,-0.5C 294.193,3.89733 322.359,13.2307 349,27.5C 377.123,14.6245 406.29,5.29113 436.5,-0.5C 440.833,-0.5 445.167,-0.5 449.5,-0.5C 466.75,6.33915 475.917,19.0058 477,37.5C 438.247,87.0066 410.58,142.34 394,203.5C 389.432,221.577 386.598,239.91 385.5,258.5C 438.593,271.76 471.426,305.093 484,358.5C 491.984,408.894 476.817,450.727 438.5,484C 419.146,498.726 397.479,507.893 373.5,511.5C 363.167,511.5 352.833,511.5 342.5,511.5C 292.765,503.122 257.765,475.789 237.5,429.5C 195.113,463.007 148.78,469.507 98.5,449C 51.2724,424.754 26.6057,385.921 24.5,332.5C 26.5986,277.106 52.5986,237.606 102.5,214C 120.189,207.162 138.522,203.329 157.5,202.5C 161.459,195.413 165.792,188.58 170.5,182C 148.823,174.827 128.156,165.493 108.5,154C 103.769,150.538 101.436,145.872 101.5,140C 110.171,106.159 125.338,75.6588 147,48.5C 168.468,21.1874 196.301,4.85412 230.5,-0.5 Z M 389.5,68.5 C 390.552,68.3505 391.552,68.5172 392.5,69C 374.77,96.8302 361.27,126.663 352,158.5C 342.601,190.893 336.434,223.893 333.5,257.5C 310.831,261.835 290.831,271.502 273.5,286.5C 261.075,255.574 240.075,232.408 210.5,217C 216.253,208.159 222.253,199.492 228.5,191C 263.512,189.906 293.012,176.739 317,151.5C 335.652,130.811 350.319,107.478 361,81.5C 370.458,76.8573 379.958,72.524 389.5,68.5 Z"/></g>
<g><path style="opacity:1" fill="#008900" d="M 305.5,27.5 C 314.102,32.395 322.768,37.395 331.5,42.5C 287.69,45.6197 246.357,57.453 207.5,78C 197.206,83.7303 187.706,90.5637 179,98.5C 178.079,106.574 181.579,110.408 189.5,110C 230.613,80.2947 276.613,63.7947 327.5,60.5C 329.604,60.2011 331.604,60.5344 333.5,61.5C 321.61,97.137 302.277,127.97 275.5,154C 268.275,159.435 260.942,164.601 253.5,169.5C 240.538,173.213 227.205,174.38 213.5,173C 180.16,168.61 149.16,157.777 120.5,140.5C 129.971,102.828 148.638,70.3281 176.5,43C 195.74,25.553 218.406,16.7197 244.5,16.5C 265.462,17.0483 285.795,20.715 305.5,27.5 Z"/></g>
<g><path style="opacity:1" fill="#5ea516" d="M 439.5,16.5 C 447.479,16.6279 453.312,20.2946 457,27.5C 458.301,29.3646 458.635,31.3646 458,33.5C 414.144,90.8972 385.144,155.231 371,226.5C 369.272,236.093 368.439,245.76 368.5,255.5C 362.833,255.5 357.167,255.5 351.5,255.5C 356.443,189.507 376.277,128.507 411,72.5C 414.955,66.8767 419.288,61.5434 424,56.5C 427.736,46.9214 424.569,42.4214 414.5,43C 399.087,46.5818 384.253,51.7485 370,58.5C 370.492,53.5506 370.492,48.5506 370,43.5C 369.365,42.0337 368.531,40.7003 367.5,39.5C 376.365,34.8148 385.699,30.9815 395.5,28C 410.142,23.579 424.809,19.7456 439.5,16.5 Z"/></g>
<g><path style="opacity:1" fill="#007200" d="M 305.5,27.5 C 317.178,31.4506 328.511,36.284 339.5,42C 336.854,42.4974 334.187,42.6641 331.5,42.5C 322.768,37.395 314.102,32.395 305.5,27.5 Z"/></g>
<g><path style="opacity:1" fill="#007600" d="M 327.5,60.5 C 335.01,59.1801 342.677,59.1801 350.5,60.5C 340.268,88.9818 325.435,114.648 306,137.5C 291.643,153.363 274.143,164.03 253.5,169.5C 260.942,164.601 268.275,159.435 275.5,154C 302.277,127.97 321.61,97.137 333.5,61.5C 331.604,60.5344 329.604,60.2011 327.5,60.5 Z"/></g>
<g><path style="opacity:1" fill="#5da316" d="M 188.5,186.5 C 194.888,187.111 201.221,188.111 207.5,189.5C 203.333,195.833 199.167,202.167 195,208.5C 194.196,209.804 193.029,210.471 191.5,210.5C 186.913,209.02 182.246,207.853 177.5,207C 177.043,206.586 176.709,206.086 176.5,205.5C 180.527,199.149 184.527,192.816 188.5,186.5 Z"/></g>
<g><path style="opacity:1" fill="#ee314b" d="M 183.5,225.5 C 189.653,230.137 195.986,234.637 202.5,239C 222.947,255.871 236.613,277.204 243.5,303C 216.391,334.934 207.225,371.434 216,412.5C 206.421,422.931 195.588,431.597 183.5,438.5C 136.817,450.322 97.6503,437.989 66,401.5C 41.2764,367.39 35.943,330.39 50,290.5C 73.5971,241.284 112.764,218.451 167.5,222C 172.855,223.121 178.189,224.288 183.5,225.5 Z"/></g>
<g><path style="opacity:1" fill="#b8183a" d="M 183.5,225.5 C 221.601,237.768 246.934,262.934 259.5,301C 234.348,333.372 225.015,369.872 231.5,410.5C 217.93,423.953 201.93,433.287 183.5,438.5C 195.588,431.597 206.421,422.931 216,412.5C 207.225,371.434 216.391,334.934 243.5,303C 236.613,277.204 222.947,255.871 202.5,239C 195.986,234.637 189.653,230.137 183.5,225.5 Z"/></g>
<g><path style="opacity:1" fill="#f5f1f2" d="M 140.5,238.5 C 145.511,238.334 150.511,238.501 155.5,239C 162.227,242.506 163.227,247.339 158.5,253.5C 134.633,254.354 114.133,263.021 97,279.5C 90.5492,287.566 84.7158,296.066 79.5,305C 70.5443,307.385 66.3776,303.885 67,294.5C 82.2898,263.619 106.79,244.953 140.5,238.5 Z"/></g>
<g><path style="opacity:1" fill="#ee314c" d="M 387.5,276.5 C 439.089,308.048 459.256,353.715 448,413.5C 438.013,447.303 417.846,472.97 387.5,490.5C 334.959,501.8 293.459,485.467 263,441.5C 248.578,416.218 243.911,389.218 249,360.5C 261.467,313.699 291.301,284.866 338.5,274C 355.024,271.494 371.358,272.327 387.5,276.5 Z"/></g>
<g><path style="opacity:1" fill="#b8183a" d="M 387.5,276.5 C 429.977,289.812 456.477,318.146 467,361.5C 474.307,419.067 452.14,460.567 400.5,486C 396.106,487.409 391.772,488.909 387.5,490.5C 417.846,472.97 438.013,447.303 448,413.5C 459.256,353.715 439.089,308.048 387.5,276.5 Z"/></g>
<g><path style="opacity:1" fill="#f5f1f2" d="M 346.5,289.5 C 351.959,289.103 357.292,289.603 362.5,291C 367.965,296.353 367.632,301.353 361.5,306C 338.24,306.053 318.407,314.219 302,330.5C 295.549,338.566 289.716,347.066 284.5,356C 275.544,358.385 271.378,354.885 272,345.5C 287.445,314.359 312.278,295.692 346.5,289.5 Z"/></g>
<g><path style="opacity:1" fill="#f5eeef" d="M 65.5,323.5 C 72.9852,323.483 76.4852,327.15 76,334.5C 73.9172,339.904 70.0838,341.737 64.5,340C 59.9315,337.459 58.4315,333.625 60,328.5C 61.7297,326.598 63.563,324.931 65.5,323.5 Z"/></g>
<g><path style="opacity:1" fill="#f5eff0" d="M 268.5,375.5 C 275.622,373.885 279.955,376.552 281.5,383.5C 279.951,390.612 275.618,393.112 268.5,391C 263.208,385.835 263.208,380.668 268.5,375.5 Z"/></g>
</svg>
