<?xml version="1.0" encoding="UTF-8"?>
<!DOCTYPE svg PUBLIC "-//W3C//DTD SVG 1.1//EN" "http://www.w3.org/Graphics/SVG/1.1/DTD/svg11.dtd">
<svg xmlns="http://www.w3.org/2000/svg" version="1.1" width="512px" height="512px" style="shape-rendering:geometricPrecision; text-rendering:geometricPrecision; image-rendering:optimizeQuality; fill-rule:evenodd; clip-rule:evenodd" xmlns:xlink="http://www.w3.org/1999/xlink">
<g><path style="opacity:0.988" fill="#010101" d="M 152.5,7.5 C 231.834,7.33334 311.167,7.5 390.5,8C 400.756,11.5872 406.589,18.7539 408,29.5C 408.667,70.5 408.667,111.5 408,152.5C 407.361,155.112 406.194,157.446 404.5,159.5C 406.194,161.554 407.361,163.888 408,166.5C 408.333,193.833 408.667,221.167 409,248.5C 415.994,255.484 420.661,263.818 423,273.5C 429.314,306.217 434.814,339.05 439.5,372C 439.687,384.794 434.853,395.294 425,403.5C 424.667,415.833 424.333,428.167 424,440.5C 423.503,445.828 421.169,450.162 417,453.5C 416.884,464.882 416.217,476.215 415,487.5C 412.401,495.766 406.901,500.932 398.5,503C 313.833,503.667 229.167,503.667 144.5,503C 136.333,500.167 130.833,494.667 128,486.5C 127.667,475.5 127.333,464.5 127,453.5C 123.607,451.773 121.274,449.106 120,445.5C 119.873,420.479 119.206,395.479 118,370.5C 115.368,361.528 111.368,353.194 106,345.5C 100.006,331.108 99.5058,316.608 104.5,302C 93.0422,289.541 81.2089,277.374 69,265.5C 60.2851,252.792 61.1184,240.625 71.5,229C 81.4743,221.809 91.8076,221.142 102.5,227C 108.302,231.8 113.802,236.967 119,242.5C 120.381,231.799 125.714,223.799 135,218.5C 135.333,200.167 135.667,181.833 136,163.5C 136.635,162.034 137.469,160.7 138.5,159.5C 137.469,158.3 136.635,156.966 136,155.5C 135.333,111.833 135.333,68.1667 136,24.5C 139.019,16.3156 144.519,10.649 152.5,7.5 Z"/></g>
<g><path style="opacity:1" fill="#cf9568" d="M 263.5,147.5 C 226.167,147.5 188.833,147.5 151.5,147.5C 151.012,107.081 151.512,66.7478 153,26.5C 153.903,25.2986 155.069,24.4652 156.5,24C 192.165,23.5 227.832,23.3333 263.5,23.5C 263.5,64.8333 263.5,106.167 263.5,147.5 Z"/></g>
<g><path style="opacity:1" fill="#cf9568" d="M 391.5,147.5 C 354.167,147.5 316.833,147.5 279.5,147.5C 279.5,106.167 279.5,64.8333 279.5,23.5C 315.168,23.3333 350.835,23.5 386.5,24C 387.931,24.4652 389.097,25.2986 390,26.5C 391.488,66.7478 391.988,107.081 391.5,147.5 Z"/></g>
<g><path style="opacity:1" fill="#010000" d="M 170.5,31.5 C 194.836,31.3334 219.169,31.5 243.5,32C 248.91,33.7425 252.744,37.2425 255,42.5C 255.667,71.8333 255.667,101.167 255,130.5C 253.61,136.891 249.776,141.058 243.5,143C 219.167,143.667 194.833,143.667 170.5,143C 165.269,140.768 161.769,136.935 160,131.5C 159.333,102.167 159.333,72.8333 160,43.5C 161.936,38.0678 165.436,34.0678 170.5,31.5 Z"/></g>
<g><path style="opacity:1" fill="#010000" d="M 298.5,31.5 C 322.836,31.3334 347.169,31.5 371.5,32C 376.91,33.7425 380.744,37.2425 383,42.5C 383.667,71.8333 383.667,101.167 383,130.5C 381.61,136.891 377.776,141.058 371.5,143C 347.167,143.667 322.833,143.667 298.5,143C 293.269,140.768 289.769,136.935 288,131.5C 287.333,102.167 287.333,72.8333 288,43.5C 289.936,38.0678 293.436,34.0678 298.5,31.5 Z"/></g>
<g><path style="opacity:1" fill="#a56942" d="M 175.5,47.5 C 196.833,47.5 218.167,47.5 239.5,47.5C 239.5,74.1667 239.5,100.833 239.5,127.5C 218.167,127.5 196.833,127.5 175.5,127.5C 175.5,100.833 175.5,74.1667 175.5,47.5 Z"/></g>
<g><path style="opacity:1" fill="#a56942" d="M 303.5,47.5 C 324.833,47.5 346.167,47.5 367.5,47.5C 367.5,74.1667 367.5,100.833 367.5,127.5C 346.167,127.5 324.833,127.5 303.5,127.5C 303.5,100.833 303.5,74.1667 303.5,47.5 Z"/></g>
<g><path style="opacity:1" fill="#a56942" d="M 151.5,147.5 C 188.833,147.5 226.167,147.5 263.5,147.5C 263.5,148.833 263.5,150.167 263.5,151.5C 227.165,151.667 190.832,151.5 154.5,151C 153.29,149.961 152.29,148.794 151.5,147.5 Z"/></g>
<g><path style="opacity:1" fill="#a56942" d="M 279.5,147.5 C 316.833,147.5 354.167,147.5 391.5,147.5C 390.71,148.794 389.71,149.961 388.5,151C 352.168,151.5 315.835,151.667 279.5,151.5C 279.5,150.167 279.5,148.833 279.5,147.5 Z"/></g>
<g><path style="opacity:1" fill="#d19669" d="M 263.5,171.5 C 226.167,171.5 188.833,171.5 151.5,171.5C 152.29,170.206 153.29,169.039 154.5,168C 190.832,167.5 227.165,167.333 263.5,167.5C 263.5,168.833 263.5,170.167 263.5,171.5 Z"/></g>
<g><path style="opacity:1" fill="#d19669" d="M 391.5,171.5 C 354.167,171.5 316.833,171.5 279.5,171.5C 279.5,170.167 279.5,168.833 279.5,167.5C 315.835,167.333 352.168,167.5 388.5,168C 389.71,169.039 390.71,170.206 391.5,171.5 Z"/></g>
<g><path style="opacity:1" fill="#f7c598" d="M 151.5,171.5 C 188.833,171.5 226.167,171.5 263.5,171.5C 263.5,191.833 263.5,212.167 263.5,232.5C 260.833,233.167 258.167,233.833 255.5,234.5C 255.667,218.497 255.5,202.497 255,186.5C 252.744,181.243 248.91,177.743 243.5,176C 219.167,175.333 194.833,175.333 170.5,176C 165.243,178.256 161.743,182.09 160,187.5C 159.832,197.517 159.332,207.517 158.5,217.5C 156.253,216.626 153.92,216.292 151.5,216.5C 151.5,201.5 151.5,186.5 151.5,171.5 Z"/></g>
<g><path style="opacity:1" fill="#f7c498" d="M 279.5,171.5 C 316.833,171.5 354.167,171.5 391.5,171.5C 391.5,193.833 391.5,216.167 391.5,238.5C 388.801,238.534 386.301,237.867 384,236.5C 383.667,219.833 383.333,203.167 383,186.5C 380.744,181.243 376.91,177.743 371.5,176C 346.413,175.019 321.413,175.353 296.5,177C 292.183,179.315 289.35,182.815 288,187.5C 287.5,200.496 287.333,213.496 287.5,226.5C 284.833,226.833 282.167,227.167 279.5,227.5C 279.5,208.833 279.5,190.167 279.5,171.5 Z"/></g>
<g><path style="opacity:1" fill="#d19669" d="M 175.5,191.5 C 196.833,191.5 218.167,191.5 239.5,191.5C 239.5,207.167 239.5,222.833 239.5,238.5C 216.886,242.71 195.886,238.71 176.5,226.5C 175.501,214.852 175.168,203.186 175.5,191.5 Z"/></g>
<g><path style="opacity:1" fill="#d09669" d="M 303.5,191.5 C 324.833,191.5 346.167,191.5 367.5,191.5C 367.833,204.85 367.499,218.183 366.5,231.5C 345.966,225.308 324.966,222.642 303.5,223.5C 303.5,212.833 303.5,202.167 303.5,191.5 Z"/></g>
<g><path style="opacity:1" fill="#f4f6fd" d="M 415.5,389.5 C 391.094,382.31 366.761,374.81 342.5,367C 330.288,361.784 320.121,353.951 312,343.5C 305.653,326.945 295.153,313.779 280.5,304C 251.833,289.667 223.167,275.333 194.5,261C 182.952,256.449 170.952,254.449 158.5,255C 151.025,253.806 144.025,251.306 137.5,247.5C 136.534,245.604 136.201,243.604 136.5,241.5C 140.106,232.791 146.439,229.958 155.5,233C 167.608,241.093 180.608,247.427 194.5,252C 211.338,255.884 228.338,256.55 245.5,254C 261.338,249.054 277.338,244.72 293.5,241C 316.548,237.775 339.215,239.441 361.5,246C 372.984,249.606 384.318,253.606 395.5,258C 401.25,263.329 405.084,269.829 407,277.5C 412.548,306.787 417.881,336.121 423,365.5C 424.989,375.028 422.489,383.028 415.5,389.5 Z"/></g>
<g><path style="opacity:1" fill="#a46842" d="M 85.5,239.5 C 88.3198,239.248 90.9865,239.748 93.5,241C 104.333,251.833 115.167,262.667 126,273.5C 126.667,274.167 126.667,274.833 126,275.5C 121.7,278.798 117.7,282.465 114,286.5C 103,275.5 92,264.5 81,253.5C 78.2144,247.414 79.7144,242.747 85.5,239.5 Z"/></g>
<g><path style="opacity:1" fill="#dfe4f4" d="M 136.5,241.5 C 136.201,243.604 136.534,245.604 137.5,247.5C 144.025,251.306 151.025,253.806 158.5,255C 170.952,254.449 182.952,256.449 194.5,261C 223.167,275.333 251.833,289.667 280.5,304C 295.153,313.779 305.653,326.945 312,343.5C 320.121,353.951 330.288,361.784 342.5,367C 366.761,374.81 391.094,382.31 415.5,389.5C 409.517,394.803 402.517,396.637 394.5,395C 362.582,385.854 330.582,377.021 298.5,368.5C 280.159,320.994 246.159,291.494 196.5,280C 180.326,267.789 162.326,263.456 142.5,267C 140.333,264.833 138.167,262.667 136,260.5C 135.18,253.986 135.347,247.653 136.5,241.5 Z"/></g>
<g><path style="opacity:1" fill="#f5c397" d="M 293.5,448.5 C 283.161,448.666 272.828,448.5 262.5,448C 261.944,447.617 261.611,447.117 261.5,446.5C 263.265,443.291 265.265,440.291 267.5,437.5C 269.833,435.833 271.833,433.833 273.5,431.5C 276.179,429.399 279.012,427.399 282,425.5C 268.403,397.177 250.903,371.344 229.5,348C 222.018,341.428 214.351,335.095 206.5,329C 190,318.582 173.333,308.416 156.5,298.5C 153.677,301.475 151.344,304.808 149.5,308.5C 146.833,309.167 145.167,310.833 144.5,313.5C 141.649,315.505 138.649,317.338 135.5,319C 134.483,320.049 134.316,321.216 135,322.5C 142.667,335.167 150.333,347.833 158,360.5C 171.326,381.83 188.159,399.996 208.5,415C 225.528,425.511 242.528,436.011 259.5,446.5C 250.856,447.441 242.189,446.607 233.5,444C 225.281,441.556 217.281,438.556 209.5,435C 207.937,434.241 206.937,433.074 206.5,431.5C 208.174,429.376 209.007,427.042 209,424.5C 190.082,411.583 173.748,395.916 160,377.5C 158.028,379.232 155.861,380.565 153.5,381.5C 147.022,369.916 142.189,357.582 139,344.5C 136.174,338.178 132.841,332.178 129,326.5C 125.103,317.461 123.936,308.127 125.5,298.5C 138.036,282.196 154.036,277.696 173.5,285C 179.913,289.068 186.579,292.735 193.5,296C 249.754,310.256 282.254,346.089 291,403.5C 291.333,416.833 291.667,430.167 292,443.5C 292.608,445.154 293.108,446.821 293.5,448.5 Z"/></g>
<g><path style="opacity:1" fill="#040302" d="M 273.5,431.5 C 271.761,432.434 270.095,432.434 268.5,431.5C 257.917,413.998 247.084,396.665 236,379.5C 223.379,363.21 208.546,349.376 191.5,338C 176.632,329.739 162.299,320.739 148.5,311C 148.743,310.098 149.077,309.265 149.5,308.5C 151.344,304.808 153.677,301.475 156.5,298.5C 173.333,308.416 190,318.582 206.5,329C 214.351,335.095 222.018,341.428 229.5,348C 250.903,371.344 268.403,397.177 282,425.5C 279.012,427.399 276.179,429.399 273.5,431.5 Z"/></g>
<g><path style="opacity:1" fill="#cd9367" d="M 125.5,298.5 C 123.936,308.127 125.103,317.461 129,326.5C 132.841,332.178 136.174,338.178 139,344.5C 142.189,357.582 147.022,369.916 153.5,381.5C 151.396,383.099 149.396,384.932 147.5,387C 162.109,407.777 180.109,424.943 201.5,438.5C 202.943,435.923 204.61,433.59 206.5,431.5C 206.937,433.074 207.937,434.241 209.5,435C 217.281,438.556 225.281,441.556 233.5,444C 242.189,446.607 250.856,447.441 259.5,446.5C 260.167,446.5 260.833,446.5 261.5,446.5C 261.611,447.117 261.944,447.617 262.5,448C 272.828,448.5 283.161,448.666 293.5,448.5C 295.67,452.984 297.67,457.65 299.5,462.5C 299,462.833 298.5,463.167 298,463.5C 291.833,461 285.667,458.5 279.5,456C 232.145,461.442 191.978,447.275 159,413.5C 144.54,395.911 134.874,375.911 130,353.5C 124.632,345.806 120.632,337.472 118,328.5C 115.928,317.24 118.428,307.24 125.5,298.5 Z"/></g>
<g><path style="opacity:1" fill="#050302" d="M 267.5,437.5 C 265.265,440.291 263.265,443.291 261.5,446.5C 260.833,446.5 260.167,446.5 259.5,446.5C 242.528,436.011 225.528,425.511 208.5,415C 188.159,399.996 171.326,381.83 158,360.5C 150.333,347.833 142.667,335.167 135,322.5C 134.316,321.216 134.483,320.049 135.5,319C 138.649,317.338 141.649,315.505 144.5,313.5C 146.274,312.119 147.774,312.452 149,314.5C 160.484,334.973 173.151,354.64 187,373.5C 196.231,383.401 206.064,392.567 216.5,401C 232.902,411.729 249.568,422.063 266.5,432C 268.83,433.488 269.164,435.321 267.5,437.5 Z"/></g>
<g><path style="opacity:1" fill="#050402" d="M 221.5,311.5 C 241.812,325.646 258.979,342.979 273,363.5C 273.684,364.784 273.517,365.951 272.5,367C 268.667,369.5 264.833,372 261,374.5C 248.443,354.774 232.609,338.108 213.5,324.5C 216.44,320.278 219.106,315.945 221.5,311.5 Z"/></g>
<g><path style="opacity:1" fill="#ce9468" d="M 149.5,308.5 C 149.077,309.265 148.743,310.098 148.5,311C 162.299,320.739 176.632,329.739 191.5,338C 208.546,349.376 223.379,363.21 236,379.5C 247.084,396.665 257.917,413.998 268.5,431.5C 270.095,432.434 271.761,432.434 273.5,431.5C 271.833,433.833 269.833,435.833 267.5,437.5C 269.164,435.321 268.83,433.488 266.5,432C 249.568,422.063 232.902,411.729 216.5,401C 206.064,392.567 196.231,383.401 187,373.5C 173.151,354.64 160.484,334.973 149,314.5C 147.774,312.452 146.274,312.119 144.5,313.5C 145.167,310.833 146.833,309.167 149.5,308.5 Z"/></g>
<g><path style="opacity:1" fill="#060302" d="M 206.5,431.5 C 204.61,433.59 202.943,435.923 201.5,438.5C 180.109,424.943 162.109,407.777 147.5,387C 149.396,384.932 151.396,383.099 153.5,381.5C 155.861,380.565 158.028,379.232 160,377.5C 173.748,395.916 190.082,411.583 209,424.5C 209.007,427.042 208.174,429.376 206.5,431.5 Z"/></g>
<g><path style="opacity:1" fill="#933427" d="M 378.5,407.5 C 366.495,407.333 354.495,407.5 342.5,408C 327.38,413.078 319.713,423.578 319.5,439.5C 315.5,439.5 311.5,439.5 307.5,439.5C 308.412,421.951 307.079,404.617 303.5,387.5C 304,387.167 304.5,386.833 305,386.5C 329.734,393.143 354.234,400.143 378.5,407.5 Z"/></g>
<g><path style="opacity:1" fill="#c54534" d="M 378.5,407.5 C 383.813,408.661 389.146,409.828 394.5,411C 398.871,411.629 403.204,411.463 407.5,410.5C 407.5,420.167 407.5,429.833 407.5,439.5C 378.167,439.5 348.833,439.5 319.5,439.5C 319.713,423.578 327.38,413.078 342.5,408C 354.495,407.5 366.495,407.333 378.5,407.5 Z"/></g>
<g><path style="opacity:1" fill="#923327" d="M 135.5,409.5 C 143.453,420.196 152.453,430.029 162.5,439C 153.506,439.5 144.506,439.666 135.5,439.5C 135.5,429.5 135.5,419.5 135.5,409.5 Z"/></g>
<g><path style="opacity:1" fill="#dfe4f4" d="M 205.5,463.5 C 192.426,463.057 179.426,463.557 166.5,465C 156.853,469.467 151.853,476.967 151.5,487.5C 147.91,487.456 145.41,485.789 144,482.5C 143.5,473.506 143.334,464.506 143.5,455.5C 158.504,455.333 173.504,455.5 188.5,456C 194.257,458.55 199.923,461.05 205.5,463.5 Z"/></g>
<g><path style="opacity:1" fill="#e1e6f6" d="M 399.5,463.5 C 371.5,463.5 343.5,463.5 315.5,463.5C 315.425,460.794 315.092,458.127 314.5,455.5C 342.833,455.5 371.167,455.5 399.5,455.5C 399.5,458.167 399.5,460.833 399.5,463.5 Z"/></g>
<g><path style="opacity:1" fill="#f5f7fe" d="M 205.5,463.5 C 228.611,470.673 252.278,473.506 276.5,472C 283.449,475.229 290.615,477.729 298,479.5C 307.816,478.517 313.649,473.184 315.5,463.5C 343.5,463.5 371.5,463.5 399.5,463.5C 399.666,469.842 399.5,476.175 399,482.5C 398.167,484.667 396.667,486.167 394.5,487C 313.501,487.5 232.501,487.667 151.5,487.5C 151.853,476.967 156.853,469.467 166.5,465C 179.426,463.557 192.426,463.057 205.5,463.5 Z"/></g>
</svg>
