<?xml version="1.0" encoding="UTF-8"?>
<!DOCTYPE svg PUBLIC "-//W3C//DTD SVG 1.1//EN" "http://www.w3.org/Graphics/SVG/1.1/DTD/svg11.dtd">
<svg xmlns="http://www.w3.org/2000/svg" version="1.1" width="512px" height="512px" style="shape-rendering:geometricPrecision; text-rendering:geometricPrecision; image-rendering:optimizeQuality; fill-rule:evenodd; clip-rule:evenodd" xmlns:xlink="http://www.w3.org/1999/xlink">
<g><path style="opacity:0.978" fill="#020101" d="M 511.5,140.5 C 511.5,192.833 511.5,245.167 511.5,297.5C 508.498,308.02 502.498,316.52 493.5,323C 461.167,337.5 428.833,352 396.5,366.5C 399.659,402.679 386.659,431.512 357.5,453C 340.632,462.066 322.632,467.733 303.5,470C 267.599,474.358 231.933,473.024 196.5,466C 151.403,454.909 127.403,426.242 124.5,380C 126.684,347.929 134.351,317.263 147.5,288C 123.657,278.274 99.6575,268.941 75.5,260C 71.3075,257.78 69.6409,254.28 70.5,249.5C 72.2959,248.207 73.9625,246.707 75.5,245C 77.1667,244.333 78.8333,244.333 80.5,245C 104.944,254.639 129.444,264.139 154,273.5C 155.261,273.241 156.261,272.574 157,271.5C 170.468,247.031 189.968,229.197 215.5,218C 148.794,192.265 82.1274,166.431 15.5,140.5C 14.3335,163.159 14.1669,185.826 15,208.5C 16.139,214.643 19.3057,219.476 24.5,223C 34.197,227.184 43.8637,231.351 53.5,235.5C 55.2702,238.193 55.9368,241.193 55.5,244.5C 52.7507,248.171 49.0841,249.337 44.5,248C 34.5908,244.586 24.9241,240.586 15.5,236C 7.81324,230.109 2.4799,222.609 -0.5,213.5C -0.5,184.167 -0.5,154.833 -0.5,125.5C 29.5748,99.2622 59.5748,72.7622 89.5,46C 100.545,38.5553 112.545,36.5553 125.5,40C 191.35,65.5047 257.183,91.0047 323,116.5C 342.653,106.756 362.82,98.2561 383.5,91C 396.349,89.1413 408.683,90.808 420.5,96C 451.167,110.334 481.501,125.168 511.5,140.5 Z"/></g>
<g><path style="opacity:1" fill="#faf4c1" d="M 108.5,53.5 C 113.675,53.272 118.675,54.1053 123.5,56C 183.175,79.172 242.842,102.339 302.5,125.5C 284.591,133.705 266.758,142.038 249,150.5C 247.524,170.408 247.024,190.408 247.5,210.5C 243.818,210.665 240.152,210.499 236.5,210C 164.833,182.333 93.1667,154.667 21.5,127C 47.203,103.628 73.203,80.6283 99.5,58C 102.592,56.4541 105.592,54.9541 108.5,53.5 Z"/></g>
<g><path style="opacity:1" fill="#050403" d="M 119.5,63.5 C 129.497,63.3129 132.33,67.6462 128,76.5C 112.463,89.0368 98.6294,103.203 86.5,119C 89.9243,118.639 93.2577,117.639 96.5,116C 109.764,108.397 122.764,100.397 135.5,92C 143.927,87.4527 152.594,83.4527 161.5,80C 177.274,78.7163 181.774,85.2163 175,99.5C 166.5,110.667 156.667,120.5 145.5,129C 139.946,134.051 134.946,139.551 130.5,145.5C 138.317,146.07 145.65,144.237 152.5,140C 167.11,130.39 181.443,120.39 195.5,110C 199.5,108 203.5,106 207.5,104C 214.084,102.456 220.751,102.123 227.5,103C 233.167,105 236.167,109 236.5,115C 234.931,123.971 231.098,131.804 225,138.5C 213.914,148.749 203.747,159.749 194.5,171.5C 195.833,171.833 197.167,172.167 198.5,172.5C 205.875,171.198 213.208,170.031 220.5,169C 225.416,171.489 226.749,175.323 224.5,180.5C 212.224,187.31 199.224,189.144 185.5,186C 179.333,182.155 177.166,176.655 179,169.5C 181.542,163.635 184.875,158.301 189,153.5C 200.44,143.065 210.774,131.732 220,119.5C 220.483,118.552 220.649,117.552 220.5,116.5C 212.848,117.657 205.848,120.49 199.5,125C 184.588,137.236 168.588,147.902 151.5,157C 143.216,160.906 134.549,162.239 125.5,161C 116.693,157.89 113.193,151.724 115,142.5C 117,139.167 119,135.833 121,132.5C 132.833,121.333 144.667,110.167 156.5,99C 156.167,98.8333 155.833,98.6667 155.5,98.5C 137.37,108.8 119.37,119.3 101.5,130C 95.7684,132.799 89.7684,134.799 83.5,136C 71.6769,136.837 66.8435,131.337 69,119.5C 73.1643,111.005 78.4976,103.339 85,96.5C 96.0924,84.9039 107.592,73.9039 119.5,63.5 Z"/></g>
<g><path style="opacity:1" fill="#b0654d" d="M 386.5,105.5 C 393.973,105.139 401.306,105.972 408.5,108C 434.319,120.077 459.986,132.41 485.5,145C 445.715,162.392 406.049,180.059 366.5,198C 364.087,198.484 361.754,198.15 359.5,197C 330.68,183.423 302.014,169.59 273.5,155.5C 311.103,138.421 348.77,121.754 386.5,105.5 Z"/></g>
<g><path style="opacity:1" fill="#040201" d="M 401.5,111.5 C 403.989,111.298 406.323,111.798 408.5,113C 418.766,122.695 424.266,134.529 425,148.5C 422.779,157.54 416.946,161.873 407.5,161.5C 396.613,160.558 386.613,157.058 377.5,151C 376.207,150.51 374.873,150.343 373.5,150.5C 374.224,155.726 375.724,160.726 378,165.5C 381.202,175.228 378.035,181.394 368.5,184C 347.883,183.775 330.383,176.275 316,161.5C 314.673,153.83 317.839,150.33 325.5,151C 336.163,161.333 348.83,167.333 363.5,169C 358.26,160.519 357.427,151.685 361,142.5C 366.421,135.547 373.254,133.714 381.5,137C 388.384,140.275 395.384,143.275 402.5,146C 405.146,146.497 407.813,146.664 410.5,146.5C 410.382,143.312 409.549,140.312 408,137.5C 404.303,131.813 400.636,126.146 397,120.5C 396.377,116.412 397.877,113.412 401.5,111.5 Z"/></g>
<g><path style="opacity:1" fill="#e5dfb0" d="M 70.5,249.5 C 65.4262,248.031 60.4262,246.364 55.5,244.5C 55.9368,241.193 55.2702,238.193 53.5,235.5C 43.8637,231.351 34.197,227.184 24.5,223C 19.3057,219.476 16.139,214.643 15,208.5C 14.1669,185.826 14.3335,163.159 15.5,140.5C 82.1274,166.431 148.794,192.265 215.5,218C 189.968,229.197 170.468,247.031 157,271.5C 156.261,272.574 155.261,273.241 154,273.5C 129.444,264.139 104.944,254.639 80.5,245C 78.8333,244.333 77.1667,244.333 75.5,245C 73.9625,246.707 72.2959,248.207 70.5,249.5 Z"/></g>
<g><path style="opacity:1" fill="#7f4938" d="M 495.5,156.5 C 496.665,201.665 496.831,246.998 496,292.5C 494.542,299.922 490.708,305.756 484.5,310C 454.167,323.5 423.833,337 393.5,350.5C 388.635,328.406 381.469,307.073 372,286.5C 371.167,261.493 371.334,236.493 372.5,211.5C 413.708,193.391 454.708,175.058 495.5,156.5 Z"/></g>
<g><path style="opacity:1" fill="#975743" d="M 262.5,167.5 C 293.599,181.882 324.599,196.549 355.5,211.5C 356.666,227.156 356.833,242.823 356,258.5C 332.795,227.311 301.629,210.978 262.5,209.5C 262.5,195.5 262.5,181.5 262.5,167.5 Z"/></g>
<g><path style="opacity:1" fill="#724132" d="M 275.5,456.5 C 249.917,457.625 225.25,453.458 201.5,444C 169.266,426.041 154.766,398.541 158,361.5C 162.632,323.928 174.965,289.262 195,257.5C 200.691,250.315 206.524,243.315 212.5,236.5C 236.243,223.956 261.243,221.123 287.5,228C 311.38,234.891 330.547,248.391 345,268.5C 366.64,302.254 378.806,339.254 381.5,379.5C 377.208,421.962 353.875,446.462 311.5,453C 299.586,455.153 287.586,456.32 275.5,456.5 Z"/></g>
<g><path style="opacity:1" fill="#643a2c" d="M 212.5,236.5 C 206.524,243.315 200.691,250.315 195,257.5C 174.965,289.262 162.632,323.928 158,361.5C 154.766,398.541 169.266,426.041 201.5,444C 225.25,453.458 249.917,457.625 275.5,456.5C 243.488,459.274 212.155,455.441 181.5,445C 149.797,427.95 136.297,401.45 141,365.5C 145.223,333.83 155.223,304.164 171,276.5C 181.118,259.214 194.951,245.88 212.5,236.5 Z"/></g>
<g><path style="opacity:1" fill="#020100" d="M 228.5,243.5 C 274.541,243.741 308.375,264.074 330,304.5C 346.85,340.935 343.517,375.268 320,407.5C 290.941,438.511 256.774,446.011 217.5,430C 185.776,409.502 174.943,381.002 185,344.5C 198.002,318.245 219.169,306.412 248.5,309C 270.113,314.279 283.279,327.779 288,349.5C 289.617,375.448 277.783,391.281 252.5,397C 233.057,397.879 220.557,389.046 215,370.5C 214.333,366.833 214.333,363.167 215,359.5C 220.487,353.867 225.154,354.534 229,361.5C 229.209,371.695 234.043,378.528 243.5,382C 261.295,382.707 271.295,374.207 273.5,356.5C 272.32,339.624 263.653,328.791 247.5,324C 216.598,321.9 199.265,336.233 195.5,367C 197.641,396.476 212.974,415.143 241.5,423C 280.939,426.041 307.772,409.207 322,372.5C 330.734,327.469 315.567,292.969 276.5,269C 261.298,261.709 245.298,257.709 228.5,257C 223.248,252.506 223.248,248.006 228.5,243.5 Z"/></g>
</svg>
