<?xml version="1.0" encoding="UTF-8"?>
<!DOCTYPE svg PUBLIC "-//W3C//DTD SVG 1.1//EN" "http://www.w3.org/Graphics/SVG/1.1/DTD/svg11.dtd">
<svg xmlns="http://www.w3.org/2000/svg" version="1.1" width="512px" height="512px" style="shape-rendering:geometricPrecision; text-rendering:geometricPrecision; image-rendering:optimizeQuality; fill-rule:evenodd; clip-rule:evenodd" xmlns:xlink="http://www.w3.org/1999/xlink">
<g><path style="opacity:0.98" fill="#2a4368" d="M 473.5,233.5 C 470.192,234.026 468.026,232.693 467,229.5C 464.389,217.839 461.889,206.172 459.5,194.5C 370.833,194.5 282.167,194.5 193.5,194.5C 185.16,194.334 176.827,194.5 168.5,195C 166.201,204.073 164.201,213.24 162.5,222.5C 170.833,222.5 179.167,222.5 187.5,222.5C 224.519,227.593 255.685,243.927 281,271.5C 281.667,273.5 281.667,275.5 281,277.5C 267.233,294.289 250.733,307.623 231.5,317.5C 256.936,334.768 275.103,357.768 286,386.5C 289.194,397.28 292.694,407.946 296.5,418.5C 347.163,419.667 397.83,419.833 448.5,419C 472.311,415.189 486.144,401.356 490,377.5C 490.771,362.109 490.104,346.775 488,331.5C 484.881,313.574 481.381,295.741 477.5,278C 476.77,274.425 478.103,272.258 481.5,271.5C 484.238,270.965 486.072,271.965 487,274.5C 495.135,304.139 499.635,334.306 500.5,365C 502.321,388.684 493.654,407.351 474.5,421C 468.274,424.78 461.607,427.447 454.5,429C 403.85,430.12 353.184,430.953 302.5,431.5C 305.555,436.942 308.055,442.608 310,448.5C 311.625,468.874 302.292,480.207 282,482.5C 260.705,478.387 239.205,476.554 217.5,477C 170.443,472.249 133.609,450.416 107,411.5C 98.5551,397.612 90.8885,383.278 84,368.5C 79.0564,360.557 73.723,352.891 68,345.5C 64.4341,338.573 62.1008,331.24 61,323.5C 48.8496,301.018 32.1829,282.685 11,268.5C 10.3333,266.167 10.3333,263.833 11,261.5C 14.3847,257.783 17.3847,253.783 20,249.5C 23.0262,246.136 26.5262,245.636 30.5,248C 41.0175,257.506 52.8508,265.006 66,270.5C 88.7742,244.524 117.274,228.524 151.5,222.5C 153.856,212.887 156.023,203.22 158,193.5C 158.026,175.41 158.693,157.41 160,139.5C 160.5,139 161,138.5 161.5,138C 165.167,137.667 168.833,137.333 172.5,137C 203.528,105.639 234.861,74.6386 266.5,44C 298.167,23.3333 329.833,23.3333 361.5,44C 393.139,74.6386 424.472,105.639 455.5,137C 459.167,137.333 462.833,137.667 466.5,138C 467,138.5 467.5,139 468,139.5C 468.333,155.833 468.667,172.167 469,188.5C 471.769,201.847 474.603,215.181 477.5,228.5C 477.324,231.225 475.99,232.892 473.5,233.5 Z"/></g>
<g><path style="opacity:1" fill="#98696a" d="M 314.5,39.5 C 307.381,43.2339 300.714,47.7339 294.5,53C 266.298,81.0347 238.298,109.201 210.5,137.5C 202.826,137.666 195.159,137.5 187.5,137C 216.557,107.275 246.224,78.2749 276.5,50C 288.042,42.5232 300.709,39.0232 314.5,39.5 Z"/></g>
<g><path style="opacity:1" fill="#b9807f" d="M 314.5,39.5 C 329.671,39.5015 343.338,44.0015 355.5,53C 384.139,80.6385 412.472,108.638 440.5,137C 363.834,137.5 287.167,137.667 210.5,137.5C 238.298,109.201 266.298,81.0347 294.5,53C 300.714,47.7339 307.381,43.2339 314.5,39.5 Z"/></g>
<g><path style="opacity:1" fill="#3872a8" d="M 194.5,147.5 C 194.5,159.833 194.5,172.167 194.5,184.5C 186.167,184.5 177.833,184.5 169.5,184.5C 169.5,172.167 169.5,159.833 169.5,147.5C 177.833,147.5 186.167,147.5 194.5,147.5 Z"/></g>
<g><path style="opacity:1" fill="#4588d2" d="M 194.5,147.5 C 282.5,147.5 370.5,147.5 458.5,147.5C 458.5,159.833 458.5,172.167 458.5,184.5C 370.5,184.5 282.5,184.5 194.5,184.5C 194.5,172.167 194.5,159.833 194.5,147.5 Z"/></g>
<g><path style="opacity:1" fill="#4e90c7" d="M 193.5,194.5 C 191.508,203.806 189.508,213.139 187.5,222.5C 179.167,222.5 170.833,222.5 162.5,222.5C 164.201,213.24 166.201,204.073 168.5,195C 176.827,194.5 185.16,194.334 193.5,194.5 Z"/></g>
<g><path style="opacity:1" fill="#5ea7ec" d="M 193.5,194.5 C 282.167,194.5 370.833,194.5 459.5,194.5C 461.889,206.172 464.389,217.839 467,229.5C 468.026,232.693 470.192,234.026 473.5,233.5C 476.04,246.199 478.706,258.865 481.5,271.5C 478.103,272.258 476.77,274.425 477.5,278C 481.381,295.741 484.881,313.574 488,331.5C 490.104,346.775 490.771,362.109 490,377.5C 486.144,401.356 472.311,415.189 448.5,419C 397.83,419.833 347.163,419.667 296.5,418.5C 292.694,407.946 289.194,397.28 286,386.5C 275.103,357.768 256.936,334.768 231.5,317.5C 250.733,307.623 267.233,294.289 281,277.5C 281.667,275.5 281.667,273.5 281,271.5C 255.685,243.927 224.519,227.593 187.5,222.5C 189.508,213.139 191.508,203.806 193.5,194.5 Z"/></g>
<g><path style="opacity:1" fill="#5ecca3" d="M 263.5,268.5 C 255.5,269.167 247.5,269.833 239.5,270.5C 195.827,270.833 152.16,271.5 108.5,272.5C 98.6522,272.827 88.9856,272.494 79.5,271.5C 120.149,232.801 167.149,222.634 220.5,241C 236.573,247.598 250.907,256.764 263.5,268.5 Z"/></g>
<g><path style="opacity:1" fill="#ac6b6b" d="M 25.5,259.5 C 26.552,259.351 27.552,259.517 28.5,260C 43.6411,272.405 60.6411,281.405 79.5,287C 72.7432,292.703 67.5766,299.536 64,307.5C 53.5939,289.76 39.7605,275.26 22.5,264C 23.8825,262.729 24.8825,261.229 25.5,259.5 Z"/></g>
<g><path style="opacity:1" fill="#4fa492" d="M 263.5,268.5 C 264.043,268.56 264.376,268.893 264.5,269.5C 256.193,270.498 247.86,270.831 239.5,270.5C 247.5,269.833 255.5,269.167 263.5,268.5 Z"/></g>
<g><path style="opacity:1" fill="#3f7c81" d="M 79.5,271.5 C 88.9856,272.494 98.6522,272.827 108.5,272.5C 98.6589,273.823 88.6589,273.823 78.5,272.5C 78.6236,271.893 78.9569,271.56 79.5,271.5 Z"/></g>
<g><path style="opacity:1" fill="#336271" d="M 239.5,280.5 C 247.676,279.179 256.009,279.179 264.5,280.5C 264.376,281.107 264.043,281.44 263.5,281.5C 255.684,280.508 247.684,280.174 239.5,280.5 Z"/></g>
<g><path style="opacity:1" fill="#4ba786" d="M 239.5,280.5 C 247.684,280.174 255.684,280.508 263.5,281.5C 251.156,294.187 236.822,304.187 220.5,311.5C 197.911,299.806 173.911,292.639 148.5,290C 140.809,287.936 133.142,285.77 125.5,283.5C 136.5,282.833 147.5,282.167 158.5,281.5C 185.499,281.119 212.499,280.786 239.5,280.5 Z"/></g>
<g><path style="opacity:1" fill="#366973" d="M 158.5,281.5 C 147.5,282.167 136.5,282.833 125.5,283.5C 124.957,283.44 124.624,283.107 124.5,282.5C 135.814,281.501 147.147,281.168 158.5,281.5 Z"/></g>
<g><path style="opacity:1" fill="#e6ac8c" d="M 98.5,288.5 C 103.179,288.334 107.845,288.501 112.5,289C 121.363,292.399 130.363,295.399 139.5,298C 154.55,300.743 169.55,303.743 184.5,307C 228.113,319.54 258.613,346.707 276,388.5C 281.505,409.35 289.171,429.35 299,448.5C 299.667,449.833 299.667,451.167 299,452.5C 285.72,433.553 272.053,414.886 258,396.5C 213.058,345.757 157.891,310.757 92.5,291.5C 94.5939,290.482 96.5939,289.482 98.5,288.5 Z"/></g>
<g><path style="opacity:1" fill="#e09973" d="M 80.5,299.5 C 147.296,316.299 203.462,350.299 249,401.5C 264.289,421.911 279.455,442.411 294.5,463C 270.558,455.755 246.891,447.421 223.5,438C 162.083,408.917 113.583,365.417 78,307.5C 77.3875,304.389 78.2209,301.723 80.5,299.5 Z"/></g>
<g><path style="opacity:1" fill="#e6ac8c" d="M 285.5,470.5 C 283.393,471.468 281.059,471.802 278.5,471.5C 253.317,467.631 227.984,465.464 202.5,465C 163.057,455.877 132.89,434.044 112,399.5C 105.809,387.922 99.8087,376.255 94,364.5C 87.6667,354.833 81.3333,345.167 75,335.5C 72.7146,330.028 72.0479,324.362 73,318.5C 123.977,396.451 194.811,447.117 285.5,470.5 Z"/></g>
<g><path style="opacity:1" fill="#716a76" d="M 285.5,470.5 C 286.043,470.56 286.376,470.893 286.5,471.5C 283.691,472.8 281.024,472.8 278.5,471.5C 281.059,471.802 283.393,471.468 285.5,470.5 Z"/></g>
</svg>
