<?xml version="1.0" encoding="UTF-8"?>
<!DOCTYPE svg PUBLIC "-//W3C//DTD SVG 1.1//EN" "http://www.w3.org/Graphics/SVG/1.1/DTD/svg11.dtd">
<svg xmlns="http://www.w3.org/2000/svg" version="1.1" width="512px" height="512px" style="shape-rendering:geometricPrecision; text-rendering:geometricPrecision; image-rendering:optimizeQuality; fill-rule:evenodd; clip-rule:evenodd" xmlns:xlink="http://www.w3.org/1999/xlink">
<g><path style="opacity:0.965" fill="#020100" d="M 63.5,442.5 C 66.3245,442.081 68.4912,443.081 70,445.5C 73.342,457.859 77.6753,469.859 83,481.5C 88.113,488.638 94.9464,493.138 103.5,495C 206.167,495.667 308.833,495.667 411.5,495C 420.091,493.124 426.925,488.624 432,481.5C 444.563,454.077 450.729,425.243 450.5,395C 450.272,377.006 448.438,359.172 445,341.5C 437.057,304.508 429.223,267.508 421.5,230.5C 420.908,227.873 420.575,225.206 420.5,222.5C 312.166,222.333 203.833,222.5 95.5,223C 94.565,225.381 94.2317,227.881 94.5,230.5C 84.9428,269.105 76.4428,308.105 69,347.5C 65.4503,368.349 63.7837,389.349 64,410.5C 62.5913,411.781 61.0913,412.781 59.5,413.5C 57.4184,413.376 55.9184,412.376 55,410.5C 53.6387,381.141 56.3054,352.141 63,323.5C 70.361,289.861 77.5276,256.194 84.5,222.5C 70.0929,225.656 59.2596,220.989 52,208.5C 50.3962,196.571 50.0629,184.571 51,172.5C 54.4617,162.704 61.295,156.871 71.5,155C 98.5,154.667 125.5,154.333 152.5,154C 160.833,145.667 169.167,137.333 177.5,129C 179.81,128.503 182.143,128.337 184.5,128.5C 186.1,130.571 186.6,132.905 186,135.5C 179.964,141.369 174.13,147.369 168.5,153.5C 167.711,153.783 167.044,154.283 166.5,155C 227.167,155.667 287.833,155.667 348.5,155C 347.956,154.283 347.289,153.783 346.5,153.5C 324.368,130.868 302.035,108.368 279.5,86C 269.196,78.5575 257.862,76.5575 245.5,80C 241.664,82.0836 237.997,84.417 234.5,87C 227.167,94.3333 219.833,101.667 212.5,109C 209.779,109.602 207.113,109.435 204.5,108.5C 204.337,106.143 204.503,103.81 205,101.5C 213.863,92.3027 223.03,83.4694 232.5,75C 249.204,65.0049 265.871,65.0049 282.5,75C 292.971,84.4698 303.137,94.3031 313,104.5C 314.925,88.2427 324.092,80.076 340.5,80C 337.714,60.9646 336.214,41.798 336,22.5C 341.402,8.54412 351.569,3.04412 366.5,6C 380.05,12.2673 385.217,22.7673 382,37.5C 380.828,51.5583 379.328,65.5583 377.5,79.5C 391.097,79.9383 399.93,86.6049 404,99.5C 404.5,117.83 404.667,136.164 404.5,154.5C 417.885,154.097 431.218,154.597 444.5,156C 458.345,162.693 463.678,173.693 460.5,189C 463.224,211.769 453.224,222.935 430.5,222.5C 438.395,259.472 446.228,296.472 454,333.5C 460.454,364.584 462.121,395.917 459,427.5C 456.366,447.734 450.699,467.068 442,485.5C 435.594,495.795 426.428,502.295 414.5,505C 309.833,505.667 205.167,505.667 100.5,505C 88.6501,502.322 79.4834,495.822 73,485.5C 66.3392,472.527 62.3392,458.86 61,444.5C 61.7083,443.619 62.5416,442.953 63.5,442.5 Z"/></g>
<g><path style="opacity:1" fill="#eaeaea" d="M 354.5,15.5 C 363.094,14.097 368.927,17.4303 372,25.5C 370.768,43.8296 369.268,62.1629 367.5,80.5C 361.833,80.5 356.167,80.5 350.5,80.5C 348.999,63.3221 347.332,46.1554 345.5,29C 346.141,22.8744 349.141,18.3744 354.5,15.5 Z"/></g>
<g><path style="opacity:0.999" fill="#f0dfd5" d="M 346.5,153.5 C 287.167,154.833 227.833,154.833 168.5,153.5C 174.13,147.369 179.964,141.369 186,135.5C 186.6,132.905 186.1,130.571 184.5,128.5C 186.833,126.833 188.833,124.833 190.5,122.5C 195.157,125.836 198.491,124.836 200.5,119.5C 200.098,117.7 199.431,116.033 198.5,114.5C 200.833,112.833 202.833,110.833 204.5,108.5C 207.113,109.435 209.779,109.602 212.5,109C 219.833,101.667 227.167,94.3333 234.5,87C 237.997,84.417 241.664,82.0836 245.5,80C 257.862,76.5575 269.196,78.5575 279.5,86C 302.035,108.368 324.368,130.868 346.5,153.5 Z"/></g>
<g><path style="opacity:1" fill="#868686" d="M 393.5,102.5 C 393.5,117.167 393.5,131.833 393.5,146.5C 384.06,146.945 374.726,146.445 365.5,145C 352,131.5 338.5,118 325,104.5C 324.517,103.552 324.351,102.552 324.5,101.5C 325.919,96.246 329.252,92.746 334.5,91C 342.5,90.8333 350.5,90.6667 358.5,90.5C 367.571,90.3752 376.571,90.8752 385.5,92C 389.919,94.2421 392.586,97.7421 393.5,102.5 Z"/></g>
<g><path style="opacity:1" fill="#4c4945" d="M 324.5,101.5 C 324.351,102.552 324.517,103.552 325,104.5C 338.5,118 352,131.5 365.5,145C 374.726,146.445 384.06,146.945 393.5,146.5C 393.5,131.833 393.5,117.167 393.5,102.5C 394.497,119.992 394.83,137.659 394.5,155.5C 383.828,155.667 373.161,155.5 362.5,155C 349.667,142.167 336.833,129.333 324,116.5C 323.184,111.316 323.35,106.316 324.5,101.5 Z"/></g>
<g><path style="opacity:1" fill="#0f0e0d" d="M 272.5,108.5 C 279.241,108.39 281.408,111.39 279,117.5C 275.949,120.374 273.282,120.041 271,116.5C 270.109,113.502 270.609,110.836 272.5,108.5 Z"/></g>
<g><path style="opacity:0.88" fill="#090808" d="M 198.5,114.5 C 199.431,116.033 200.098,117.7 200.5,119.5C 198.491,124.836 195.157,125.836 190.5,122.5C 188.833,115.5 191.5,112.833 198.5,114.5 Z"/></g>
<g><path style="opacity:1" fill="#111010" d="M 225.5,112.5 C 232.978,113.75 234.311,117.25 229.5,123C 223.498,123.993 221.332,121.493 223,115.5C 223.698,114.309 224.531,113.309 225.5,112.5 Z"/></g>
<g><path style="opacity:1" fill="#0c0b0b" d="M 260.5,131.5 C 268.486,130.998 270.486,134.165 266.5,141C 261.594,142.756 258.927,141.089 258.5,136C 258.519,134.167 259.185,132.667 260.5,131.5 Z"/></g>
<g><path style="opacity:1" fill="#d0c1b8" d="M 168.5,153.5 C 227.833,154.833 287.167,154.833 346.5,153.5C 347.289,153.783 347.956,154.283 348.5,155C 287.833,155.667 227.167,155.667 166.5,155C 167.044,154.283 167.711,153.783 168.5,153.5 Z"/></g>
<g><path style="opacity:1" fill="#eebf20" d="M 69.5,165.5 C 192.834,165.333 316.167,165.5 439.5,166C 444.54,167.369 448.04,170.536 450,175.5C 450.667,184.5 450.667,193.5 450,202.5C 448.167,207 445,210.167 440.5,212C 317.167,212.667 193.833,212.667 70.5,212C 61.2275,207.107 57.8942,199.44 60.5,189C 58.135,178.926 61.135,171.093 69.5,165.5 Z"/></g>
<g><path style="opacity:1" fill="#f7e4ae" d="M 433.5,175.5 C 436.368,175.085 438.535,176.085 440,178.5C 440.667,185.5 440.667,192.5 440,199.5C 439.167,200.333 438.333,201.167 437.5,202C 325.833,202.667 214.167,202.667 102.5,202C 98.5185,198.952 98.5185,195.952 102.5,193C 211.833,192.5 321.166,192.333 430.5,192.5C 430.334,187.821 430.501,183.155 431,178.5C 431.698,177.309 432.531,176.309 433.5,175.5 Z"/></g>
<g><path style="opacity:1" fill="#f7e3ab" d="M 73.5,192.5 C 77.8461,192.334 82.1794,192.501 86.5,193C 90.4815,195.952 90.4815,198.952 86.5,202C 82.1667,202.667 77.8333,202.667 73.5,202C 69.5993,198.792 69.5993,195.626 73.5,192.5 Z"/></g>
<g><path style="opacity:1" fill="#ce9418" d="M 421.5,230.5 C 312.5,230.5 203.5,230.5 94.5,230.5C 94.2317,227.881 94.565,225.381 95.5,223C 203.833,222.5 312.166,222.333 420.5,222.5C 420.575,225.206 420.908,227.873 421.5,230.5 Z"/></g>
<g><path style="opacity:1" fill="#efbf20" d="M 94.5,230.5 C 203.5,230.5 312.5,230.5 421.5,230.5C 429.223,267.508 437.057,304.508 445,341.5C 448.438,359.172 450.272,377.006 450.5,395C 450.729,425.243 444.563,454.077 432,481.5C 426.925,488.624 420.091,493.124 411.5,495C 308.833,495.667 206.167,495.667 103.5,495C 94.9464,493.138 88.113,488.638 83,481.5C 77.6753,469.859 73.342,457.859 70,445.5C 68.4912,443.081 66.3245,442.081 63.5,442.5C 63.0371,439.518 62.7038,436.518 62.5,433.5C 67.3307,430.495 67.6641,426.995 63.5,423C 62.552,422.517 61.552,422.351 60.5,422.5C 60.2962,419.482 59.9629,416.482 59.5,413.5C 61.0913,412.781 62.5913,411.781 64,410.5C 63.7837,389.349 65.4503,368.349 69,347.5C 76.4428,308.105 84.9428,269.105 94.5,230.5 Z"/></g>
<g><path style="opacity:1" fill="#f7e4ae" d="M 406.5,241.5 C 409.652,240.959 412.152,241.959 414,244.5C 420.016,273.898 426.349,303.231 433,332.5C 438.242,357.588 440.576,382.921 440,408.5C 438.85,430.283 434.183,451.283 426,471.5C 422.495,479.003 416.662,483.503 408.5,485C 318.167,485.667 227.833,485.667 137.5,485C 133.5,482 133.5,479 137.5,476C 227.5,475.667 317.5,475.333 407.5,475C 411.843,473.99 415.01,471.49 417,467.5C 431.054,431.139 434.387,393.806 427,355.5C 420.081,320.077 412.747,284.743 405,249.5C 404.109,246.502 404.609,243.836 406.5,241.5 Z"/></g>
<g><path style="opacity:1" fill="#090705" d="M 340.5,300.5 C 338.418,300.376 336.918,299.376 336,297.5C 335.501,293.179 335.334,288.846 335.5,284.5C 320.807,281.813 311.474,273.147 307.5,258.5C 274.173,257.5 240.84,257.167 207.5,257.5C 204.587,272.914 195.42,282.247 180,285.5C 179.167,332.837 179.333,380.17 180.5,427.5C 195.656,430.988 204.656,440.322 207.5,455.5C 240.835,455.667 274.168,455.5 307.5,455C 311.045,439.955 320.379,430.788 335.5,427.5C 335.333,396.165 335.5,364.832 336,333.5C 337.129,331.859 338.629,330.859 340.5,330.5C 342.371,330.859 343.871,331.859 345,333.5C 345.667,367.167 345.667,400.833 345,434.5C 344.167,435.333 343.333,436.167 342.5,437C 326.667,438.167 318.167,446.667 317,462.5C 316.167,463.333 315.333,464.167 314.5,465C 276.5,465.667 238.5,465.667 200.5,465C 200,464.5 199.5,464 199,463.5C 198.268,447.102 189.768,438.269 173.5,437C 171.667,436.5 170.5,435.333 170,433.5C 169.333,381.833 169.333,330.167 170,278.5C 170.833,277.667 171.667,276.833 172.5,276C 183.038,275.987 190.871,271.487 196,262.5C 197.239,257.486 198.739,252.653 200.5,248C 238.5,247.333 276.5,247.333 314.5,248C 315.333,248.833 316.167,249.667 317,250.5C 318.175,266.342 326.675,274.842 342.5,276C 343.667,276.5 344.5,277.333 345,278.5C 345.667,285.167 345.667,291.833 345,298.5C 343.89,300.037 342.39,300.703 340.5,300.5 Z"/></g>
<g><path style="opacity:1" fill="#ededed" d="M 340.5,300.5 C 340.5,303.833 340.5,307.167 340.5,310.5C 336.034,311.626 334.701,314.293 336.5,318.5C 337.577,319.705 338.91,320.372 340.5,320.5C 340.5,323.833 340.5,327.167 340.5,330.5C 338.629,330.859 337.129,331.859 336,333.5C 335.5,364.832 335.333,396.165 335.5,427.5C 320.379,430.788 311.045,439.955 307.5,455C 274.168,455.5 240.835,455.667 207.5,455.5C 204.656,440.322 195.656,430.988 180.5,427.5C 179.333,380.17 179.167,332.837 180,285.5C 195.42,282.247 204.587,272.914 207.5,257.5C 240.84,257.167 274.173,257.5 307.5,258.5C 311.474,273.147 320.807,281.813 335.5,284.5C 335.334,288.846 335.501,293.179 336,297.5C 336.918,299.376 338.418,300.376 340.5,300.5 Z"/></g>
<g><path style="opacity:1" fill="#040403" d="M 251.5,270.5 C 261.803,269.235 270.303,272.568 277,280.5C 286.449,294.347 291.616,309.68 292.5,326.5C 295.85,326.335 299.183,326.502 302.5,327C 303,327.5 303.5,328 304,328.5C 304.667,341.833 304.667,355.167 304,368.5C 296.463,400.019 276.63,413.185 244.5,408C 227.064,402.23 216.231,390.397 212,372.5C 211.333,357.833 211.333,343.167 212,328.5C 212.5,328 213,327.5 213.5,327C 216.482,326.502 219.482,326.335 222.5,326.5C 223.941,312.009 228.108,298.343 235,285.5C 239.448,279.213 244.948,274.213 251.5,270.5 Z"/></g>
<g><path style="opacity:1" fill="#ebbc1f" d="M 281.5,320.5 C 281.53,321.497 281.03,322.164 280,322.5C 277.06,323.423 274.227,324.423 271.5,325.5C 271.737,324.209 271.404,323.209 270.5,322.5C 269.488,320.124 267.655,319.124 265,319.5C 260.251,319.586 258.585,321.92 260,326.5C 261.509,328.919 263.675,329.919 266.5,329.5C 263.196,331.973 260.362,334.973 258,338.5C 251.608,330.924 243.775,325.59 234.5,322.5C 234.5,320.5 234.5,318.5 234.5,316.5C 235.953,303.429 241.287,292.262 250.5,283C 259.767,278.868 266.934,281.368 272,290.5C 277.082,299.912 280.249,309.912 281.5,320.5 Z"/></g>
<g><path style="opacity:1" fill="#0e0a02" d="M 262.5,296.5 C 270.368,295.672 272.701,298.672 269.5,305.5C 260.791,307.458 258.458,304.458 262.5,296.5 Z"/></g>
<g><path style="opacity:1" fill="#110d03" d="M 243.5,308.5 C 250.493,306.996 253.327,309.663 252,316.5C 246.839,319.943 243.339,318.776 241.5,313C 241.519,311.167 242.185,309.667 243.5,308.5 Z"/></g>
<g><path style="opacity:1" fill="#13120e" d="M 340.5,310.5 C 345.703,312.352 346.703,315.518 343.5,320C 342.552,320.483 341.552,320.649 340.5,320.5C 338.91,320.372 337.577,319.705 336.5,318.5C 334.701,314.293 336.034,311.626 340.5,310.5 Z"/></g>
<g><path style="opacity:1" fill="#0f0b02" d="M 270.5,322.5 C 270.955,325.931 269.621,328.264 266.5,329.5C 263.675,329.919 261.509,328.919 260,326.5C 258.585,321.92 260.251,319.586 265,319.5C 267.655,319.124 269.488,320.124 270.5,322.5 Z"/></g>
<g><path style="opacity:1" fill="#e0a11c" d="M 234.5,316.5 C 234.5,318.5 234.5,320.5 234.5,322.5C 243.775,325.59 251.608,330.924 258,338.5C 260.362,334.973 263.196,331.973 266.5,329.5C 269.621,328.264 270.955,325.931 270.5,322.5C 271.404,323.209 271.737,324.209 271.5,325.5C 274.227,324.423 277.06,323.423 280,322.5C 281.03,322.164 281.53,321.497 281.5,320.5C 282.638,323.304 282.805,326.304 282,329.5C 271.47,334.028 263.47,341.362 258,351.5C 251.519,341.504 243.019,333.671 232.5,328C 233.072,324.015 233.739,320.182 234.5,316.5 Z"/></g>
<g><path style="opacity:1" fill="#095d35" d="M 224.5,337.5 C 223.5,337.5 222.5,337.5 221.5,337.5C 221.5,347.5 221.5,357.5 221.5,367.5C 220.506,357.347 220.172,347.014 220.5,336.5C 222.099,336.232 223.432,336.566 224.5,337.5 Z"/></g>
<g><path style="opacity:1" fill="#12bd6b" d="M 224.5,337.5 C 236.209,340.604 244.709,347.604 250,358.5C 251.562,362.014 252.395,365.681 252.5,369.5C 252.5,379.167 252.5,388.833 252.5,398.5C 251.5,398.5 250.5,398.5 249.5,398.5C 233.197,394.527 223.863,384.194 221.5,367.5C 221.5,357.5 221.5,347.5 221.5,337.5C 222.5,337.5 223.5,337.5 224.5,337.5 Z"/></g>
<g><path style="opacity:1" fill="#12bc6b" d="M 265.5,398.5 C 263.524,388.219 262.857,377.552 263.5,366.5C 267.246,349.755 277.579,339.755 294.5,336.5C 294.667,347.838 294.5,359.172 294,370.5C 289.904,385.43 280.404,394.764 265.5,398.5 Z"/></g>
<g><path style="opacity:1" fill="#05341d" d="M 252.5,369.5 C 253.494,379.319 253.827,389.319 253.5,399.5C 251.901,399.768 250.568,399.434 249.5,398.5C 250.5,398.5 251.5,398.5 252.5,398.5C 252.5,388.833 252.5,379.167 252.5,369.5 Z"/></g>
<g><path style="opacity:1" fill="#0d834a" d="M 263.5,366.5 C 262.857,377.552 263.524,388.219 265.5,398.5C 264.791,399.404 263.791,399.737 262.5,399.5C 262.172,388.321 262.505,377.321 263.5,366.5 Z"/></g>
<g><path style="opacity:0.865" fill="#090601" d="M 60.5,422.5 C 61.552,422.351 62.552,422.517 63.5,423C 67.6641,426.995 67.3307,430.495 62.5,433.5C 56.8473,433.056 55.0139,430.056 57,424.5C 57.8159,423.177 58.9826,422.511 60.5,422.5 Z"/></g>
<g><path style="opacity:1" fill="#0b0b0b" d="M 229.5,425.5 C 248.17,425.333 266.836,425.5 285.5,426C 289.085,428.528 289.418,431.528 286.5,435C 267.167,435.667 247.833,435.667 228.5,435C 225.753,431.553 226.087,428.386 229.5,425.5 Z"/></g>
<g><path style="opacity:1" fill="#f7e4ae" d="M 108.5,475.5 C 112.846,475.334 117.179,475.501 121.5,476C 125.5,479 125.5,482 121.5,485C 117.167,485.667 112.833,485.667 108.5,485C 104.581,481.84 104.581,478.673 108.5,475.5 Z"/></g>
</svg>
