<?xml version="1.0" encoding="UTF-8"?>
<!DOCTYPE svg PUBLIC "-//W3C//DTD SVG 1.1//EN" "http://www.w3.org/Graphics/SVG/1.1/DTD/svg11.dtd">
<svg xmlns="http://www.w3.org/2000/svg" version="1.1" width="512px" height="512px" style="shape-rendering:geometricPrecision; text-rendering:geometricPrecision; image-rendering:optimizeQuality; fill-rule:evenodd; clip-rule:evenodd" xmlns:xlink="http://www.w3.org/1999/xlink">
<g><path style="opacity:0.972" fill="#010000" d="M 414.5,83.5 C 411.03,84.1252 408.196,83.1252 406,80.5C 403.428,73.0301 400.595,65.6967 397.5,58.5C 397.134,57.3054 396.301,56.6387 395,56.5C 371.333,64.7478 349.499,76.2478 329.5,91C 323.684,95.649 318.351,100.816 313.5,106.5C 328.272,129.253 334.772,154.253 333,181.5C 334.432,183.439 336.265,184.772 338.5,185.5C 339.562,187.757 341.228,188.923 343.5,189C 359.53,170.976 379.53,159.643 403.5,155C 407.466,154.172 411.466,153.672 415.5,153.5C 416.292,136.485 414.958,119.652 411.5,103C 411.435,98.6078 413.435,95.7745 417.5,94.5C 421.493,94.2447 424.326,95.9114 426,99.5C 429.615,116.985 431.115,134.651 430.5,152.5C 456.693,152.772 482.026,157.605 506.5,167C 508.323,167.997 509.99,169.164 511.5,170.5C 511.5,173.833 511.5,177.167 511.5,180.5C 505.685,202.638 496.685,223.472 484.5,243C 481.546,244.719 478.546,244.885 475.5,243.5C 472.695,240.754 471.861,237.421 473,233.5C 482.807,217.244 489.973,199.911 494.5,181.5C 495.774,180.811 495.774,179.977 494.5,179C 464.576,168.314 433.909,165.314 402.5,170C 381.468,174.344 364.468,185.01 351.5,202C 358.238,211.644 363.238,222.144 366.5,233.5C 372.883,235.346 379.217,237.346 385.5,239.5C 405.146,246.483 421.812,257.817 435.5,273.5C 443.273,267.897 450.606,261.731 457.5,255C 460.741,254.207 463.741,254.707 466.5,256.5C 468.95,259.6 469.117,262.934 467,266.5C 460.55,273.792 453.383,280.125 445.5,285.5C 466.455,320.273 470.288,356.94 457,395.5C 455.301,401.369 451.468,403.703 445.5,402.5C 443.115,400.398 441.782,397.731 441.5,394.5C 460.333,338.834 445.667,294.334 397.5,261C 359.97,240.654 323.303,241.82 287.5,264.5C 265.994,278.862 251.494,298.528 244,323.5C 245.157,333.76 245.99,344.093 246.5,354.5C 246.67,362.318 245.67,369.984 243.5,377.5C 259.366,426.861 293.2,453.195 345,456.5C 368.251,456.322 389.084,449.322 407.5,435.5C 411.291,432.882 414.957,430.049 418.5,427C 421.464,423.034 424.797,419.367 428.5,416C 431.868,415.457 435.201,415.624 438.5,416.5C 440.433,421.727 439.6,426.394 436,430.5C 397.824,469.939 352.657,480.773 300.5,463C 271.863,450.36 250.363,430.194 236,402.5C 212.582,445.213 176.415,466.046 127.5,465C 75.6255,458.896 41.9588,430.896 26.5,381C 26.891,377.118 28.891,374.618 32.5,373.5C 36.0254,373.346 38.8587,374.679 41,377.5C 50.6045,408.913 70.4379,431.08 100.5,444C 125.412,452.985 150.078,452.319 174.5,442C 180.604,439.033 186.271,435.533 191.5,431.5C 213.231,416.073 226.398,395.073 231,368.5C 235.494,318.968 215.327,283.801 170.5,263C 138.632,251.4 108.632,254.9 80.5,273.5C 52.3876,293.386 38.2209,320.719 38,355.5C 36.5064,358.314 34.3397,360.314 31.5,361.5C 28.4411,361.203 25.9411,359.87 24,357.5C 22.6436,329.07 30.8103,303.737 48.5,281.5C 28.5171,261.549 14.6838,237.882 7,210.5C 3.89763,198.483 1.39763,186.483 -0.5,174.5C -0.5,169.167 -0.5,163.833 -0.5,158.5C 4.92855,155.235 10.9285,153.402 17.5,153C 37.792,150.154 58.1253,149.82 78.5,152C 86.5473,153.075 94.3807,154.908 102,157.5C 111.168,102.332 143.002,68.4984 197.5,56C 239.789,49.8707 275.289,62.3707 304,93.5C 331.459,67.3476 363.625,49.3476 400.5,39.5C 404.104,39.5494 406.604,41.216 408,44.5C 412.059,54.0109 415.726,63.6775 419,73.5C 420.442,78.2768 418.942,81.6102 414.5,83.5 Z"/></g>
<g><path style="opacity:1" fill="#3f7925" d="M 397.5,58.5 C 395.589,58.5743 394.422,59.5743 394,61.5C 375.724,103.042 357.224,144.375 338.5,185.5C 336.265,184.772 334.432,183.439 333,181.5C 334.772,154.253 328.272,129.253 313.5,106.5C 318.351,100.816 323.684,95.649 329.5,91C 349.499,76.2478 371.333,64.7478 395,56.5C 396.301,56.6387 397.134,57.3054 397.5,58.5 Z"/></g>
<g><path style="opacity:0.999" fill="#56a432" d="M 397.5,58.5 C 400.595,65.6967 403.428,73.0301 406,80.5C 408.196,83.1252 411.03,84.1252 414.5,83.5C 415.964,87.0194 416.964,90.6861 417.5,94.5C 413.435,95.7745 411.435,98.6078 411.5,103C 414.958,119.652 416.292,136.485 415.5,153.5C 411.466,153.672 407.466,154.172 403.5,155C 379.53,159.643 359.53,170.976 343.5,189C 341.228,188.923 339.562,187.757 338.5,185.5C 357.224,144.375 375.724,103.042 394,61.5C 394.422,59.5743 395.589,58.5743 397.5,58.5 Z"/></g>
<g><path style="opacity:1" fill="#b90e0e" d="M 275.5,251.5 C 229.494,259.563 192.327,245.23 164,208.5C 141.913,174.253 138.579,138.253 154,100.5C 156.271,95.6204 158.771,90.9537 161.5,86.5C 190.308,67.8525 220.975,64.3525 253.5,76C 302.995,98.8139 323.828,137.314 316,191.5C 310.175,216.855 296.675,236.855 275.5,251.5 Z"/></g>
<g><path style="opacity:1" fill="#050101" d="M 239.5,115.5 C 237.345,115.628 235.345,115.128 233.5,114C 227.28,95.5872 214.947,89.5872 196.5,96C 182.789,104.804 179.955,116.304 188,130.5C 197.967,140.534 209.134,142.034 221.5,135C 224.72,132.532 227.72,129.865 230.5,127C 232.929,126.297 235.262,126.463 237.5,127.5C 240.236,129.858 241.07,132.858 240,136.5C 228.624,151.182 213.791,156.349 195.5,152C 175.772,144.599 167.272,130.432 170,109.5C 173.613,94.5513 182.78,84.718 197.5,80C 219.45,75.7253 235.283,83.5586 245,103.5C 245.667,106.5 245.667,109.5 245,112.5C 243.736,114.607 241.903,115.607 239.5,115.5 Z"/></g>
<g><path style="opacity:1" fill="#940b0c" d="M 161.5,86.5 C 158.771,90.9537 156.271,95.6204 154,100.5C 138.579,138.253 141.913,174.253 164,208.5C 192.327,245.23 229.494,259.563 275.5,251.5C 262.556,261.436 247.89,267.602 231.5,270C 223.833,270.667 216.167,270.667 208.5,270C 190.724,254.509 170.057,245.175 146.5,242C 113.236,204.99 107.736,164.157 130,119.5C 138.289,106.378 148.789,95.3782 161.5,86.5 Z"/></g>
<g><path style="opacity:1" fill="#f1c2be" d="M 239.5,115.5 C 239.47,119.618 238.803,123.618 237.5,127.5C 235.262,126.463 232.929,126.297 230.5,127C 227.72,129.865 224.72,132.532 221.5,135C 209.134,142.034 197.967,140.534 188,130.5C 179.955,116.304 182.789,104.804 196.5,96C 214.947,89.5872 227.28,95.5872 233.5,114C 235.345,115.128 237.345,115.628 239.5,115.5 Z"/></g>
<g><path style="opacity:1" fill="#f9a30a" d="M 202.5,96.5 C 224.055,95.9858 231.888,105.986 226,126.5C 215.636,138.536 204.303,139.536 192,129.5C 183.744,114.767 187.244,103.767 202.5,96.5 Z"/></g>
<g><path style="opacity:1" fill="#0a0500" d="M 203.5,100.5 C 205.017,100.511 206.184,101.177 207,102.5C 208.167,104.333 209.333,106.167 210.5,108C 214.501,107.838 218.501,107.338 222.5,106.5C 222.509,108.308 222.009,109.975 221,111.5C 219.108,113.054 217.608,114.888 216.5,117C 224.393,127.276 222.393,129.776 210.5,124.5C 207.642,125.995 205.308,128.162 203.5,131C 202.552,131.483 201.552,131.649 200.5,131.5C 200.665,127.818 200.499,124.152 200,120.5C 197.602,119.144 195.102,117.977 192.5,117C 191.663,115.989 191.33,114.822 191.5,113.5C 195.261,113.352 198.761,112.352 202,110.5C 202.248,107.081 202.748,103.747 203.5,100.5 Z"/></g>
<g><path style="opacity:1" fill="#56a432" d="M 115.5,243.5 C 111.388,241.272 107.388,238.772 103.5,236C 73.9179,213.722 44.5846,191.222 15.5,168.5C 39.8514,164.351 64.1848,164.518 88.5,169C 92.7755,170.486 97.1089,171.819 101.5,173C 102.921,198.823 111.588,221.823 127.5,242C 123.534,242.828 119.534,243.328 115.5,243.5 Z"/></g>
<g><path style="opacity:1" fill="#3f7925" d="M 494.5,181.5 C 494.44,180.957 494.107,180.624 493.5,180.5C 459.198,198.652 424.865,216.818 390.5,235C 388.308,236.067 386.642,237.567 385.5,239.5C 379.217,237.346 372.883,235.346 366.5,233.5C 363.238,222.144 358.238,211.644 351.5,202C 364.468,185.01 381.468,174.344 402.5,170C 433.909,165.314 464.576,168.314 494.5,179C 495.774,179.977 495.774,180.811 494.5,181.5 Z"/></g>
<g><path style="opacity:1" fill="#3f7925" d="M 15.5,168.5 C 44.5846,191.222 73.9179,213.722 103.5,236C 107.388,238.772 111.388,241.272 115.5,243.5C 95.0492,247.225 77.0492,256.058 61.5,270C 60.8333,270.667 60.1667,270.667 59.5,270C 43.6068,255.086 32.1068,237.252 25,216.5C 19.9392,201.158 16.4392,185.492 14.5,169.5C 14.6236,168.893 14.9569,168.56 15.5,168.5 Z"/></g>
<g><path style="opacity:0.999" fill="#56a432" d="M 494.5,181.5 C 489.973,199.911 482.807,217.244 473,233.5C 471.861,237.421 472.695,240.754 475.5,243.5C 472.915,248.091 469.915,252.424 466.5,256.5C 463.741,254.707 460.741,254.207 457.5,255C 450.606,261.731 443.273,267.897 435.5,273.5C 421.812,257.817 405.146,246.483 385.5,239.5C 386.642,237.567 388.308,236.067 390.5,235C 424.865,216.818 459.198,198.652 493.5,180.5C 494.107,180.624 494.44,180.957 494.5,181.5 Z"/></g>
<g><path style="opacity:1" fill="#b50e0e" d="M 328.5,198.5 C 332.434,200.598 335.6,203.598 338,207.5C 343.472,214.776 347.639,222.776 350.5,231.5C 337.945,231.742 325.612,233.409 313.5,236.5C 313.167,236.167 312.833,235.833 312.5,235.5C 320.303,224.228 325.636,211.895 328.5,198.5 Z"/></g>
<g><path style="opacity:1" fill="#b90e0e" d="M 445.5,402.5 C 443.167,407.167 440.833,411.833 438.5,416.5C 435.201,415.624 431.868,415.457 428.5,416C 424.797,419.367 421.464,423.034 418.5,427C 414.957,430.049 411.291,432.882 407.5,435.5C 360.817,444.552 322.317,430.886 292,394.5C 267.697,359.706 263.031,322.372 278,282.5C 280.937,276.288 284.104,270.288 287.5,264.5C 323.303,241.82 359.97,240.654 397.5,261C 445.667,294.334 460.333,338.834 441.5,394.5C 441.782,397.731 443.115,400.398 445.5,402.5 Z"/></g>
<g><path style="opacity:1" fill="#b90f0e" d="M 191.5,431.5 C 142.628,439.473 104.794,422.806 78,381.5C 71.7405,369.903 67.9072,357.903 66.5,345.5C 87.4998,357.476 106.666,354.809 124,337.5C 130.088,330.999 133.088,323.332 133,314.5C 131.982,312.072 130.148,310.738 127.5,310.5C 127.813,306.958 127.479,303.625 126.5,300.5C 130.341,297.474 131.174,293.807 129,289.5C 118.67,277.946 105.836,273.779 90.5,277C 85.9099,278.297 81.5766,280.13 77.5,282.5C 76.9569,282.44 76.6236,282.107 76.5,281.5C 77.8599,278.78 79.1932,276.114 80.5,273.5C 108.632,254.9 138.632,251.4 170.5,263C 215.327,283.801 235.494,318.968 231,368.5C 226.398,395.073 213.231,416.073 191.5,431.5 Z"/></g>
<g><path style="opacity:1" fill="#940b0c" d="M 287.5,264.5 C 284.104,270.288 280.937,276.288 278,282.5C 263.031,322.372 267.697,359.706 292,394.5C 322.317,430.886 360.817,444.552 407.5,435.5C 389.084,449.322 368.251,456.322 345,456.5C 293.2,453.195 259.366,426.861 243.5,377.5C 245.67,369.984 246.67,362.318 246.5,354.5C 245.99,344.093 245.157,333.76 244,323.5C 251.494,298.528 265.994,278.862 287.5,264.5 Z"/></g>
<g><path style="opacity:1" fill="#930b0b" d="M 80.5,273.5 C 79.1932,276.114 77.8599,278.78 76.5,281.5C 76.6236,282.107 76.9569,282.44 77.5,282.5C 57.7201,295.397 51.5535,313.063 59,335.5C 61.2657,339.042 63.7657,342.375 66.5,345.5C 67.9072,357.903 71.7405,369.903 78,381.5C 104.794,422.806 142.628,439.473 191.5,431.5C 186.271,435.533 180.604,439.033 174.5,442C 150.078,452.319 125.412,452.985 100.5,444C 70.4379,431.08 50.6045,408.913 41,377.5C 38.8587,374.679 36.0254,373.346 32.5,373.5C 31.8379,369.534 31.5045,365.534 31.5,361.5C 34.3397,360.314 36.5064,358.314 38,355.5C 38.2209,320.719 52.3876,293.386 80.5,273.5 Z"/></g>
<g><path style="opacity:1" fill="#050201" d="M 126.5,300.5 C 124.143,300.663 121.81,300.497 119.5,300C 108.729,288.877 96.7286,287.544 83.5,296C 73.0825,303.661 68.9158,313.828 71,326.5C 75.9712,336.9 84.1379,340.734 95.5,338C 108.64,334.193 117.14,325.693 121,312.5C 122.897,310.984 125.064,310.317 127.5,310.5C 130.148,310.738 131.982,312.072 133,314.5C 133.088,323.332 130.088,330.999 124,337.5C 106.666,354.809 87.4998,357.476 66.5,345.5C 63.7657,342.375 61.2657,339.042 59,335.5C 51.5535,313.063 57.7201,295.397 77.5,282.5C 81.5766,280.13 85.9099,278.297 90.5,277C 105.836,273.779 118.67,277.946 129,289.5C 131.174,293.807 130.341,297.474 126.5,300.5 Z"/></g>
<g><path style="opacity:1" fill="#8d0b0b" d="M 244.5,281.5 C 245.873,281.343 247.207,281.51 248.5,282C 243.538,288.751 239.205,295.918 235.5,303.5C 231.636,297.617 227.636,291.784 223.5,286C 230.684,284.897 237.684,283.397 244.5,281.5 Z"/></g>
<g><path style="opacity:1" fill="#f2c3c0" d="M 126.5,300.5 C 127.479,303.625 127.813,306.958 127.5,310.5C 125.064,310.317 122.897,310.984 121,312.5C 117.14,325.693 108.64,334.193 95.5,338C 84.1379,340.734 75.9712,336.9 71,326.5C 68.9158,313.828 73.0825,303.661 83.5,296C 96.7286,287.544 108.729,288.877 119.5,300C 121.81,300.497 124.143,300.663 126.5,300.5 Z"/></g>
<g><path style="opacity:1" fill="#050101" d="M 428.5,359.5 C 425.498,357.98 423.831,355.48 423.5,352C 426.774,338.559 424.274,326.393 416,315.5C 405.475,304.476 394.475,303.81 383,313.5C 372.471,332.209 374.971,349.043 390.5,364C 396.599,368.596 403.266,369.596 410.5,367C 413.226,364.97 416.226,363.47 419.5,362.5C 421.3,362.902 422.967,363.569 424.5,364.5C 426.961,367.642 427.128,370.975 425,374.5C 415.086,382.551 403.919,384.717 391.5,381C 372.303,371.131 362.303,355.297 361.5,333.5C 362.093,313.776 371.426,300.276 389.5,293C 408.845,290.341 423.345,297.508 433,314.5C 440.577,328.552 441.41,342.885 435.5,357.5C 433.382,358.946 431.049,359.613 428.5,359.5 Z"/></g>
<g><path style="opacity:1" fill="#faa40d" d="M 95.5,292.5 C 110.89,292.052 117.723,299.385 116,314.5C 111.215,329.278 101.048,336.112 85.5,335C 76.3581,331.222 72.5247,324.388 74,314.5C 77.3501,303.318 84.5167,295.984 95.5,292.5 Z"/></g>
<g><path style="opacity:1" fill="#0c0700" d="M 99.5,296.5 C 100.496,296.414 101.329,296.748 102,297.5C 102.499,301.152 102.665,304.818 102.5,308.5C 105.786,309.207 109.119,309.54 112.5,309.5C 112.67,310.822 112.337,311.989 111.5,313C 108.5,314.5 105.5,316 102.5,317.5C 101.803,321.377 101.136,325.21 100.5,329C 99.5,329.667 98.5,329.667 97.5,329C 95.607,326.697 93.607,324.53 91.5,322.5C 88.1667,324.167 84.8333,325.833 81.5,327.5C 80.3861,326.277 80.2195,324.944 81,323.5C 83.139,321.194 84.639,318.527 85.5,315.5C 83.2372,312.778 81.7372,309.778 81,306.5C 85.0933,306.546 89.2599,306.213 93.5,305.5C 95.5258,302.482 97.5258,299.482 99.5,296.5 Z"/></g>
<g><path style="opacity:1" fill="#f3c4c3" d="M 428.5,359.5 C 427.407,361.349 426.074,363.016 424.5,364.5C 422.967,363.569 421.3,362.902 419.5,362.5C 416.226,363.47 413.226,364.97 410.5,367C 403.266,369.596 396.599,368.596 390.5,364C 374.971,349.043 372.471,332.209 383,313.5C 394.475,303.81 405.475,304.476 416,315.5C 424.274,326.393 426.774,338.559 423.5,352C 423.831,355.48 425.498,357.98 428.5,359.5 Z"/></g>
<g><path style="opacity:1" fill="#f9a30e" d="M 396.5,311.5 C 410.328,312.485 418.828,319.818 422,333.5C 423.978,345.601 419.811,354.768 409.5,361C 400.326,363.72 392.826,361.22 387,353.5C 377.612,339.909 378.445,327.075 389.5,315C 391.925,313.787 394.259,312.621 396.5,311.5 Z"/></g>
<g><path style="opacity:1" fill="#080400" d="M 404.5,318.5 C 405.5,318.5 406.5,318.5 407.5,318.5C 407.334,322.846 407.501,327.179 408,331.5C 410.921,333.712 414.088,335.545 417.5,337C 418.337,338.011 418.67,339.178 418.5,340.5C 414.634,340.954 411.134,342.288 408,344.5C 407.828,348.871 407.328,353.204 406.5,357.5C 403.723,354.128 401.057,350.628 398.5,347C 394.909,347.573 391.242,348.073 387.5,348.5C 387.343,347.127 387.51,345.793 388,344.5C 389.77,341.958 391.27,339.291 392.5,336.5C 390.295,332.322 388.628,327.989 387.5,323.5C 391.484,324.674 395.484,325.507 399.5,326C 401.301,323.557 402.968,321.057 404.5,318.5 Z"/></g>
</svg>
