<?xml version="1.0" encoding="UTF-8"?>
<!DOCTYPE svg PUBLIC "-//W3C//DTD SVG 1.1//EN" "http://www.w3.org/Graphics/SVG/1.1/DTD/svg11.dtd">
<svg xmlns="http://www.w3.org/2000/svg" version="1.1" width="512px" height="512px" style="shape-rendering:geometricPrecision; text-rendering:geometricPrecision; image-rendering:optimizeQuality; fill-rule:evenodd; clip-rule:evenodd" xmlns:xlink="http://www.w3.org/1999/xlink">
<g><path style="opacity:0.975" fill="#383737" d="M 511.5,164.5 C 511.5,168.5 511.5,172.5 511.5,176.5C 508.059,184.226 502.059,187.892 493.5,187.5C 483.66,256.207 473.493,324.874 463,393.5C 457.922,407.961 447.755,416.127 432.5,418C 314.5,418.667 196.5,418.667 78.5,418C 60.9034,415.737 50.4034,405.903 47,388.5C 38.6667,332.167 30.3333,275.833 22,219.5C 21.0044,214.771 21.5044,210.271 23.5,206C 25.1932,205.153 26.8599,204.32 28.5,203.5C 34.6931,203.857 38.1931,207.19 39,213.5C 47.4847,271.561 56.1514,329.561 65,387.5C 66.3994,393.9 70.2327,398.066 76.5,400C 195.5,400.667 314.5,400.667 433.5,400C 442.178,397.509 446.678,391.676 447,382.5C 456.455,317.481 465.955,252.481 475.5,187.5C 325.5,187.5 175.5,187.5 25.5,187.5C 13.9591,190.003 5.29243,186.336 -0.5,176.5C -0.5,172.5 -0.5,168.5 -0.5,164.5C 3.89022,154.704 8.05689,144.704 12,134.5C 15.0847,130.208 19.2514,127.875 24.5,127.5C 22.5234,114.235 26.8567,103.735 37.5,96C 40.9567,94.2565 44.6233,93.2565 48.5,93C 186.5,92.3333 324.5,92.3333 462.5,93C 475.445,94.6131 483.279,101.78 486,114.5C 486.499,118.821 486.666,123.154 486.5,127.5C 491.749,127.875 495.915,130.208 499,134.5C 502.943,144.704 507.11,154.704 511.5,164.5 Z"/></g>
<g><path style="opacity:1" fill="#d5e5e6" d="M 47.5,110.5 C 186.167,110.333 324.834,110.5 463.5,111C 465.667,111.833 467.167,113.333 468,115.5C 468.499,119.486 468.666,123.486 468.5,127.5C 326.5,127.5 184.5,127.5 42.5,127.5C 42.3345,123.486 42.5012,119.486 43,115.5C 44.025,113.313 45.525,111.646 47.5,110.5 Z"/></g>
<g><path style="opacity:1" fill="#c2d9db" d="M 493.5,168.5 C 334.833,169.833 176.167,169.833 17.5,168.5C 20.2097,160.743 23.2097,153.076 26.5,145.5C 179.167,144.167 331.833,144.167 484.5,145.5C 487.79,153.076 490.79,160.743 493.5,168.5 Z"/></g>
<g><path style="opacity:1" fill="#93a2a4" d="M 17.5,168.5 C 176.167,169.833 334.833,169.833 493.5,168.5C 494.043,168.56 494.376,168.893 494.5,169.5C 335.167,170.833 175.833,170.833 16.5,169.5C 16.6236,168.893 16.9569,168.56 17.5,168.5 Z"/></g>
<g><path style="opacity:1" fill="#eeb158" d="M 25.5,187.5 C 175.5,187.5 325.5,187.5 475.5,187.5C 465.955,252.481 456.455,317.481 447,382.5C 446.678,391.676 442.178,397.509 433.5,400C 314.5,400.667 195.5,400.667 76.5,400C 70.2327,398.066 66.3994,393.9 65,387.5C 56.1514,329.561 47.4847,271.561 39,213.5C 38.1931,207.19 34.6931,203.857 28.5,203.5C 27.4975,198.141 26.4975,192.808 25.5,187.5 Z"/></g>
<g><path style="opacity:1" fill="#393838" d="M 154.5,204.5 C 200.835,204.333 247.168,204.5 293.5,205C 298.269,206.13 302.103,208.63 305,212.5C 308.574,209.961 312.407,207.794 316.5,206C 323.898,204.614 330.065,206.78 335,212.5C 347,231.833 359,251.167 371,270.5C 374.955,276.422 375.455,282.589 372.5,289C 402.613,284.112 414.779,296.612 409,326.5C 407.182,332.818 403.349,337.485 397.5,340.5C 393.842,348.486 389.675,356.153 385,363.5C 380.013,368.41 374.18,371.91 367.5,374C 293.167,374.667 218.833,374.667 144.5,374C 137.373,372.209 131.206,368.709 126,363.5C 121.325,356.153 117.158,348.486 113.5,340.5C 108.081,337.58 104.247,333.247 102,327.5C 95.3575,297.985 106.857,285.318 136.5,289.5C 136.333,267.164 136.5,244.831 137,222.5C 140.327,214.007 146.161,208.007 154.5,204.5 Z"/></g>
<g><path style="opacity:1" fill="#f8c85e" d="M 158.5,221.5 C 202.167,221.5 245.833,221.5 289.5,221.5C 289.5,244.167 289.5,266.833 289.5,289.5C 244.167,289.5 198.833,289.5 153.5,289.5C 153.333,268.164 153.5,246.831 154,225.5C 155.397,223.93 156.897,222.596 158.5,221.5 Z"/></g>
<g><path style="opacity:1" fill="#f4c55e" d="M 320.5,222.5 C 332.934,241.851 345.267,261.351 357.5,281C 353,284.085 348.333,286.918 343.5,289.5C 330.793,270.588 318.459,251.422 306.5,232C 311.406,229.058 316.072,225.891 320.5,222.5 Z"/></g>
<g><path style="opacity:1" fill="#e7ac57" d="M 306.5,264.5 C 311.934,272.516 317.267,280.683 322.5,289C 317.177,289.499 311.844,289.666 306.5,289.5C 306.5,281.167 306.5,272.833 306.5,264.5 Z"/></g>
<g><path style="opacity:1" fill="#b1bdbe" d="M 391.5,323.5 C 391.5,318.167 391.5,312.833 391.5,307.5C 300.833,307.5 210.167,307.5 119.5,307.5C 119.5,312.833 119.5,318.167 119.5,323.5C 118.511,318.025 118.178,312.358 118.5,306.5C 209.833,306.5 301.167,306.5 392.5,306.5C 392.822,312.358 392.489,318.025 391.5,323.5 Z"/></g>
<g><path style="opacity:1" fill="#d5e6e6" d="M 391.5,323.5 C 300.833,323.5 210.167,323.5 119.5,323.5C 119.5,318.167 119.5,312.833 119.5,307.5C 210.167,307.5 300.833,307.5 391.5,307.5C 391.5,312.833 391.5,318.167 391.5,323.5 Z"/></g>
<g><path style="opacity:1" fill="#bfd6d8" d="M 133.5,340.5 C 214.833,340.5 296.167,340.5 377.5,340.5C 375.925,348.235 371.592,353.735 364.5,357C 291.5,357.667 218.5,357.667 145.5,357C 139.026,353.351 135.026,347.851 133.5,340.5 Z"/></g>
</svg>
