<?xml version="1.0" encoding="UTF-8"?>
<!DOCTYPE svg PUBLIC "-//W3C//DTD SVG 1.1//EN" "http://www.w3.org/Graphics/SVG/1.1/DTD/svg11.dtd">
<svg xmlns="http://www.w3.org/2000/svg" version="1.1" width="512px" height="512px" style="shape-rendering:geometricPrecision; text-rendering:geometricPrecision; image-rendering:optimizeQuality; fill-rule:evenodd; clip-rule:evenodd" xmlns:xlink="http://www.w3.org/1999/xlink">
<g><path style="opacity:0.982" fill="#020202" d="M 225.5,-0.5 C 252.167,-0.5 278.833,-0.5 305.5,-0.5C 317.992,3.83108 325.825,12.4977 329,25.5C 329.5,36.1615 329.667,46.8281 329.5,57.5C 339.842,60.3426 346.342,67.0092 349,77.5C 351.283,88.8843 348.117,98.3843 339.5,106C 345.637,109.132 349.97,113.798 352.5,120C 352.475,121.876 351.809,123.376 350.5,124.5C 347.993,127.036 344.993,127.869 341.5,127C 334.995,120.914 327.662,116.081 319.5,112.5C 283.669,111.336 247.669,111.169 211.5,112C 182.648,126.875 165.981,150.375 161.5,182.5C 182.846,182.305 204.179,182.639 225.5,183.5C 237.322,181.565 247.989,184.065 257.5,191C 263.264,197.366 266.097,204.866 266,213.5C 267.115,231.253 266.448,248.919 264,266.5C 260.242,276.469 253.075,282.302 242.5,284C 232.813,284.306 223.147,284.806 213.5,285.5C 195.167,285.5 176.833,285.5 158.5,285.5C 158.333,300.17 158.5,314.837 159,329.5C 172.385,347.939 181.719,368.273 187,390.5C 191.505,368.169 200.338,347.836 213.5,329.5C 221.815,319.019 231.815,310.519 243.5,304C 262.542,296.453 280.542,298.453 297.5,310C 307.107,317.437 315.107,326.27 321.5,336.5C 322.167,337.833 322.833,337.833 323.5,336.5C 336.078,311.011 348.911,285.678 362,260.5C 365.015,257.317 368.182,254.317 371.5,251.5C 372.355,230.503 372.188,209.503 371,188.5C 369.74,173.053 365.073,158.72 357,145.5C 356.024,141.673 356.857,138.34 359.5,135.5C 364.031,133.675 367.864,134.675 371,138.5C 379.71,153.339 384.71,169.339 386,186.5C 386.855,206.159 387.355,225.826 387.5,245.5C 402.385,244.359 413.885,250.026 422,262.5C 427.391,272.613 432.224,282.947 436.5,293.5C 436.444,296.111 435.444,298.278 433.5,300C 417.974,303.899 412.474,313.399 417,328.5C 421.746,336.123 428.58,339.289 437.5,338C 442.319,335.977 446.985,333.81 451.5,331.5C 454.111,331.556 456.278,332.556 458,334.5C 476.407,369.98 494.24,405.646 511.5,441.5C 511.5,446.833 511.5,452.167 511.5,457.5C 509.141,464.361 505.141,470.195 499.5,475C 472.401,495.309 442.068,507.476 408.5,511.5C 396.5,511.5 384.5,511.5 372.5,511.5C 361.484,509.829 350.484,507.495 339.5,504.5C 338.088,503.467 336.422,502.801 334.5,502.5C 332.962,502.453 331.962,503.12 331.5,504.5C 328.976,505.927 326.31,507.094 323.5,508C 313.685,509.178 304.019,510.345 294.5,511.5C 258.833,511.5 223.167,511.5 187.5,511.5C 182.452,509.921 177.452,507.921 172.5,505.5C 170.615,506.609 168.615,507.443 166.5,508C 156.358,509.245 146.358,510.412 136.5,511.5C 117.5,511.5 98.5,511.5 79.5,511.5C 69.6415,510.412 59.6415,509.245 49.5,508C 39.8883,505.389 34.0549,499.222 32,489.5C 28.2484,469.578 25.0818,449.578 22.5,429.5C 11.6421,430.576 3.97539,426.243 -0.5,416.5C -0.5,412.167 -0.5,407.833 -0.5,403.5C 1.98203,397.52 6.31536,393.353 12.5,391C 18.0829,390.809 23.5829,390.309 29,389.5C 31.1385,377.584 34.9718,366.251 40.5,355.5C 43.0283,353.126 46.0283,352.126 49.5,352.5C 51.9677,354.641 53.6344,357.308 54.5,360.5C 50.165,370.172 46.8317,380.172 44.5,390.5C 54.1667,390.5 63.8333,390.5 73.5,390.5C 105.833,390.5 138.167,390.5 170.5,390.5C 165.317,364.297 152.984,342.13 133.5,324C 124.496,316.5 114.162,313.167 102.5,314C 99.135,314.505 96.135,315.672 93.5,317.5C 82.2212,322.605 73.2212,330.439 66.5,341C 63.2637,342.724 59.9303,342.89 56.5,341.5C 52.5525,336.781 52.7191,332.114 57,327.5C 68.0814,312.747 82.5814,303.247 100.5,299C 116.188,297.119 130.022,301.286 142,311.5C 142.84,269.829 143.84,228.162 145,186.5C 148.024,152.264 163.524,125.431 191.5,106C 182.883,98.3843 179.717,88.8843 182,77.5C 184.658,67.0092 191.158,60.3426 201.5,57.5C 201.333,46.8281 201.5,36.1615 202,25.5C 205.175,12.4977 213.008,3.83108 225.5,-0.5 Z"/></g>
<g><path style="opacity:1" fill="#d6d6d6" d="M 249.5,14.5 C 246.876,18.0845 245.043,22.0845 244,26.5C 243.5,36.1609 243.334,45.8276 243.5,55.5C 266.833,55.5 290.167,55.5 313.5,55.5C 281.671,56.4982 249.671,56.8316 217.5,56.5C 217.044,45.0645 217.544,33.7312 219,22.5C 221.592,19.2379 224.759,16.7379 228.5,15C 235.492,14.5004 242.492,14.3337 249.5,14.5 Z"/></g>
<g><path style="opacity:1" fill="#ebebeb" d="M 249.5,14.5 C 267.17,14.3334 284.836,14.5001 302.5,15C 306.948,17.1145 310.448,20.2811 313,24.5C 313.5,34.828 313.666,45.1613 313.5,55.5C 290.167,55.5 266.833,55.5 243.5,55.5C 243.334,45.8276 243.5,36.1609 244,26.5C 245.043,22.0845 246.876,18.0845 249.5,14.5 Z"/></g>
<g><path style="opacity:1" fill="#d8d8d8" d="M 239.5,71.5 C 234.52,79.5402 234.186,87.8736 238.5,96.5C 227.162,96.6665 215.828,96.4999 204.5,96C 193.833,88 193.833,80 204.5,72C 216.162,71.5001 227.829,71.3335 239.5,71.5 Z"/></g>
<g><path style="opacity:1" fill="#ebebeb" d="M 239.5,71.5 C 267.835,71.3334 296.169,71.5 324.5,72C 334.117,75.7367 336.617,82.2367 332,91.5C 330.363,93.8102 328.196,95.3102 325.5,96C 296.502,96.5 267.502,96.6666 238.5,96.5C 234.186,87.8736 234.52,79.5402 239.5,71.5 Z"/></g>
<g><path style="opacity:1" fill="#aedff3" d="M 319.5,112.5 C 290.826,112.167 262.159,112.5 233.5,113.5C 221.436,134.85 215.436,157.85 215.5,182.5C 219.042,182.187 222.375,182.521 225.5,183.5C 204.179,182.639 182.846,182.305 161.5,182.5C 165.981,150.375 182.648,126.875 211.5,112C 247.669,111.169 283.669,111.336 319.5,112.5 Z"/></g>
<g><path style="opacity:1" fill="#d2edf9" d="M 319.5,112.5 C 327.662,116.081 334.995,120.914 341.5,127C 344.993,127.869 347.993,127.036 350.5,124.5C 353.878,127.876 356.878,131.543 359.5,135.5C 356.857,138.34 356.024,141.673 357,145.5C 365.073,158.72 369.74,173.053 371,188.5C 372.188,209.503 372.355,230.503 371.5,251.5C 368.182,254.317 365.015,257.317 362,260.5C 348.911,285.678 336.078,311.011 323.5,336.5C 322.833,337.833 322.167,337.833 321.5,336.5C 315.107,326.27 307.107,317.437 297.5,310C 280.542,298.453 262.542,296.453 243.5,304C 231.815,310.519 221.815,319.019 213.5,329.5C 213.5,314.833 213.5,300.167 213.5,285.5C 223.147,284.806 232.813,284.306 242.5,284C 253.075,282.302 260.242,276.469 264,266.5C 266.448,248.919 267.115,231.253 266,213.5C 266.097,204.866 263.264,197.366 257.5,191C 247.989,184.065 237.322,181.565 225.5,183.5C 222.375,182.521 219.042,182.187 215.5,182.5C 215.436,157.85 221.436,134.85 233.5,113.5C 262.159,112.5 290.826,112.167 319.5,112.5 Z"/></g>
<g><path style="opacity:1" fill="#d8d8d8" d="M 221.5,198.5 C 219.167,198.5 216.833,198.5 214.5,198.5C 214.345,222.17 214.012,245.836 213.5,269.5C 215.5,269.5 217.5,269.5 219.5,269.5C 199.34,270.497 179.007,270.83 158.5,270.5C 158.98,246.169 159.313,221.836 159.5,197.5C 180.34,197.169 201.007,197.503 221.5,198.5 Z"/></g>
<g><path style="opacity:1" fill="#eaeaea" d="M 221.5,198.5 C 228.175,198.334 234.842,198.5 241.5,199C 246.876,201.04 250.043,204.873 251,210.5C 251.667,225.167 251.667,239.833 251,254.5C 251.123,260.146 248.956,264.646 244.5,268C 236.251,269.406 227.917,269.906 219.5,269.5C 217.5,269.5 215.5,269.5 213.5,269.5C 214.012,245.836 214.345,222.17 214.5,198.5C 216.833,198.5 219.167,198.5 221.5,198.5 Z"/></g>
<g><path style="opacity:1" fill="#fccd62" d="M 385.5,260.5 C 394.714,259.34 402.214,262.34 408,269.5C 411.167,275.833 414.333,282.167 417.5,288.5C 398.925,301.467 394.758,318.134 405,338.5C 416.283,353.705 430.783,357.705 448.5,350.5C 462.756,378.011 476.756,405.678 490.5,433.5C 466.919,452.613 439.919,464.113 409.5,468C 388.123,470.024 367.123,468.19 346.5,462.5C 346.167,461.667 345.833,460.833 345.5,460C 347.494,449.874 349.161,439.708 350.5,429.5C 368.815,428.689 375.981,419.355 372,401.5C 368.842,395.673 364.008,392.173 357.5,391C 352.845,390.501 348.179,390.334 343.5,390.5C 341.595,377.62 337.595,365.453 331.5,354C 345.787,325.927 359.953,297.76 374,269.5C 377.161,265.491 380.994,262.491 385.5,260.5 Z"/></g>
<g><path style="opacity:1" fill="#afe2f7" d="M 213.5,285.5 C 213.5,300.167 213.5,314.833 213.5,329.5C 200.338,347.836 191.505,368.169 187,390.5C 181.719,368.273 172.385,347.939 159,329.5C 158.5,314.837 158.333,300.17 158.5,285.5C 176.833,285.5 195.167,285.5 213.5,285.5 Z"/></g>
<g><path style="opacity:1" fill="#ebebeb" d="M 73.5,390.5 C 75.3451,364.78 82.0118,340.447 93.5,317.5C 96.135,315.672 99.135,314.505 102.5,314C 114.162,313.167 124.496,316.5 133.5,324C 152.984,342.13 165.317,364.297 170.5,390.5C 138.167,390.5 105.833,390.5 73.5,390.5 Z"/></g>
<g><path style="opacity:1" fill="#eaeaea" d="M 231.5,390.5 C 233.613,365.046 239.947,340.713 250.5,317.5C 260.045,312.35 269.712,312.183 279.5,317C 295.774,325.941 307.941,338.774 316,355.5C 321.876,366.579 326.042,378.246 328.5,390.5C 296.167,390.5 263.833,390.5 231.5,390.5 Z"/></g>
<g><path style="opacity:1" fill="#d7d7d7" d="M 250.5,317.5 C 239.947,340.713 233.613,365.046 231.5,390.5C 221.833,390.5 212.167,390.5 202.5,390.5C 207.884,364.969 219.884,343.136 238.5,325C 242.36,322.239 246.36,319.739 250.5,317.5 Z"/></g>
<g><path style="opacity:1" fill="#d8d8d8" d="M 93.5,317.5 C 82.0118,340.447 75.3451,364.78 73.5,390.5C 63.8333,390.5 54.1667,390.5 44.5,390.5C 46.8317,380.172 50.165,370.172 54.5,360.5C 53.6344,357.308 51.9677,354.641 49.5,352.5C 52.0692,349.039 54.4026,345.372 56.5,341.5C 59.9303,342.89 63.2637,342.724 66.5,341C 73.2212,330.439 82.2212,322.605 93.5,317.5 Z"/></g>
<g><path style="opacity:1" fill="#070502" d="M 365.5,339.5 C 385.511,339.012 395.344,348.679 395,368.5C 390.505,382.984 380.672,389.484 365.5,388C 351.562,383.058 345.395,373.225 347,358.5C 350.017,348.984 356.184,342.651 365.5,339.5 Z"/></g>
<g><path style="opacity:1" fill="#f4b94c" d="M 367.5,354.5 C 378.847,354.88 382.347,360.213 378,370.5C 370.991,375.448 365.658,374.115 362,366.5C 360.873,361.089 362.707,357.089 367.5,354.5 Z"/></g>
<g><path style="opacity:1" fill="#050301" d="M 418.5,380.5 C 437.914,379.117 451.081,387.45 458,405.5C 460.647,430.851 449.313,444.851 424,447.5C 400.56,443.318 390.227,429.318 393,405.5C 397.443,392.889 405.943,384.555 418.5,380.5 Z"/></g>
<g><path style="opacity:1" fill="#fbbf4e" d="M 420.5,395.5 C 439.033,395.527 446.199,404.527 442,422.5C 434.725,432.61 425.558,434.777 414.5,429C 407.963,423.245 405.797,416.078 408,407.5C 410.744,401.921 414.911,397.921 420.5,395.5 Z"/></g>
<g><path style="opacity:1" fill="#de8123" d="M 50.5,405.5 C 49.1667,408.5 49.1667,411.5 50.5,414.5C 39.1618,414.667 27.8284,414.5 16.5,414C 13.8333,411.333 13.8333,408.667 16.5,406C 27.8284,405.5 39.1618,405.333 50.5,405.5 Z"/></g>
<g><path style="opacity:1" fill="#e29341" d="M 50.5,405.5 C 152.501,405.333 254.501,405.5 356.5,406C 359.167,408.667 359.167,411.333 356.5,414C 254.501,414.5 152.501,414.667 50.5,414.5C 49.1667,411.5 49.1667,408.5 50.5,405.5 Z"/></g>
<g><path style="opacity:1" fill="#e18323" d="M 334.5,435.5 C 297.833,435.5 261.167,435.5 224.5,435.5C 227.659,455.125 231.326,474.625 235.5,494C 232.518,494.498 229.518,494.665 226.5,494.5C 221.113,494.595 215.78,494.095 210.5,493C 208.714,492.215 207.214,491.049 206,489.5C 204.13,481.956 202.797,474.289 202,466.5C 200.132,460.159 195.965,456.492 189.5,455.5C 188.432,454.566 187.099,454.232 185.5,454.5C 186.11,448.185 186.443,441.851 186.5,435.5C 146.833,435.5 107.167,435.5 67.5,435.5C 70.3668,454.898 73.7002,474.231 77.5,493.5C 74.5719,494.484 71.5719,494.817 68.5,494.5C 63.1674,494.067 57.834,493.567 52.5,493C 49.6193,491.749 47.786,489.583 47,486.5C 43.6814,467.563 40.8481,448.563 38.5,429.5C 137.5,429.5 236.5,429.5 335.5,429.5C 335.795,431.735 335.461,433.735 334.5,435.5 Z"/></g>
<g><path style="opacity:1" fill="#e39441" d="M 189.5,455.5 C 182.418,454.125 176.918,456.458 173,462.5C 170.766,470.682 169.1,479.016 168,487.5C 166.833,490 165,491.833 162.5,493C 131.055,496.829 99.7215,497.329 68.5,494.5C 71.5719,494.817 74.5719,494.484 77.5,493.5C 73.7002,474.231 70.3668,454.898 67.5,435.5C 107.167,435.5 146.833,435.5 186.5,435.5C 186.443,441.851 186.11,448.185 185.5,454.5C 187.099,454.232 188.432,454.566 189.5,455.5 Z"/></g>
<g><path style="opacity:1" fill="#e29441" d="M 334.5,435.5 C 331.669,452.825 328.836,470.159 326,487.5C 325.215,489.286 324.049,490.786 322.5,492C 311.282,493.942 299.949,495.275 288.5,496C 272.167,496.667 255.833,496.667 239.5,496C 234.981,495.825 230.647,495.325 226.5,494.5C 229.518,494.665 232.518,494.498 235.5,494C 231.326,474.625 227.659,455.125 224.5,435.5C 261.167,435.5 297.833,435.5 334.5,435.5 Z"/></g>
<g><path style="opacity:1" fill="#d4586b" d="M 495.5,448.5 C 496.453,452.374 495.62,456.041 493,459.5C 458.418,487.135 418.918,499.302 374.5,496C 363.34,494.535 352.34,492.368 341.5,489.5C 341.395,485.452 341.728,481.452 342.5,477.5C 390.442,489.484 436.109,483.651 479.5,460C 485.294,456.691 490.627,452.858 495.5,448.5 Z"/></g>
<g><path style="opacity:1" fill="#9eccdf" d="M 185.5,470.5 C 186.75,470.577 187.583,471.244 188,472.5C 188.522,480.386 190.022,488.053 192.5,495.5C 188.676,496.199 185.343,495.032 182.5,492C 183.547,484.84 184.547,477.673 185.5,470.5 Z"/></g>
<g><path style="opacity:0.587" fill="#c7e1ec" d="M 339.5,504.5 C 336.833,504.5 334.167,504.5 331.5,504.5C 331.962,503.12 332.962,502.453 334.5,502.5C 336.422,502.801 338.088,503.467 339.5,504.5 Z"/></g>
</svg>
