<?xml version="1.0" encoding="UTF-8"?>
<!DOCTYPE svg PUBLIC "-//W3C//DTD SVG 1.1//EN" "http://www.w3.org/Graphics/SVG/1.1/DTD/svg11.dtd">
<svg xmlns="http://www.w3.org/2000/svg" version="1.1" width="512px" height="512px" style="shape-rendering:geometricPrecision; text-rendering:geometricPrecision; image-rendering:optimizeQuality; fill-rule:evenodd; clip-rule:evenodd" xmlns:xlink="http://www.w3.org/1999/xlink">
<g><path style="opacity:0.973" fill="#1b1a1a" d="M 511.5,170.5 C 511.5,172.833 511.5,175.167 511.5,177.5C 458.535,229.965 405.701,282.632 353,335.5C 354.03,337.947 354.863,340.614 355.5,343.5C 348.559,369.487 338.393,394.153 325,417.5C 321.5,422.286 317.667,422.619 313.5,418.5C 312.636,409.947 310.802,401.614 308,393.5C 269.139,432.695 229.972,471.528 190.5,510C 187.697,510.755 185.03,510.422 182.5,509C 121.272,447.938 60.2716,386.772 -0.5,325.5C -0.5,323.167 -0.5,320.833 -0.5,318.5C 37.9654,280.535 76.2987,242.368 114.5,204C 109.09,194.62 101.09,188.62 90.5,186C 84.1618,184.975 77.9952,183.475 72,181.5C 70.627,179.305 70.2937,176.971 71,174.5C 75.5939,167.904 81.4273,162.738 88.5,159C 109.766,147.019 132.432,141.019 156.5,141C 162.5,147 168.5,153 174.5,159C 175.167,159.667 175.833,159.667 176.5,159C 229.167,106.333 281.833,53.6667 334.5,1C 337.634,0.209879 340.634,0.543213 343.5,2C 399.728,58.0616 455.728,114.228 511.5,170.5 Z"/></g>
<g><path style="opacity:0.999" fill="#613f31" d="M 337.5,15.5 C 391.097,67.4297 444.097,120.096 496.5,173.5C 445.5,225.167 394.167,276.5 342.5,327.5C 289.5,275.167 236.833,222.5 184.5,169.5C 235.521,118.146 286.521,66.8124 337.5,15.5 Z"/></g>
<g><path style="opacity:0.999" fill="#1b1a1a" d="M 338.5,41.5 C 340.655,41.372 342.655,41.872 344.5,43C 354,52.5 363.5,62 373,71.5C 373.667,73.5 373.667,75.5 373,77.5C 363.833,86.6667 354.667,95.8333 345.5,105C 341.913,107.149 338.58,106.816 335.5,104C 327.333,95.8333 319.167,87.6667 311,79.5C 308.23,76.7577 307.896,73.7577 310,70.5C 319.702,60.965 329.202,51.2984 338.5,41.5 Z"/></g>
<g><path style="opacity:0.998" fill="#80513b" d="M 339.5,56.5 C 340.552,56.3505 341.552,56.5172 342.5,57C 348.167,62.6667 353.833,68.3333 359.5,74C 353.333,80.1667 347.167,86.3333 341,92.5C 334.788,86.6236 328.955,80.4569 323.5,74C 328.658,68.0085 333.991,62.1752 339.5,56.5 Z"/></g>
<g><path style="opacity:0.999" fill="#1b1a1a" d="M 386.5,90.5 C 388.527,90.3379 390.527,90.5045 392.5,91C 402,100.5 411.5,110 421,119.5C 421.667,121.5 421.667,123.5 421,125.5C 411.5,135 402,144.5 392.5,154C 389.697,154.755 387.03,154.422 384.5,153C 376,144.5 367.5,136 359,127.5C 355.667,124.167 355.667,120.833 359,117.5C 368.062,108.27 377.228,99.2704 386.5,90.5 Z"/></g>
<g><path style="opacity:0.999" fill="#1b1a1a" d="M 289.5,90.5 C 291.989,90.2978 294.323,90.7978 296.5,92C 305.333,100.833 314.167,109.667 323,118.5C 325,121.5 325,124.5 323,127.5C 313.833,136.667 304.667,145.833 295.5,155C 293.167,155.667 290.833,155.667 288.5,155C 279.333,145.833 270.167,136.667 261,127.5C 259.627,125.305 259.294,122.971 260,120.5C 270.036,110.632 279.869,100.632 289.5,90.5 Z"/></g>
<g><path style="opacity:0.999" fill="#7f503b" d="M 290.5,105.5 C 291.552,105.351 292.552,105.517 293.5,106C 299.212,111.377 304.545,117.043 309.5,123C 304.045,129.457 298.212,135.624 292,141.5C 285.985,135.652 280.152,129.652 274.5,123.5C 280.227,117.778 285.56,111.778 290.5,105.5 Z"/></g>
<g><path style="opacity:1" fill="#81513b" d="M 388.5,104.5 C 395.423,109.753 401.757,115.753 407.5,122.5C 401.833,128.833 395.833,134.833 389.5,140.5C 383.167,134.833 377.167,128.833 371.5,122.5C 377.188,116.48 382.855,110.48 388.5,104.5 Z"/></g>
<g><path style="opacity:0.999" fill="#1b1a1a" d="M 434.5,138.5 C 436.527,138.338 438.527,138.505 440.5,139C 451.077,149.074 461.077,159.574 470.5,170.5C 470.281,171.938 469.781,173.271 469,174.5C 459.833,183.667 450.667,192.833 441.5,202C 438.242,204.104 435.242,203.77 432.5,201C 423.667,192.167 414.833,183.333 406,174.5C 405.333,172.167 405.333,169.833 406,167.5C 415.702,157.965 425.202,148.298 434.5,138.5 Z"/></g>
<g><path style="opacity:1" fill="#1b1a1a" d="M 338.5,138.5 C 340.655,138.372 342.655,138.872 344.5,140C 353.333,148.833 362.167,157.667 371,166.5C 373,169.833 373,173.167 371,176.5C 362.167,185.333 353.333,194.167 344.5,203C 341.833,205 339.167,205 336.5,203C 327.333,193.833 318.167,184.667 309,175.5C 307,172.833 307,170.167 309,167.5C 318.728,157.604 328.562,147.937 338.5,138.5 Z"/></g>
<g><path style="opacity:0.999" fill="#1b1a1a" d="M 241.5,139.5 C 242.873,139.343 244.207,139.51 245.5,140C 255.333,149.833 265.167,159.667 275,169.5C 275.706,171.971 275.373,174.305 274,176.5C 264.833,185.667 255.667,194.833 246.5,204C 243.697,204.755 241.03,204.422 238.5,203C 229.667,194.167 220.833,185.333 212,176.5C 210.627,174.305 210.294,171.971 211,169.5C 221.062,159.271 231.228,149.271 241.5,139.5 Z"/></g>
<g><path style="opacity:0.999" fill="#e5e5e5" d="M 142.5,152.5 C 145.187,152.336 147.854,152.503 150.5,153C 214.68,217.014 278.68,281.18 342.5,345.5C 337.762,362.639 331.096,378.973 322.5,394.5C 312.696,370.092 294.696,360.592 268.5,366C 264.404,366.857 260.404,368.024 256.5,369.5C 259.211,334.369 243.544,312.869 209.5,305C 201.541,303.836 193.541,303.336 185.5,303.5C 191.127,258.721 171.46,235.388 126.5,233.5C 133.879,201.728 121.879,181.561 90.5,173C 97.2246,167.969 104.558,163.969 112.5,161C 122.522,157.831 132.522,154.998 142.5,152.5 Z"/></g>
<g><path style="opacity:0.999" fill="#81513b" d="M 437.5,152.5 C 443.812,158.146 449.812,164.146 455.5,170.5C 449.833,176.833 443.833,182.833 437.5,188.5C 431.348,182.848 425.348,177.015 419.5,171C 425.703,164.965 431.703,158.798 437.5,152.5 Z"/></g>
<g><path style="opacity:0.998" fill="#80513b" d="M 241.5,154.5 C 242.552,154.351 243.552,154.517 244.5,155C 250.167,160.667 255.833,166.333 261.5,172C 255.333,178.167 249.167,184.333 243,190.5C 236.833,184.333 230.667,178.167 224.5,172C 230.37,166.298 236.036,160.465 241.5,154.5 Z"/></g>
<g><path style="opacity:1" fill="#7f503b" d="M 339.5,153.5 C 346.423,158.753 352.757,164.753 358.5,171.5C 352.833,177.833 346.833,183.833 340.5,189.5C 334.167,183.833 328.167,177.833 322.5,171.5C 328.188,165.48 333.855,159.48 339.5,153.5 Z"/></g>
<g><path style="opacity:0.999" fill="#1b1a1a" d="M 385.5,187.5 C 387.527,187.338 389.527,187.505 391.5,188C 400.363,197.197 409.53,206.031 419,214.5C 421.521,217.348 421.854,220.348 420,223.5C 410.833,232.667 401.667,241.833 392.5,251C 389.833,253 387.167,253 384.5,251C 375.333,241.833 366.167,232.667 357,223.5C 356.333,221.167 356.333,218.833 357,216.5C 366.702,206.965 376.202,197.298 385.5,187.5 Z"/></g>
<g><path style="opacity:1" fill="#1b1a1a" d="M 288.5,188.5 C 290.527,188.338 292.527,188.505 294.5,189C 304,198.5 313.5,208 323,217.5C 323.667,219.5 323.667,221.5 323,223.5C 312.926,234.077 302.426,244.077 291.5,253.5C 290.062,253.281 288.729,252.781 287.5,252C 278.333,242.833 269.167,233.667 260,224.5C 257.896,221.242 258.23,218.242 261,215.5C 270.062,206.27 279.228,197.27 288.5,188.5 Z"/></g>
<g><path style="opacity:0.999" fill="#80513b" d="M 387.5,202.5 C 388.552,202.351 389.552,202.517 390.5,203C 396.015,208.348 401.348,213.848 406.5,219.5C 400.833,225.833 394.833,231.833 388.5,237.5C 382.167,231.833 376.167,225.833 370.5,219.5C 376.521,214.146 382.188,208.479 387.5,202.5 Z"/></g>
<g><path style="opacity:1" fill="#80513b" d="M 290.5,202.5 C 297.423,207.753 303.757,213.753 309.5,220.5C 303.833,226.833 297.833,232.833 291.5,238.5C 285.167,232.833 279.167,226.833 273.5,220.5C 279.188,214.48 284.855,208.48 290.5,202.5 Z"/></g>
<g><path style="opacity:1" fill="#f4373a" d="M 114.5,220.5 C 115.497,220.47 116.164,220.97 116.5,222C 114.752,227.828 113.085,233.662 111.5,239.5C 111.406,241.912 112.406,243.745 114.5,245C 163.162,242.138 182.662,264.638 173,312.5C 173.833,313.333 174.667,314.167 175.5,315C 186.866,315.206 198.199,315.873 209.5,317C 237.349,324.58 248.516,342.747 243,371.5C 240.61,376.11 241.11,380.277 244.5,384C 246.5,384.667 248.5,384.667 250.5,384C 263.562,377.544 277.228,375.544 291.5,378C 294.965,378.65 297.965,380.15 300.5,382.5C 270.167,413.5 239.5,444.167 208.5,474.5C 150.5,417.167 92.8333,359.5 35.5,301.5C 62.2448,274.757 88.5781,247.757 114.5,220.5 Z"/></g>
<g><path style="opacity:1" fill="#1b1a1a" d="M 336.5,236.5 C 338.527,236.338 340.527,236.505 342.5,237C 353.077,247.074 363.077,257.574 372.5,268.5C 372.281,269.938 371.781,271.271 371,272.5C 361.833,281.667 352.667,290.833 343.5,300C 340.833,302 338.167,302 335.5,300C 326.667,291.167 317.833,282.333 309,273.5C 307.578,270.97 307.245,268.303 308,265.5C 317.702,255.965 327.202,246.298 336.5,236.5 Z"/></g>
<g><path style="opacity:0.999" fill="#81513b" d="M 338.5,250.5 C 345.423,255.753 351.757,261.753 357.5,268.5C 351.833,274.833 345.833,280.833 339.5,286.5C 333.348,280.848 327.348,275.015 321.5,269C 327.763,263.243 333.43,257.076 338.5,250.5 Z"/></g>
<g><path style="opacity:1" fill="#e3e3e3" d="M 26.5,309.5 C 84.6321,367.132 142.632,424.965 200.5,483C 196.5,487 192.5,491 188.5,495C 187.833,495.667 187.167,495.667 186.5,495C 129.333,437.833 72.1667,380.667 15,323.5C 14.3333,322.833 14.3333,322.167 15,321.5C 19.037,317.631 22.8704,313.631 26.5,309.5 Z"/></g>
</svg>
