<?xml version="1.0" encoding="UTF-8"?>
<!DOCTYPE svg PUBLIC "-//W3C//DTD SVG 1.1//EN" "http://www.w3.org/Graphics/SVG/1.1/DTD/svg11.dtd">
<svg xmlns="http://www.w3.org/2000/svg" version="1.1" width="512px" height="512px" style="shape-rendering:geometricPrecision; text-rendering:geometricPrecision; image-rendering:optimizeQuality; fill-rule:evenodd; clip-rule:evenodd" xmlns:xlink="http://www.w3.org/1999/xlink">
<g><path style="opacity:0.975" fill="#020202" d="M 140.5,-0.5 C 264.167,-0.5 387.833,-0.5 511.5,-0.5C 511.5,5.16667 511.5,10.8333 511.5,16.5C 483.167,16.5 454.833,16.5 426.5,16.5C 426.5,33.5 426.5,50.5 426.5,67.5C 454.833,67.5 483.167,67.5 511.5,67.5C 511.5,73.5 511.5,79.5 511.5,85.5C 479.498,85.6666 447.498,85.5 415.5,85C 412,84.1667 409.833,82 409,78.5C 408.5,69.5062 408.334,60.5062 408.5,51.5C 397.5,51.5 386.5,51.5 375.5,51.5C 376.725,85.7526 361.059,107.919 328.5,118C 315.88,119.374 303.213,119.874 290.5,119.5C 290.5,125.167 290.5,130.833 290.5,136.5C 319.017,140.513 339.517,155.513 352,181.5C 358.149,196.046 359.815,211.046 357,226.5C 355.681,228.487 353.848,229.654 351.5,230C 338.5,230.667 325.5,230.667 312.5,230C 310.061,229.226 308.227,227.726 307,225.5C 307.564,215.528 305.564,206.195 301,197.5C 296.212,192.357 290.379,189.19 283.5,188C 264.833,187.333 246.167,187.333 227.5,188C 216.74,189.427 209.574,195.26 206,205.5C 204.955,212.125 204.289,218.792 204,225.5C 202.773,227.726 200.939,229.226 198.5,230C 184.431,230.947 170.431,230.614 156.5,229C 154.513,227.681 153.346,225.848 153,223.5C 150.506,182.297 168.339,154.13 206.5,139C 211.063,137.525 215.73,136.692 220.5,136.5C 220.5,130.833 220.5,125.167 220.5,119.5C 209.828,119.667 199.161,119.5 188.5,119C 165.674,115.671 149.507,103.505 140,82.5C 138.039,77.3233 136.706,71.99 136,66.5C 135.333,46.1667 135.333,25.8333 136,5.5C 136.804,2.85408 138.304,0.854084 140.5,-0.5 Z"/></g>
<g><path style="opacity:1" fill="#dfdfdf" d="M 153.5,17.5 C 215.501,17.3333 277.501,17.5 339.5,18C 291.781,58.8543 236.781,84.6877 174.5,95.5C 163.84,89.56 157.007,80.56 154,68.5C 153.5,51.5033 153.333,34.5033 153.5,17.5 Z"/></g>
<g><path style="opacity:1" fill="#d0d0d0" d="M 153.5,17.5 C 221.331,16.5008 289.331,16.1675 357.5,16.5C 357.667,33.8365 357.5,51.1699 357,68.5C 352.167,85.3333 341.333,96.1667 324.5,101C 278.5,101.667 232.5,101.667 186.5,101C 182.05,99.9388 178.05,98.1054 174.5,95.5C 236.781,84.6877 291.781,58.8543 339.5,18C 277.501,17.5 215.501,17.3333 153.5,17.5 Z"/></g>
<g><path style="opacity:1" fill="#bebebe" d="M 374.5,16.5 C 386.167,16.5 397.833,16.5 409.5,16.5C 409.5,22.1667 409.5,27.8333 409.5,33.5C 397.833,33.5 386.167,33.5 374.5,33.5C 374.5,27.8333 374.5,22.1667 374.5,16.5 Z"/></g>
<g><path style="opacity:1" fill="#4297d0" d="M 511.5,16.5 C 511.5,33.5 511.5,50.5 511.5,67.5C 483.167,67.5 454.833,67.5 426.5,67.5C 426.5,50.5 426.5,33.5 426.5,16.5C 454.833,16.5 483.167,16.5 511.5,16.5 Z"/></g>
<g><path style="opacity:1" fill="#c0c0c0" d="M 238.5,118.5 C 249.833,118.5 261.167,118.5 272.5,118.5C 272.334,127.506 272.5,136.506 273,145.5C 273.427,149.527 275.594,152.027 279.5,153C 311.534,154.368 331.701,170.535 340,201.5C 340.499,205.152 340.665,208.818 340.5,212.5C 334.833,212.5 329.167,212.5 323.5,212.5C 321.852,189.713 309.852,175.879 287.5,171C 265.167,170.333 242.833,170.333 220.5,171C 203.667,175.833 192.833,186.667 188,203.5C 187.502,206.482 187.335,209.482 187.5,212.5C 181.833,212.5 176.167,212.5 170.5,212.5C 171.521,185.986 184.187,167.486 208.5,157C 215.593,154.382 222.926,153.048 230.5,153C 235,152.5 237.5,150 238,145.5C 238.5,136.506 238.666,127.506 238.5,118.5 Z"/></g>
<g><path style="opacity:0.948" fill="#000000" d="M 176.5,246.5 C 180.883,246.348 184.383,248.015 187,251.5C 191.333,258.833 195.667,266.167 200,273.5C 205.239,292.352 198.239,303.685 179,307.5C 161.234,305.319 153.568,295.319 156,277.5C 160.225,268.048 165.225,259.048 171,250.5C 172.812,249.023 174.645,247.69 176.5,246.5 Z"/></g>
<g><path style="opacity:0.945" fill="#000000" d="M 329.5,246.5 C 333.676,246.168 337.176,247.502 340,250.5C 344.667,258.5 349.333,266.5 354,274.5C 358.365,293.118 351.198,304.118 332.5,307.5C 313.897,304.626 306.397,293.959 310,275.5C 314.667,267.5 319.333,259.5 324,251.5C 325.73,249.598 327.563,247.931 329.5,246.5 Z"/></g>
<g><path style="opacity:1" fill="#6f422b" d="M 178.5,272.5 C 182.313,276.448 184.146,281.115 184,286.5C 179.048,290.909 175.215,290.076 172.5,284C 174.108,279.951 176.108,276.117 178.5,272.5 Z"/></g>
<g><path style="opacity:1" fill="#6f422b" d="M 331.5,272.5 C 334.572,275.632 336.906,279.299 338.5,283.5C 336.708,289.483 333.208,290.816 328,287.5C 327.125,286.127 326.625,284.627 326.5,283C 328.035,279.43 329.702,275.93 331.5,272.5 Z"/></g>
<g><path style="opacity:0.982" fill="#000000" d="M 511.5,464.5 C 511.5,478.833 511.5,493.167 511.5,507.5C 509.833,508.5 508.5,509.833 507.5,511.5C 339.5,511.5 171.5,511.5 3.5,511.5C 2.5,509.833 1.16667,508.5 -0.5,507.5C -0.5,493.167 -0.5,478.833 -0.5,464.5C 1.43331,462.404 3.76664,460.904 6.5,460C 46.1653,459.5 85.8319,459.333 125.5,459.5C 120.575,417.103 115.242,374.769 109.5,332.5C 109.747,328.421 111.747,325.588 115.5,324C 157.5,323.333 199.5,323.333 241.5,324C 244,325.167 245.833,327 247,329.5C 242.494,372.886 237.327,416.219 231.5,459.5C 247.5,459.5 263.5,459.5 279.5,459.5C 273.673,416.219 268.506,372.886 264,329.5C 264.774,327.061 266.274,325.227 268.5,324C 310.833,323.333 353.167,323.333 395.5,324C 397.667,324.833 399.167,326.333 400,328.5C 400.667,332.833 400.667,337.167 400,341.5C 395.001,380.821 390.168,420.155 385.5,459.5C 425.168,459.333 464.835,459.5 504.5,460C 507.233,460.904 509.567,462.404 511.5,464.5 Z"/></g>
<g><path style="opacity:1" fill="#878787" d="M 228.5,341.5 C 195.5,341.5 162.5,341.5 129.5,341.5C 129.5,342.833 129.5,344.167 129.5,345.5C 128.549,344.081 128.216,342.415 128.5,340.5C 162.004,340.168 195.338,340.502 228.5,341.5 Z"/></g>
<g><path style="opacity:1" fill="#878787" d="M 282.5,341.5 C 315.662,340.502 348.996,340.168 382.5,340.5C 382.784,342.415 382.451,344.081 381.5,345.5C 381.5,344.167 381.5,342.833 381.5,341.5C 348.5,341.5 315.5,341.5 282.5,341.5 Z"/></g>
<g><path style="opacity:1" fill="#cfcfcf" d="M 228.5,341.5 C 227.253,351.147 226.086,360.813 225,370.5C 217.309,375.515 208.976,378.848 200,380.5C 192.092,380.154 185.259,377.32 179.5,372C 163.847,364.189 148.514,364.689 133.5,373.5C 131.676,364.238 130.342,354.905 129.5,345.5C 129.5,344.167 129.5,342.833 129.5,341.5C 162.5,341.5 195.5,341.5 228.5,341.5 Z"/></g>
<g><path style="opacity:1" fill="#d0d0d0" d="M 282.5,341.5 C 315.5,341.5 348.5,341.5 381.5,341.5C 381.5,342.833 381.5,344.167 381.5,345.5C 380.743,353.889 379.576,362.222 378,370.5C 370.304,375.938 361.804,378.938 352.5,379.5C 349.833,379.333 347.167,379.167 344.5,379C 339.167,376 333.833,373 328.5,370C 314.235,364.418 300.569,365.584 287.5,373.5C 285.182,362.963 283.515,352.296 282.5,341.5 Z"/></g>
<g><path style="opacity:1" fill="#74452d" d="M 152.5,383.5 C 158.011,383.205 163.344,384.038 168.5,386C 175.732,391.282 183.732,394.949 192.5,397C 202.734,398.22 212.401,396.386 221.5,391.5C 219.962,414.313 217.295,437.147 213.5,460C 190.169,460.5 166.836,460.667 143.5,460.5C 141.04,438.65 138.373,416.816 135.5,395C 135.559,393.564 135.892,392.231 136.5,391C 141.804,388.178 147.137,385.678 152.5,383.5 Z"/></g>
<g><path style="opacity:1" fill="#74452d" d="M 305.5,383.5 C 310.566,383.34 315.566,383.84 320.5,385C 326.5,388.333 332.5,391.667 338.5,395C 350.963,398.757 362.963,397.591 374.5,391.5C 374.833,392.667 375.167,393.833 375.5,395C 372.627,416.816 369.96,438.65 367.5,460.5C 343.925,460.827 320.425,460.494 297,459.5C 294.617,437.268 291.783,415.101 288.5,393C 293.91,389.297 299.576,386.13 305.5,383.5 Z"/></g>
<g><path style="opacity:1" fill="#3e8dc3" d="M 17.5,477.5 C 17.5,482.833 17.5,488.167 17.5,493.5C 176.167,493.5 334.833,493.5 493.5,493.5C 493.5,488.167 493.5,482.833 493.5,477.5C 494.489,482.975 494.822,488.642 494.5,494.5C 335.167,494.5 175.833,494.5 16.5,494.5C 16.1778,488.642 16.5111,482.975 17.5,477.5 Z"/></g>
<g><path style="opacity:1" fill="#4398d1" d="M 17.5,477.5 C 176.167,477.5 334.833,477.5 493.5,477.5C 493.5,482.833 493.5,488.167 493.5,493.5C 334.833,493.5 176.167,493.5 17.5,493.5C 17.5,488.167 17.5,482.833 17.5,477.5 Z"/></g>
</svg>
