<?xml version="1.0" encoding="UTF-8"?>
<!DOCTYPE svg PUBLIC "-//W3C//DTD SVG 1.1//EN" "http://www.w3.org/Graphics/SVG/1.1/DTD/svg11.dtd">
<svg xmlns="http://www.w3.org/2000/svg" version="1.1" width="512px" height="512px" style="shape-rendering:geometricPrecision; text-rendering:geometricPrecision; image-rendering:optimizeQuality; fill-rule:evenodd; clip-rule:evenodd" xmlns:xlink="http://www.w3.org/1999/xlink">
<g><path style="opacity:0.984" fill="#010000" d="M 31.5,-0.5 C 36.8333,-0.5 42.1667,-0.5 47.5,-0.5C 52.5184,1.17822 57.185,3.67822 61.5,7C 64.573,11.0229 67.7397,14.8563 71,18.5C 132.163,8.225 193.663,5.725 255.5,11C 274.466,12.5582 293.3,15.0582 312,18.5C 315.26,14.8563 318.427,11.0229 321.5,7C 325.815,3.67822 330.482,1.17822 335.5,-0.5C 340.833,-0.5 346.167,-0.5 351.5,-0.5C 371.567,6.95803 379.067,21.2914 374,42.5C 370.251,50.9131 364.418,57.4131 356.5,62C 364.459,100.923 370.959,140.089 376,179.5C 377.386,191.466 378.219,203.466 378.5,215.5C 414.253,215.013 449.92,215.513 485.5,217C 486.126,217.75 486.626,218.584 487,219.5C 487.333,227.833 487.667,236.167 488,244.5C 495.356,257.896 503.19,270.896 511.5,283.5C 511.5,358.167 511.5,432.833 511.5,507.5C 510.5,509.167 509.167,510.5 507.5,511.5C 430.167,511.5 352.833,511.5 275.5,511.5C 273.856,510.684 272.69,509.35 272,507.5C 271.502,504.518 271.335,501.518 271.5,498.5C 219.519,503.597 167.519,503.763 115.5,499C 100.182,497.574 85.0157,495.407 70,492.5C 65.4154,501.927 58.2488,508.261 48.5,511.5C 42.5,511.5 36.5,511.5 30.5,511.5C 11.1817,503.531 4.01506,489.198 9,468.5C 12.7487,460.087 18.582,453.587 26.5,449C 19.3025,413.012 13.1359,376.846 8,340.5C 2,283.833 2,227.167 8,170.5C 13.0737,134.3 19.2404,98.3 26.5,62.5C 9.61352,52.7203 3.78018,38.387 9,19.5C 13.2763,9.04916 20.7763,2.38249 31.5,-0.5 Z"/></g>
<g><path style="opacity:1" fill="#e6a940" d="M 34.5,15.5 C 46.9771,14.4677 54.4771,20.1343 57,32.5C 58.6195,34.7262 60.7862,36.0596 63.5,36.5C 125.039,24.7294 187.039,21.5627 249.5,27C 272.137,28.8088 294.637,31.6421 317,35.5C 320.604,36.0126 323.604,35.0126 326,32.5C 329.441,17.5325 338.275,12.6992 352.5,18C 361.765,26.968 361.765,35.968 352.5,45C 349.754,46.7497 346.754,47.7497 343.5,48C 340.372,49.7885 339.039,52.4552 339.5,56C 347.497,97.6502 354.33,139.484 360,181.5C 360.966,192.835 361.8,204.168 362.5,215.5C 346.404,215.03 330.404,215.53 314.5,217C 299.958,239.247 285.792,261.747 272,284.5C 271.5,350.499 271.333,416.499 271.5,482.5C 202.331,489.667 133.498,487.333 65,475.5C 62.3701,475.464 59.8701,475.964 57.5,477C 56.045,481.298 54.2116,485.465 52,489.5C 43.0065,497.797 34.3399,497.464 26,488.5C 20.6812,474.312 25.5146,465.479 40.5,462C 42.995,459.781 43.995,456.948 43.5,453.5C 37.1945,417.53 31.0279,381.53 25,345.5C 17.131,280.07 17.7977,214.737 27,149.5C 32.6854,118.37 38.1854,87.2029 43.5,56C 43.4202,54.1063 43.0869,52.2729 42.5,50.5C 38.6665,48.3697 34.6665,46.5364 30.5,45C 23.203,38.6619 21.703,31.1619 26,22.5C 28.4412,19.5464 31.2745,17.2131 34.5,15.5 Z"/></g>
<g><path style="opacity:1" fill="#020100" d="M 62.5,71.5 C 73.505,71.3335 84.505,71.5002 95.5,72C 99.2771,72.779 101.277,75.1124 101.5,79C 101.27,81.6998 100.27,84.0332 98.5,86C 90.2508,87.4057 81.9174,87.9057 73.5,87.5C 73.5,92.8333 73.5,98.1667 73.5,103.5C 79.2617,103.149 84.9284,103.649 90.5,105C 94.3789,109.298 94.3789,113.631 90.5,118C 84.9284,119.351 79.2617,119.851 73.5,119.5C 73.9204,129.247 73.4204,138.914 72,148.5C 67.631,152.379 63.2976,152.379 59,148.5C 58.6667,147.5 58.3333,146.5 58,145.5C 57.3333,122.5 57.3333,99.5 58,76.5C 59.025,74.313 60.525,72.6464 62.5,71.5 Z"/></g>
<g><path style="opacity:1" fill="#020100" d="M 175.5,71.5 C 189.853,70.2535 199.686,76.2535 205,89.5C 205.952,104.901 205.619,120.235 204,135.5C 197.457,148.854 186.957,153.687 172.5,150C 165.119,146.285 160.285,140.451 158,132.5C 157.333,118.167 157.333,103.833 158,89.5C 161.353,80.9815 167.186,74.9815 175.5,71.5 Z"/></g>
<g><path style="opacity:1" fill="#030200" d="M 282.5,71.5 C 291.568,71.1187 300.568,71.6187 309.5,73C 325.385,81.3245 329.219,93.4912 321,109.5C 318.478,112.022 315.978,114.522 313.5,117C 317.197,124.895 321.031,132.728 325,140.5C 326.002,146.827 323.336,150.493 317,151.5C 314.825,151.166 312.992,150.166 311.5,148.5C 306.411,139.324 301.578,129.99 297,120.5C 295.989,119.663 294.822,119.33 293.5,119.5C 293.92,129.247 293.42,138.914 292,148.5C 287.631,152.379 283.298,152.379 279,148.5C 278.667,147.5 278.333,146.5 278,145.5C 277.333,122.5 277.333,99.5 278,76.5C 279.025,74.313 280.525,72.6464 282.5,71.5 Z"/></g>
<g><path style="opacity:1" fill="#020100" d="M 114.5,71.5 C 119.152,70.984 122.652,72.6507 125,76.5C 125.5,96.1638 125.667,115.831 125.5,135.5C 131.509,135.334 137.509,135.501 143.5,136C 149.462,138.405 150.962,142.571 148,148.5C 146.829,149.893 145.329,150.727 143.5,151C 133.833,151.667 124.167,151.667 114.5,151C 113.069,150.535 111.903,149.701 111,148.5C 109.363,124.563 109.03,100.563 110,76.5C 111.025,74.313 112.525,72.6464 114.5,71.5 Z"/></g>
<g><path style="opacity:1" fill="#020100" d="M 222.5,71.5 C 227.152,70.984 230.652,72.6507 233,76.5C 233.333,94.5 233.667,112.5 234,130.5C 237.013,135.535 241.18,136.702 246.5,134C 247.701,133.097 248.535,131.931 249,130.5C 249.333,112.5 249.667,94.5 250,76.5C 252.983,71.4319 257.149,70.2652 262.5,73C 263.701,73.9025 264.535,75.0692 265,76.5C 265.667,95.1667 265.667,113.833 265,132.5C 259.35,147.909 248.516,153.742 232.5,150C 226.277,146.777 221.777,141.943 219,135.5C 217.37,115.898 217.037,96.2316 218,76.5C 219.025,74.313 220.525,72.6464 222.5,71.5 Z"/></g>
<g><path style="opacity:1" fill="#e3a63f" d="M 293.5,87.5 C 297.182,87.3347 300.848,87.5014 304.5,88C 310.259,91.8919 310.926,96.5586 306.5,102C 302.3,103.367 297.967,103.867 293.5,103.5C 293.5,98.1667 293.5,92.8333 293.5,87.5 Z"/></g>
<g><path style="opacity:1" fill="#e5a740" d="M 178.5,87.5 C 183.28,86.6409 186.78,88.3075 189,92.5C 189.667,105.167 189.667,117.833 189,130.5C 185.987,135.535 181.82,136.702 176.5,134C 175.299,133.097 174.465,131.931 174,130.5C 173.333,117.833 173.333,105.167 174,92.5C 175.025,90.313 176.525,88.6464 178.5,87.5 Z"/></g>
<g><path style="opacity:1" fill="#040301" d="M 222.5,254.5 C 228.167,254.5 233.833,254.5 239.5,254.5C 239.5,248.833 239.5,243.167 239.5,237.5C 241.681,231.485 245.681,229.985 251.5,233C 260.508,260.303 253.842,282.97 231.5,301C 221.316,305.531 210.649,307.364 199.5,306.5C 199.334,312.176 199.501,317.843 200,323.5C 208.871,315.875 219.204,312.209 231,312.5C 238.031,312.506 244.864,313.673 251.5,316C 253.871,317.743 255.205,320.077 255.5,323C 252.109,337.793 244.442,349.793 232.5,359C 222.087,364.043 211.087,365.876 199.5,364.5C 199.334,370.176 199.501,375.843 200,381.5C 215.455,370.136 232.289,367.636 250.5,374C 253.635,375.266 255.302,377.599 255.5,381C 248.71,410.97 230.043,425.137 199.5,423.5C 199.884,430.589 199.384,437.589 198,444.5C 194.498,447.601 190.665,448.101 186.5,446C 185.107,444.829 184.273,443.329 184,441.5C 183.5,435.175 183.334,428.842 183.5,422.5C 162.327,426.059 146.161,418.726 135,400.5C 131.512,394.367 129.012,387.867 127.5,381C 128.034,376.797 130.368,374.13 134.5,373C 152.032,368.313 168.199,371.146 183,381.5C 183.499,375.843 183.666,370.176 183.5,364.5C 161.36,367.845 144.86,359.845 134,340.5C 130.554,333.838 128.554,326.838 128,319.5C 129.5,318 131,316.5 132.5,315C 146.395,311.178 160.062,311.845 173.5,317C 176.941,318.776 180.108,320.943 183,323.5C 183.499,317.843 183.666,312.176 183.5,306.5C 154.029,308.545 135.529,295.212 128,266.5C 127.048,255.735 127.381,245.068 129,234.5C 133.298,230.621 137.631,230.621 142,234.5C 143.091,241.086 143.925,247.753 144.5,254.5C 156.539,252.722 167.872,254.889 178.5,261C 183.125,267.337 184.625,266.504 183,258.5C 161.444,232.987 162.61,208.487 186.5,185C 189.8,183.121 193.134,183.121 196.5,185C 220.753,208.823 221.587,233.323 199,258.5C 198.333,260.833 198.333,263.167 199,265.5C 205.678,259.437 213.511,255.77 222.5,254.5 Z"/></g>
<g><path style="opacity:1" fill="#f7df45" d="M 190.5,204.5 C 192.017,204.511 193.184,205.177 194,206.5C 201.747,219.168 200.913,231.168 191.5,242.5C 181.279,230.148 180.946,217.481 190.5,204.5 Z"/></g>
<g><path style="opacity:1" fill="#9b6749" d="M 323.5,231.5 C 370.505,231.167 417.505,231.5 464.5,232.5C 454.708,247.916 445.041,263.416 435.5,279C 388.496,279.833 341.496,279.667 294.5,278.5C 304.428,262.973 314.095,247.306 323.5,231.5 Z"/></g>
<g><path style="opacity:1" fill="#62481c" d="M 239.5,237.5 C 239.5,243.167 239.5,248.833 239.5,254.5C 233.833,254.5 228.167,254.5 222.5,254.5C 227.64,253.512 232.974,253.179 238.5,253.5C 238.179,247.974 238.512,242.64 239.5,237.5 Z"/></g>
<g><path style="opacity:1" fill="#7d4b2e" d="M 488.5,278.5 C 477.346,279.495 466.012,279.828 454.5,279.5C 460.072,270.027 465.905,260.693 472,251.5C 478.013,260.194 483.513,269.194 488.5,278.5 Z"/></g>
<g><path style="opacity:1" fill="#fae146" d="M 146.5,270.5 C 162.847,268.004 174.181,274.337 180.5,289.5C 163.623,293.062 152.29,286.729 146.5,270.5 Z"/></g>
<g><path style="opacity:1" fill="#f6de45" d="M 224.5,269.5 C 228.5,269.5 232.5,269.5 236.5,269.5C 231.266,286.452 219.933,293.119 202.5,289.5C 206.44,278.884 213.773,272.218 224.5,269.5 Z"/></g>
<g><path style="opacity:1" fill="#432818" d="M 488.5,278.5 C 489.043,278.56 489.376,278.893 489.5,279.5C 477.673,280.824 466.007,280.824 454.5,279.5C 466.012,279.828 477.346,279.495 488.5,278.5 Z"/></g>
<g><path style="opacity:1" fill="#f9934a" d="M 287.5,295.5 C 335.5,295.5 383.5,295.5 431.5,295.5C 431.5,303.5 431.5,311.5 431.5,319.5C 383.5,319.5 335.5,319.5 287.5,319.5C 287.5,311.5 287.5,303.5 287.5,295.5 Z"/></g>
<g><path style="opacity:1" fill="#905d3e" d="M 447.5,296.5 C 463.5,296.5 479.5,296.5 495.5,296.5C 495.5,362.833 495.5,429.167 495.5,495.5C 479.5,495.5 463.5,495.5 447.5,495.5C 447.5,429.167 447.5,362.833 447.5,296.5 Z"/></g>
<g><path style="opacity:1" fill="#f6de45" d="M 146.5,328.5 C 163.564,326.615 174.898,333.615 180.5,349.5C 163.616,351.075 152.283,344.075 146.5,328.5 Z"/></g>
<g><path style="opacity:1" fill="#f6de45" d="M 222.5,328.5 C 227.214,328.173 231.88,328.507 236.5,329.5C 230.146,344.352 218.812,351.019 202.5,349.5C 205.79,339.211 212.457,332.211 222.5,328.5 Z"/></g>
<g><path style="opacity:1" fill="#9b6749" d="M 287.5,335.5 C 335.5,335.5 383.5,335.5 431.5,335.5C 431.667,366.168 431.5,396.835 431,427.5C 398.374,400.644 361.874,393.811 321.5,407C 309.114,411.938 297.947,418.772 288,427.5C 287.5,396.835 287.333,366.168 287.5,335.5 Z"/></g>
<g><path style="opacity:1" fill="#f5dd45" d="M 146.5,386.5 C 163.409,384.935 174.742,391.935 180.5,407.5C 163.083,410.055 151.749,403.055 146.5,386.5 Z"/></g>
<g><path style="opacity:1" fill="#f6de45" d="M 223.5,386.5 C 227.833,386.5 232.167,386.5 236.5,386.5C 230.894,402.39 219.561,409.39 202.5,407.5C 205.857,396.81 212.857,389.81 223.5,386.5 Z"/></g>
<g><path style="opacity:1" fill="#faeaa6" d="M 345.5,416.5 C 379.961,413.329 408.461,424.662 431,450.5C 431.5,465.496 431.667,480.496 431.5,495.5C 383.5,495.5 335.5,495.5 287.5,495.5C 287.333,480.496 287.5,465.496 288,450.5C 303.129,432.352 322.295,421.018 345.5,416.5 Z"/></g>
</svg>
