<?xml version="1.0" encoding="UTF-8"?>
<!DOCTYPE svg PUBLIC "-//W3C//DTD SVG 1.1//EN" "http://www.w3.org/Graphics/SVG/1.1/DTD/svg11.dtd">
<svg xmlns="http://www.w3.org/2000/svg" version="1.1" width="512px" height="512px" style="shape-rendering:geometricPrecision; text-rendering:geometricPrecision; image-rendering:optimizeQuality; fill-rule:evenodd; clip-rule:evenodd" xmlns:xlink="http://www.w3.org/1999/xlink">
<g><path style="opacity:0.988" fill="#010101" d="M 88.5,7.5 C 186.501,7.33334 284.501,7.5 382.5,8C 390.667,10.8333 396.167,16.3333 399,24.5C 399.667,45.1667 399.667,65.8333 399,86.5C 397.037,92.7987 393.203,97.632 387.5,101C 419.28,167.008 441.446,236.175 454,308.5C 462.285,313.118 468.952,319.451 474,327.5C 479.925,347.275 486.258,366.941 493,386.5C 501.936,417.312 504.936,448.645 502,480.5C 497.559,492.608 489.059,500.108 476.5,503C 339.167,503.667 201.833,503.667 64.5,503C 33.6667,496.167 14.8333,477.333 8,446.5C 5.60568,325.251 30.7723,210.084 83.5,101C 77.7966,97.632 73.9633,92.7987 72,86.5C 71.3333,65.8333 71.3333,45.1667 72,24.5C 75.0191,16.3156 80.5191,10.649 88.5,7.5 Z"/></g>
<g><path style="opacity:1" fill="#f1eedf" d="M 92.5,23.5 C 187.834,23.3333 283.167,23.5 378.5,24C 380.667,24.8333 382.167,26.3333 383,28.5C 383.667,46.5 383.667,64.5 383,82.5C 382.167,84.6667 380.667,86.1667 378.5,87C 283.167,87.6667 187.833,87.6667 92.5,87C 90.3333,86.1667 88.8333,84.6667 88,82.5C 87.3333,64.5 87.3333,46.5 88,28.5C 89.025,26.313 90.525,24.6464 92.5,23.5 Z"/></g>
<g><path style="opacity:1" fill="#000000" d="M 110.5,39.5 C 193.167,39.3333 275.834,39.5 358.5,40C 369.32,41.9877 374.987,48.4877 375.5,59.5C 375.008,69.9895 369.675,76.4895 359.5,79C 276.5,79.6667 193.5,79.6667 110.5,79C 97.8159,73.9844 93.3159,64.8177 97,51.5C 99.85,45.5144 104.35,41.5144 110.5,39.5 Z"/></g>
<g><path style="opacity:1" fill="#d8d4c9" d="M 113.5,55.5 C 194.834,55.3333 276.167,55.5 357.5,56C 360.167,58.3333 360.167,60.6667 357.5,63C 276.167,63.6667 194.833,63.6667 113.5,63C 110.914,60.506 110.914,58.006 113.5,55.5 Z"/></g>
<g><path style="opacity:1" fill="#b3afa3" d="M 132.5,103.5 C 115.378,139.746 101.045,177.08 89.5,215.5C 85.1539,215.334 80.8206,215.501 76.5,216C 73.3374,217.48 71.504,219.98 71,223.5C 65.988,243.881 60.8213,264.215 55.5,284.5C 60.1836,286.728 65.1836,288.395 70.5,289.5C 60.5802,341.033 56.4135,393.033 58,445.5C 61.8677,463.84 71.7011,477.84 87.5,487.5C 60.3963,490.036 40.563,479.369 28,455.5C 25.6469,450.774 24.3136,445.774 24,440.5C 22.7855,322.197 48.2855,210.03 100.5,104C 111.161,103.5 121.828,103.333 132.5,103.5 Z"/></g>
<g><path style="opacity:1" fill="#d8d4c9" d="M 132.5,103.5 C 209.833,103.5 287.167,103.5 364.5,103.5C 356.331,138.842 348.164,174.176 340,209.5C 333.143,243.639 327.477,277.973 323,312.5C 318.984,316.348 315.151,320.348 311.5,324.5C 292.443,301.58 270.11,297.58 244.5,312.5C 233.739,314.428 225.572,320.095 220,329.5C 201.291,367.381 190.291,407.381 187,449.5C 185.875,459.653 186.542,469.653 189,479.5C 190.273,482.597 192.107,485.264 194.5,487.5C 158.833,487.5 123.167,487.5 87.5,487.5C 71.7011,477.84 61.8677,463.84 58,445.5C 56.4135,393.033 60.5802,341.033 70.5,289.5C 73.0774,283.869 74.744,277.869 75.5,271.5C 83.5,271.5 91.5,271.5 99.5,271.5C 100.232,277.763 101.899,283.763 104.5,289.5C 109.704,288.432 114.704,286.765 119.5,284.5C 114.001,263.172 108.501,241.839 103,220.5C 102.167,218.333 100.667,216.833 98.5,216C 95.5184,215.502 92.5184,215.335 89.5,215.5C 101.045,177.08 115.378,139.746 132.5,103.5 Z"/></g>
<g><path style="opacity:1" fill="#ece9da" d="M 377.5,119.5 C 405.444,178.003 424.777,239.337 435.5,303.5C 431.121,303.292 426.787,303.625 422.5,304.5C 421.353,304.182 420.519,303.516 420,302.5C 416.166,281.659 411.499,260.993 406,240.5C 395.541,206.788 384.874,173.121 374,139.5C 374.198,132.698 375.365,126.031 377.5,119.5 Z"/></g>
<g><path style="opacity:1" fill="#030303" d="M 121.5,159.5 C 135.853,158.253 145.686,164.253 151,177.5C 152.575,195.427 144.409,205.427 126.5,207.5C 109.737,204.558 102.237,194.558 104,177.5C 107.353,168.982 113.186,162.982 121.5,159.5 Z"/></g>
<g><path style="opacity:1" fill="#030303" d="M 201.5,159.5 C 215.853,158.253 225.686,164.253 231,177.5C 232.575,195.427 224.409,205.427 206.5,207.5C 189.737,204.558 182.237,194.558 184,177.5C 187.353,168.982 193.186,162.982 201.5,159.5 Z"/></g>
<g><path style="opacity:1" fill="#030303" d="M 273.5,159.5 C 287.853,158.253 297.686,164.253 303,177.5C 304.575,195.427 296.409,205.427 278.5,207.5C 261.737,204.558 254.237,194.558 256,177.5C 259.353,168.982 265.186,162.982 273.5,159.5 Z"/></g>
<g><path style="opacity:1" fill="#b2aea2" d="M 365.5,167.5 C 382.856,213.578 396.19,260.911 405.5,309.5C 400.891,314.446 396.224,319.446 391.5,324.5C 378.523,307.618 361.523,300.951 340.5,304.5C 346.651,258.414 354.984,212.747 365.5,167.5 Z"/></g>
<g><path style="opacity:1" fill="#bd4332" d="M 124.5,175.5 C 132.658,174.823 136.158,178.49 135,186.5C 132.774,190.861 129.274,192.361 124.5,191C 120.139,188.774 118.639,185.274 120,180.5C 121.025,178.313 122.525,176.646 124.5,175.5 Z"/></g>
<g><path style="opacity:1" fill="#bd4332" d="M 204.5,175.5 C 212.658,174.823 216.158,178.49 215,186.5C 212.774,190.861 209.274,192.361 204.5,191C 200.139,188.774 198.639,185.274 200,180.5C 201.025,178.313 202.525,176.646 204.5,175.5 Z"/></g>
<g><path style="opacity:1" fill="#bd4332" d="M 276.5,175.5 C 284.658,174.823 288.158,178.49 287,186.5C 284.774,190.861 281.274,192.361 276.5,191C 272.139,188.774 270.639,185.274 272,180.5C 273.025,178.313 274.525,176.646 276.5,175.5 Z"/></g>
<g><path style="opacity:1" fill="#070504" d="M 89.5,215.5 C 92.5184,215.335 95.5184,215.502 98.5,216C 100.667,216.833 102.167,218.333 103,220.5C 108.501,241.839 114.001,263.172 119.5,284.5C 114.704,286.765 109.704,288.432 104.5,289.5C 101.899,283.763 100.232,277.763 99.5,271.5C 91.5,271.5 83.5,271.5 75.5,271.5C 74.744,277.869 73.0774,283.869 70.5,289.5C 65.1836,288.395 60.1836,286.728 55.5,284.5C 60.8213,264.215 65.988,243.881 71,223.5C 71.504,219.98 73.3374,217.48 76.5,216C 80.8206,215.501 85.1539,215.334 89.5,215.5 Z"/></g>
<g><path style="opacity:1" fill="#050302" d="M 144.5,215.5 C 156.779,214.314 167.279,217.981 176,226.5C 178.904,229.642 180.738,233.309 181.5,237.5C 177.053,238.426 172.72,239.76 168.5,241.5C 165.642,240.005 163.308,237.838 161.5,235C 150.008,229.053 141.508,231.886 136,243.5C 135.139,249.585 135.473,255.585 137,261.5C 142.936,271.693 151.102,273.86 161.5,268C 162.687,266.981 163.687,265.814 164.5,264.5C 160.217,263.508 155.884,263.174 151.5,263.5C 151.5,258.167 151.5,252.833 151.5,247.5C 160.506,247.334 169.506,247.5 178.5,248C 183.155,250.897 184.655,255.063 183,260.5C 179.414,277.546 168.914,286.546 151.5,287.5C 129.465,285.125 118.798,272.792 119.5,250.5C 118.765,239.534 122.431,230.367 130.5,223C 134.815,219.678 139.482,217.178 144.5,215.5 Z"/></g>
<g><path style="opacity:1" fill="#070504" d="M 204.5,215.5 C 211.841,215.334 219.174,215.5 226.5,216C 228.667,216.833 230.167,218.333 231,220.5C 236.501,241.839 242.001,263.172 247.5,284.5C 242.704,286.765 237.704,288.432 232.5,289.5C 229.899,283.763 228.232,277.763 227.5,271.5C 219.5,271.5 211.5,271.5 203.5,271.5C 202.477,277.591 201.143,283.591 199.5,289.5C 193.796,288.596 188.463,286.93 183.5,284.5C 189.023,262.408 194.856,240.408 201,218.5C 202.145,217.364 203.312,216.364 204.5,215.5 Z"/></g>
<g><path style="opacity:1" fill="#020101" d="M 260.5,215.5 C 271.505,215.333 282.505,215.5 293.5,216C 309.699,222.563 314.866,234.063 309,250.5C 306.18,254.32 303.013,257.82 299.5,261C 303.031,268.561 306.697,276.061 310.5,283.5C 306.22,286.224 301.72,288.557 297,290.5C 291.838,282.18 287.171,273.513 283,264.5C 279.27,263.54 275.437,263.207 271.5,263.5C 271.5,271.5 271.5,279.5 271.5,287.5C 266.167,287.5 260.833,287.5 255.5,287.5C 255.333,265.164 255.5,242.831 256,220.5C 257.025,218.313 258.525,216.646 260.5,215.5 Z"/></g>
<g><path style="opacity:1" fill="#d7d2c7" d="M 85.5,231.5 C 86.8333,231.5 88.1667,231.5 89.5,231.5C 91.1667,239.5 92.8333,247.5 94.5,255.5C 89.8333,255.5 85.1667,255.5 80.5,255.5C 82.1667,247.5 83.8333,239.5 85.5,231.5 Z"/></g>
<g><path style="opacity:1" fill="#d7d2c7" d="M 213.5,231.5 C 214.833,231.5 216.167,231.5 217.5,231.5C 219.167,239.5 220.833,247.5 222.5,255.5C 217.833,255.5 213.167,255.5 208.5,255.5C 210.167,247.5 211.833,239.5 213.5,231.5 Z"/></g>
<g><path style="opacity:1" fill="#d7d3c8" d="M 271.5,231.5 C 277.509,231.334 283.509,231.501 289.5,232C 297.393,236.91 297.393,241.91 289.5,247C 283.509,247.499 277.509,247.666 271.5,247.5C 271.5,242.167 271.5,236.833 271.5,231.5 Z"/></g>
<g><path style="opacity:1" fill="#c5c1b6" d="M 244.5,312.5 C 239.733,316.769 235.9,321.769 233,327.5C 219.738,355.285 210.072,384.285 204,414.5C 200.613,434.037 199.279,453.704 200,473.5C 200.734,478.107 202.234,482.441 204.5,486.5C 201.232,487.487 197.898,487.82 194.5,487.5C 192.107,485.264 190.273,482.597 189,479.5C 186.542,469.653 185.875,459.653 187,449.5C 190.291,407.381 201.291,367.381 220,329.5C 225.572,320.095 233.739,314.428 244.5,312.5 Z"/></g>
<g><path style="opacity:1" fill="#943427" d="M 265.5,319.5 C 284.529,318.252 297.029,326.585 303,344.5C 303.667,347.167 303.667,349.833 303,352.5C 293.68,397.398 293.18,442.398 301.5,487.5C 277.498,487.667 253.498,487.5 229.5,487C 223.026,484.526 218.526,480.026 216,473.5C 215.042,423.407 226.042,376.074 249,331.5C 253.281,325.705 258.781,321.705 265.5,319.5 Z"/></g>
<g><path style="opacity:1" fill="#c44534" d="M 344.5,319.5 C 363.882,317.931 376.715,326.265 383,344.5C 385.49,359.465 387.824,374.465 390,389.5C 391.983,410.499 391.983,431.499 390,452.5C 388.545,464.183 387.045,475.85 385.5,487.5C 362.833,487.5 340.167,487.5 317.5,487.5C 315.586,473.185 313.752,458.852 312,444.5C 309.601,407.824 313.267,371.824 323,336.5C 328.242,328.308 335.409,322.641 344.5,319.5 Z"/></g>
<g><path style="opacity:1" fill="#943427" d="M 425.5,319.5 C 442.974,318.31 455.141,325.643 462,341.5C 466.194,358.081 471.194,374.414 477,390.5C 484.85,417.635 488.184,445.302 487,473.5C 484.5,480 480,484.5 473.5,487C 449.502,487.5 425.502,487.667 401.5,487.5C 406.781,456.005 408.281,424.338 406,392.5C 404.207,376.419 402.207,360.419 400,344.5C 403.79,331.209 412.29,322.876 425.5,319.5 Z"/></g>
</svg>
