<?xml version="1.0" encoding="UTF-8"?>
<!DOCTYPE svg PUBLIC "-//W3C//DTD SVG 1.1//EN" "http://www.w3.org/Graphics/SVG/1.1/DTD/svg11.dtd">
<svg xmlns="http://www.w3.org/2000/svg" version="1.1" width="512px" height="512px" style="shape-rendering:geometricPrecision; text-rendering:geometricPrecision; image-rendering:optimizeQuality; fill-rule:evenodd; clip-rule:evenodd" xmlns:xlink="http://www.w3.org/1999/xlink">
<g><path style="opacity:0.975" fill="#010100" d="M 433.5,-0.5 C 433.833,-0.5 434.167,-0.5 434.5,-0.5C 437.957,0.43228 440.79,2.43228 443,5.5C 452.21,35.3002 452.876,65.3002 445,95.5C 443.084,102.252 440.584,108.752 437.5,115C 451.993,143.032 452.16,171.198 438,199.5C 431.452,210.217 423.286,219.55 413.5,227.5C 426.5,228.945 438.833,232.611 450.5,238.5C 480.176,202.306 494.009,160.639 492,113.5C 499.397,106.44 505.897,107.107 511.5,115.5C 511.5,126.833 511.5,138.167 511.5,149.5C 506.78,189.832 490.947,225.165 464,255.5C 458.541,288.275 440.708,311.442 410.5,325C 405.822,326.502 401.155,328.002 396.5,329.5C 400.519,333.685 404.353,338.018 408,342.5C 409.504,346.039 409.837,349.705 409,353.5C 392.444,388.038 364.944,405.871 326.5,407C 328.333,410.167 330.167,413.333 332,416.5C 332.701,419.928 332.368,423.262 331,426.5C 311.182,455.323 283.682,468.49 248.5,466C 242.097,464.983 235.764,463.983 229.5,463C 233.294,470.048 234.794,477.548 234,485.5C 222.652,497.47 208.819,505.303 192.5,509C 186.683,509.809 181.017,510.642 175.5,511.5C 174.167,511.5 172.833,511.5 171.5,511.5C 128.548,507.999 100.882,485.499 88.5,444C 61.9113,446.885 35.2447,447.552 8.5,446C 4.47037,445.661 1.47037,443.827 -0.5,440.5C -0.5,437.167 -0.5,433.833 -0.5,430.5C 1.34004,428.832 3.34004,427.332 5.5,426C 15.8407,425.44 26.1741,425.606 36.5,426.5C 50.2906,426.188 63.9573,425.021 77.5,423C 59.9937,387.638 63.4937,354.471 88,323.5C 100.512,310.159 115.678,301.326 133.5,297C 136.833,296.333 140.167,296.333 143.5,297C 146.672,299.006 149.338,301.506 151.5,304.5C 159.809,286.025 172.809,271.858 190.5,262C 193.738,260.632 197.072,260.299 200.5,261C 206.307,264.327 211.474,268.494 216,273.5C 222.047,248.203 236.214,229.036 258.5,216C 264.265,214.977 269.265,216.477 273.5,220.5C 277.556,194.298 290.39,173.632 312,158.5C 322.683,130.343 325.849,101.343 321.5,71.5C 321.917,61.6164 326.917,58.1164 336.5,61C 339.663,62.4798 341.496,64.9798 342,68.5C 346.689,99.4242 344.189,129.758 334.5,159.5C 337.962,163.495 341.795,167.161 346,170.5C 356.675,133.886 380.842,112.053 418.5,105C 428.233,83.8756 431.733,61.709 429,38.5C 427.692,28.7699 425.525,19.2699 422.5,10C 423.669,3.76929 427.335,0.269294 433.5,-0.5 Z M 304.5,305.5 C 304.301,302.059 304.801,298.726 306,295.5C 307.41,296.787 308.91,297.954 310.5,299C 308.266,301.063 306.266,303.229 304.5,305.5 Z M 235.5,365.5 C 236.677,361.127 238.01,356.794 239.5,352.5C 241.69,354.524 244.023,356.357 246.5,358C 243.151,361.005 239.484,363.505 235.5,365.5 Z M 152.5,406.5 C 156.167,400.499 159.334,394.165 162,387.5C 164.412,391.916 167.578,395.749 171.5,399C 165.533,402.379 159.2,404.879 152.5,406.5 Z"/></g>
<g><path style="opacity:0.883" fill="#000000" d="M 315.5,16.5 C 326.676,16.4988 330.843,21.8321 328,32.5C 323.782,37.6297 318.616,38.7964 312.5,36C 307.768,30.9649 307.268,25.4649 311,19.5C 312.652,18.6006 314.152,17.6006 315.5,16.5 Z"/></g>
<g><path style="opacity:1" fill="#fce3be" d="M 414.5,126.5 C 416.792,126.244 418.959,126.577 421,127.5C 432.796,152.563 430.463,176.23 414,198.5C 402.861,212.007 388.695,219.84 371.5,222C 355.736,183.703 365.403,153.703 400.5,132C 405.159,129.842 409.825,128.009 414.5,126.5 Z"/></g>
<g><path style="opacity:1" fill="#fde4be" d="M 321.5,177.5 C 343.51,193.67 351.677,215.337 346,242.5C 342.086,258.415 333.419,271.082 320,280.5C 299.784,264.378 291.451,243.378 295,217.5C 298.915,200.78 307.748,187.446 321.5,177.5 Z"/></g>
<g><path style="opacity:1" fill="#fbc87a" d="M 260.5,238.5 C 263.989,239.477 266.823,241.477 269,244.5C 289.852,271.775 290.852,299.775 272,328.5C 268.064,333.391 263.564,337.724 258.5,341.5C 239.034,323.264 231.867,300.93 237,274.5C 241.103,259.935 248.936,247.935 260.5,238.5 Z"/></g>
<g><path style="opacity:1" fill="#fcc97a" d="M 396.5,248.5 C 412.539,246.671 427.539,249.671 441.5,257.5C 440.741,267.91 436.907,277.243 430,285.5C 405.451,312.047 376.951,317.38 344.5,301.5C 344.167,300.667 343.833,299.833 343.5,299C 351.373,271.756 369.039,254.922 396.5,248.5 Z"/></g>
<g><path style="opacity:1" fill="#fcd69c" d="M 194.5,283.5 C 201.399,287.23 206.899,292.564 211,299.5C 225.464,327.044 223.13,353.044 204,377.5C 199.667,381.167 195.333,384.833 191,388.5C 174.506,375.176 166.34,357.843 166.5,336.5C 167.184,314.126 176.518,296.459 194.5,283.5 Z"/></g>
<g><path style="opacity:1" fill="#fcc97a" d="M 133.5,317.5 C 136.346,319.475 138.513,322.141 140,325.5C 154.933,361.279 146.767,390.446 115.5,413C 110.621,415.856 105.454,418.023 100,419.5C 93.584,411.66 89.584,402.66 88,392.5C 84.8291,356.147 99.9958,331.147 133.5,317.5 Z"/></g>
<g><path style="opacity:1" fill="#fcd69c" d="M 328.5,329.5 C 351.644,327.212 371.311,334.212 387.5,350.5C 374.413,373.722 354.413,385.722 327.5,386.5C 308.814,385.822 293.147,378.655 280.5,365C 291.292,346.031 307.292,334.198 328.5,329.5 Z"/></g>
<g><path style="opacity:1" fill="#fcc97a" d="M 246.5,389.5 C 273.472,388.155 294.805,398.322 310.5,420C 288.09,445.019 261.09,451.686 229.5,440C 219.893,435.402 211.726,428.902 205,420.5C 203.249,418.788 202.582,416.788 203,414.5C 214.532,400.823 229.032,392.49 246.5,389.5 Z"/></g>
<g><path style="opacity:1" fill="#fcd69c" d="M 143.5,430.5 C 175.898,429.774 198.731,444.107 212,473.5C 212.798,475.259 212.631,476.926 211.5,478.5C 186.291,494.177 160.957,494.344 135.5,479C 123.712,470.211 115.379,458.878 110.5,445C 113.267,441.252 116.934,438.586 121.5,437C 129.042,435.12 136.376,432.953 143.5,430.5 Z"/></g>
</svg>
