<?xml version="1.0" encoding="UTF-8"?>
<!DOCTYPE svg PUBLIC "-//W3C//DTD SVG 1.1//EN" "http://www.w3.org/Graphics/SVG/1.1/DTD/svg11.dtd">
<svg xmlns="http://www.w3.org/2000/svg" version="1.1" width="512px" height="512px" style="shape-rendering:geometricPrecision; text-rendering:geometricPrecision; image-rendering:optimizeQuality; fill-rule:evenodd; clip-rule:evenodd" xmlns:xlink="http://www.w3.org/1999/xlink">
<g><path style="opacity:0.985" fill="#010100" d="M 371.5,-0.5 C 374.167,-0.5 376.833,-0.5 379.5,-0.5C 383.29,3.04654 386.124,7.37988 388,12.5C 397.17,8.86421 406.67,6.36421 416.5,5C 432.586,2.58667 448.586,0.753332 464.5,-0.5C 478.833,-0.5 493.167,-0.5 507.5,-0.5C 509.167,0.5 510.5,1.83333 511.5,3.5C 511.5,29.5 511.5,55.5 511.5,81.5C 509.264,99.3404 505.598,117.007 500.5,134.5C 505.085,134.459 508.751,136.126 511.5,139.5C 511.5,142.167 511.5,144.833 511.5,147.5C 506.641,154.021 501.641,160.521 496.5,167C 502.964,168.756 505.13,172.923 503,179.5C 497.167,187.333 491.333,195.167 485.5,203C 489.5,204.333 493.5,205.667 497.5,207C 500.057,207.685 501.891,209.185 503,211.5C 503.817,214.964 503.483,218.298 502,221.5C 494.652,228.681 487.485,236.014 480.5,243.5C 485.132,245.21 489.632,247.21 494,249.5C 497.288,253.776 497.122,257.943 493.5,262C 482.167,268.667 470.833,275.333 459.5,282C 465.103,288.599 469.437,295.932 472.5,304C 466.902,319.931 455.902,329.931 439.5,334C 459.658,362.802 467.158,394.635 462,429.5C 459.327,443.843 453.66,456.843 445,468.5C 442.948,466.942 440.781,465.608 438.5,464.5C 436.533,462.507 434.533,460.507 432.5,458.5C 446.881,435.751 450.881,411.418 444.5,385.5C 438.217,361.598 426.717,340.598 410,322.5C 393.027,306.111 374.86,291.278 355.5,278C 347.568,272.072 340.235,265.405 333.5,258C 324.089,253.071 316.922,255.238 312,264.5C 311.505,266.473 311.338,268.473 311.5,270.5C 315.293,296.208 313.46,321.542 306,346.5C 302.23,358.706 297.897,370.706 293,382.5C 291.852,386.453 291.018,390.453 290.5,394.5C 279.697,455.534 305.197,489.201 367,495.5C 387.049,494.721 404.549,487.721 419.5,474.5C 421.592,476.605 423.925,478.272 426.5,479.5C 427.458,480.962 428.624,482.295 430,483.5C 430.667,484.5 430.667,485.5 430,486.5C 415.712,500.061 398.878,508.394 379.5,511.5C 371.167,511.5 362.833,511.5 354.5,511.5C 345.413,509.808 336.413,507.308 327.5,504C 318.145,499.658 309.145,494.825 300.5,489.5C 282.904,495.233 265.57,494.567 248.5,487.5C 238.565,482.195 228.898,476.362 219.5,470C 205.831,459.845 197.331,446.345 194,429.5C 190.009,411.269 190.676,393.269 196,375.5C 200.146,366.704 205.646,358.87 212.5,352C 222.632,343.537 232.465,334.704 242,325.5C 243.704,327.373 245.537,329.04 247.5,330.5C 248.793,332.296 250.293,333.963 252,335.5C 252.667,336.167 252.667,336.833 252,337.5C 240.667,348.167 229.333,358.833 218,369.5C 213.33,375.842 209.996,382.842 208,390.5C 207.263,401.193 207.43,411.86 208.5,422.5C 212.161,440.324 221.828,453.824 237.5,463C 246.322,468.411 255.656,472.744 265.5,476C 272.5,476.667 279.5,476.667 286.5,476C 287.308,475.692 287.975,475.192 288.5,474.5C 273.839,451.176 268.672,425.843 273,398.5C 276.662,380.182 282.328,362.516 290,345.5C 294.777,329.841 296.777,313.841 296,297.5C 294.414,298.376 292.914,299.376 291.5,300.5C 289.481,298.81 287.481,297.144 285.5,295.5C 284.04,293.537 282.373,291.704 280.5,290C 285.756,285.082 290.589,279.916 295,274.5C 295.066,268.988 295.9,263.654 297.5,258.5C 303.068,245.884 312.734,239.551 326.5,239.5C 332.355,239.841 337.688,241.674 342.5,245C 355.501,257.846 369.501,269.346 384.5,279.5C 400.181,290.341 414.181,303.174 426.5,318C 438.484,318.675 447.817,314.008 454.5,304C 450.957,298.414 447.291,292.914 443.5,287.5C 426.068,282.538 408.401,278.538 390.5,275.5C 390.368,272.43 390.701,269.43 391.5,266.5C 392.369,264.283 392.702,261.95 392.5,259.5C 409.819,263.163 427.152,266.829 444.5,270.5C 452.904,267.419 460.571,263.086 467.5,257.5C 435.251,247.406 402.918,238.406 370.5,230.5C 376.738,239.806 382.071,249.639 386.5,260C 384.216,261.262 381.882,262.428 379.5,263.5C 376.808,264.009 374.308,265.009 372,266.5C 356.456,232.577 333.289,205.077 302.5,184C 282.662,169.574 261.662,156.907 239.5,146C 217.883,136.572 195.383,130.405 172,127.5C 169.576,127.53 167.243,127.863 165,128.5C 163.884,131.82 163.217,135.153 163,138.5C 168.817,140.662 174.65,142.828 180.5,145C 184.945,152.236 188.111,160.07 190,168.5C 197.405,171.525 204.905,174.358 212.5,177C 213.333,177.833 214.167,178.667 215,179.5C 216.171,184.185 217.338,188.852 218.5,193.5C 219.675,198.531 221.008,203.531 222.5,208.5C 231.735,211.309 241.068,213.809 250.5,216C 252.286,216.785 253.786,217.951 255,219.5C 259.1,228.867 263.6,238.033 268.5,247C 274.825,247.5 281.158,247.666 287.5,247.5C 287.5,250.167 287.5,252.833 287.5,255.5C 287.5,258.167 287.5,260.833 287.5,263.5C 278.494,263.666 269.494,263.5 260.5,263C 258.313,261.975 256.646,260.475 255.5,258.5C 251.853,249.037 247.519,239.871 242.5,231C 232.598,228.024 222.598,225.358 212.5,223C 211.333,221.833 210.167,220.667 209,219.5C 206.492,210.132 203.992,200.799 201.5,191.5C 201.53,190.503 201.03,189.836 200,189.5C 194.5,187.667 189,185.833 183.5,184C 180.898,183.117 178.731,181.617 177,179.5C 174.692,172.242 172.192,165.075 169.5,158C 163.5,156 157.5,154 151.5,152C 144.894,149.747 142.727,145.247 145,138.5C 145.735,136.129 146.568,133.795 147.5,131.5C 146.833,131.167 146.167,130.833 145.5,130.5C 96.4246,143.409 60.2579,172.409 37,217.5C 13.1775,265.905 9.17753,315.905 25,367.5C 28.8672,379.602 33.0339,391.602 37.5,403.5C 35.03,405.538 32.3634,407.205 29.5,408.5C 27.2928,409.739 24.9595,410.239 22.5,410C 11.4622,383.338 3.79555,355.838 -0.5,327.5C -0.5,314.833 -0.5,302.167 -0.5,289.5C 4.97907,230.701 30.3124,182.535 75.5,145C 110.216,118.65 149.216,107.983 192.5,113C 195.455,100.257 200.955,88.7572 209,78.5C 218.66,68.8726 227.826,69.206 236.5,79.5C 240.605,70.2892 244.438,60.9559 248,51.5C 251.308,47.6729 255.474,46.5063 260.5,48C 263.667,51.1667 266.833,54.3333 270,57.5C 275.585,48.665 280.919,39.665 286,30.5C 287.458,28.04 289.291,25.8734 291.5,24C 294.5,23.3333 297.5,23.3333 300.5,24C 303.805,27.8947 305.972,32.3947 307,37.5C 314.79,27.3748 322.956,17.5415 331.5,8C 334.964,7.1834 338.298,7.51674 341.5,9C 343.782,13.3332 345.782,17.8332 347.5,22.5C 355.547,14.7842 363.547,7.11758 371.5,-0.5 Z"/></g>
<g><path style="opacity:1" fill="#7cb628" d="M 452.5,16.5 C 457.179,16.3342 461.845,16.5008 466.5,17C 455.917,22.5386 445.751,28.7053 436,35.5C 435.622,29.7658 436.122,24.0991 437.5,18.5C 442.68,18.1532 447.68,17.4865 452.5,16.5 Z"/></g>
<g><path style="opacity:1" fill="#659a1f" d="M 493.5,20.5 C 494.832,29.3081 495.498,38.4748 495.5,48C 495.333,57.1667 495.167,66.3333 495,75.5C 494.808,77.5767 494.308,79.5767 493.5,81.5C 475.011,72.4222 456.677,63.0888 438.5,53.5C 455.701,40.7278 474.034,29.7278 493.5,20.5 Z"/></g>
<g><path style="opacity:1" fill="#59871c" d="M 414.5,21.5 C 416.5,21.5 418.5,21.5 420.5,21.5C 419.758,30.954 418.258,40.2874 416,49.5C 408,56.1667 400,62.8333 392,69.5C 391.333,55.8333 391.333,42.1667 392,28.5C 399.499,25.8314 406.999,23.4981 414.5,21.5 Z"/></g>
<g><path style="opacity:1" fill="#85c22a" d="M 372.5,21.5 C 373.75,21.5774 374.583,22.244 375,23.5C 375.667,44.1667 375.667,64.8333 375,85.5C 369.699,91.8021 364.032,97.8021 358,103.5C 355.669,82.86 354.002,62.1934 353,41.5C 359.703,34.9648 366.203,28.2982 372.5,21.5 Z"/></g>
<g><path style="opacity:1" fill="#58861c" d="M 331.5,32.5 C 332.497,32.4701 333.164,32.9701 333.5,34C 334.137,36.245 334.97,38.4117 336,40.5C 339.207,68.4368 341.207,96.4368 342,124.5C 338.667,129.167 335.333,133.833 332,138.5C 324.803,111.876 318.303,85.0431 312.5,58C 319.06,49.6151 325.394,41.1151 331.5,32.5 Z"/></g>
<g><path style="opacity:1" fill="#82bf2a" d="M 292.5,51.5 C 294.614,52.3602 295.78,54.0268 296,56.5C 304.048,90.9708 311.881,125.471 319.5,160C 318.253,164.66 316.586,169.16 314.5,173.5C 310.422,170.377 306.255,167.377 302,164.5C 294.755,134.352 287.588,104.185 280.5,74C 284.37,66.4268 288.37,58.9268 292.5,51.5 Z"/></g>
<g><path style="opacity:1" fill="#496e16" d="M 422.5,64.5 C 445.512,75.4227 468.345,86.756 491,98.5C 490.042,109.453 487.542,120.119 483.5,130.5C 482.635,131.583 481.635,131.749 480.5,131C 452.993,115.746 425.326,100.746 397.5,86C 405.532,78.3423 413.865,71.1756 422.5,64.5 Z"/></g>
<g><path style="opacity:1" fill="#58861c" d="M 258.5,70.5 C 261.428,71.5914 263.594,73.5914 265,76.5C 270.013,99.577 275.346,122.577 281,145.5C 281.798,147.259 281.631,148.926 280.5,150.5C 272.247,145.122 263.747,140.122 255,135.5C 252.51,122.891 250.343,110.225 248.5,97.5C 251.042,88.2061 254.376,79.2061 258.5,70.5 Z"/></g>
<g><path style="opacity:1" fill="#81bd29" d="M 221.5,89.5 C 225.402,91.8926 228.902,94.8926 232,98.5C 233.942,107.817 235.775,117.151 237.5,126.5C 237,126.833 236.5,127.167 236,127.5C 227.637,124.268 219.137,121.434 210.5,119C 209.572,118.612 208.905,117.945 208.5,117C 210.843,106.817 215.177,97.6501 221.5,89.5 Z"/></g>
<g><path style="opacity:1" fill="#65991f" d="M 384.5,97.5 C 418.811,115.656 453.144,133.823 487.5,152C 483.76,156.692 479.927,161.192 476,165.5C 438.112,151.472 400.279,137.306 362.5,123C 369.669,114.333 377.002,105.833 384.5,97.5 Z"/></g>
<g><path style="opacity:1" fill="#e7a86f" d="M 379.5,263.5 C 379.5,263.833 379.5,264.167 379.5,264.5C 381.363,269.421 383.029,274.421 384.5,279.5C 369.501,269.346 355.501,257.846 342.5,245C 337.688,241.674 332.355,239.841 326.5,239.5C 315.357,233.582 304.357,227.082 293.5,220C 269.886,207.191 244.886,198.357 218.5,193.5C 217.338,188.852 216.171,184.185 215,179.5C 214.167,178.667 213.333,177.833 212.5,177C 204.905,174.358 197.405,171.525 190,168.5C 188.111,160.07 184.945,152.236 180.5,145C 174.65,142.828 168.817,140.662 163,138.5C 163.217,135.153 163.884,131.82 165,128.5C 167.243,127.863 169.576,127.53 172,127.5C 195.383,130.405 217.883,136.572 239.5,146C 261.662,156.907 282.662,169.574 302.5,184C 333.289,205.077 356.456,232.577 372,266.5C 374.308,265.009 376.808,264.009 379.5,263.5 Z"/></g>
<g><path style="opacity:1" fill="#b46d2f" d="M 201.5,191.5 C 139.695,197.306 93.8614,227.306 64,281.5C 41.2896,325.467 34.4563,371.8 43.5,420.5C 41.0465,422.06 38.3798,423.06 35.5,423.5C 33.871,418.265 31.871,413.265 29.5,408.5C 32.3634,407.205 35.03,405.538 37.5,403.5C 33.0339,391.602 28.8672,379.602 25,367.5C 9.17753,315.905 13.1775,265.905 37,217.5C 60.2579,172.409 96.4246,143.409 145.5,130.5C 146.167,130.833 146.833,131.167 147.5,131.5C 146.568,133.795 145.735,136.129 145,138.5C 142.727,145.247 144.894,149.747 151.5,152C 157.5,154 163.5,156 169.5,158C 172.192,165.075 174.692,172.242 177,179.5C 178.731,181.617 180.898,183.117 183.5,184C 189,185.833 194.5,187.667 200,189.5C 201.03,189.836 201.53,190.503 201.5,191.5 Z"/></g>
<g><path style="opacity:1" fill="#486e16" d="M 352.5,136.5 C 394.848,152.228 437.182,168.061 479.5,184C 475.95,187.883 472.783,192.049 470,196.5C 469.275,197.059 468.442,197.392 467.5,197.5C 425.061,183.632 382.728,169.465 340.5,155C 343.936,148.412 347.936,142.245 352.5,136.5 Z"/></g>
<g><path style="opacity:1" fill="#f5f7f9" d="M 123.5,149.5 C 140.309,149.475 148.476,157.808 148,174.5C 146.878,176.624 145.378,178.457 143.5,180C 131.323,181.824 122.823,176.99 118,165.5C 115.904,158.569 117.737,153.236 123.5,149.5 Z"/></g>
<g><path style="opacity:1" fill="#659a1f" d="M 332.5,170.5 C 381.964,186.155 431.298,202.321 480.5,219C 473.986,225.681 467.319,232.181 460.5,238.5C 425.404,228.267 390.237,218.267 355,208.5C 346.37,200.539 337.703,192.539 329,184.5C 329.247,179.651 330.413,174.985 332.5,170.5 Z"/></g>
<g><path style="opacity:1" fill="#f3f4f5" d="M 103.5,181.5 C 112.364,181.527 116.531,185.861 116,194.5C 111.192,198.681 106.858,198.014 103,192.5C 99.566,188.538 99.7327,184.871 103.5,181.5 Z"/></g>
<g><path style="opacity:1" fill="#955a26" d="M 201.5,191.5 C 203.992,200.799 206.492,210.132 209,219.5C 210.167,220.667 211.333,221.833 212.5,223C 222.598,225.358 232.598,228.024 242.5,231C 247.519,239.871 251.853,249.037 255.5,258.5C 252.518,262.451 250.018,266.785 248,271.5C 248.251,278.204 246.918,284.537 244,290.5C 214.333,318.167 184.667,345.833 155,373.5C 146.447,384.872 142.613,397.705 143.5,412C 141.757,437.836 151.09,458.503 171.5,474C 182.963,480.852 194.629,487.019 206.5,492.5C 202.532,493.394 198.532,494.227 194.5,495C 177.503,495.5 160.503,495.667 143.5,495.5C 143.867,491.033 143.367,486.7 142,482.5C 141.097,481.299 139.931,480.465 138.5,480C 131.758,477.864 125.091,475.531 118.5,473C 116.141,466.925 113.975,460.759 112,454.5C 109.86,448.513 105.693,446.346 99.5,448C 92.7154,451.043 85.7154,453.043 78.5,454C 70.5,450 62.5,446 54.5,442C 50.6758,434.85 47.0091,427.684 43.5,420.5C 34.4563,371.8 41.2896,325.467 64,281.5C 93.8614,227.306 139.695,197.306 201.5,191.5 Z"/></g>
<g><path style="opacity:1" fill="#d79a63" d="M 218.5,193.5 C 244.886,198.357 269.886,207.191 293.5,220C 304.357,227.082 315.357,233.582 326.5,239.5C 312.734,239.551 303.068,245.884 297.5,258.5C 296.733,257.828 296.066,256.995 295.5,256C 292.854,255.503 290.187,255.336 287.5,255.5C 287.5,252.833 287.5,250.167 287.5,247.5C 281.158,247.666 274.825,247.5 268.5,247C 263.6,238.033 259.1,228.867 255,219.5C 253.786,217.951 252.286,216.785 250.5,216C 241.068,213.809 231.735,211.309 222.5,208.5C 221.008,203.531 219.675,198.531 218.5,193.5 Z"/></g>
<g><path style="opacity:1" fill="#486e16" d="M 391.5,266.5 C 387.5,265.833 383.5,265.167 379.5,264.5C 379.5,264.167 379.5,263.833 379.5,263.5C 381.882,262.428 384.216,261.262 386.5,260C 382.071,249.639 376.738,239.806 370.5,230.5C 402.918,238.406 435.251,247.406 467.5,257.5C 460.571,263.086 452.904,267.419 444.5,270.5C 427.152,266.829 409.819,263.163 392.5,259.5C 392.702,261.95 392.369,264.283 391.5,266.5 Z"/></g>
<g><path style="opacity:1" fill="#fdf0dc" d="M 444.5,385.5 C 444.66,387.199 444.494,388.866 444,390.5C 437.398,403.369 428.232,414.036 416.5,422.5C 415.013,385.219 401.513,352.886 376,325.5C 356.622,306.445 335.789,289.279 313.5,274C 312.915,272.698 312.249,271.531 311.5,270.5C 311.338,268.473 311.505,266.473 312,264.5C 316.922,255.238 324.089,253.071 333.5,258C 340.235,265.405 347.568,272.072 355.5,278C 374.86,291.278 393.027,306.111 410,322.5C 426.717,340.598 438.217,361.598 444.5,385.5 Z"/></g>
<g><path style="opacity:1" fill="#7a4a20" d="M 287.5,255.5 C 290.187,255.336 292.854,255.503 295.5,256C 296.066,256.995 296.733,257.828 297.5,258.5C 295.9,263.654 295.066,268.988 295,274.5C 290.589,279.916 285.756,285.082 280.5,290C 282.373,291.704 284.04,293.537 285.5,295.5C 284.5,296.833 283.5,298.167 282.5,299.5C 278.65,302.261 274.983,305.261 271.5,308.5C 269.537,307.04 267.704,305.373 266,303.5C 261.867,306.631 258.034,310.131 254.5,314C 256.706,316.037 258.706,318.203 260.5,320.5C 256.185,323.809 251.852,327.143 247.5,330.5C 245.537,329.04 243.704,327.373 242,325.5C 232.465,334.704 222.632,343.537 212.5,352C 205.646,358.87 200.146,366.704 196,375.5C 190.676,393.269 190.009,411.269 194,429.5C 197.331,446.345 205.831,459.845 219.5,470C 228.898,476.362 238.565,482.195 248.5,487.5C 243.162,489.503 237.829,491.503 232.5,493.5C 230.733,491.208 229.733,488.542 229.5,485.5C 221.783,487.679 214.116,490.012 206.5,492.5C 194.629,487.019 182.963,480.852 171.5,474C 151.09,458.503 141.757,437.836 143.5,412C 142.613,397.705 146.447,384.872 155,373.5C 184.667,345.833 214.333,318.167 244,290.5C 246.918,284.537 248.251,278.204 248,271.5C 250.018,266.785 252.518,262.451 255.5,258.5C 256.646,260.475 258.313,261.975 260.5,263C 269.494,263.5 278.494,263.666 287.5,263.5C 287.5,260.833 287.5,258.167 287.5,255.5 Z"/></g>
<g><path style="opacity:1" fill="#2c4e00" d="M 379.5,264.5 C 383.5,265.167 387.5,265.833 391.5,266.5C 390.701,269.43 390.368,272.43 390.5,275.5C 408.401,278.538 426.068,282.538 443.5,287.5C 447.291,292.914 450.957,298.414 454.5,304C 447.817,314.008 438.484,318.675 426.5,318C 414.181,303.174 400.181,290.341 384.5,279.5C 383.029,274.421 381.363,269.421 379.5,264.5 Z"/></g>
<g><path style="opacity:1" fill="#fee3c1" d="M 311.5,270.5 C 312.249,271.531 312.915,272.698 313.5,274C 335.789,289.279 356.622,306.445 376,325.5C 401.513,352.886 415.013,385.219 416.5,422.5C 389.757,441.388 361.09,444.554 330.5,432C 313.985,425.664 300.818,415.164 291,400.5C 290.505,398.527 290.338,396.527 290.5,394.5C 291.018,390.453 291.852,386.453 293,382.5C 297.897,370.706 302.23,358.706 306,346.5C 313.46,321.542 315.293,296.208 311.5,270.5 Z"/></g>
<g><path style="opacity:1" fill="#d7ab74" d="M 285.5,295.5 C 287.481,297.144 289.481,298.81 291.5,300.5C 292.914,299.376 294.414,298.376 296,297.5C 296.777,313.841 294.777,329.841 290,345.5C 282.328,362.516 276.662,380.182 273,398.5C 268.672,425.843 273.839,451.176 288.5,474.5C 287.975,475.192 287.308,475.692 286.5,476C 279.5,476.667 272.5,476.667 265.5,476C 255.656,472.744 246.322,468.411 237.5,463C 221.828,453.824 212.161,440.324 208.5,422.5C 214.822,429.508 222.155,435.341 230.5,440C 243.458,441.71 250.458,436.043 251.5,423C 250.47,414.182 250.304,405.349 251,396.5C 264.011,364.967 274.511,332.634 282.5,299.5C 283.5,298.167 284.5,296.833 285.5,295.5 Z"/></g>
<g><path style="opacity:1" fill="#e4c092" d="M 282.5,299.5 C 274.511,332.634 264.011,364.967 251,396.5C 250.304,405.349 250.47,414.182 251.5,423C 250.458,436.043 243.458,441.71 230.5,440C 222.155,435.341 214.822,429.508 208.5,422.5C 207.43,411.86 207.263,401.193 208,390.5C 209.996,382.842 213.33,375.842 218,369.5C 229.333,358.833 240.667,348.167 252,337.5C 252.667,336.833 252.667,336.167 252,335.5C 250.293,333.963 248.793,332.296 247.5,330.5C 251.852,327.143 256.185,323.809 260.5,320.5C 261.932,322.327 263.599,323.994 265.5,325.5C 269.318,322.182 272.985,318.682 276.5,315C 275.001,312.672 273.334,310.505 271.5,308.5C 274.983,305.261 278.65,302.261 282.5,299.5 Z"/></g>
<g><path style="opacity:1" fill="#080604" d="M 271.5,308.5 C 273.334,310.505 275.001,312.672 276.5,315C 272.985,318.682 269.318,322.182 265.5,325.5C 263.599,323.994 261.932,322.327 260.5,320.5C 258.706,318.203 256.706,316.037 254.5,314C 258.034,310.131 261.867,306.631 266,303.5C 267.704,305.373 269.537,307.04 271.5,308.5 Z"/></g>
<g><path style="opacity:1" fill="#f6f9fc" d="M 371.5,381.5 C 388.38,381.544 396.546,389.878 396,406.5C 392.259,413.423 386.759,415.256 379.5,412C 368.776,406.715 364.276,398.215 366,386.5C 367.73,384.598 369.563,382.931 371.5,381.5 Z"/></g>
<g><path style="opacity:1" fill="#f5d0a2" d="M 444.5,385.5 C 450.881,411.418 446.881,435.751 432.5,458.5C 434.533,460.507 436.533,462.507 438.5,464.5C 434.74,469.683 430.74,474.683 426.5,479.5C 423.925,478.272 421.592,476.605 419.5,474.5C 404.549,487.721 387.049,494.721 367,495.5C 305.197,489.201 279.697,455.534 290.5,394.5C 290.338,396.527 290.505,398.527 291,400.5C 300.818,415.164 313.985,425.664 330.5,432C 361.09,444.554 389.757,441.388 416.5,422.5C 428.232,414.036 437.398,403.369 444,390.5C 444.494,388.866 444.66,387.199 444.5,385.5 Z"/></g>
<g><path style="opacity:0.982" fill="#010000" d="M 43.5,420.5 C 47.0091,427.684 50.6758,434.85 54.5,442C 62.5,446 70.5,450 78.5,454C 85.7154,453.043 92.7154,451.043 99.5,448C 105.693,446.346 109.86,448.513 112,454.5C 113.975,460.759 116.141,466.925 118.5,473C 125.091,475.531 131.758,477.864 138.5,480C 139.931,480.465 141.097,481.299 142,482.5C 143.367,486.7 143.867,491.033 143.5,495.5C 160.503,495.667 177.503,495.5 194.5,495C 198.532,494.227 202.532,493.394 206.5,492.5C 214.116,490.012 221.783,487.679 229.5,485.5C 229.733,488.542 230.733,491.208 232.5,493.5C 233.371,496.112 234.037,498.779 234.5,501.5C 222.481,505.169 210.481,508.502 198.5,511.5C 157.167,511.5 115.833,511.5 74.5,511.5C 66.6617,503.151 60.1617,493.818 55,483.5C 45.7486,464.832 36.9153,445.999 28.5,427C 30.6093,425.354 32.9427,424.188 35.5,423.5C 38.3798,423.06 41.0465,422.06 43.5,420.5 Z"/></g>
<g><path style="opacity:1" fill="#d49962" d="M 64.5,464.5 C 69.2893,466.978 74.1227,469.312 79,471.5C 85.2628,469.801 91.4294,467.801 97.5,465.5C 100.484,472.094 103.484,478.761 106.5,485.5C 113.281,488.427 120.281,490.76 127.5,492.5C 127.5,493.5 127.5,494.5 127.5,495.5C 112.152,495.833 96.8189,495.499 81.5,494.5C 74.2908,485.419 68.6241,475.419 64.5,464.5 Z"/></g>
</svg>
