<?xml version="1.0" encoding="UTF-8"?>
<!DOCTYPE svg PUBLIC "-//W3C//DTD SVG 1.1//EN" "http://www.w3.org/Graphics/SVG/1.1/DTD/svg11.dtd">
<svg xmlns="http://www.w3.org/2000/svg" version="1.1" width="512px" height="512px" style="shape-rendering:geometricPrecision; text-rendering:geometricPrecision; image-rendering:optimizeQuality; fill-rule:evenodd; clip-rule:evenodd" xmlns:xlink="http://www.w3.org/1999/xlink">
<g><path style="opacity:0.982" fill="#030201" d="M 444.5,66.5 C 440.984,65.8215 438.484,63.8215 437,60.5C 436.92,53.9204 436.086,47.5871 434.5,41.5C 434.38,38.5198 433.713,35.6865 432.5,33C 399.091,23.0603 370.258,30.5603 346,55.5C 342.79,59.4238 339.956,63.5904 337.5,68C 338.777,77.3174 338.777,86.6508 337.5,96C 337.903,99.6309 339.237,102.798 341.5,105.5C 341.227,108.183 342.227,109.683 344.5,110C 364.528,89.638 384.862,69.638 405.5,50C 414.042,49.579 416.875,53.4124 414,61.5C 395.986,79.3472 378.153,97.3472 360.5,115.5C 370.453,120.143 380.119,125.31 389.5,131C 390.5,131.667 391.5,131.667 392.5,131C 410.746,120.756 424.079,106.09 432.5,87C 435.014,85.7475 437.68,85.2475 440.5,85.5C 443.515,87.0111 445.181,89.5111 445.5,93C 443.824,99.6847 440.824,105.685 436.5,111C 471.143,117.293 496.143,136.127 511.5,167.5C 511.5,170.167 511.5,172.833 511.5,175.5C 499.077,200.251 479.743,217.251 453.5,226.5C 454.708,232.119 455.208,237.785 455,243.5C 453.841,246.493 451.675,248.16 448.5,248.5C 445.613,248.067 443.113,246.733 441,244.5C 432.494,184.005 399.327,144.171 341.5,125C 275.32,111.047 223.82,132.213 187,188.5C 165.937,228.57 163.937,269.57 181,311.5C 197.82,346.655 224.487,370.988 261,384.5C 261.5,384.167 262,383.833 262.5,383.5C 259.806,379.446 257.639,375.112 256,370.5C 202.594,343.378 178.594,299.711 184,239.5C 196.521,181.978 231.688,147.812 289.5,137C 345.911,132.948 387.744,155.448 415,204.5C 435.217,250.549 430.55,293.883 401,334.5C 387.922,349.915 372.255,361.915 354,370.5C 352.361,375.112 350.194,379.446 347.5,383.5C 347.833,383.833 348.167,384.167 348.5,384.5C 400.506,364.864 431.006,327.53 440,272.5C 442.012,269.453 444.845,267.787 448.5,267.5C 453.121,268.964 455.121,272.13 454.5,277C 446.875,325.922 421.875,362.922 379.5,388C 362.915,397.14 345.248,402.973 326.5,405.5C 326.336,408.187 326.503,410.854 327,413.5C 332.274,424.381 337.274,435.381 342,446.5C 347.512,469.975 339.346,486.475 317.5,496C 299.329,500.925 284.495,496.091 273,481.5C 266.432,470.597 264.766,458.93 268,446.5C 272.667,436.5 277.333,426.5 282,416.5C 283.237,412.94 283.737,409.273 283.5,405.5C 249.424,400.629 220.424,385.963 196.5,361.5C 183.426,365.301 170.092,366.801 156.5,366C 154.081,364.491 153.081,362.325 153.5,359.5C 153.544,355.91 155.211,353.41 158.5,352C 164.84,351.399 171.174,350.733 177.5,350C 180.451,349.904 183.118,349.071 185.5,347.5C 153.627,302.919 146.46,254.586 164,202.5C 186.049,150.222 224.882,118.388 280.5,107C 295.227,105.559 309.893,105.059 324.5,105.5C 323.052,103.044 322.386,100.378 322.5,97.5C 326.527,82.9717 324.694,69.305 317,56.5C 303.132,42.3969 286.632,38.3969 267.5,44.5C 256.3,39.0627 244.633,35.0627 232.5,32.5C 175.745,22.5797 125.412,36.4131 81.5,74C 43.7513,106.657 21.5847,147.824 15,197.5C 13.8206,214.3 14.8206,230.967 18,247.5C 21.4415,259.158 25.2749,270.658 29.5,282C 25.1546,298.096 27.6546,312.929 37,326.5C 48.0131,336.928 60.8464,340.595 75.5,337.5C 79.4761,336.669 83.4761,336.503 87.5,337C 101.169,343.668 115.502,348.335 130.5,351C 132.747,352.995 133.747,355.495 133.5,358.5C 132.89,362.444 130.557,364.777 126.5,365.5C 112.25,363.25 98.5838,359.084 85.5,353C 32.0153,358.182 7.84867,334.015 13,280.5C 6.29413,264.996 1.79413,248.996 -0.5,232.5C -0.5,219.833 -0.5,207.167 -0.5,194.5C 12.5178,116.648 54.8511,61.1478 126.5,28C 165.944,11.8452 206.277,9.17855 247.5,20C 254.85,22.427 262.017,25.2603 269,28.5C 287.01,24.2516 303.843,27.0849 319.5,37C 323.702,40.8666 327.535,45.0332 331,49.5C 354.048,22.0737 383.548,10.2404 419.5,14C 427.37,15.2174 435.036,17.2174 442.5,20C 446.177,24.6811 448.51,30.0145 449.5,36C 450.894,42.941 451.894,49.941 452.5,57C 452.519,62.4771 449.852,65.6437 444.5,66.5 Z"/></g>
<g><path style="opacity:1" fill="#e6b600" d="M 232.5,32.5 C 199.196,33.9897 168.53,43.823 140.5,62C 72.7073,108.423 42.8739,172.59 51,254.5C 54.1655,267.663 58.3322,280.496 63.5,293C 59.6459,308.246 61.4792,322.746 69,336.5C 71.0408,337.423 73.2075,337.756 75.5,337.5C 60.8464,340.595 48.0131,336.928 37,326.5C 27.6546,312.929 25.1546,298.096 29.5,282C 25.2749,270.658 21.4415,259.158 18,247.5C 14.8206,230.967 13.8206,214.3 15,197.5C 21.5847,147.824 43.7513,106.657 81.5,74C 125.412,36.4131 175.745,22.5797 232.5,32.5 Z"/></g>
<g><path style="opacity:1" fill="#028d5b" d="M 434.5,41.5 C 388.218,40.8026 357.218,62.1359 341.5,105.5C 339.237,102.798 337.903,99.6309 337.5,96C 338.777,86.6508 338.777,77.3174 337.5,68C 339.956,63.5904 342.79,59.4238 346,55.5C 370.258,30.5603 399.091,23.0603 432.5,33C 433.713,35.6865 434.38,38.5198 434.5,41.5 Z"/></g>
<g><path style="opacity:1" fill="#f9c500" d="M 232.5,32.5 C 244.633,35.0627 256.3,39.0627 267.5,44.5C 286.632,38.3969 303.132,42.3969 317,56.5C 324.694,69.305 326.527,82.9717 322.5,97.5C 322.386,100.378 323.052,103.044 324.5,105.5C 309.893,105.059 295.227,105.559 280.5,107C 224.882,118.388 186.049,150.222 164,202.5C 146.46,254.586 153.627,302.919 185.5,347.5C 183.118,349.071 180.451,349.904 177.5,350C 171.174,350.733 164.84,351.399 158.5,352C 155.211,353.41 153.544,355.91 153.5,359.5C 146.798,359.664 140.131,359.331 133.5,358.5C 133.747,355.495 132.747,352.995 130.5,351C 115.502,348.335 101.169,343.668 87.5,337C 83.4761,336.503 79.4761,336.669 75.5,337.5C 73.2075,337.756 71.0408,337.423 69,336.5C 61.4792,322.746 59.6459,308.246 63.5,293C 58.3322,280.496 54.1655,267.663 51,254.5C 42.8739,172.59 72.7073,108.423 140.5,62C 168.53,43.823 199.196,33.9897 232.5,32.5 Z"/></g>
<g><path style="opacity:0.999" fill="#08a56b" d="M 434.5,41.5 C 436.086,47.5871 436.92,53.9204 437,60.5C 438.484,63.8215 440.984,65.8215 444.5,66.5C 443.904,73.0143 442.571,79.3477 440.5,85.5C 437.68,85.2475 435.014,85.7475 432.5,87C 424.079,106.09 410.746,120.756 392.5,131C 391.5,131.667 390.5,131.667 389.5,131C 380.119,125.31 370.453,120.143 360.5,115.5C 378.153,97.3472 395.986,79.3472 414,61.5C 416.875,53.4124 414.042,49.579 405.5,50C 384.862,69.638 364.528,89.638 344.5,110C 342.227,109.683 341.227,108.183 341.5,105.5C 357.218,62.1359 388.218,40.8026 434.5,41.5 Z"/></g>
<g><path style="opacity:0.999" fill="#f8da2f" d="M 448.5,248.5 C 448.5,254.833 448.5,261.167 448.5,267.5C 444.845,267.787 442.012,269.453 440,272.5C 431.006,327.53 400.506,364.864 348.5,384.5C 348.167,384.167 347.833,383.833 347.5,383.5C 350.194,379.446 352.361,375.112 354,370.5C 372.255,361.915 387.922,349.915 401,334.5C 430.55,293.883 435.217,250.549 415,204.5C 387.744,155.448 345.911,132.948 289.5,137C 231.688,147.812 196.521,181.978 184,239.5C 178.594,299.711 202.594,343.378 256,370.5C 257.639,375.112 259.806,379.446 262.5,383.5C 262,383.833 261.5,384.167 261,384.5C 224.487,370.988 197.82,346.655 181,311.5C 163.937,269.57 165.937,228.57 187,188.5C 223.82,132.213 275.32,111.047 341.5,125C 399.327,144.171 432.494,184.005 441,244.5C 443.113,246.733 445.613,248.067 448.5,248.5 Z"/></g>
<g><path style="opacity:1" fill="#028e5b" d="M 489.5,181.5 C 489.628,179.345 489.128,177.345 488,175.5C 466.263,151.763 439.763,142.096 408.5,146.5C 406.704,145.207 405.037,143.707 403.5,142C 410.524,137.487 417.191,132.487 423.5,127C 456.146,127.667 480.146,142.334 495.5,171C 494.052,174.916 492.052,178.416 489.5,181.5 Z"/></g>
<g><path style="opacity:1" fill="#08a46b" d="M 489.5,181.5 C 479.208,196.143 465.542,206.143 448.5,211.5C 445.349,200.029 440.682,189.196 434.5,179C 444.5,178.667 454.5,178.333 464.5,178C 469.986,172.919 469.653,168.252 463.5,164C 450.167,163.667 436.833,163.333 423.5,163C 418.634,157.305 413.634,151.805 408.5,146.5C 439.763,142.096 466.263,151.763 488,175.5C 489.128,177.345 489.628,179.345 489.5,181.5 Z"/></g>
<g><path style="opacity:1" fill="#fef4c5" d="M 289.5,152.5 C 291.948,151.527 294.615,151.194 297.5,151.5C 297.5,178.5 297.5,205.5 297.5,232.5C 295.418,232.472 293.584,233.139 292,234.5C 276.298,218.965 260.798,203.299 245.5,187.5C 251.969,180.199 258.969,173.365 266.5,167C 274.714,161.957 282.38,157.123 289.5,152.5 Z"/></g>
<g><path style="opacity:1" fill="#fdf3c4" d="M 312.5,151.5 C 336.282,153.066 356.949,161.733 374.5,177.5C 355.833,196.5 337.167,215.5 318.5,234.5C 316.677,233.253 314.677,232.586 312.5,232.5C 312.5,205.5 312.5,178.5 312.5,151.5 Z"/></g>
<g><path style="opacity:1" fill="#f8eaaa" d="M 289.5,152.5 C 282.38,157.123 274.714,161.957 266.5,167C 258.969,173.365 251.969,180.199 245.5,187.5C 242.203,184.704 239.036,181.704 236,178.5C 235.837,176.613 236.671,175.113 238.5,174C 253.609,162.448 270.609,155.282 289.5,152.5 Z"/></g>
<g><path style="opacity:1" fill="#faecab" d="M 236.5,200.5 C 227.871,216.055 222.871,232.721 221.5,250.5C 213.833,250.5 206.167,250.5 198.5,250.5C 198.5,249.5 198.5,248.5 198.5,247.5C 200.424,226.555 207.924,207.888 221,191.5C 222.113,189.671 223.613,188.837 225.5,189C 229.37,192.702 233.037,196.536 236.5,200.5 Z"/></g>
<g><path style="opacity:1" fill="#fef4c5" d="M 411.5,246.5 C 411.5,247.833 411.5,249.167 411.5,250.5C 384.833,250.5 358.167,250.5 331.5,250.5C 330.65,248.506 330.15,246.506 330,244.5C 348.667,225.833 367.333,207.167 386,188.5C 400.767,205.037 409.267,224.37 411.5,246.5 Z"/></g>
<g><path style="opacity:1" fill="#fbf1c3" d="M 236.5,200.5 C 251.132,214.631 265.632,228.965 280,243.5C 280.609,246.065 280.109,248.399 278.5,250.5C 259.5,250.5 240.5,250.5 221.5,250.5C 222.871,232.721 227.871,216.055 236.5,200.5 Z"/></g>
<g><path style="opacity:1" fill="#f8f8f8" d="M 302.5,245.5 C 314.877,246.256 319.377,252.59 316,264.5C 314.749,267.381 312.583,269.214 309.5,270C 297.566,271.733 292.066,266.567 293,254.5C 294.871,250.006 298.038,247.006 302.5,245.5 Z"/></g>
<g><path style="opacity:1" fill="#64604b" d="M 198.5,247.5 C 198.5,248.5 198.5,249.5 198.5,250.5C 206.167,250.5 213.833,250.5 221.5,250.5C 240.5,250.5 259.5,250.5 278.5,250.5C 251.672,251.498 224.672,251.831 197.5,251.5C 197.232,249.901 197.566,248.568 198.5,247.5 Z"/></g>
<g><path style="opacity:1" fill="#65614e" d="M 411.5,246.5 C 412.451,247.919 412.784,249.585 412.5,251.5C 385.328,251.831 358.328,251.498 331.5,250.5C 358.167,250.5 384.833,250.5 411.5,250.5C 411.5,249.167 411.5,247.833 411.5,246.5 Z"/></g>
<g><path style="opacity:1" fill="#979175" d="M 331.5,266.5 C 358.328,265.502 385.328,265.169 412.5,265.5C 412.737,266.791 412.404,267.791 411.5,268.5C 385.188,266.509 358.521,265.842 331.5,266.5 Z"/></g>
<g><path style="opacity:1" fill="#fceead" d="M 198.5,266.5 C 206.5,266.5 214.5,266.5 222.5,266.5C 223.111,283.998 227.777,300.331 236.5,315.5C 232.537,319.964 228.37,324.298 224,328.5C 208.628,310.744 200.128,290.078 198.5,266.5 Z"/></g>
<g><path style="opacity:1" fill="#faf0c2" d="M 198.5,266.5 C 225.236,265.168 252.069,265.168 279,266.5C 279.991,268.447 280.325,270.447 280,272.5C 265.632,287.035 251.132,301.369 236.5,315.5C 227.777,300.331 223.111,283.998 222.5,266.5C 214.5,266.5 206.5,266.5 198.5,266.5 Z"/></g>
<g><path style="opacity:1" fill="#fef4c5" d="M 331.5,266.5 C 358.521,265.842 385.188,266.509 411.5,268.5C 409.503,291.34 401.003,311.34 386,328.5C 367.333,309.833 348.667,291.167 330,272.5C 329.591,270.305 330.091,268.305 331.5,266.5 Z"/></g>
<g><path style="opacity:1" fill="#fef4c5" d="M 294.5,365.5 C 275.377,357.388 259.043,345.388 245.5,329.5C 260.798,313.701 276.298,298.035 292,282.5C 293.584,283.861 295.418,284.528 297.5,284.5C 297.5,311.5 297.5,338.5 297.5,365.5C 296.5,365.5 295.5,365.5 294.5,365.5 Z"/></g>
<g><path style="opacity:1" fill="#fbf1c3" d="M 317.5,282.5 C 337.288,300.455 356.288,319.288 374.5,339C 366.796,346.704 357.796,352.704 347.5,357C 336.303,361.788 324.636,364.622 312.5,365.5C 312.167,338.492 312.5,311.492 313.5,284.5C 315.026,284.006 316.359,283.339 317.5,282.5 Z"/></g>
<g><path style="opacity:1" fill="#f8eaaa" d="M 245.5,329.5 C 259.043,345.388 275.377,357.388 294.5,365.5C 271.977,363.067 252.311,354.4 235.5,339.5C 238.521,335.812 241.854,332.479 245.5,329.5 Z"/></g>
<g><path style="opacity:1" fill="#f9ecab" d="M 290.5,380.5 C 294.59,385.9 299.59,390.4 305.5,394C 307.639,396.478 309.639,398.978 311.5,401.5C 310.231,406.514 310.231,411.514 311.5,416.5C 305.376,428.488 299.876,440.822 295,453.5C 293.713,463.806 296.547,472.806 303.5,480.5C 302.311,481.429 300.978,481.762 299.5,481.5C 284.714,476.192 279.214,465.859 283,450.5C 287.667,440.5 292.333,430.5 297,420.5C 301.233,410.06 299.9,400.393 293,391.5C 287.886,387.037 282.719,382.704 277.5,378.5C 281.793,378.351 286.126,379.018 290.5,380.5 Z"/></g>
<g><path style="opacity:1" fill="#f8eec0" d="M 311.5,401.5 C 309.639,398.978 307.639,396.478 305.5,394C 299.59,390.4 294.59,385.9 290.5,380.5C 299.506,380.666 308.506,380.5 317.5,380C 322.828,378.888 328.162,378.221 333.5,378C 328.623,382.546 323.456,386.713 318,390.5C 315.289,393.933 313.123,397.6 311.5,401.5 Z"/></g>
<g><path style="opacity:1" fill="#fcf2c3" d="M 311.5,416.5 C 316.338,427.852 321.505,439.185 327,450.5C 330.974,467.061 324.807,477.561 308.5,482C 305.304,482.805 302.304,482.638 299.5,481.5C 300.978,481.762 302.311,481.429 303.5,480.5C 296.547,472.806 293.713,463.806 295,453.5C 299.876,440.822 305.376,428.488 311.5,416.5 Z"/></g>
</svg>
