<?xml version="1.0" encoding="UTF-8"?>
<!DOCTYPE svg PUBLIC "-//W3C//DTD SVG 1.1//EN" "http://www.w3.org/Graphics/SVG/1.1/DTD/svg11.dtd">
<svg xmlns="http://www.w3.org/2000/svg" version="1.1" width="512px" height="512px" style="shape-rendering:geometricPrecision; text-rendering:geometricPrecision; image-rendering:optimizeQuality; fill-rule:evenodd; clip-rule:evenodd" xmlns:xlink="http://www.w3.org/1999/xlink">
<g><path style="opacity:0.974" fill="#030303" d="M 511.5,221.5 C 511.5,233.833 511.5,246.167 511.5,258.5C 509.986,261.095 507.652,262.429 504.5,262.5C 500.91,262.456 498.41,260.789 497,257.5C 496.667,246.833 496.333,236.167 496,225.5C 495.07,223.448 493.57,221.948 491.5,221C 376.167,220.667 260.833,220.333 145.5,220C 143.266,218.362 141.933,216.195 141.5,213.5C 142.183,209.98 144.183,207.48 147.5,206C 250.833,205.5 354.166,205.333 457.5,205.5C 452.634,183.801 439.301,170.634 417.5,166C 399.833,165.667 382.167,165.333 364.5,165C 358.271,160.829 357.938,156.163 363.5,151C 378.496,150.5 393.496,150.333 408.5,150.5C 405.075,97.9647 381.742,56.9647 338.5,27.5C 330.431,19.3255 321.097,17.4922 310.5,22C 290.871,43.9871 266.537,57.9871 237.5,64C 218.67,67.8805 199.67,70.5472 180.5,72C 158.023,75.2456 138.023,83.9122 120.5,98C 115.368,103.11 111.368,108.943 108.5,115.5C 107.957,115.56 107.624,115.893 107.5,116.5C 133.491,117.5 159.491,117.833 185.5,117.5C 191.373,119.353 192.873,123.02 190,128.5C 188.871,130.141 187.371,131.141 185.5,131.5C 156.498,131.333 127.498,131.5 98.5,132C 77.6988,141.815 64.5321,157.981 59,180.5C 57.3484,187.435 56.1818,194.435 55.5,201.5C 54.5489,202.919 54.2155,204.585 54.5,206.5C 73.8333,206.5 93.1667,206.5 112.5,206.5C 115.167,207.167 116.833,208.833 117.5,211.5C 118.208,216.441 116.208,219.441 111.5,220.5C 80.8315,220.333 50.1649,220.5 19.5,221C 17.3333,221.833 15.8333,223.333 15,225.5C 14.3333,273.833 14.3333,322.167 15,370.5C 19.2765,398.216 34.1099,418.05 59.5,430C 66.6102,432.778 73.9436,434.611 81.5,435.5C 192.501,435.667 303.501,435.5 414.5,435C 460.121,427.378 487.288,400.878 496,355.5C 496.333,332.167 496.667,308.833 497,285.5C 498.41,282.211 500.91,280.544 504.5,280.5C 507.652,280.571 509.986,281.905 511.5,284.5C 511.5,309.5 511.5,334.5 511.5,359.5C 503.145,403.7 477.478,432.867 434.5,447C 421.694,450.095 408.694,451.595 395.5,451.5C 395.929,465.559 395.429,479.559 394,493.5C 391.108,499.392 386.608,503.559 380.5,506C 337.545,507.156 294.545,507.656 251.5,507.5C 208.455,507.656 165.455,507.156 122.5,506C 115.572,503.406 111.072,498.573 109,491.5C 107.575,478.227 107.075,464.894 107.5,451.5C 74.8568,455.008 46.6901,445.674 23,423.5C 10.8794,409.926 3.04611,394.259 -0.5,376.5C -0.5,324.833 -0.5,273.167 -0.5,221.5C 1.89027,214.607 6.55693,209.774 13.5,207C 22.0836,205.59 30.7502,205.09 39.5,205.5C 40.5305,184.372 46.3639,164.705 57,146.5C 65.5868,133.577 76.9201,123.911 91,117.5C 98.8966,94.6007 114.063,78.4341 136.5,69C 149.655,63.2941 163.322,59.2941 177.5,57C 202.349,55.4508 226.683,51.1174 250.5,44C 259.897,40.4682 268.897,36.1348 277.5,31C 286.515,23.6474 295.181,15.9807 303.5,8C 313.204,2.96306 323.204,2.29639 333.5,6C 389.052,38.4569 419.719,86.9569 425.5,151.5C 452.105,160.024 468.105,178.024 473.5,205.5C 481.585,205.099 489.585,205.599 497.5,207C 504.443,209.774 509.11,214.607 511.5,221.5 Z"/></g>
<g><path style="opacity:1" fill="#f6d8a8" d="M 338.5,27.5 C 334.802,28.182 331.469,29.682 328.5,32C 309.938,52.7878 286.938,66.1211 259.5,72C 238.558,75.4094 217.558,78.4094 196.5,81C 171.71,85.4764 150.543,96.643 133,114.5C 132.536,115.094 132.369,115.761 132.5,116.5C 124.316,116.826 116.316,116.492 108.5,115.5C 111.368,108.943 115.368,103.11 120.5,98C 138.023,83.9122 158.023,75.2456 180.5,72C 199.67,70.5472 218.67,67.8805 237.5,64C 266.537,57.9871 290.871,43.9871 310.5,22C 321.097,17.4922 330.431,19.3255 338.5,27.5 Z"/></g>
<g><path style="opacity:1" fill="#fef2d6" d="M 338.5,27.5 C 381.742,56.9647 405.075,97.9647 408.5,150.5C 393.496,150.333 378.496,150.5 363.5,151C 357.938,156.163 358.271,160.829 364.5,165C 382.167,165.333 399.833,165.667 417.5,166C 439.301,170.634 452.634,183.801 457.5,205.5C 354.166,205.333 250.833,205.5 147.5,206C 144.183,207.48 142.183,209.98 141.5,213.5C 133.228,214.085 125.228,213.418 117.5,211.5C 116.833,208.833 115.167,207.167 112.5,206.5C 99.6774,205.505 86.6774,205.171 73.5,205.5C 76.3051,182.717 86.3051,163.884 103.5,149C 108.723,145.221 114.39,142.221 120.5,140C 121.867,137.699 122.534,135.199 122.5,132.5C 143.673,132.831 164.673,132.497 185.5,131.5C 187.371,131.141 188.871,130.141 190,128.5C 192.873,123.02 191.373,119.353 185.5,117.5C 168.008,116.503 150.341,116.17 132.5,116.5C 132.369,115.761 132.536,115.094 133,114.5C 150.543,96.643 171.71,85.4764 196.5,81C 217.558,78.4094 238.558,75.4094 259.5,72C 286.938,66.1211 309.938,52.7878 328.5,32C 331.469,29.682 334.802,28.182 338.5,27.5 Z"/></g>
<g><path style="opacity:1" fill="#766e5f" d="M 108.5,115.5 C 116.316,116.492 124.316,116.826 132.5,116.5C 150.341,116.17 168.008,116.503 185.5,117.5C 159.491,117.833 133.491,117.5 107.5,116.5C 107.624,115.893 107.957,115.56 108.5,115.5 Z"/></g>
<g><path style="opacity:1" fill="#f1d5a6" d="M 185.5,131.5 C 164.673,132.497 143.673,132.831 122.5,132.5C 122.534,135.199 121.867,137.699 120.5,140C 114.39,142.221 108.723,145.221 103.5,149C 86.3051,163.884 76.3051,182.717 73.5,205.5C 67.5,205.5 61.5,205.5 55.5,205.5C 55.5,204.167 55.5,202.833 55.5,201.5C 56.1818,194.435 57.3484,187.435 59,180.5C 64.5321,157.981 77.6988,141.815 98.5,132C 127.498,131.5 156.498,131.333 185.5,131.5 Z"/></g>
<g><path style="opacity:1" fill="#080807" d="M 315.5,150.5 C 320.959,150.103 326.292,150.603 331.5,152C 335.826,157.044 335.16,161.378 329.5,165C 324.051,165.896 318.718,165.563 313.5,164C 309.188,158.731 309.855,154.231 315.5,150.5 Z"/></g>
<g><path style="opacity:1" fill="#756d5d" d="M 55.5,201.5 C 55.5,202.833 55.5,204.167 55.5,205.5C 61.5,205.5 67.5,205.5 73.5,205.5C 86.6774,205.171 99.6774,205.505 112.5,206.5C 93.1667,206.5 73.8333,206.5 54.5,206.5C 54.2155,204.585 54.5489,202.919 55.5,201.5 Z"/></g>
<g><path style="opacity:1" fill="#e8e8fe" d="M 117.5,211.5 C 125.228,213.418 133.228,214.085 141.5,213.5C 141.933,216.195 143.266,218.362 145.5,220C 260.833,220.333 376.167,220.667 491.5,221C 493.57,221.948 495.07,223.448 496,225.5C 496.333,236.167 496.667,246.833 497,257.5C 498.41,260.789 500.91,262.456 504.5,262.5C 504.5,268.5 504.5,274.5 504.5,280.5C 500.91,280.544 498.41,282.211 497,285.5C 496.667,308.833 496.333,332.167 496,355.5C 487.288,400.878 460.121,427.378 414.5,435C 303.501,435.5 192.501,435.667 81.5,435.5C 56.834,421.634 42.0006,400.634 37,372.5C 36.3333,322.833 36.3333,273.167 37,223.5C 61.7774,221.843 86.6108,220.843 111.5,220.5C 116.208,219.441 118.208,216.441 117.5,211.5 Z"/></g>
<g><path style="opacity:1" fill="#d1d1e5" d="M 111.5,220.5 C 86.6108,220.843 61.7774,221.843 37,223.5C 36.3333,273.167 36.3333,322.833 37,372.5C 42.0006,400.634 56.834,421.634 81.5,435.5C 73.9436,434.611 66.6102,432.778 59.5,430C 34.1099,418.05 19.2765,398.216 15,370.5C 14.3333,322.167 14.3333,273.833 15,225.5C 15.8333,223.333 17.3333,221.833 19.5,221C 50.1649,220.5 80.8315,220.333 111.5,220.5 Z"/></g>
<g><path style="opacity:1" fill="#c4c4dd" d="M 379.5,486.5 C 379.5,479.167 379.5,471.833 379.5,464.5C 301.167,464.5 222.833,464.5 144.5,464.5C 144.196,473.584 144.529,482.584 145.5,491.5C 139.491,491.666 133.491,491.499 127.5,491C 126.584,490.626 125.75,490.126 125,489.5C 123.538,476.599 123.038,463.599 123.5,450.5C 209.167,450.5 294.833,450.5 380.5,450.5C 380.828,462.678 380.495,474.678 379.5,486.5 Z"/></g>
<g><path style="opacity:1" fill="#d3d3e7" d="M 379.5,486.5 C 379.141,488.371 378.141,489.871 376.5,491C 299.501,491.5 222.501,491.667 145.5,491.5C 144.529,482.584 144.196,473.584 144.5,464.5C 222.833,464.5 301.167,464.5 379.5,464.5C 379.5,471.833 379.5,479.167 379.5,486.5 Z"/></g>
</svg>
