<?xml version="1.0" encoding="UTF-8"?>
<!DOCTYPE svg PUBLIC "-//W3C//DTD SVG 1.1//EN" "http://www.w3.org/Graphics/SVG/1.1/DTD/svg11.dtd">
<svg xmlns="http://www.w3.org/2000/svg" version="1.1" width="512px" height="512px" style="shape-rendering:geometricPrecision; text-rendering:geometricPrecision; image-rendering:optimizeQuality; fill-rule:evenodd; clip-rule:evenodd" xmlns:xlink="http://www.w3.org/1999/xlink">
<g><path style="opacity:0.97" fill="#020202" d="M 437.5,-0.5 C 442.833,-0.5 448.167,-0.5 453.5,-0.5C 477.044,9.95811 483.21,26.9581 472,50.5C 459.167,63.3333 446.333,76.1667 433.5,89C 430.067,90.912 426.733,90.7454 423.5,88.5C 421.278,84.9041 421.111,81.2375 423,77.5C 436.397,64.7718 449.064,51.4385 461,37.5C 463.904,29.7189 462.071,23.3856 455.5,18.5C 452.908,15.5441 449.574,14.2108 445.5,14.5C 440.98,14.5926 436.98,16.0926 433.5,19C 408.167,44.3333 382.833,69.6667 357.5,95C 351.833,98.6667 346.167,102.333 340.5,106C 347.702,113.369 355.035,120.536 362.5,127.5C 364.857,131.045 367.857,133.545 371.5,135C 378.683,122.01 388.017,110.677 399.5,101C 403.613,98.9464 407.613,99.1131 411.5,101.5C 412.569,104.408 412.736,107.408 412,110.5C 399.888,120.928 390.055,133.094 382.5,147C 391.79,161.163 390.123,173.83 377.5,185C 369.359,189.513 361.192,190.013 353,186.5C 345.549,196.952 337.716,207.119 329.5,217C 339.27,227.775 349.937,237.442 361.5,246C 379.5,246.333 397.5,246.667 415.5,247C 425.524,249.359 430.857,255.692 431.5,266C 429.683,297.408 423.516,327.908 413,357.5C 390.241,412.259 350.741,449.092 294.5,468C 301.387,478.493 305.387,489.993 306.5,502.5C 306.314,506.077 304.98,509.077 302.5,511.5C 255.833,511.5 209.167,511.5 162.5,511.5C 160.856,510.684 159.69,509.35 159,507.5C 157.97,493.287 161.47,480.287 169.5,468.5C 143.315,458.775 119.815,444.775 99,426.5C 97.088,423.067 97.2546,419.733 99.5,416.5C 102.228,414.712 105.228,414.212 108.5,415C 130.678,433.593 155.678,447.26 183.5,456C 215.833,456.667 248.167,456.667 280.5,456C 285.306,454.237 289.972,452.404 294.5,450.5C 349.938,430.358 386.438,392.025 404,335.5C 411.092,311.995 414.759,287.995 415,263.5C 410.599,262.533 406.099,262.2 401.5,262.5C 284.165,262.167 166.831,262.5 49.5,263.5C 49.4324,298.324 56.599,331.657 71,363.5C 76.2485,373.67 82.2485,383.337 89,392.5C 90.0536,396.655 89.2202,400.322 86.5,403.5C 83.4543,404.885 80.4543,404.719 77.5,403C 57.903,376.576 45.0697,347.076 39,314.5C 35.3532,296.664 33.6866,278.664 34,260.5C 35.9384,252.895 40.7718,248.395 48.5,247C 66.5,246.667 84.5,246.333 102.5,246C 135.92,219.946 163.42,188.779 185,152.5C 203.394,133.151 225.561,126.984 251.5,134C 256.975,136.414 262.309,138.747 267.5,141C 274.577,135.379 281.743,129.879 289,124.5C 285.51,112.292 288.344,101.792 297.5,93C 308.702,86.6065 319.535,87.1065 330,94.5C 335.833,90.6667 341.667,86.8333 347.5,83C 372.833,57.6667 398.167,32.3333 423.5,7C 427.826,3.67329 432.492,1.17329 437.5,-0.5 Z"/></g>
<g><path style="opacity:1" fill="#de9772" d="M 455.5,18.5 C 455.076,23.1915 453.576,27.5249 451,31.5C 425.667,56.8333 400.333,82.1667 375,107.5C 370.186,113.803 366.02,120.469 362.5,127.5C 355.035,120.536 347.702,113.369 340.5,106C 346.167,102.333 351.833,98.6667 357.5,95C 382.833,69.6667 408.167,44.3333 433.5,19C 436.98,16.0926 440.98,14.5926 445.5,14.5C 449.574,14.2108 452.908,15.5441 455.5,18.5 Z"/></g>
<g><path style="opacity:1" fill="#da8657" d="M 455.5,18.5 C 462.071,23.3856 463.904,29.7189 461,37.5C 449.064,51.4385 436.397,64.7718 423,77.5C 421.111,81.2375 421.278,84.9041 423.5,88.5C 419.5,92.8333 415.5,97.1667 411.5,101.5C 407.613,99.1131 403.613,98.9464 399.5,101C 388.017,110.677 378.683,122.01 371.5,135C 367.857,133.545 364.857,131.045 362.5,127.5C 366.02,120.469 370.186,113.803 375,107.5C 400.333,82.1667 425.667,56.8333 451,31.5C 453.576,27.5249 455.076,23.1915 455.5,18.5 Z"/></g>
<g><path style="opacity:1" fill="#989898" d="M 364.5,151.5 C 363.627,159.374 359.293,164.04 351.5,165.5C 335.868,150.368 320.368,135.035 305,119.5C 301.302,110.896 303.968,105.563 313,103.5C 315.321,103.909 317.487,104.743 319.5,106C 334.702,121.035 349.702,136.201 364.5,151.5 Z"/></g>
<g><path style="opacity:1" fill="#faf4de" d="M 332.5,168.5 C 329.179,173.152 325.513,177.485 321.5,181.5C 319.797,176.813 316.463,174.98 311.5,176C 308.318,179.349 304.985,182.516 301.5,185.5C 298.795,182.583 296.462,179.416 294.5,176C 297.681,173.152 300.514,169.985 303,166.5C 302.704,157.899 298.537,155.399 290.5,159C 289.315,160.353 287.981,161.52 286.5,162.5C 283.484,159.48 280.817,156.146 278.5,152.5C 285.758,146.954 292.924,141.287 300,135.5C 311.035,146.368 321.869,157.368 332.5,168.5 Z"/></g>
<g><path style="opacity:1" fill="#d0f09d" d="M 238.5,147.5 C 235.15,147.335 231.817,147.502 228.5,148C 234.899,150.951 240.732,154.784 246,159.5C 265.917,191.928 290.083,220.928 318.5,246.5C 254.833,246.5 191.167,246.5 127.5,246.5C 153.542,222.967 175.708,196.3 194,166.5C 205.285,151.431 220.118,145.098 238.5,147.5 Z"/></g>
<g><path style="opacity:1" fill="#b9e96b" d="M 238.5,147.5 C 250.915,149.124 261.082,154.791 269,164.5C 287.251,194.976 309.751,221.976 336.5,245.5C 330.69,246.49 324.69,246.823 318.5,246.5C 290.083,220.928 265.917,191.928 246,159.5C 240.732,154.784 234.899,150.951 228.5,148C 231.817,147.502 235.15,147.335 238.5,147.5 Z"/></g>
<g><path style="opacity:1" fill="#7f7f7f" d="M 364.5,151.5 C 372.05,155.593 374.216,161.593 371,169.5C 367.867,172.877 364.034,174.044 359.5,173C 356.334,171 353.668,168.5 351.5,165.5C 359.293,164.04 363.627,159.374 364.5,151.5 Z"/></g>
<g><path style="opacity:1" fill="#f9efc1" d="M 332.5,168.5 C 336.486,170.951 338.986,174.284 340,178.5C 333.333,187.167 326.667,195.833 320,204.5C 319.282,205.451 318.449,205.617 317.5,205C 315.112,202.95 313.112,200.616 311.5,198C 313.95,194.547 316.783,191.38 320,188.5C 321.202,186.323 321.702,183.989 321.5,181.5C 325.513,177.485 329.179,173.152 332.5,168.5 Z"/></g>
<g><path style="opacity:1" fill="#89a066" d="M 336.5,245.5 C 337.043,245.56 337.376,245.893 337.5,246.5C 302.333,246.833 267.167,247.167 232,247.5C 196.429,247.503 161.596,247.17 127.5,246.5C 191.167,246.5 254.833,246.5 318.5,246.5C 324.69,246.823 330.69,246.49 336.5,245.5 Z"/></g>
<g><path style="opacity:1" fill="#9b9b9b" d="M 401.5,262.5 C 401.53,301.051 393.03,337.718 376,372.5C 357.097,407.238 329.931,433.238 294.5,450.5C 289.972,452.404 285.306,454.237 280.5,456C 248.167,456.667 215.833,456.667 183.5,456C 155.678,447.26 130.678,433.593 108.5,415C 105.228,414.212 102.228,414.712 99.5,416.5C 94.8062,412.473 90.4729,408.14 86.5,403.5C 89.2202,400.322 90.0536,396.655 89,392.5C 82.2485,383.337 76.2485,373.67 71,363.5C 56.599,331.657 49.4324,298.324 49.5,263.5C 166.831,262.5 284.165,262.167 401.5,262.5 Z"/></g>
<g><path style="opacity:1" fill="#818181" d="M 401.5,262.5 C 406.099,262.2 410.599,262.533 415,263.5C 414.759,287.995 411.092,311.995 404,335.5C 386.438,392.025 349.938,430.358 294.5,450.5C 329.931,433.238 357.097,407.238 376,372.5C 393.03,337.718 401.53,301.051 401.5,262.5 Z"/></g>
<g><path style="opacity:1" fill="#9b9b9b" d="M 266.5,471.5 C 271.002,479.333 274.335,487.666 276.5,496.5C 242.5,496.5 208.5,496.5 174.5,496.5C 176.499,487.337 180.499,479.17 186.5,472C 213.165,471.5 239.831,471.333 266.5,471.5 Z"/></g>
<g><path style="opacity:1" fill="#818181" d="M 266.5,471.5 C 270.555,471.176 274.555,471.509 278.5,472.5C 284.334,479.501 288,487.501 289.5,496.5C 285.167,496.5 280.833,496.5 276.5,496.5C 274.335,487.666 271.002,479.333 266.5,471.5 Z"/></g>
</svg>
