<?xml version="1.0" encoding="UTF-8"?>
<!DOCTYPE svg PUBLIC "-//W3C//DTD SVG 1.1//EN" "http://www.w3.org/Graphics/SVG/1.1/DTD/svg11.dtd">
<svg xmlns="http://www.w3.org/2000/svg" version="1.1" width="512px" height="512px" style="shape-rendering:geometricPrecision; text-rendering:geometricPrecision; image-rendering:optimizeQuality; fill-rule:evenodd; clip-rule:evenodd" xmlns:xlink="http://www.w3.org/1999/xlink">
<g><path style="opacity:0.971" fill="#020000" d="M 57.5,17.5 C 90.195,17.7659 117.362,30.0992 139,54.5C 158.918,78.7552 163.918,105.755 154,135.5C 137.786,165.36 112.62,178.527 78.5,175C 51.1748,168.679 33.0082,152.179 24,125.5C 14.7755,98.5589 15.4422,71.8922 26,45.5C 32.3927,31.2592 42.8927,21.9259 57.5,17.5 Z"/></g>
<g><path style="opacity:0.955" fill="#010100" d="M 320.5,17.5 C 336.75,17.0419 349.583,23.3752 359,36.5C 378.689,66.576 380.689,97.9093 365,130.5C 345.714,164.404 316.547,183.071 277.5,186.5C 252.146,185.238 230.979,175.238 214,156.5C 206.151,146.098 203.484,134.431 206,121.5C 209.136,108.039 216.969,98.5391 229.5,93C 240.833,89.6667 252.167,86.3333 263.5,83C 270.48,79.8954 275.314,74.7288 278,67.5C 282.229,55.4709 287.229,43.8042 293,32.5C 300.464,24.1882 309.63,19.1882 320.5,17.5 Z"/></g>
<g><path style="opacity:1" fill="#e6a663" d="M 312.5,161.5 C 279.661,168.944 252.827,159.611 232,133.5C 228.043,127.05 226.543,120.05 227.5,112.5C 228.716,110.549 230.382,109.049 232.5,108C 244.38,104.029 256.38,100.362 268.5,97C 276.777,94.0549 283.277,88.8882 288,81.5C 292.529,70.9135 296.862,60.2469 301,49.5C 308.722,33.1468 320.889,28.6468 337.5,36C 362.414,60.2853 367.581,88.452 353,120.5C 343.984,138.682 330.484,152.349 312.5,161.5 Z"/></g>
<g><path style="opacity:1" fill="#8a411b" d="M 74.5,149.5 C 74.44,150.043 74.1067,150.376 73.5,150.5C 59.8583,141.907 51.6916,129.574 49,113.5C 47.6068,109.372 47.4401,105.372 48.5,101.5C 54.893,106.312 59.2264,104.812 61.5,97C 55.2053,82.4832 52.7053,67.3166 54,51.5C 58.6919,60.3817 63.5252,69.2151 68.5,78C 75.9674,80.8574 79.8007,78.3574 80,70.5C 75.3192,61.4775 70.9858,52.4775 67,43.5C 80.7384,51.2376 91.9051,61.7376 100.5,75C 104.507,77.1665 108.174,76.6665 111.5,73.5C 113.044,68.2265 111.878,63.5599 108,59.5C 104.869,55.3672 101.369,51.5338 97.5,48C 92.5245,43.5134 87.1911,39.5134 81.5,36C 105.114,42.4205 123.281,56.2538 136,77.5C 147.936,98.6781 147.27,119.345 134,139.5C 133.833,139 133.667,138.5 133.5,138C 135.894,129.205 136.06,120.372 134,111.5C 131.761,105.128 127.594,103.295 121.5,106C 119.848,107.47 118.848,109.303 118.5,111.5C 121.221,121.862 121.055,132.196 118,142.5C 113.492,135.487 109.492,128.153 106,120.5C 102.621,118.077 99.1207,117.91 95.5,120C 94.1524,121.574 93.4858,123.407 93.5,125.5C 96.4805,133.629 100.147,141.462 104.5,149C 97.6138,147.393 91.2805,144.393 85.5,140C 83.1255,137.961 81.1255,135.628 79.5,133C 69.3912,129.775 65.8912,133.275 69,143.5C 70.331,145.996 72.1644,147.996 74.5,149.5 Z"/></g>
<g><path style="opacity:1" fill="#060403" d="M 328.5,55.5 C 333.589,54.4285 337.422,56.0952 340,60.5C 350.26,77.5738 352.26,95.5738 346,114.5C 341.312,117.608 337.312,116.941 334,112.5C 334.442,104.175 334.776,95.8419 335,87.5C 334.408,83.7235 333.408,80.0569 332,76.5C 329.388,71.7837 327.222,66.9503 325.5,62C 325.391,59.2884 326.391,57.1217 328.5,55.5 Z"/></g>
<g><path style="opacity:1" fill="#713516" d="M 48.5,101.5 C 47.4401,105.372 47.6068,109.372 49,113.5C 51.6916,129.574 59.8583,141.907 73.5,150.5C 74.1067,150.376 74.44,150.043 74.5,149.5C 79.6338,153.238 84.9671,156.738 90.5,160C 70.5006,160.248 55.3339,151.748 45,134.5C 30.9148,108.68 28.9148,82.0131 39,54.5C 38.7923,68.5079 40.7923,82.1745 45,95.5C 45.926,97.6917 47.0927,99.6917 48.5,101.5 Z"/></g>
<g><path style="opacity:1" fill="#de9547" d="M 227.5,112.5 C 226.543,120.05 228.043,127.05 232,133.5C 252.827,159.611 279.661,168.944 312.5,161.5C 280.319,178.22 251.486,173.554 226,147.5C 218.267,137.25 217.601,126.583 224,115.5C 225.039,114.29 226.206,113.29 227.5,112.5 Z"/></g>
<g><path style="opacity:0.957" fill="#020100" d="M 411.5,147.5 C 436.756,145.048 457.256,153.714 473,173.5C 499.634,211.943 500.301,250.943 475,290.5C 469.333,297.5 463.667,304.5 458,311.5C 453.087,318.908 450.587,327.075 450.5,336C 460.716,382.631 450.883,424.464 421,461.5C 388.345,495.07 350.511,502.237 307.5,483C 250.048,454.257 232.548,409.757 255,349.5C 266.662,322.842 284.495,301.342 308.5,285C 313.964,280.919 318.131,275.752 321,269.5C 323.365,242.702 330.698,217.369 343,193.5C 359.282,168.38 382.116,153.046 411.5,147.5 Z"/></g>
<g><path style="opacity:1" fill="#e6a663" d="M 417.5,162.5 C 419.857,162.337 422.19,162.503 424.5,163C 421.634,167.221 422.301,170.888 426.5,174C 430.389,175.14 433.722,174.307 436.5,171.5C 438.343,178.87 442.677,181.036 449.5,178C 450.46,176.581 451.293,175.081 452,173.5C 475.321,195.106 483.321,221.439 476,252.5C 473.311,261.563 469.644,270.23 465,278.5C 458.667,286.5 452.333,294.5 446,302.5C 439.171,312.819 435.671,324.152 435.5,336.5C 446.354,382.253 436.021,422.42 404.5,457C 389.867,470.649 372.533,477.649 352.5,478C 355.12,471.74 353.12,467.906 346.5,466.5C 342.284,468.048 338.95,470.715 336.5,474.5C 323.517,467.518 311.85,458.852 301.5,448.5C 300.5,448.167 299.833,447.5 299.5,446.5C 279.29,417.735 276.123,387.069 290,354.5C 301.11,327.461 318.943,305.961 343.5,290C 347,286.5 350.5,283 354,279.5C 355.333,276.167 356.667,272.833 358,269.5C 359.724,244.401 366.391,220.735 378,198.5C 387.588,182.405 400.755,170.405 417.5,162.5 Z"/></g>
<g><path style="opacity:1" fill="#e19748" d="M 417.5,162.5 C 400.755,170.405 387.588,182.405 378,198.5C 366.391,220.735 359.724,244.401 358,269.5C 356.667,272.833 355.333,276.167 354,279.5C 350.5,283 347,286.5 343.5,290C 318.943,305.961 301.11,327.461 290,354.5C 276.123,387.069 279.29,417.735 299.5,446.5C 293.85,444.407 289.683,446.074 287,451.5C 265.521,432.747 256.854,409.08 261,380.5C 269.469,343.383 289.636,314.55 321.5,294C 330.26,285.65 335.76,275.483 338,263.5C 338.958,230.094 351.458,201.927 375.5,179C 387.622,168.774 401.622,163.274 417.5,162.5 Z"/></g>
<g><path style="opacity:0.962" fill="#010100" d="M 155.5,168.5 C 174.524,168.381 188.357,176.715 197,193.5C 201.966,205.28 208.8,215.78 217.5,225C 220.948,226.927 224.615,228.261 228.5,229C 240.275,230.822 251.942,233.155 263.5,236C 284.31,246.12 292.476,262.62 288,285.5C 282.866,298.968 274.366,309.801 262.5,318C 234.471,335.213 205.471,336.879 175.5,323C 149.138,309.639 129.971,289.472 118,262.5C 108.681,233.967 112.348,207.301 129,182.5C 136.32,174.759 145.154,170.092 155.5,168.5 Z"/></g>
<g><path style="opacity:1" fill="#070401" d="M 406.5,181.5 C 413.497,180.666 416.664,183.666 416,190.5C 409.186,200.307 402.02,209.807 394.5,219C 387.333,219.833 384.167,216.667 385,209.5C 390.987,199.158 398.154,189.825 406.5,181.5 Z"/></g>
<g><path style="opacity:1" fill="#76a125" d="M 250.5,307.5 C 206.045,313.688 171.545,298.021 147,260.5C 135.158,240.781 131.991,219.781 137.5,197.5C 144.729,184.477 155.396,180.643 169.5,186C 177.359,190.194 182.693,196.527 185.5,205C 172.685,225.24 175.352,243.24 193.5,259C 213.769,270.349 230.769,266.682 244.5,248C 259.542,247.38 269.376,254.214 274,268.5C 276.024,278.102 273.691,286.435 267,293.5C 262.214,299.128 256.714,303.795 250.5,307.5 Z"/></g>
<g><path style="opacity:1" fill="#050301" d="M 444.5,195.5 C 453.656,195.013 456.989,199.346 454.5,208.5C 454.315,217.627 453.148,226.627 451,235.5C 444.057,240.446 439.557,238.779 437.5,230.5C 439.816,220.642 440.982,210.642 441,200.5C 441.997,198.677 443.164,197.01 444.5,195.5 Z"/></g>
<g><path style="opacity:1" fill="#63861f" d="M 137.5,197.5 C 131.991,219.781 135.158,240.781 147,260.5C 171.545,298.021 206.045,313.688 250.5,307.5C 236.042,316.103 220.375,318.936 203.5,316C 162.721,306.887 137.554,282.054 128,241.5C 126.14,225.625 129.306,210.959 137.5,197.5 Z"/></g>
<g><path style="opacity:1" fill="#59791c" d="M 193.5,219.5 C 200.982,233.448 212.649,241.948 228.5,245C 215.988,254.706 204.821,253.206 195,240.5C 191.091,233.676 190.591,226.676 193.5,219.5 Z"/></g>
<g><path style="opacity:1" fill="#060301" d="M 374.5,231.5 C 382.328,230.493 385.494,233.826 384,241.5C 379.779,250.61 376.112,259.943 373,269.5C 368.568,273.743 364.568,273.41 361,268.5C 360.333,265.833 360.333,263.167 361,260.5C 363.723,252.722 366.723,245.055 370,237.5C 370.804,234.854 372.304,232.854 374.5,231.5 Z"/></g>
<g><path style="opacity:1" fill="#060301" d="M 433.5,252.5 C 440.706,252.202 443.873,255.535 443,262.5C 439.214,272.073 434.88,281.407 430,290.5C 424.785,295.019 420.451,294.353 417,288.5C 416.333,286.833 416.333,285.167 417,283.5C 422.135,274.897 426.468,265.897 430,256.5C 431.376,255.295 432.542,253.962 433.5,252.5 Z"/></g>
<g><path style="opacity:1" fill="#060301" d="M 356.5,286.5 C 364.775,285.706 367.942,289.373 366,297.5C 364.729,300.433 363.062,303.099 361,305.5C 355.422,310.407 350.589,315.907 346.5,322C 338.412,324.875 334.579,322.042 335,313.5C 342.788,304.891 349.955,295.891 356.5,286.5 Z"/></g>
<g><path style="opacity:0.97" fill="#020100" d="M 35.5,295.5 C 56.9552,297.641 74.4552,306.975 88,323.5C 90.0719,326.971 91.5719,330.638 92.5,334.5C 114.347,330.274 136.347,329.108 158.5,331C 165.736,330.982 168.57,334.482 167,341.5C 165.851,345.965 164.018,350.132 161.5,354C 180.924,376.271 189.09,402.104 186,431.5C 180.713,452.897 168.88,469.73 150.5,482C 144.33,485.919 137.997,489.586 131.5,493C 106.955,493.865 84.2887,487.865 63.5,475C 47.4217,463.021 37.255,447.188 33,427.5C 31.1406,417.574 29.8073,407.574 29,397.5C 26.2458,395.873 23.4125,394.373 20.5,393C 16.5354,388.437 16.702,383.937 21,379.5C 37.3457,362.136 56.179,348.303 77.5,338C 72.7193,327.222 64.7193,319.888 53.5,316C 46.8333,314 40.1667,312 33.5,310C 29.0539,304.397 29.7206,299.564 35.5,295.5 Z"/></g>
<g><path style="opacity:1" fill="#030200" d="M 407.5,305.5 C 416.407,304.923 419.74,309.09 417.5,318C 417.12,326.542 416.286,335.042 415,343.5C 412.078,348.822 408.078,349.822 403,346.5C 401.994,344.466 401.494,342.3 401.5,340C 402.802,329.872 403.635,319.706 404,309.5C 404.69,307.65 405.856,306.316 407.5,305.5 Z"/></g>
<g><path style="opacity:1" fill="#060301" d="M 322.5,333.5 C 329.655,333.153 332.821,336.486 332,343.5C 326.806,352.554 322.139,361.888 318,371.5C 313.706,375.601 309.706,375.268 306,370.5C 305.333,368.167 305.333,365.833 306,363.5C 310.229,352.702 315.729,342.702 322.5,333.5 Z"/></g>
<g><path style="opacity:1" fill="#89401b" d="M 112.5,412.5 C 94.0343,404.18 83.8676,389.847 82,369.5C 79.0042,371.733 76.1708,374.066 73.5,376.5C 72.391,376.557 71.391,376.89 70.5,377.5C 63.2924,379.691 55.959,380.024 48.5,378.5C 47.2867,378.253 46.62,377.586 46.5,376.5C 68.0205,356.369 93.6872,345.869 123.5,345C 132.186,344.168 140.853,344.335 149.5,345.5C 141.877,358.15 130.544,364.317 115.5,364C 111.875,366.206 110.708,369.373 112,373.5C 117.202,382.117 118.869,391.45 117,401.5C 115.962,405.468 114.462,409.135 112.5,412.5 Z"/></g>
<g><path style="opacity:1" fill="#050301" d="M 399.5,363.5 C 406.706,363.202 409.873,366.535 409,373.5C 406.464,383.773 403.131,393.773 399,403.5C 390.154,407.98 386.154,405.314 387,395.5C 390.207,386.213 393.207,376.879 396,367.5C 397.376,366.295 398.542,364.962 399.5,363.5 Z"/></g>
<g><path style="opacity:1" fill="#f7a711" d="M 154.5,370.5 C 154.67,371.822 154.337,372.989 153.5,374C 148.604,377.277 143.604,380.277 138.5,383C 139.862,390.853 139.695,398.687 138,406.5C 135.436,415.628 131.769,424.295 127,432.5C 123.093,440.811 116.593,443.977 107.5,442C 94.9906,438.167 84.1573,431.667 75,422.5C 71.9368,418.431 69.2701,414.098 67,409.5C 61.5381,405.978 57.7048,407.145 55.5,413C 64.1935,443.025 83.8602,461.358 114.5,468C 123.689,469.408 132.689,469.908 141.5,469.5C 134.987,476.592 126.987,479.425 117.5,478C 70.2782,473.614 45.9449,447.781 44.5,400.5C 53.2212,401.366 61.5545,400.033 69.5,396.5C 76.8635,419.043 92.1968,431.876 115.5,435C 130.08,417.952 134.746,398.619 129.5,377C 137.492,374.837 144.826,371.337 151.5,366.5C 153.288,367.283 154.288,368.616 154.5,370.5 Z"/></g>
<g><path style="opacity:1" fill="#713516" d="M 112.5,412.5 C 111.933,415.303 110.6,417.636 108.5,419.5C 90.899,412.051 81.7323,398.717 81,379.5C 79.005,377.253 76.505,376.253 73.5,376.5C 76.1708,374.066 79.0042,371.733 82,369.5C 83.8676,389.847 94.0343,404.18 112.5,412.5 Z"/></g>
<g><path style="opacity:1" fill="#fcb52e" d="M 154.5,370.5 C 167.771,386.397 173.605,404.73 172,425.5C 167.583,444.094 157.417,458.761 141.5,469.5C 132.689,469.908 123.689,469.408 114.5,468C 83.8602,461.358 64.1935,443.025 55.5,413C 57.7048,407.145 61.5381,405.978 67,409.5C 69.2701,414.098 71.9368,418.431 75,422.5C 84.1573,431.667 94.9906,438.167 107.5,442C 116.593,443.977 123.093,440.811 127,432.5C 131.769,424.295 135.436,415.628 138,406.5C 139.695,398.687 139.862,390.853 138.5,383C 143.604,380.277 148.604,377.277 153.5,374C 154.337,372.989 154.67,371.822 154.5,370.5 Z"/></g>
<g><path style="opacity:1" fill="#703416" d="M 46.5,376.5 C 46.62,377.586 47.2867,378.253 48.5,378.5C 55.959,380.024 63.2924,379.691 70.5,377.5C 62.9346,385.566 53.6013,388.399 42.5,386C 40.9559,385.71 39.6226,385.044 38.5,384C 41.0362,381.295 43.7029,378.795 46.5,376.5 Z"/></g>
<g><path style="opacity:1" fill="#060301" d="M 299.5,387.5 C 305.34,386.579 309.007,388.913 310.5,394.5C 307.374,404.629 305.207,414.963 304,425.5C 301.051,430.69 297.051,431.69 292,428.5C 290.953,425.961 290.453,423.295 290.5,420.5C 292.009,411.122 293.842,401.789 296,392.5C 296.997,390.677 298.164,389.01 299.5,387.5 Z"/></g>
<g><path style="opacity:1" fill="#040201" d="M 377.5,418.5 C 385.885,417.716 389.051,421.383 387,429.5C 381.687,439.308 375.521,448.474 368.5,457C 360.667,458.5 357.5,455.333 359,447.5C 365.177,437.805 371.344,428.138 377.5,418.5 Z"/></g>
<g><path style="opacity:1" fill="#de9547" d="M 301.5,448.5 C 311.85,458.852 323.517,467.518 336.5,474.5C 335.341,476.377 333.674,476.877 331.5,476C 321.546,473.189 312.212,469.022 303.5,463.5C 302.731,458.488 302.065,453.488 301.5,448.5 Z"/></g>
</svg>
