<?xml version="1.0" encoding="UTF-8"?>
<!DOCTYPE svg PUBLIC "-//W3C//DTD SVG 1.1//EN" "http://www.w3.org/Graphics/SVG/1.1/DTD/svg11.dtd">
<svg xmlns="http://www.w3.org/2000/svg" version="1.1" width="512px" height="512px" style="shape-rendering:geometricPrecision; text-rendering:geometricPrecision; image-rendering:optimizeQuality; fill-rule:evenodd; clip-rule:evenodd" xmlns:xlink="http://www.w3.org/1999/xlink">
<g><path style="opacity:0.981" fill="#020201" d="M 267.5,23.5 C 270.187,23.3359 272.854,23.5026 275.5,24C 281.51,27.0032 287.843,29.0032 294.5,30C 344.052,28.7393 388.052,43.406 426.5,74C 459.244,102.974 479.411,139.141 487,182.5C 492.649,205.764 497.983,229.098 503,252.5C 506.916,291.481 494.083,323.648 464.5,349C 458.208,353.623 452.208,358.623 446.5,364C 429.729,374.863 411.396,378.696 391.5,375.5C 389.521,382.466 386.688,389.132 383,395.5C 338.555,463.967 275.389,494.3 193.5,486.5C 116.275,477.026 54.442,441.36 8,379.5C 7.1834,376.036 7.51674,372.702 9,369.5C 13.2515,366.958 17.4181,364.291 21.5,361.5C 15.4926,357.482 13.9926,352.148 17,345.5C 18.8333,344.333 20.6667,343.167 22.5,342C 9.82736,332.665 4.99402,320.165 8,304.5C 9.39262,300.714 11.0593,297.048 13,293.5C 54.0188,247.905 105.186,221.739 166.5,215C 159.932,198.787 157.765,181.953 160,164.5C 164.383,147.103 166.716,129.436 167,111.5C 168.175,104.32 172.342,101.82 179.5,104C 187.087,109.043 194.587,114.21 202,119.5C 201.833,115.812 201.166,112.145 200,108.5C 196.548,83.5559 206.382,66.3893 229.5,57C 241.438,55.585 253.438,55.085 265.5,55.5C 263.654,46.2532 263.154,36.9199 264,27.5C 264.69,25.6498 265.856,24.3164 267.5,23.5 Z"/></g>
<g><path style="opacity:1" fill="#fdd791" d="M 280.5,44.5 C 300.494,46.6298 320.494,48.7965 340.5,51C 405.899,65.7331 448.066,105.233 467,169.5C 472.873,194.53 478.873,219.53 485,244.5C 492.212,281.535 481.546,312.202 453,336.5C 424,302.5 395,268.5 366,234.5C 339.807,180.253 313.807,125.919 288,71.5C 284.407,62.7956 281.907,53.7956 280.5,44.5 Z"/></g>
<g><path style="opacity:1" fill="#050403" d="M 329.5,64.5 C 382.248,77.2579 421.248,107.591 446.5,155.5C 442.66,157.921 438.66,160.088 434.5,162C 433.365,162.749 432.365,162.583 431.5,161.5C 408.405,119.097 373.405,91.764 326.5,79.5C 326.167,78.8333 325.833,78.1667 325.5,77.5C 326.845,73.1333 328.179,68.7999 329.5,64.5 Z"/></g>
<g><path style="opacity:1" fill="#6ab465" d="M 267.5,71.5 C 287.833,116.833 308.167,162.167 328.5,207.5C 293.464,183.89 258.63,159.89 224,135.5C 220.61,123.11 217.777,110.61 215.5,98C 216.925,84.9012 223.925,76.2346 236.5,72C 246.828,71.5002 257.161,71.3335 267.5,71.5 Z"/></g>
<g><path style="opacity:1" fill="#4c9a48" d="M 267.5,71.5 C 268.978,71.238 270.311,71.5713 271.5,72.5C 293.56,119.621 315.894,166.621 338.5,213.5C 337.998,214.521 337.332,214.688 336.5,214C 333.645,211.969 330.978,209.803 328.5,207.5C 308.167,162.167 287.833,116.833 267.5,71.5 Z"/></g>
<g><path style="opacity:1" fill="#f6c864" d="M 439.5,347.5 C 424.187,351.951 408.687,352.617 393,349.5C 391.93,349.528 391.097,349.861 390.5,350.5C 378.47,286.293 340.803,245.46 277.5,228C 249.585,220.893 221.252,216.727 192.5,215.5C 182.582,201.081 177.249,185.081 176.5,167.5C 178.68,153.436 181.347,139.936 184.5,127C 240.224,166.39 296.224,205.39 352.5,244C 381.667,277.833 410.833,311.667 440,345.5C 440.692,346.437 440.525,347.103 439.5,347.5 Z"/></g>
<g><path style="opacity:1" fill="#dfaf32" d="M 176.5,167.5 C 177.249,185.081 182.582,201.081 192.5,215.5C 189.813,215.664 187.146,215.497 184.5,215C 176.998,199.819 174.331,183.986 176.5,167.5 Z"/></g>
<g><path style="opacity:1" fill="#f7ca65" d="M 200.5,232.5 C 227.988,235.953 254.988,242.119 281.5,251C 325.959,270.132 353.792,303.299 365,350.5C 366.491,357.762 367.324,365.095 367.5,372.5C 294.19,395.43 220.19,397.596 145.5,379C 104.736,367.947 66.7364,350.947 31.5,328C 22.8083,320.779 21.3083,312.279 27,302.5C 73.7502,251.88 131.584,228.547 200.5,232.5 Z"/></g>
<g><path style="opacity:1" fill="#e1b031" d="M 200.5,232.5 C 239.865,233.004 277.198,241.838 312.5,259C 353.311,284.772 374.311,321.938 375.5,370.5C 372.779,370.963 370.112,371.629 367.5,372.5C 367.324,365.095 366.491,357.762 365,350.5C 353.792,303.299 325.959,270.132 281.5,251C 254.988,242.119 227.988,235.953 200.5,232.5 Z"/></g>
<g><path style="opacity:1" fill="#040301" d="M 51.5,297.5 C 119.901,344.94 195.901,365.606 279.5,359.5C 279.5,364.833 279.5,370.167 279.5,375.5C 193.814,381.75 115.814,360.583 45.5,312C 44.6433,311.311 43.9767,310.478 43.5,309.5C 46.1769,305.471 48.8435,301.471 51.5,297.5 Z"/></g>
<g><path style="opacity:1" fill="#e1b131" d="M 439.5,347.5 C 429.915,356.031 418.581,360.031 405.5,359.5C 400.486,359.277 395.486,358.944 390.5,358.5C 390.5,355.833 390.5,353.167 390.5,350.5C 391.097,349.861 391.93,349.528 393,349.5C 408.687,352.617 424.187,351.951 439.5,347.5 Z"/></g>
<g><path style="opacity:1" fill="#4d9c49" d="M 37.5,351.5 C 59.4729,363.317 82.1396,373.817 105.5,383C 171.152,406.035 238.486,413.035 307.5,404C 221.973,437.201 141.306,428.201 65.5,377C 58.8333,371.667 52.1667,366.333 45.5,361C 42.2232,358.234 39.5566,355.067 37.5,351.5 Z"/></g>
<g><path style="opacity:1" fill="#e2b131" d="M 69.5,398.5 C 70.2026,400.716 71.5359,402.549 73.5,404C 138.87,457.108 212.537,473.941 294.5,454.5C 264.824,468.483 233.491,473.983 200.5,471C 130.657,463.729 73.4902,433.229 29,379.5C 29.6906,375.502 32.1906,373.668 36.5,374C 46.8164,383.151 57.8164,391.318 69.5,398.5 Z"/></g>
<g><path style="opacity:1" fill="#f6c864" d="M 294.5,454.5 C 212.537,473.941 138.87,457.108 73.5,404C 71.5359,402.549 70.2026,400.716 69.5,398.5C 148.117,445.606 230.117,452.106 315.5,418C 331.644,410.258 347.644,402.591 363.5,395C 345.874,421.13 322.874,440.963 294.5,454.5 Z"/></g>
</svg>
