<?xml version="1.0" encoding="UTF-8"?>
<!DOCTYPE svg PUBLIC "-//W3C//DTD SVG 1.1//EN" "http://www.w3.org/Graphics/SVG/1.1/DTD/svg11.dtd">
<svg xmlns="http://www.w3.org/2000/svg" version="1.1" width="512px" height="512px" style="shape-rendering:geometricPrecision; text-rendering:geometricPrecision; image-rendering:optimizeQuality; fill-rule:evenodd; clip-rule:evenodd" xmlns:xlink="http://www.w3.org/1999/xlink">
<g><path style="opacity:0.97" fill="#020101" d="M 290.5,157.5 C 290.5,157.833 290.5,158.167 290.5,158.5C 289.013,165.78 287.18,173.113 285,180.5C 283.454,196.863 288.787,210.53 301,221.5C 317.486,250.594 314.153,277.261 291,301.5C 285.355,310.413 283.355,320.08 285,330.5C 287.786,337.93 289.62,345.597 290.5,353.5C 290.025,367.617 284.358,379.117 273.5,388C 263.15,394.176 252.484,399.843 241.5,405C 238.021,407.312 235.021,410.146 232.5,413.5C 240.908,414.095 249.242,415.095 257.5,416.5C 263.137,418.325 268.47,420.825 273.5,424C 279.3,429.399 285.633,434.066 292.5,438C 304.298,442.746 315.965,442.413 327.5,437C 334.833,431.667 342.167,426.333 349.5,421C 366.152,413.051 383.152,412.385 400.5,419C 411.405,420.81 420.572,417.643 428,409.5C 434.079,397.674 440.412,386.007 447,374.5C 450.534,370.631 454.367,367.131 458.5,364C 467.203,360.33 475.869,356.663 484.5,353C 495.631,342.32 497.464,330.154 490,316.5C 485.787,302.938 487.12,289.938 494,277.5C 495.531,265.064 491.031,255.564 480.5,249C 465.844,246.266 454.011,239.099 445,227.5C 439.922,217.01 434.589,206.677 429,196.5C 423.558,188.696 416.058,185.029 406.5,185.5C 396.485,187.864 386.318,189.53 376,190.5C 359.654,189.909 345.821,183.743 334.5,172C 330.993,169.746 327.327,167.746 323.5,166C 320.13,163.303 318.796,159.803 319.5,155.5C 322.513,149.478 327.18,147.978 333.5,151C 341.38,154.773 348.38,159.773 354.5,166C 369.101,173.976 384.101,174.642 399.5,168C 417.367,165.69 431.867,171.523 443,185.5C 449,196.833 455,208.167 461,219.5C 467.822,226.12 475.989,230.287 485.5,232C 498.701,238.363 507.368,248.529 511.5,262.5C 511.5,268.833 511.5,275.167 511.5,281.5C 509.991,286.175 508.158,290.841 506,295.5C 505.333,299.833 505.333,304.167 506,308.5C 507.896,313.598 509.73,318.598 511.5,323.5C 511.5,329.5 511.5,335.5 511.5,341.5C 508.576,352.94 502.242,362.107 492.5,369C 483.915,372.862 475.248,376.528 466.5,380C 464.333,382.167 462.167,384.333 460,386.5C 454.509,398.15 448.509,409.483 442,420.5C 433.105,431.364 421.605,437.031 407.5,437.5C 398.691,436.297 390.024,434.464 381.5,432C 366.301,431.265 353.635,436.598 343.5,448C 314.002,464.782 287.002,461.448 262.5,438C 248.076,429.383 233.743,429.383 219.5,438C 217.402,438.678 215.402,438.511 213.5,437.5C 209.706,434.007 208.539,429.674 210,424.5C 212.767,409.442 220.6,397.942 233.5,390C 243.324,385.255 252.99,380.255 262.5,375C 269.475,369.55 273.142,362.383 273.5,353.5C 272.181,346.374 270.348,339.374 268,332.5C 265.968,311.262 272.635,293.262 288,278.5C 296.629,263.152 296.629,247.819 288,232.5C 272.915,217.655 266.248,199.655 268,178.5C 270.043,171.374 271.876,164.207 273.5,157C 272.92,146.839 268.253,139.172 259.5,134C 248.516,128.843 237.85,123.176 227.5,117C 222.503,112.851 218.503,108.017 215.5,102.5C 210.111,73.2099 193.777,64.0433 166.5,75C 153.835,78.1333 141.835,76.4667 130.5,70C 120.289,68.6252 111.789,71.7919 105,79.5C 100.754,87.899 97.0875,96.5657 94,105.5C 90.5349,109.967 86.7016,114.133 82.5,118C 71.8333,123.667 61.1667,129.333 50.5,135C 42.8728,139.92 38.8728,146.92 38.5,156C 38.9705,163.05 40.4705,169.883 43,176.5C 45.701,198.063 39.3676,216.396 24,231.5C 15.1504,245.217 14.1504,259.55 21,274.5C 26.3333,281.833 31.6667,289.167 37,296.5C 42.8266,307.143 44.8266,318.477 43,330.5C 41.2817,337.979 39.7817,345.479 38.5,353C 38.2167,361.431 41.2167,368.431 47.5,374C 53.7469,378.29 60.4136,381.79 67.5,384.5C 80.6405,389.804 90.4739,398.804 97,411.5C 103.586,440.21 120.086,448.043 146.5,435C 151.5,434.333 156.5,434.333 161.5,435C 163.329,435.273 164.829,436.107 166,437.5C 167.047,440.466 167.881,443.466 168.5,446.5C 167.354,448.475 165.687,449.975 163.5,451C 158.453,451.338 153.453,452.005 148.5,453C 126.725,463.201 107.558,459.701 91,442.5C 85.8984,433.202 81.5651,423.536 78,413.5C 75.8333,411.333 73.6667,409.167 71.5,407C 61.9903,401.745 52.3236,396.745 42.5,392C 28.4716,383.284 21.1382,370.618 20.5,354C 22.0781,343.928 24.0781,333.928 26.5,324C 25.9478,316.344 23.7811,309.177 20,302.5C 16.2403,297.317 12.2403,292.317 8,287.5C 4.05817,280.818 1.22484,273.818 -0.5,266.5C -0.5,259.167 -0.5,251.833 -0.5,244.5C 2.93772,230.631 9.77105,218.631 20,208.5C 23.683,201.952 25.8497,194.952 26.5,187.5C 24.1882,177.397 22.1882,167.23 20.5,157C 20.7217,143.225 26.055,131.892 36.5,123C 48.0069,116.412 59.6736,110.079 71.5,104C 73.6667,101.833 75.8333,99.6667 78,97.5C 81.5651,87.4643 85.8984,77.7976 91,68.5C 102.367,55.8207 116.534,50.654 133.5,53C 140.754,55.4618 148.087,57.6285 155.5,59.5C 162.913,57.6285 170.246,55.4618 177.5,53C 199.634,50.3156 215.801,58.8156 226,78.5C 227.68,88.5787 232.18,97.0787 239.5,104C 249.99,109.078 260.323,114.411 270.5,120C 283.605,129.043 290.272,141.543 290.5,157.5 Z"/></g>
<g><path style="opacity:1" fill="#fdd1a5" d="M 215.5,102.5 C 213.318,106.942 209.651,109.442 204.5,110C 195.679,111.526 187.346,110.192 179.5,106C 162.808,101.372 149.308,105.872 139,119.5C 135.744,126.266 133.078,133.266 131,140.5C 128.007,147.326 123.174,152.326 116.5,155.5C 112.464,151.375 107.797,150.541 102.5,153C 99.2234,157.386 96.8901,162.22 95.5,167.5C 78.2261,174.7 70.7261,187.7 73,206.5C 79.6974,223.645 78.6974,240.312 70,256.5C 61.9569,264.881 55.9569,274.548 52,285.5C 49.0169,300.584 51.6836,314.584 60,327.5C 68.2224,335.277 73.8891,344.611 77,355.5C 78.1703,363.813 77.1703,371.813 74,379.5C 72.2228,381.79 70.0562,383.457 67.5,384.5C 60.4136,381.79 53.7469,378.29 47.5,374C 41.2167,368.431 38.2167,361.431 38.5,353C 39.7817,345.479 41.2817,337.979 43,330.5C 44.8266,318.477 42.8266,307.143 37,296.5C 31.6667,289.167 26.3333,281.833 21,274.5C 14.1504,259.55 15.1504,245.217 24,231.5C 39.3676,216.396 45.701,198.063 43,176.5C 40.4705,169.883 38.9705,163.05 38.5,156C 38.8728,146.92 42.8728,139.92 50.5,135C 61.1667,129.333 71.8333,123.667 82.5,118C 86.7016,114.133 90.5349,109.967 94,105.5C 97.0875,96.5657 100.754,87.899 105,79.5C 111.789,71.7919 120.289,68.6252 130.5,70C 141.835,76.4667 153.835,78.1333 166.5,75C 193.777,64.0433 210.111,73.2099 215.5,102.5 Z"/></g>
<g><path style="opacity:1" fill="#febc7a" d="M 215.5,102.5 C 218.503,108.017 222.503,112.851 227.5,117C 237.85,123.176 248.516,128.843 259.5,134C 268.253,139.172 272.92,146.839 273.5,157C 271.876,164.207 270.043,171.374 268,178.5C 266.248,199.655 272.915,217.655 288,232.5C 296.629,247.819 296.629,263.152 288,278.5C 272.635,293.262 265.968,311.262 268,332.5C 270.348,339.374 272.181,346.374 273.5,353.5C 273.142,362.383 269.475,369.55 262.5,375C 252.99,380.255 243.324,385.255 233.5,390C 220.6,397.942 212.767,409.442 210,424.5C 208.539,429.674 209.706,434.007 213.5,437.5C 200.571,450.49 185.571,453.49 168.5,446.5C 167.881,443.466 167.047,440.466 166,437.5C 164.829,436.107 163.329,435.273 161.5,435C 156.5,434.333 151.5,434.333 146.5,435C 120.086,448.043 103.586,440.21 97,411.5C 90.4739,398.804 80.6405,389.804 67.5,384.5C 70.0562,383.457 72.2228,381.79 74,379.5C 77.1703,371.813 78.1703,363.813 77,355.5C 73.8891,344.611 68.2224,335.277 60,327.5C 51.6836,314.584 49.0169,300.584 52,285.5C 55.9569,274.548 61.9569,264.881 70,256.5C 78.6974,240.312 79.6974,223.645 73,206.5C 70.7261,187.7 78.2261,174.7 95.5,167.5C 93.4127,178.86 94.5793,189.86 99,200.5C 101.194,203.554 102.861,206.888 104,210.5C 104.667,216.5 104.667,222.5 104,228.5C 101.71,232.693 100.377,237.027 100,241.5C 102.354,247.095 106.521,248.928 112.5,247C 119.285,238.975 122.285,229.641 121.5,219C 122.151,209.242 119.651,200.409 114,192.5C 110.09,182.43 110.757,172.763 116,163.5C 116.497,160.854 116.664,158.187 116.5,155.5C 123.174,152.326 128.007,147.326 131,140.5C 133.078,133.266 135.744,126.266 139,119.5C 149.308,105.872 162.808,101.372 179.5,106C 187.346,110.192 195.679,111.526 204.5,110C 209.651,109.442 213.318,106.942 215.5,102.5 Z"/></g>
<g><path style="opacity:1" fill="#060402" d="M 116.5,155.5 C 116.664,158.187 116.497,160.854 116,163.5C 110.757,172.763 110.09,182.43 114,192.5C 119.651,200.409 122.151,209.242 121.5,219C 122.285,229.641 119.285,238.975 112.5,247C 106.521,248.928 102.354,247.095 100,241.5C 100.377,237.027 101.71,232.693 104,228.5C 104.667,222.5 104.667,216.5 104,210.5C 102.861,206.888 101.194,203.554 99,200.5C 94.5793,189.86 93.4127,178.86 95.5,167.5C 96.8901,162.22 99.2234,157.386 102.5,153C 107.797,150.541 112.464,151.375 116.5,155.5 Z"/></g>
<g><path style="opacity:1" fill="#fea963" d="M 319.5,155.5 C 318.796,159.803 320.13,163.303 323.5,166C 327.327,167.746 330.993,169.746 334.5,172C 345.821,183.743 359.654,189.909 376,190.5C 386.318,189.53 396.485,187.864 406.5,185.5C 416.058,185.029 423.558,188.696 429,196.5C 434.589,206.677 439.922,217.01 445,227.5C 454.011,239.099 465.844,246.266 480.5,249C 491.031,255.564 495.531,265.064 494,277.5C 487.12,289.938 485.787,302.938 490,316.5C 497.464,330.154 495.631,342.32 484.5,353C 475.869,356.663 467.203,360.33 458.5,364C 454.367,367.131 450.534,370.631 447,374.5C 440.412,386.007 434.079,397.674 428,409.5C 420.572,417.643 411.405,420.81 400.5,419C 383.152,412.385 366.152,413.051 349.5,421C 342.167,426.333 334.833,431.667 327.5,437C 315.965,442.413 304.298,442.746 292.5,438C 285.633,434.066 279.3,429.399 273.5,424C 268.47,420.825 263.137,418.325 257.5,416.5C 266.266,411.948 274.932,407.115 283.5,402C 306.466,381.762 312.633,357.262 302,328.5C 300.592,321.058 302.259,314.391 307,308.5C 327.255,285.905 333.255,259.905 325,230.5C 320.334,218.843 313.668,208.509 305,199.5C 303.601,196.637 302.601,193.637 302,190.5C 303.298,182.607 303.964,174.607 304,166.5C 301.125,161.144 296.625,158.477 290.5,158.5C 290.5,158.167 290.5,157.833 290.5,157.5C 300.007,154.533 309.674,153.866 319.5,155.5 Z"/></g>
<g><path style="opacity:1" fill="#f7984a" d="M 290.5,158.5 C 296.625,158.477 301.125,161.144 304,166.5C 303.964,174.607 303.298,182.607 302,190.5C 302.601,193.637 303.601,196.637 305,199.5C 313.668,208.509 320.334,218.843 325,230.5C 333.255,259.905 327.255,285.905 307,308.5C 302.259,314.391 300.592,321.058 302,328.5C 312.633,357.262 306.466,381.762 283.5,402C 274.932,407.115 266.266,411.948 257.5,416.5C 249.242,415.095 240.908,414.095 232.5,413.5C 235.021,410.146 238.021,407.312 241.5,405C 252.484,399.843 263.15,394.176 273.5,388C 284.358,379.117 290.025,367.617 290.5,353.5C 289.62,345.597 287.786,337.93 285,330.5C 283.355,320.08 285.355,310.413 291,301.5C 314.153,277.261 317.486,250.594 301,221.5C 288.787,210.53 283.454,196.863 285,180.5C 287.18,173.113 289.013,165.78 290.5,158.5 Z"/></g>
<g><path style="opacity:1" fill="#050302" d="M 179.5,204.5 C 185.975,203.722 189.975,206.389 191.5,212.5C 190.291,216.589 188.791,220.589 187,224.5C 186.333,230.167 186.333,235.833 187,241.5C 189.589,245.954 190.922,250.621 191,255.5C 186.175,263.061 180.841,263.394 175,256.5C 167.773,240.784 167.773,225.117 175,209.5C 176.366,207.638 177.866,205.972 179.5,204.5 Z"/></g>
<g><path style="opacity:1" fill="#050301" d="M 392.5,256.5 C 404.362,255.285 415.696,257.118 426.5,262C 433.319,267.759 432.986,273.092 425.5,278C 420.621,277.922 415.954,276.589 411.5,274C 405.833,273.333 400.167,273.333 394.5,274C 381.606,281.929 367.606,284.929 352.5,283C 345.115,281.899 339.282,278.399 335,272.5C 334.547,264.952 338.047,261.452 345.5,262C 355.445,267.257 365.778,267.924 376.5,264C 381.542,260.643 386.876,258.143 392.5,256.5 Z"/></g>
<g><path style="opacity:1" fill="#070503" d="M 105.5,281.5 C 109.115,281.206 112.282,282.206 115,284.5C 121.216,295.716 123.216,307.716 121,320.5C 119.609,326.009 117.443,331.176 114.5,336C 106.924,340.377 101.924,338.377 99.5,330C 100.854,326.123 102.354,322.29 104,318.5C 104.667,312.5 104.667,306.5 104,300.5C 102.097,297.192 100.597,293.692 99.5,290C 100.174,286.17 102.174,283.336 105.5,281.5 Z"/></g>
<g><path style="opacity:1" fill="#050302" d="M 179.5,284.5 C 187.665,283.175 191.498,286.509 191,294.5C 186.843,302.007 185.509,310.007 187,318.5C 189.107,325.382 191.774,332.049 195,338.5C 197.342,349.681 196.676,360.681 193,371.5C 191.089,379.423 186.256,382.256 178.5,380C 174.965,377.293 173.798,373.793 175,369.5C 181.741,355.623 180.741,342.289 172,329.5C 167.608,314.901 168.942,300.901 176,287.5C 177.145,286.364 178.312,285.364 179.5,284.5 Z"/></g>
<g><path style="opacity:1" fill="#070402" d="M 341.5,330.5 C 352.765,329.817 363.431,331.984 373.5,337C 378.888,340.71 379.722,345.21 376,350.5C 374.093,351.93 371.926,352.596 369.5,352.5C 362.918,349.919 356.084,348.253 349,347.5C 343.489,347.781 338.322,349.281 333.5,352C 324.386,353.553 320.553,349.72 322,340.5C 327.681,335.41 334.181,332.077 341.5,330.5 Z"/></g>
</svg>
