<?xml version="1.0" encoding="UTF-8"?>
<!DOCTYPE svg PUBLIC "-//W3C//DTD SVG 1.1//EN" "http://www.w3.org/Graphics/SVG/1.1/DTD/svg11.dtd">
<svg xmlns="http://www.w3.org/2000/svg" version="1.1" width="512px" height="512px" style="shape-rendering:geometricPrecision; text-rendering:geometricPrecision; image-rendering:optimizeQuality; fill-rule:evenodd; clip-rule:evenodd" xmlns:xlink="http://www.w3.org/1999/xlink">
<g><path style="opacity:0.985" fill="#020101" d="M 191.5,-0.5 C 195.5,-0.5 199.5,-0.5 203.5,-0.5C 227.385,7.88646 245.552,23.2198 258,45.5C 262.667,39.5 267.333,33.5 272,27.5C 290.232,12.3551 307.899,13.0218 325,29.5C 334.091,42.75 334.758,56.4167 327,70.5C 319.183,79.4648 312.35,89.1314 306.5,99.5C 306.833,99.8333 307.167,100.167 307.5,100.5C 337.217,87.8209 368.217,80.3209 400.5,78C 418.149,76.584 435.816,75.9173 453.5,76C 460.114,78.1573 462.281,82.6573 460,89.5C 446.612,106.892 431.779,123.059 415.5,138C 440.179,158.714 446.512,184.048 434.5,214C 445.411,227.724 451.411,243.391 452.5,261C 453.51,268.145 450.51,272.312 443.5,273.5C 439.684,272.49 436.851,270.157 435,266.5C 435.433,252.132 431.266,239.299 422.5,228C 416.599,229.932 410.599,231.932 404.5,234C 397.501,235.597 390.501,235.763 383.5,234.5C 381.324,241.186 378.324,247.52 374.5,253.5C 379.877,264.218 383.043,275.551 384,287.5C 396.206,299.468 409.873,301.468 425,293.5C 427.922,293.548 430.422,294.548 432.5,296.5C 434.924,299.604 435.091,302.938 433,306.5C 429.531,309.807 425.698,312.474 421.5,314.5C 431.243,339.033 427.576,361.2 410.5,381C 407.003,383.583 403.336,385.916 399.5,388C 404.47,412.371 397.137,432.038 377.5,447C 370.638,450.673 363.304,452.506 355.5,452.5C 349.824,472.999 336.324,484.333 315,486.5C 309.665,486.302 304.665,484.968 300,482.5C 292.481,497.525 280.648,507.192 264.5,511.5C 258.833,511.5 253.167,511.5 247.5,511.5C 231.379,507.896 219.379,498.729 211.5,484C 186.477,490.239 168.31,481.739 157,458.5C 156.187,456.564 155.687,454.564 155.5,452.5C 130.718,449.893 115.885,436.227 111,411.5C 110.2,403.784 110.367,396.117 111.5,388.5C 93.552,377.448 84.552,361.281 84.5,340C 84.9913,330.898 86.4913,322.065 89,313.5C 72.6007,306.061 62.934,293.394 60,275.5C 56.6612,252.52 62.4945,232.187 77.5,214.5C 66.5474,191.534 68.7141,169.868 84,149.5C 89.7628,143.231 95.9295,137.564 102.5,132.5C 106.011,130.915 109.678,130.415 113.5,131C 137.047,151.772 164.381,165.106 195.5,171C 206.716,173.759 218.049,175.426 229.5,176C 218.58,168.623 207.746,161.123 197,153.5C 194.805,145.011 197.972,140.844 206.5,141C 219.953,148.14 232.453,156.64 244,166.5C 243.096,160.345 240.763,154.678 237,149.5C 222.345,130.535 203.511,117.368 180.5,110C 146.671,99.4019 112.004,93.9019 76.5,93.5C 76.2916,97.1207 75.2916,100.454 73.5,103.5C 70.2214,104.492 66.8881,104.659 63.5,104C 59.2151,99.2599 55.0484,94.4266 51,89.5C 50.3333,86.5 50.3333,83.5 51,80.5C 52.1094,78.1853 53.9427,76.6853 56.5,76C 94.3143,75.1831 131.648,79.0164 168.5,87.5C 169.276,59.7306 175.109,33.0639 186,7.5C 187.129,4.20641 188.962,1.53975 191.5,-0.5 Z"/></g>
<g><path style="opacity:1" fill="#a1cf72" d="M 200.5,17.5 C 214.638,22.1306 226.138,30.464 235,42.5C 239.67,49.1695 243.837,56.1695 247.5,63.5C 238.555,79.72 231.555,96.72 226.5,114.5C 213.752,105.959 200.085,99.2925 185.5,94.5C 185.71,67.8792 190.71,42.2125 200.5,17.5 Z"/></g>
<g><path style="opacity:1" fill="#917765" d="M 291.5,34.5 C 307.843,33.0107 315.343,40.344 314,56.5C 306.611,66.2235 299.611,76.2235 293,86.5C 286.966,96.9394 282.299,107.939 279,119.5C 269.761,127.337 261.927,136.337 255.5,146.5C 251.089,140.027 246.423,133.694 241.5,127.5C 248.173,97.1593 261.006,69.826 280,45.5C 283.414,41.2775 287.247,37.6108 291.5,34.5 Z"/></g>
<g><path style="opacity:0.998" fill="#8dbd5c" d="M 102.5,132.5 C 92.4729,123.14 82.8063,113.473 73.5,103.5C 75.2916,100.454 76.2916,97.1207 76.5,93.5C 112.004,93.9019 146.671,99.4019 180.5,110C 203.511,117.368 222.345,130.535 237,149.5C 240.763,154.678 243.096,160.345 244,166.5C 232.453,156.64 219.953,148.14 206.5,141C 197.972,140.844 194.805,145.011 197,153.5C 207.746,161.123 218.58,168.623 229.5,176C 218.049,175.426 206.716,173.759 195.5,171C 164.381,165.106 137.047,151.772 113.5,131C 109.678,130.415 106.011,130.915 102.5,132.5 Z"/></g>
<g><path style="opacity:1" fill="#8cbc5c" d="M 417.5,93.5 C 422.844,93.334 428.177,93.5006 433.5,94C 414.589,116.586 392.923,135.919 368.5,152C 341.3,165.306 312.633,173.306 282.5,176C 292.121,168.383 302.288,161.55 313,155.5C 317.504,144.991 314.004,140.491 302.5,142C 290.057,149.303 278.224,157.47 267,166.5C 271.371,151.639 279.871,139.472 292.5,130C 312.137,116.223 333.804,106.889 357.5,102C 377.486,98.0042 397.486,95.1709 417.5,93.5 Z"/></g>
<g><path style="opacity:1" fill="#030401" d="M 157.5,119.5 C 165.456,119.318 172.29,121.985 178,127.5C 179.792,134.602 177.125,138.602 170,139.5C 164.436,138.315 159.436,135.982 155,132.5C 152.458,127.438 153.292,123.105 157.5,119.5 Z"/></g>
<g><path style="opacity:1" fill="#020301" d="M 345.5,119.5 C 354.657,118.489 358.49,122.489 357,131.5C 351.488,136.677 344.988,139.177 337.5,139C 331.393,134.442 331.06,129.442 336.5,124C 339.823,122.96 342.823,121.46 345.5,119.5 Z"/></g>
<g><path style="opacity:1" fill="#e8626f" d="M 109.5,149.5 C 121.958,159.238 135.292,167.738 149.5,175C 137.722,186.388 130.555,200.221 128,216.5C 113.086,221.271 101.086,217.271 92,204.5C 84.2679,181.863 90.1012,163.529 109.5,149.5 Z"/></g>
<g><path style="opacity:1" fill="#e7616f" d="M 400.5,149.5 C 417,159.833 424.5,174.833 423,194.5C 417.513,212.503 405.347,220.337 386.5,218C 385.234,217.691 384.067,217.191 383,216.5C 380.7,200.234 373.866,186.234 362.5,174.5C 376.29,167.679 388.957,159.346 400.5,149.5 Z"/></g>
<g><path style="opacity:1" fill="#d6525e" d="M 168.5,181.5 C 182.795,185.433 197.128,188.933 211.5,192C 208.344,197.8 206.178,203.966 205,210.5C 204.305,220.255 204.639,229.921 206,239.5C 191.868,255.164 175.368,258.664 156.5,250C 143.431,236.358 140.931,220.858 149,203.5C 153.595,194.409 160.095,187.076 168.5,181.5 Z"/></g>
<g><path style="opacity:1" fill="#d6525e" d="M 339.5,181.5 C 342.226,181.264 344.559,182.097 346.5,184C 362.778,197.17 368.944,214.003 365,234.5C 357.327,253.142 343.827,259.309 324.5,253C 317.041,249.857 310.541,245.357 305,239.5C 306.276,229.571 306.61,219.571 306,209.5C 304.964,203.727 303.131,198.227 300.5,193C 300.645,192.228 300.978,191.561 301.5,191C 314.483,188.51 327.15,185.344 339.5,181.5 Z"/></g>
<g><path style="opacity:1" fill="#e96270" d="M 228.5,194.5 C 244.665,195.765 260.832,195.765 277,194.5C 279.907,194.431 282.24,195.431 284,197.5C 294.239,220.17 290.739,240.337 273.5,258C 256.43,267.717 241.93,264.884 230,249.5C 219.264,231.476 218.764,213.143 228.5,194.5 Z"/></g>
<g><path style="opacity:1" fill="#d7525e" d="M 89.5,227.5 C 95.6122,230.556 101.946,233.056 108.5,235C 115.528,235.675 122.528,235.508 129.5,234.5C 130.544,241.464 132.877,247.964 136.5,254C 130.766,264.437 127.599,275.604 127,287.5C 118.205,296.097 107.705,299.263 95.5,297C 84.6899,291.506 78.5233,282.673 77,270.5C 75.0079,254.316 79.1746,239.983 89.5,227.5 Z"/></g>
<g><path style="opacity:0.998" fill="#d7525e" d="M 443.5,273.5 C 441.741,282.02 438.074,289.687 432.5,296.5C 430.422,294.548 427.922,293.548 425,293.5C 409.873,301.468 396.206,299.468 384,287.5C 383.043,275.551 379.877,264.218 374.5,253.5C 378.324,247.52 381.324,241.186 383.5,234.5C 390.501,235.763 397.501,235.597 404.5,234C 410.599,231.932 416.599,229.932 422.5,228C 431.266,239.299 435.433,252.132 435,266.5C 436.851,270.157 439.684,272.49 443.5,273.5 Z"/></g>
<g><path style="opacity:1" fill="#e8616f" d="M 212.5,256.5 C 214.384,256.712 215.717,257.712 216.5,259.5C 208.146,272.575 203.98,286.909 204,302.5C 198.154,312.684 189.654,319.517 178.5,323C 167.057,325.409 157.891,321.909 151,312.5C 143.099,297.844 142.432,282.844 149,267.5C 149.561,266.978 150.228,266.645 151,266.5C 173.682,276.396 194.182,273.063 212.5,256.5 Z"/></g>
<g><path style="opacity:1" fill="#e8626f" d="M 296.5,256.5 C 302.111,259.978 307.777,263.478 313.5,267C 329.248,274.495 344.915,274.329 360.5,266.5C 363.982,270.434 365.815,275.1 366,280.5C 368.86,294.744 365.36,307.077 355.5,317.5C 345.238,324.916 334.571,325.416 323.5,319C 316.667,314.833 311.167,309.333 307,302.5C 307.808,287.597 304.141,273.93 296,261.5C 295.36,259.735 295.527,258.068 296.5,256.5 Z"/></g>
<g><path style="opacity:1" fill="#d6525d" d="M 228.5,272.5 C 246.488,283.165 264.488,283.165 282.5,272.5C 289.067,283.279 291.234,294.945 289,307.5C 286.903,317.864 282.069,326.697 274.5,334C 257.382,344.698 242.549,342.198 230,326.5C 219.47,308.76 218.97,290.76 228.5,272.5 Z"/></g>
<g><path style="opacity:1" fill="#e8616f" d="M 128.5,307.5 C 129.376,307.369 130.043,307.702 130.5,308.5C 132.473,313.779 134.973,318.779 138,323.5C 142.375,328.043 146.875,332.376 151.5,336.5C 146.006,346.812 143.506,357.812 144,369.5C 126.702,378.361 113.702,374.028 105,356.5C 100.575,342.164 101.908,328.497 109,315.5C 116.04,313.959 122.54,311.292 128.5,307.5 Z"/></g>
<g><path style="opacity:1" fill="#e7616f" d="M 380.5,307.5 C 387.855,311.004 395.355,314.004 403,316.5C 412.129,333.268 411.463,349.601 401,365.5C 390.856,375.592 379.689,376.926 367.5,369.5C 367.735,357.609 365.069,346.442 359.5,336C 370.157,329.179 377.157,319.679 380.5,307.5 Z"/></g>
<g><path style="opacity:1" fill="#d5515d" d="M 208.5,323.5 C 211.392,327.602 214.059,331.935 216.5,336.5C 205.536,354.064 202.036,373.064 206,393.5C 186.417,405.529 172.083,400.862 163,379.5C 159.608,365.858 161.441,353.025 168.5,341C 184.451,340.852 197.785,335.018 208.5,323.5 Z"/></g>
<g><path style="opacity:1" fill="#d6525d" d="M 301.5,323.5 C 312.778,334.802 326.444,340.636 342.5,341C 345.427,345.103 347.593,349.603 349,354.5C 349.667,361.833 349.667,369.167 349,376.5C 342.364,397.737 328.864,404.237 308.5,396C 306.878,394.705 305.545,393.205 304.5,391.5C 307.806,377.217 306.972,363.217 302,349.5C 299.815,345.13 297.649,340.797 295.5,336.5C 297.766,332.301 299.766,327.967 301.5,323.5 Z"/></g>
<g><path style="opacity:1" fill="#e8626f" d="M 228.5,349.5 C 233.88,352.52 239.546,355.02 245.5,357C 258.171,359.393 269.838,357.06 280.5,350C 281.635,349.251 282.635,349.417 283.5,350.5C 292.938,370.64 291.105,389.64 278,407.5C 261.381,421.67 245.714,420.67 231,404.5C 219.35,386.622 218.517,368.289 228.5,349.5 Z"/></g>
<g><path style="opacity:1" fill="#d4515d" d="M 144.5,387.5 C 145.978,387.238 147.311,387.571 148.5,388.5C 151.323,395.316 155.323,401.316 160.5,406.5C 155.877,415.29 153.543,424.624 153.5,434.5C 145.227,434.11 138.727,430.444 134,423.5C 127.844,413.205 126.011,402.205 128.5,390.5C 134.257,391.068 139.59,390.068 144.5,387.5 Z"/></g>
<g><path style="opacity:1" fill="#d5515d" d="M 362.5,387.5 C 369.283,389.798 376.283,391.131 383.5,391.5C 385.057,404.31 382.224,415.977 375,426.5C 370.364,431.768 364.531,434.435 357.5,434.5C 357.859,424.649 355.859,415.315 351.5,406.5C 354.493,402.664 357.327,398.664 360,394.5C 361.136,392.257 361.97,389.924 362.5,387.5 Z"/></g>
<g><path style="opacity:1" fill="#e8616f" d="M 296.5,409.5 C 302.786,412.801 309.453,415.301 316.5,417C 322.455,417.851 328.289,417.351 334,415.5C 336.188,415.354 337.521,416.354 338,418.5C 342.662,433.005 340.996,446.671 333,459.5C 325.834,468.279 317,470.613 306.5,466.5C 309.37,448.163 305.87,431.163 296,415.5C 295.51,413.455 295.677,411.455 296.5,409.5 Z"/></g>
<g><path style="opacity:1" fill="#e8616f" d="M 212.5,409.5 C 214.257,410.292 215.591,411.625 216.5,413.5C 205.718,429.569 201.885,447.236 205,466.5C 194.882,470.674 186.215,468.674 179,460.5C 169.805,446.757 168.138,432.09 174,416.5C 176.443,415.715 178.943,415.881 181.5,417C 192.789,418.094 203.122,415.594 212.5,409.5 Z"/></g>
<g><path style="opacity:1" fill="#d6525e" d="M 228.5,425.5 C 245.99,437.088 263.823,437.421 282,426.5C 285.658,430.819 287.991,435.819 289,441.5C 291.469,457.796 287.636,472.296 277.5,485C 260.251,498.825 244.417,497.325 230,480.5C 219.422,462.424 218.922,444.09 228.5,425.5 Z"/></g>
</svg>
