<?xml version="1.0" encoding="UTF-8"?>
<!DOCTYPE svg PUBLIC "-//W3C//DTD SVG 1.1//EN" "http://www.w3.org/Graphics/SVG/1.1/DTD/svg11.dtd">
<svg xmlns="http://www.w3.org/2000/svg" version="1.1" width="512px" height="512px" style="shape-rendering:geometricPrecision; text-rendering:geometricPrecision; image-rendering:optimizeQuality; fill-rule:evenodd; clip-rule:evenodd" xmlns:xlink="http://www.w3.org/1999/xlink">
<g><path style="opacity:0.978" fill="#020000" d="M 239.5,-0.5 C 253.833,-0.5 268.167,-0.5 282.5,-0.5C 323.045,4.90591 355.545,23.9059 380,56.5C 382.372,61.4118 384.872,66.2451 387.5,71C 430.159,71.9047 457.659,92.738 470,133.5C 474.877,156.117 470.877,177.117 458,196.5C 455.948,194.942 453.781,193.608 451.5,192.5C 449.533,190.507 447.533,188.507 445.5,186.5C 449.015,180.476 451.682,174.143 453.5,167.5C 455.593,158.764 455.927,150.097 454.5,141.5C 446.186,105.242 423.352,87.2424 386,87.5C 354.251,87.7977 326.418,98.2977 302.5,119C 260.395,159.051 236.895,208.217 232,266.5C 231.333,276.5 231.333,286.5 232,296.5C 234.041,297.423 236.208,297.756 238.5,297.5C 259.102,302.472 275.769,313.472 288.5,330.5C 286.322,332.745 283.988,334.745 281.5,336.5C 279.787,338.195 277.787,339.028 275.5,339C 264.943,325.548 251.277,316.881 234.5,313C 184.926,315.052 151.759,292.886 135,246.5C 115.66,219.274 89.8271,210.108 57.5,219C 47.2175,222.968 38.5508,229.134 31.5,237.5C 27.8442,240.803 25.1775,244.803 23.5,249.5C 17.2921,259.515 14.6254,270.515 15.5,282.5C 15.43,315.131 25.93,343.797 47,368.5C 87.0552,410.607 136.222,434.107 194.5,439C 215.834,442.501 235.834,439.001 254.5,428.5C 256.641,409.388 263.641,392.388 275.5,377.5C 281.525,372.47 287.525,367.47 293.5,362.5C 303.691,358.153 313.691,353.32 323.5,348C 336.341,338.494 344.841,325.994 349,310.5C 351.042,298.252 352.375,285.919 353,273.5C 362.355,237.572 385.189,215.739 421.5,208C 427.157,207.501 432.824,207.334 438.5,207.5C 470.148,212.642 492.315,229.975 505,259.5C 507.718,266.807 509.885,274.141 511.5,281.5C 511.5,293.833 511.5,306.167 511.5,318.5C 507.026,366.443 490.526,409.776 462,448.5C 435.794,482.556 401.627,503.556 359.5,511.5C 347.167,511.5 334.833,511.5 322.5,511.5C 286.752,503.92 264.585,482.254 256,446.5C 247.356,450.936 238.189,453.77 228.5,455C 160.071,458.747 100.071,438.414 48.5,394C 21.9758,369.32 5.64249,339.153 -0.5,303.5C -0.5,291.167 -0.5,278.833 -0.5,266.5C 3.47994,246.541 13.1466,229.874 28.5,216.5C 55.0015,197.54 83.3349,194.373 113.5,207C 127.968,213.816 139.468,223.983 148,237.5C 152.707,248.965 158.54,259.798 165.5,270C 182.908,268.066 199.908,264.066 216.5,258C 222.239,212.435 238.739,171.268 266,134.5C 274.309,124.025 283.475,114.358 293.5,105.5C 267.602,90.931 242.602,92.431 218.5,110C 197.547,133.139 171.547,142.806 140.5,139C 127.8,135.309 115.133,131.642 102.5,128C 77.259,125.408 57.0923,134.242 42,154.5C 33.2255,167.865 29.7255,182.532 31.5,198.5C 28.4467,198.111 25.78,198.777 23.5,200.5C 20.7938,200.575 18.1272,200.908 15.5,201.5C 12.4148,157.633 31.4148,128.3 72.5,113.5C 75.681,102.639 80.3476,92.4722 86.5,83C 89.3001,83.0665 91.6334,84.2332 93.5,86.5C 95.6467,88.4695 97.98,90.3029 100.5,92C 96.2758,97.9477 93.2758,104.448 91.5,111.5C 99.2781,111.287 106.945,112.12 114.5,114C 123.176,117.007 131.843,120.007 140.5,123C 157.147,126.138 172.813,123.471 187.5,115C 195.749,109.422 203.416,103.088 210.5,96C 242.872,74.3122 275.372,74.1456 308,95.5C 326.67,82.919 347.17,74.919 369.5,71.5C 348.31,39.0557 318.31,20.5557 279.5,16C 231.931,12.4751 188.265,23.8084 148.5,50C 134.695,59.6584 121.528,70.1584 109,81.5C 107.223,79.2101 105.056,77.5434 102.5,76.5C 100.856,74.5193 99.1897,72.5193 97.5,70.5C 136.727,30.8865 184.06,7.21981 239.5,-0.5 Z"/></g>
<g><path style="opacity:1" fill="#9b4736" d="M 93.5,86.5 C 96.5,83.1667 99.5,79.8333 102.5,76.5C 105.056,77.5434 107.223,79.2101 109,81.5C 121.528,70.1584 134.695,59.6584 148.5,50C 188.265,23.8084 231.931,12.4751 279.5,16C 318.31,20.5557 348.31,39.0557 369.5,71.5C 347.17,74.919 326.67,82.919 308,95.5C 275.372,74.1456 242.872,74.3122 210.5,96C 203.416,103.088 195.749,109.422 187.5,115C 172.813,123.471 157.147,126.138 140.5,123C 131.843,120.007 123.176,117.007 114.5,114C 106.945,112.12 99.2781,111.287 91.5,111.5C 93.2758,104.448 96.2758,97.9477 100.5,92C 97.98,90.3029 95.6467,88.4695 93.5,86.5 Z"/></g>
<g><path style="opacity:1" fill="#c35a44" d="M 454.5,141.5 C 454.657,142.873 454.49,144.207 454,145.5C 433.941,129.492 411.107,123.658 385.5,128C 350.972,133.555 321.805,149.055 298,174.5C 269.46,206.246 250.96,243.246 242.5,285.5C 241.836,288.815 241.169,292.148 240.5,295.5C 240.253,296.713 239.586,297.38 238.5,297.5C 236.208,297.756 234.041,297.423 232,296.5C 231.333,286.5 231.333,276.5 232,266.5C 236.895,208.217 260.395,159.051 302.5,119C 326.418,98.2977 354.251,87.7977 386,87.5C 423.352,87.2424 446.186,105.242 454.5,141.5 Z"/></g>
<g><path style="opacity:1" fill="#ae503d" d="M 28.5,216.5 C 26.5058,211.167 24.8391,205.833 23.5,200.5C 25.78,198.777 28.4467,198.111 31.5,198.5C 29.7255,182.532 33.2255,167.865 42,154.5C 57.0923,134.242 77.259,125.408 102.5,128C 115.133,131.642 127.8,135.309 140.5,139C 171.547,142.806 197.547,133.139 218.5,110C 242.602,92.431 267.602,90.931 293.5,105.5C 283.475,114.358 274.309,124.025 266,134.5C 238.739,171.268 222.239,212.435 216.5,258C 199.908,264.066 182.908,268.066 165.5,270C 158.54,259.798 152.707,248.965 148,237.5C 139.468,223.983 127.968,213.816 113.5,207C 83.3349,194.373 55.0015,197.54 28.5,216.5 Z"/></g>
<g><path style="opacity:1" fill="#f4f5f7" d="M 407.5,101.5 C 417.318,101.8 421.318,106.633 419.5,116C 411.544,118.407 406.878,115.407 405.5,107C 405.395,104.822 406.061,102.988 407.5,101.5 Z"/></g>
<g><path style="opacity:1" fill="#af503d" d="M 454.5,141.5 C 455.927,150.097 455.593,158.764 453.5,167.5C 438.476,176.177 422.476,182.511 405.5,186.5C 400.409,177.625 392.742,174.125 382.5,176C 346.561,194.614 323.061,223.447 312,262.5C 310.245,274.33 314.745,282.663 325.5,287.5C 323.345,297.427 321.512,307.427 320,317.5C 317.335,322.434 313.502,323.601 308.5,321C 292.194,298.35 270.194,286.517 242.5,285.5C 250.96,243.246 269.46,206.246 298,174.5C 321.805,149.055 350.972,133.555 385.5,128C 411.107,123.658 433.941,129.492 454,145.5C 454.49,144.207 454.657,142.873 454.5,141.5 Z"/></g>
<g><path style="opacity:1" fill="#040201" d="M 209.5,131.5 C 224.317,130.054 232.984,136.554 235.5,151C 234.852,157.626 231.852,162.959 226.5,167C 192.904,185.616 157.571,189.95 120.5,180C 108.113,173.844 104.613,164.344 110,151.5C 114.322,145.821 119.988,142.821 127,142.5C 156.225,150.534 183.725,146.867 209.5,131.5 Z"/></g>
<g><path style="opacity:1" fill="#dbb98c" d="M 212.5,147.5 C 215.885,146.79 218.219,147.956 219.5,151C 217.286,153.458 214.619,155.458 211.5,157C 183.852,170.488 155.185,173.155 125.5,165C 122.41,161.508 123.077,159.342 127.5,158.5C 151.543,164.772 175.21,163.606 198.5,155C 203.674,153.249 208.341,150.749 212.5,147.5 Z"/></g>
<g><path style="opacity:1" fill="#040201" d="M 405.5,186.5 C 409.159,195.673 407.493,203.84 400.5,211C 373.077,225.631 355.577,248.131 348,278.5C 342.216,285.707 334.716,288.707 325.5,287.5C 314.745,282.663 310.245,274.33 312,262.5C 323.061,223.447 346.561,194.614 382.5,176C 392.742,174.125 400.409,177.625 405.5,186.5 Z"/></g>
<g><path style="opacity:1" fill="#ddba8d" d="M 386.5,191.5 C 390.487,191.652 391.987,193.652 391,197.5C 362.275,213.589 343.608,237.589 335,269.5C 331.418,272.582 328.918,271.915 327.5,267.5C 336.74,233.943 356.407,208.61 386.5,191.5 Z"/></g>
<g><path style="opacity:1" fill="#d6624a" d="M 281.5,336.5 C 288.13,343.771 292.13,352.438 293.5,362.5C 287.525,367.47 281.525,372.47 275.5,377.5C 272.597,366.68 266.931,357.68 258.5,350.5C 245.7,337.268 230.033,329.601 211.5,327.5C 209.704,326.207 208.037,324.707 206.5,323C 185.628,317.487 167.794,306.987 153,291.5C 147.377,283.754 141.877,275.921 136.5,268C 132.526,265.398 128.193,263.898 123.5,263.5C 103.391,236.623 76.7248,226.79 43.5,234C 39.6322,235.011 35.9655,236.511 32.5,238.5C 31.8933,238.376 31.56,238.043 31.5,237.5C 38.5508,229.134 47.2175,222.968 57.5,219C 89.8271,210.108 115.66,219.274 135,246.5C 151.759,292.886 184.926,315.052 234.5,313C 251.277,316.881 264.943,325.548 275.5,339C 277.787,339.028 279.787,338.195 281.5,336.5 Z"/></g>
<g><path style="opacity:1" fill="#d6624b" d="M 457.5,230.5 C 434.627,234.695 416.46,246.362 403,265.5C 397.401,274.8 393.901,284.8 392.5,295.5C 386.94,296.867 382.44,299.867 379,304.5C 374.232,321.038 366.565,336.038 356,349.5C 346.239,359.041 335.573,367.374 324,374.5C 320.092,379.853 318.592,385.853 319.5,392.5C 296.343,416.187 290.177,443.854 301,475.5C 302.925,479.687 305.092,483.687 307.5,487.5C 307.5,487.833 307.5,488.167 307.5,488.5C 289.654,479.861 278.154,465.861 273,446.5C 267.839,416.663 277.672,393.163 302.5,376C 347.81,359.906 369.644,327.739 368,279.5C 374.392,249.442 392.558,230.942 422.5,224C 435.025,222.307 446.692,224.474 457.5,230.5 Z"/></g>
<g><path style="opacity:1" fill="#c45b45" d="M 123.5,263.5 C 109.104,265.064 102.604,273.064 104,287.5C 122.206,324.026 151.039,347.86 190.5,359C 208,360.167 216.167,352 215,334.5C 213.82,332.14 212.653,329.807 211.5,327.5C 230.033,329.601 245.7,337.268 258.5,350.5C 249.416,358.634 242.249,368.301 237,379.5C 234.584,388.25 231.917,396.917 229,405.5C 223.943,412.028 217.276,415.028 209,414.5C 150.377,409.76 100.711,386.427 60,344.5C 35.5667,317.62 23.4001,285.953 23.5,249.5C 25.1775,244.803 27.8442,240.803 31.5,237.5C 31.56,238.043 31.8933,238.376 32.5,238.5C 35.9655,236.511 39.6322,235.011 43.5,234C 76.7248,226.79 103.391,236.623 123.5,263.5 Z"/></g>
<g><path style="opacity:1" fill="#c45b45" d="M 457.5,230.5 C 457.833,230.5 458.167,230.5 458.5,230.5C 458.461,231.583 458.127,232.583 457.5,233.5C 471.045,255.763 475.211,279.763 470,305.5C 464.277,363.106 440.777,411.94 399.5,452C 373.249,475.141 342.583,486.975 307.5,487.5C 305.092,483.687 302.925,479.687 301,475.5C 290.177,443.854 296.343,416.187 319.5,392.5C 326.504,407.983 337.504,411.483 352.5,403C 386.145,382.557 407.145,353.057 415.5,314.5C 413.609,301.282 405.942,294.949 392.5,295.5C 393.901,284.8 397.401,274.8 403,265.5C 416.46,246.362 434.627,234.695 457.5,230.5 Z"/></g>
<g><path style="opacity:1" fill="#af503d" d="M 458.5,230.5 C 481.941,245.702 494.274,267.369 495.5,295.5C 495.506,351.323 478.339,400.99 444,444.5C 423.674,468.826 398.174,484.992 367.5,493C 350.468,496.156 333.468,496.156 316.5,493C 313.177,491.96 310.177,490.46 307.5,488.5C 307.5,488.167 307.5,487.833 307.5,487.5C 342.583,486.975 373.249,475.141 399.5,452C 440.777,411.94 464.277,363.106 470,305.5C 475.211,279.763 471.045,255.763 457.5,233.5C 458.127,232.583 458.461,231.583 458.5,230.5 Z"/></g>
<g><path style="opacity:1" fill="#f5f7f9" d="M 435.5,245.5 C 452.35,245.515 460.516,253.848 460,270.5C 456.305,277.422 450.805,279.255 443.5,276C 433.098,271.025 428.598,262.859 430,251.5C 431.36,248.977 433.193,246.977 435.5,245.5 Z"/></g>
<g><path style="opacity:1" fill="#af503d" d="M 23.5,249.5 C 23.4001,285.953 35.5667,317.62 60,344.5C 100.711,386.427 150.377,409.76 209,414.5C 217.276,415.028 223.943,412.028 229,405.5C 231.917,396.917 234.584,388.25 237,379.5C 242.249,368.301 249.416,358.634 258.5,350.5C 266.931,357.68 272.597,366.68 275.5,377.5C 263.641,392.388 256.641,409.388 254.5,428.5C 235.834,439.001 215.834,442.501 194.5,439C 136.222,434.107 87.0552,410.607 47,368.5C 25.93,343.797 15.43,315.131 15.5,282.5C 14.6254,270.515 17.2921,259.515 23.5,249.5 Z"/></g>
<g><path style="opacity:1" fill="#f5f7fa" d="M 42.5,253.5 C 59.8238,252.991 68.3238,261.325 68,278.5C 67.2155,280.286 66.0488,281.786 64.5,283C 51.9686,286.2 43.1352,281.7 38,269.5C 36.2104,263.073 37.7104,257.74 42.5,253.5 Z"/></g>
<g><path style="opacity:1" fill="#9a4736" d="M 453.5,167.5 C 451.682,174.143 449.015,180.476 445.5,186.5C 447.533,188.507 449.533,190.507 451.5,192.5C 447.54,197.795 443.207,202.795 438.5,207.5C 432.824,207.334 427.157,207.501 421.5,208C 385.189,215.739 362.355,237.572 353,273.5C 352.375,285.919 351.042,298.252 349,310.5C 344.841,325.994 336.341,338.494 323.5,348C 313.691,353.32 303.691,358.153 293.5,362.5C 292.13,352.438 288.13,343.771 281.5,336.5C 283.988,334.745 286.322,332.745 288.5,330.5C 275.769,313.472 259.102,302.472 238.5,297.5C 239.586,297.38 240.253,296.713 240.5,295.5C 241.169,292.148 241.836,288.815 242.5,285.5C 270.194,286.517 292.194,298.35 308.5,321C 313.502,323.601 317.335,322.434 320,317.5C 321.512,307.427 323.345,297.427 325.5,287.5C 334.716,288.707 342.216,285.707 348,278.5C 355.577,248.131 373.077,225.631 400.5,211C 407.493,203.84 409.159,195.673 405.5,186.5C 422.476,182.511 438.476,176.177 453.5,167.5 Z"/></g>
<g><path style="opacity:1" fill="#040202" d="M 123.5,263.5 C 128.193,263.898 132.526,265.398 136.5,268C 141.877,275.921 147.377,283.754 153,291.5C 167.794,306.987 185.628,317.487 206.5,323C 208.037,324.707 209.704,326.207 211.5,327.5C 212.653,329.807 213.82,332.14 215,334.5C 216.167,352 208,360.167 190.5,359C 151.039,347.86 122.206,324.026 104,287.5C 102.604,273.064 109.104,265.064 123.5,263.5 Z"/></g>
<g><path style="opacity:1" fill="#eef1f4" d="M 212.5,275.5 C 213.5,275.5 214.5,275.5 215.5,275.5C 215.5,281.833 215.5,288.167 215.5,294.5C 202.934,295.194 191.601,291.86 181.5,284.5C 192.213,282.481 202.547,279.481 212.5,275.5 Z"/></g>
<g><path style="opacity:1" fill="#f5d4ac" d="M 121.5,279.5 C 124.325,279.081 126.491,280.081 128,282.5C 143.6,310.093 166.767,327.926 197.5,336C 200.582,339.582 199.915,342.082 195.5,343.5C 161.407,334.23 136.073,314.063 119.5,283C 119.978,281.697 120.645,280.531 121.5,279.5 Z"/></g>
<g><path style="opacity:1" fill="#f4f3f5" d="M 63.5,293.5 C 72.3641,293.527 76.5308,297.861 76,306.5C 71.1916,310.681 66.8582,310.014 63,304.5C 59.5487,300.617 59.7154,296.95 63.5,293.5 Z"/></g>
<g><path style="opacity:1" fill="#f4f4f6" d="M 439.5,293.5 C 449.318,293.8 453.318,298.633 451.5,308C 443.446,310.171 438.446,307.004 436.5,298.5C 437.092,296.577 438.092,294.911 439.5,293.5 Z"/></g>
<g><path style="opacity:1" fill="#040202" d="M 392.5,295.5 C 405.942,294.949 413.609,301.282 415.5,314.5C 407.145,353.057 386.145,382.557 352.5,403C 337.504,411.483 326.504,407.983 319.5,392.5C 318.592,385.853 320.092,379.853 324,374.5C 335.573,367.374 346.239,359.041 356,349.5C 366.565,336.038 374.232,321.038 379,304.5C 382.44,299.867 386.94,296.867 392.5,295.5 Z"/></g>
<g><path style="opacity:1" fill="#f5d4ac" d="M 393.5,311.5 C 396.571,310.925 398.571,312.091 399.5,315C 391.11,346.13 373.444,370.463 346.5,388C 343.702,389.914 340.702,390.914 337.5,391C 335.675,389.534 335.175,387.701 336,385.5C 365.062,368.595 384.229,343.928 393.5,311.5 Z"/></g>
</svg>
