<?xml version="1.0" encoding="UTF-8"?>
<!DOCTYPE svg PUBLIC "-//W3C//DTD SVG 1.1//EN" "http://www.w3.org/Graphics/SVG/1.1/DTD/svg11.dtd">
<svg xmlns="http://www.w3.org/2000/svg" version="1.1" width="512px" height="512px" style="shape-rendering:geometricPrecision; text-rendering:geometricPrecision; image-rendering:optimizeQuality; fill-rule:evenodd; clip-rule:evenodd" xmlns:xlink="http://www.w3.org/1999/xlink">
<g><path style="opacity:0.975" fill="#010000" d="M 511.5,443.5 C 511.5,447.5 511.5,451.5 511.5,455.5C 509.275,461.55 504.942,465.383 498.5,467C 469.132,473.108 440.299,471.275 412,461.5C 307.827,489.492 203.66,489.492 99.5,461.5C 69.9423,471.675 39.9423,473.175 9.5,466C 4.98004,463.978 1.6467,460.811 -0.5,456.5C -0.5,452.167 -0.5,447.833 -0.5,443.5C 8.27214,419.126 22.6055,398.626 42.5,382C 50.0143,376.74 58.0143,372.24 66.5,368.5C 67.3124,319.065 69.979,269.732 74.5,220.5C 74.3333,218.833 74.1667,217.167 74,215.5C 65.6048,211.375 60.6048,204.708 59,195.5C 58.3333,181.5 58.3333,167.5 59,153.5C 63.188,137.311 73.688,129.811 90.5,131C 124.362,101.407 160.362,74.7403 198.5,51C 209.554,44.8061 220.888,39.1394 232.5,34C 239.908,31.0647 247.574,29.2314 255.5,28.5C 263.426,29.2314 271.092,31.0647 278.5,34C 309.129,48.3044 337.795,65.6377 364.5,86C 383.532,100.52 402.199,115.52 420.5,131C 437.312,129.811 447.812,137.311 452,153.5C 452.667,167.5 452.667,181.5 452,195.5C 450.395,204.708 445.395,211.375 437,215.5C 440.776,266.413 443.276,317.413 444.5,368.5C 468.196,378.697 486.363,395.03 499,417.5C 503.487,426.136 507.653,434.803 511.5,443.5 Z"/></g>
<g><path style="opacity:1" fill="#f3f3f3" d="M 261.5,47.5 C 304.148,71.3199 343.815,99.3199 380.5,131.5C 292.998,131.833 205.665,131.499 118.5,130.5C 147.392,106.715 177.725,84.8821 209.5,65C 221.87,57.6483 234.87,51.6483 248.5,47C 252.92,46.2316 257.253,46.3982 261.5,47.5 Z"/></g>
<g><path style="opacity:1" fill="#cad3d7" d="M 261.5,47.5 C 266.702,48.2891 271.702,49.7891 276.5,52C 303.679,65.7466 329.346,81.7466 353.5,100C 366.53,110.175 379.53,120.342 392.5,130.5C 388.702,131.483 384.702,131.817 380.5,131.5C 343.815,99.3199 304.148,71.3199 261.5,47.5 Z"/></g>
<g><path style="opacity:1" fill="#050505" d="M 252.5,63.5 C 259.238,62.5525 262.905,65.3858 263.5,72C 263.35,77.4834 260.517,80.3167 255,80.5C 248.582,79.008 246.249,75.008 248,68.5C 249.025,66.313 250.525,64.6464 252.5,63.5 Z"/></g>
<g><path style="opacity:1" fill="#0a0a0a" d="M 184.5,97.5 C 192.865,97.3602 196.365,101.36 195,109.5C 192.459,114.069 188.625,115.569 183.5,114C 176.671,108.003 177.004,102.503 184.5,97.5 Z"/></g>
<g><path style="opacity:1" fill="#090909" d="M 227.5,97.5 C 236.348,97.8333 239.515,102.167 237,110.5C 234.442,114.212 230.942,115.378 226.5,114C 221.931,111.459 220.431,107.625 222,102.5C 223.73,100.598 225.563,98.9314 227.5,97.5 Z"/></g>
<g><path style="opacity:1" fill="#090909" d="M 278.5,97.5 C 287.896,98.0499 291.063,102.717 288,111.5C 281.772,116.232 276.772,115.232 273,108.5C 272.176,103.482 274.009,99.8152 278.5,97.5 Z"/></g>
<g><path style="opacity:1" fill="#0a0a0a" d="M 320.5,97.5 C 329.874,97.3565 333.374,101.69 331,110.5C 325.514,116.08 320.514,115.747 316,109.5C 315.333,107.167 315.333,104.833 316,102.5C 317.366,100.638 318.866,98.9717 320.5,97.5 Z"/></g>
<g><path style="opacity:1" fill="#414141" d="M 118.5,130.5 C 205.665,131.499 292.998,131.833 380.5,131.5C 384.702,131.817 388.702,131.483 392.5,130.5C 393.043,130.56 393.376,130.893 393.5,131.5C 301.5,132.833 209.5,132.833 117.5,131.5C 117.624,130.893 117.957,130.56 118.5,130.5 Z"/></g>
<g><path style="opacity:1" fill="#9f512c" d="M 82.5,149.5 C 193.501,149.333 304.501,149.5 415.5,150C 416.126,150.75 416.626,151.584 417,152.5C 417.667,167.167 417.667,181.833 417,196.5C 416.626,197.416 416.126,198.25 415.5,199C 335.666,199.167 255.999,199.667 176.5,200.5C 173.5,201.5 171.5,203.5 170.5,206.5C 164.5,209.167 158.5,209.167 152.5,206.5C 151.797,204.284 150.464,202.451 148.5,201C 125.745,200.979 103.079,200.313 80.5,199C 78.9512,197.786 77.7845,196.286 77,194.5C 76.3333,180.833 76.3333,167.167 77,153.5C 78.451,151.536 80.2843,150.203 82.5,149.5 Z"/></g>
<g><path style="opacity:1" fill="#6f391f" d="M 82.5,149.5 C 139.999,148.833 197.666,148.5 255.5,148.5C 313.915,148.337 372.248,148.837 430.5,150C 431.667,151.167 432.833,152.333 434,153.5C 434.667,167.167 434.667,180.833 434,194.5C 432.833,197 431,198.833 428.5,200C 344.501,200.5 260.501,200.667 176.5,200.5C 255.999,199.667 335.666,199.167 415.5,199C 416.126,198.25 416.626,197.416 417,196.5C 417.667,181.833 417.667,167.167 417,152.5C 416.626,151.584 416.126,150.75 415.5,150C 304.501,149.5 193.501,149.333 82.5,149.5 Z"/></g>
<g><path style="opacity:1" fill="#90552c" d="M 152.5,206.5 C 158.5,209.167 164.5,209.167 170.5,206.5C 169.63,211.617 171.63,214.951 176.5,216.5C 251.334,217.167 326.334,217.833 401.5,218.5C 402.63,227.795 403.63,237.128 404.5,246.5C 404.493,248.369 404.16,250.036 403.5,251.5C 378.498,251.333 353.498,251.5 328.5,252C 322.355,256.694 322.021,261.694 327.5,267C 337.395,268.449 347.395,268.949 357.5,268.5C 357.333,294.835 357.5,321.169 358,347.5C 361.04,353.368 365.54,354.868 371.5,352C 372.701,351.097 373.535,349.931 374,348.5C 374.5,321.835 374.667,295.169 374.5,268.5C 384.552,268.784 394.552,268.45 404.5,267.5C 406.289,272.407 407.122,277.74 407,283.5C 408.695,313.477 409.695,343.477 410,373.5C 424.888,380.271 438.222,389.271 450,400.5C 461.549,414.253 470.549,429.587 477,446.5C 477.678,448.598 477.511,450.598 476.5,452.5C 448.636,455.764 422.969,449.93 399.5,435C 392.126,429.294 385.793,422.627 380.5,415C 370.972,411.206 366.472,414.373 367,424.5C 373.083,433.918 380.583,442.085 389.5,449C 356.649,457.074 323.316,462.074 289.5,464C 233.118,467.498 177.452,462.831 122.5,450C 122.167,449.667 121.833,449.333 121.5,449C 130.417,442.085 137.917,433.918 144,424.5C 144.441,414.623 139.941,411.456 130.5,415C 114.193,437.161 92.1932,449.495 64.5,452C 52.5,452.667 40.5,452.667 28.5,452C 24.3837,451.675 20.3837,450.841 16.5,449.5C 23.6194,430.085 34.6194,413.252 49.5,399C 58.6736,392.577 68.3403,386.91 78.5,382C 80.7089,380.127 82.5422,377.96 84,375.5C 84.3726,323.048 87.0393,270.715 92,218.5C 110.093,217.674 128.26,217.174 146.5,217C 151.451,215.272 153.451,211.772 152.5,206.5 Z"/></g>
<g><path style="opacity:1" fill="#683e20" d="M 176.5,216.5 C 257.167,216.5 337.833,216.5 418.5,216.5C 423.826,269.352 426.659,322.352 427,375.5C 428.458,377.96 430.291,380.127 432.5,382C 448.19,388.425 461.69,397.925 473,410.5C 482.226,422.278 489.392,435.278 494.5,449.5C 488.533,450.792 482.533,451.792 476.5,452.5C 477.511,450.598 477.678,448.598 477,446.5C 470.549,429.587 461.549,414.253 450,400.5C 438.222,389.271 424.888,380.271 410,373.5C 409.695,343.477 408.695,313.477 407,283.5C 407.122,277.74 406.289,272.407 404.5,267.5C 408.241,264.444 409.407,260.444 408,255.5C 406.603,253.93 405.103,252.596 403.5,251.5C 404.16,250.036 404.493,248.369 404.5,246.5C 403.63,237.128 402.63,227.795 401.5,218.5C 326.334,217.833 251.334,217.167 176.5,216.5 Z"/></g>
<g><path style="opacity:1" fill="#020100" d="M 127.5,251.5 C 147.665,248.241 161.498,255.908 169,274.5C 169.667,278.167 169.667,281.833 169,285.5C 164.62,290.343 159.954,290.677 155,286.5C 152.602,272.136 144.102,266.303 129.5,269C 118.667,273.578 116.667,280.578 123.5,290C 129.765,293.027 136.431,294.36 143.5,294C 168.012,301.902 174.846,317.402 164,340.5C 153.983,351.803 141.483,355.969 126.5,353C 109.938,347.796 102.104,336.629 103,319.5C 107.924,314.244 112.924,314.244 118,319.5C 119.803,332.624 127.303,338.124 140.5,336C 149.562,333.964 153.395,328.464 152,319.5C 148.967,315.062 144.8,312.229 139.5,311C 114.558,311.391 102.391,299.225 103,274.5C 107.112,262.385 115.279,254.719 127.5,251.5 Z"/></g>
<g><path style="opacity:1" fill="#040100" d="M 217.5,251.5 C 222.126,250.7 225.96,252.034 229,255.5C 240.138,283.913 251.471,312.246 263,340.5C 265.161,349.662 261.661,353.829 252.5,353C 250.714,352.215 249.214,351.049 248,349.5C 245.358,342.569 242.524,335.735 239.5,329C 227.153,328.167 214.82,328.334 202.5,329.5C 199.64,337.26 196.307,344.76 192.5,352C 183.595,355.096 179.095,351.929 179,342.5C 190.529,314.246 201.862,285.913 213,257.5C 214.332,255.34 215.832,253.34 217.5,251.5 Z"/></g>
<g><path style="opacity:1" fill="#030100" d="M 286.5,251.5 C 291.814,250.74 295.647,252.74 298,257.5C 298.5,283.831 298.667,310.165 298.5,336.5C 310.505,336.333 322.505,336.5 334.5,337C 340.542,339.837 342.042,344.337 339,350.5C 338.097,351.701 336.931,352.535 335.5,353C 319.167,353.667 302.833,353.667 286.5,353C 285.069,352.535 283.903,351.701 283,350.5C 281.349,318.919 281.015,287.252 282,255.5C 283.397,253.93 284.897,252.596 286.5,251.5 Z"/></g>
<g><path style="opacity:1" fill="#040200" d="M 403.5,251.5 C 405.103,252.596 406.603,253.93 408,255.5C 409.407,260.444 408.241,264.444 404.5,267.5C 394.552,268.45 384.552,268.784 374.5,268.5C 374.667,295.169 374.5,321.835 374,348.5C 373.535,349.931 372.701,351.097 371.5,352C 365.54,354.868 361.04,353.368 358,347.5C 357.5,321.169 357.333,294.835 357.5,268.5C 347.395,268.949 337.395,268.449 327.5,267C 322.021,261.694 322.355,256.694 328.5,252C 353.498,251.5 378.498,251.333 403.5,251.5 Z"/></g>
<g><path style="opacity:1" fill="#8d532b" d="M 220.5,284.5 C 221.75,284.577 222.583,285.244 223,286.5C 225.976,294.43 229.142,302.264 232.5,310C 225.144,310.831 217.811,310.665 210.5,309.5C 213.841,301.138 217.174,292.805 220.5,284.5 Z"/></g>
<g><path style="opacity:1" fill="#020100" d="M 167.5,424.5 C 224.498,432.488 281.498,432.488 338.5,424.5C 347.396,424.874 350.563,429.207 348,437.5C 346.786,439.049 345.286,440.215 343.5,441C 284.479,449.641 225.479,449.641 166.5,441C 159.671,435.003 160.004,429.503 167.5,424.5 Z"/></g>
</svg>
