<?xml version="1.0" encoding="UTF-8"?>
<!DOCTYPE svg PUBLIC "-//W3C//DTD SVG 1.1//EN" "http://www.w3.org/Graphics/SVG/1.1/DTD/svg11.dtd">
<svg xmlns="http://www.w3.org/2000/svg" version="1.1" width="512px" height="512px" style="shape-rendering:geometricPrecision; text-rendering:geometricPrecision; image-rendering:optimizeQuality; fill-rule:evenodd; clip-rule:evenodd" xmlns:xlink="http://www.w3.org/1999/xlink">
<g><path style="opacity:0.975" fill="#050303" d="M 68.5,-0.5 C 166.833,-0.5 265.167,-0.5 363.5,-0.5C 365.387,0.767936 366.387,2.60127 366.5,5C 364.412,13.1859 362.245,21.3526 360,29.5C 359.667,37.8333 359.333,46.1667 359,54.5C 357.974,57.6928 355.808,59.0262 352.5,58.5C 352.682,63.9593 353.515,69.2926 355,74.5C 365.716,87.5475 376.049,100.881 386,114.5C 389.742,121.391 392.075,128.724 393,136.5C 393.667,213.5 393.667,290.5 393,367.5C 392.125,370.215 390.292,371.548 387.5,371.5C 384.708,371.548 382.875,370.215 382,367.5C 381.667,292.167 381.333,216.833 381,141.5C 379.062,138.894 376.562,137.061 373.5,136C 366.745,135.556 360.078,135.889 353.5,137C 344.905,129.247 335.239,127.581 324.5,132C 319.977,135.023 316.31,138.856 313.5,143.5C 312.393,144.022 311.226,144.355 310,144.5C 306.206,142.058 302.373,139.558 298.5,137C 294.584,135.898 290.584,135.231 286.5,135C 285.051,133.898 283.718,132.731 282.5,131.5C 282.978,129.083 283.978,126.916 285.5,125C 294.064,123.744 301.897,125.578 309,130.5C 324.231,116.179 340.564,114.846 358,126.5C 364.832,125.229 371.666,125.229 378.5,126.5C 377.648,123.777 376.481,121.11 375,118.5C 364.092,105.014 353.425,91.3478 343,77.5C 341.58,70.9504 341.08,64.2837 341.5,57.5C 256.096,57.1696 170.763,57.5029 85.5,58.5C 81.8183,58.6653 78.1516,58.4986 74.5,58C 73.6667,57.1667 72.8333,56.3333 72,55.5C 72.5414,38.5683 70.708,21.9016 66.5,5.5C 66.6113,3.28569 67.278,1.28569 68.5,-0.5 Z"/></g>
<g><path style="opacity:1" fill="#292929" d="M 353.5,10.5 C 261.827,9.83581 170.494,10.5025 79.5,12.5C 78.596,11.791 78.2627,10.791 78.5,9.5C 170.335,9.16728 262.002,9.50061 353.5,10.5 Z"/></g>
<g><path style="opacity:1" fill="#ccccce" d="M 353.5,10.5 C 352.5,14.4972 351.5,18.4972 350.5,22.5C 320.831,22.3334 291.165,22.5 261.5,23C 257.99,26.048 257.657,29.3813 260.5,33C 289.498,33.5 318.498,33.6666 347.5,33.5C 347.5,37.8333 347.5,42.1667 347.5,46.5C 259.167,46.5 170.833,46.5 82.5,46.5C 82.5,42.1667 82.5,37.8333 82.5,33.5C 111.502,33.6666 140.502,33.5 169.5,33C 173.741,29.206 173.408,25.8727 168.5,23C 139.169,22.5 109.835,22.3334 80.5,22.5C 80.3841,19.1401 80.0508,15.8067 79.5,12.5C 170.494,10.5025 261.827,9.83581 353.5,10.5 Z"/></g>
<g><path style="opacity:1" fill="#878788" d="M 347.5,33.5 C 348.486,37.97 348.819,42.6367 348.5,47.5C 259.665,47.8327 170.998,47.4994 82.5,46.5C 170.833,46.5 259.167,46.5 347.5,46.5C 347.5,42.1667 347.5,37.8333 347.5,33.5 Z"/></g>
<g><path style="opacity:0.998" fill="#fcfcfc" d="M 282.5,131.5 C 279.62,131.94 276.954,132.94 274.5,134.5C 273.833,134.5 273.5,134.833 273.5,135.5C 272.833,135.5 272.5,135.833 272.5,136.5C 272.167,136.5 271.833,136.5 271.5,136.5C 270.833,136.5 270.5,136.833 270.5,137.5C 269.833,137.5 269.5,137.833 269.5,138.5C 268.833,138.5 268.5,138.833 268.5,139.5C 267.094,139.973 266.427,140.973 266.5,142.5C 265.833,142.5 265.5,142.833 265.5,143.5C 260.517,140.862 255.517,138.195 250.5,135.5C 250.158,134.662 249.492,134.328 248.5,134.5C 248.167,134.5 247.833,134.5 247.5,134.5C 247.158,133.662 246.492,133.328 245.5,133.5C 244.791,132.596 243.791,132.263 242.5,132.5C 241.791,131.596 240.791,131.263 239.5,131.5C 238.833,131.5 238.167,131.5 237.5,131.5C 236.791,130.596 235.791,130.263 234.5,130.5C 216.734,128.003 199.4,129.67 182.5,135.5C 182.158,134.662 181.492,134.328 180.5,134.5C 180.5,133.833 180.167,133.5 179.5,133.5C 179.167,133.5 178.833,133.5 178.5,133.5C 178.5,132.833 178.167,132.5 177.5,132.5C 175.833,131.833 174.167,131.167 172.5,130.5C 171.88,125.889 169.213,123.889 164.5,124.5C 159.048,124.762 154.048,126.429 149.5,129.5C 136.298,114.116 120.632,110.949 102.5,120C 98.6599,122.674 95.3266,125.841 92.5,129.5C 79.2099,122.702 66.0433,123.035 53,130.5C 53.5142,126.124 55.1809,122.124 58,118.5C 68.6667,105.167 79.3333,91.8333 90,78.5C 92.9586,73.0848 91.4586,69.7515 85.5,68.5C 85.5,65.1667 85.5,61.8333 85.5,58.5C 170.763,57.5029 256.096,57.1696 341.5,57.5C 341.08,64.2837 341.58,70.9504 343,77.5C 353.425,91.3478 364.092,105.014 375,118.5C 376.481,121.11 377.648,123.777 378.5,126.5C 371.666,125.229 364.832,125.229 358,126.5C 340.564,114.846 324.231,116.179 309,130.5C 301.897,125.578 294.064,123.744 285.5,125C 283.978,126.916 282.978,129.083 282.5,131.5 Z"/></g>
<g><path style="opacity:0.954" fill="#040102" d="M 85.5,68.5 C 91.4586,69.7515 92.9586,73.0848 90,78.5C 79.3333,91.8333 68.6667,105.167 58,118.5C 55.1809,122.124 53.5142,126.124 53,130.5C 66.0433,123.035 79.2099,122.702 92.5,129.5C 95.3266,125.841 98.6599,122.674 102.5,120C 120.632,110.949 136.298,114.116 149.5,129.5C 154.048,126.429 159.048,124.762 164.5,124.5C 169.213,123.889 171.88,125.889 172.5,130.5C 172.084,132.752 170.751,134.252 168.5,135C 161.46,134.789 155.46,137.122 150.5,142C 148.231,142.758 146.064,142.591 144,141.5C 138.044,129.104 128.211,123.938 114.5,126C 106.562,128.938 100.896,134.272 97.5,142C 95.5,142.667 93.5,142.667 91.5,142C 86.7098,137.172 80.8765,135.005 74,135.5C 65.6266,135.901 58.1266,138.568 51.5,143.5C 50.5006,240.999 50.1672,338.665 50.5,436.5C 98.1667,436.5 145.833,436.5 193.5,436.5C 197.461,437.884 198.461,440.551 196.5,444.5C 195.643,445.425 194.643,446.092 193.5,446.5C 145.833,446.5 98.1667,446.5 50.5,446.5C 50.2627,447.791 50.596,448.791 51.5,449.5C 53.2982,460.136 59.2982,467.302 69.5,471C 129.833,471.333 190.167,471.667 250.5,472C 252.465,473.456 253.799,475.29 254.5,477.5C 254.318,480.703 252.652,482.536 249.5,483C 191.5,483.667 133.5,483.667 75.5,483C 55.6824,480.848 43.8491,470.014 40,450.5C 39.3333,345.167 39.3333,239.833 40,134.5C 41.057,126.056 44.057,118.389 49,111.5C 59,98.8333 69,86.1667 79,73.5C 80.7772,71.2101 82.9438,69.5434 85.5,68.5 Z"/></g>
<g><path style="opacity:1" fill="#fe476e" d="M 172.5,130.5 C 174.167,131.167 175.833,131.833 177.5,132.5C 178.167,132.5 178.5,132.833 178.5,133.5C 178.833,133.5 179.167,133.5 179.5,133.5C 180.167,133.5 180.5,133.833 180.5,134.5C 180.5,135.167 180.833,135.5 181.5,135.5C 136.902,159.035 119.402,195.701 129,245.5C 146.42,292.552 180.254,314.052 230.5,310C 272.787,301.38 297.953,275.88 306,233.5C 309.553,205.501 302.22,180.835 284,159.5C 277.925,154.25 272.091,148.917 266.5,143.5C 266.5,143.167 266.5,142.833 266.5,142.5C 267.906,142.027 268.573,141.027 268.5,139.5C 269.167,139.5 269.5,139.167 269.5,138.5C 270.167,138.5 270.5,138.167 270.5,137.5C 271.167,137.5 271.5,137.167 271.5,136.5C 271.833,136.5 272.167,136.5 272.5,136.5C 273.167,136.5 273.5,136.167 273.5,135.5C 274.167,135.5 274.5,135.167 274.5,134.5C 276.954,132.94 279.62,131.94 282.5,131.5C 283.718,132.731 285.051,133.898 286.5,135C 290.584,135.231 294.584,135.898 298.5,137C 302.373,139.558 306.206,142.058 310,144.5C 311.226,144.355 312.393,144.022 313.5,143.5C 316.31,138.856 319.977,135.023 324.5,132C 335.239,127.581 344.905,129.247 353.5,137C 360.078,135.889 366.745,135.556 373.5,136C 376.562,137.061 379.062,138.894 381,141.5C 381.333,216.833 381.667,292.167 382,367.5C 382.875,370.215 384.708,371.548 387.5,371.5C 387.5,377.167 387.5,382.833 387.5,388.5C 383.048,389.263 378.715,390.763 374.5,393C 371.656,395.181 368.822,397.347 366,399.5C 345.469,392.849 331.636,399.682 324.5,420C 311.79,422.875 304.456,430.708 302.5,443.5C 292.589,446.243 286.089,452.576 283,462.5C 282.828,467.202 282.328,471.868 281.5,476.5C 280.817,476.863 280.15,477.196 279.5,477.5C 271.167,477.5 262.833,477.5 254.5,477.5C 253.799,475.29 252.465,473.456 250.5,472C 190.167,471.667 129.833,471.333 69.5,471C 59.2982,467.302 53.2982,460.136 51.5,449.5C 98.6579,447.835 145.991,446.835 193.5,446.5C 194.643,446.092 195.643,445.425 196.5,444.5C 198.461,440.551 197.461,437.884 193.5,436.5C 146.336,435.501 99.0029,435.168 51.5,435.5C 51.5,338.167 51.5,240.833 51.5,143.5C 58.1266,138.568 65.6266,135.901 74,135.5C 80.8765,135.005 86.7098,137.172 91.5,142C 93.5,142.667 95.5,142.667 97.5,142C 100.896,134.272 106.562,128.938 114.5,126C 128.211,123.938 138.044,129.104 144,141.5C 146.064,142.591 148.231,142.758 150.5,142C 155.46,137.122 161.46,134.789 168.5,135C 170.751,134.252 172.084,132.752 172.5,130.5 Z M 268.5,139.5 C 268.573,141.027 267.906,142.027 266.5,142.5C 266.427,140.973 267.094,139.973 268.5,139.5 Z"/></g>
<g><path style="opacity:0.998" fill="#040404" d="M 234.5,130.5 C 235.209,131.404 236.209,131.737 237.5,131.5C 238.167,131.5 238.833,131.5 239.5,131.5C 240.209,132.404 241.209,132.737 242.5,132.5C 243.209,133.404 244.209,133.737 245.5,133.5C 245.842,134.338 246.508,134.672 247.5,134.5C 247.833,134.5 248.167,134.5 248.5,134.5C 248.842,135.338 249.508,135.672 250.5,135.5C 255.517,138.195 260.517,140.862 265.5,143.5C 265.833,143.5 266.167,143.5 266.5,143.5C 272.091,148.917 277.925,154.25 284,159.5C 302.22,180.835 309.553,205.501 306,233.5C 297.953,275.88 272.787,301.38 230.5,310C 180.254,314.052 146.42,292.552 129,245.5C 119.402,195.701 136.902,159.035 181.5,135.5C 181.833,135.5 182.167,135.5 182.5,135.5C 199.4,129.67 216.734,128.003 234.5,130.5 Z"/></g>
<g><path style="opacity:1" fill="#fcfcfc" d="M 204.5,140.5 C 251.412,138.358 281.579,159.691 295,204.5C 297.093,215.549 296.927,226.549 294.5,237.5C 275.95,243.988 260.45,239.655 248,224.5C 243.88,219.012 243.546,213.345 247,207.5C 253.933,200.567 261.933,195.234 271,191.5C 271.667,189.5 271.667,187.5 271,185.5C 251.918,166.485 230.085,162.652 205.5,174C 193.238,180.256 182.738,188.756 174,199.5C 167.501,208.494 161.501,217.827 156,227.5C 152.833,230.667 149.667,233.833 146.5,237C 144.182,238.993 141.516,240.159 138.5,240.5C 131.745,206.259 141.745,178.093 168.5,156C 179.518,148.319 191.518,143.152 204.5,140.5 Z"/></g>
<g><path style="opacity:1" fill="#90283e" d="M 51.5,143.5 C 51.5,240.833 51.5,338.167 51.5,435.5C 99.0029,435.168 146.336,435.501 193.5,436.5C 145.833,436.5 98.1667,436.5 50.5,436.5C 50.1672,338.665 50.5006,240.999 51.5,143.5 Z"/></g>
<g><path style="opacity:1" fill="#01ccb7" d="M 225.5,178.5 C 236.492,177.769 246.492,180.435 255.5,186.5C 228.126,202.784 226.459,221.284 250.5,242C 262.438,251.111 275.605,253.611 290,249.5C 288.085,256.161 284.918,262.328 280.5,268C 236.44,270.937 214.94,250.437 216,206.5C 212.76,204.964 209.76,205.297 207,207.5C 204.06,251.907 224.893,276.073 269.5,280C 256.823,291.595 241.989,297.762 225,298.5C 207.321,291.489 195.988,278.822 191,260.5C 189.065,251.612 188.065,242.612 188,233.5C 184.925,230.941 181.925,230.941 179,233.5C 176.761,255.557 182.427,275.224 196,292.5C 197.873,294.709 200.04,296.542 202.5,298C 188.995,296.718 176.995,291.718 166.5,283C 156.093,274.512 148.093,264.179 142.5,252C 150.184,247.986 157.017,242.819 163,236.5C 168.501,228.836 173.501,220.836 178,212.5C 189.97,195.613 205.803,184.28 225.5,178.5 Z"/></g>
<g><path style="opacity:1" fill="#020001" d="M 185.5,340.5 C 205.836,340.333 226.169,340.5 246.5,341C 250.482,344.048 250.482,347.048 246.5,350C 226.167,350.667 205.833,350.667 185.5,350C 182.914,346.839 182.914,343.672 185.5,340.5 Z"/></g>
<g><path style="opacity:1" fill="#0a0203" d="M 141.5,374.5 C 191.501,374.333 241.501,374.5 291.5,375C 295.566,378.745 295.233,382.078 290.5,385C 240.833,385.667 191.167,385.667 141.5,385C 137.58,381.458 137.58,377.958 141.5,374.5 Z"/></g>
<g><path style="opacity:0.979" fill="#060202" d="M 387.5,388.5 C 397.235,388.286 405.069,391.953 411,399.5C 425.091,393.231 437.424,395.898 448,407.5C 454.475,417.787 454.975,428.287 449.5,439C 461.41,448.718 464.744,460.718 459.5,475C 465.251,478.101 468.751,482.934 470,489.5C 471.33,495.452 471.663,501.452 471,507.5C 470.338,508.984 469.504,510.317 468.5,511.5C 406.5,511.5 344.5,511.5 282.5,511.5C 277.272,500.511 276.272,489.178 279.5,477.5C 280.15,477.196 280.817,476.863 281.5,476.5C 282.328,471.868 282.828,467.202 283,462.5C 286.089,452.576 292.589,446.243 302.5,443.5C 304.456,430.708 311.79,422.875 324.5,420C 331.636,399.682 345.469,392.849 366,399.5C 368.822,397.347 371.656,395.181 374.5,393C 378.715,390.763 383.048,389.263 387.5,388.5 Z"/></g>
<g><path style="opacity:1" fill="#fcfbfb" d="M 408.5,420.5 C 403.968,432.602 395.301,437.102 382.5,434C 376.147,431.487 372.147,426.987 370.5,420.5C 371.172,419.733 372.005,419.066 373,418.5C 374.529,402.833 382.695,397.333 397.5,402C 402.276,405.72 404.776,410.553 405,416.5C 405.66,418.324 406.827,419.657 408.5,420.5 Z"/></g>
<g><path style="opacity:1" fill="#fc476e" d="M 370.5,420.5 C 372.147,426.987 376.147,431.487 382.5,434C 395.301,437.102 403.968,432.602 408.5,420.5C 411.325,420.919 413.491,419.919 415,417.5C 415.333,414.833 415.667,412.167 416,409.5C 427.021,405.168 435.354,408.168 441,418.5C 441.667,422.5 441.667,426.5 441,430.5C 438.597,434.06 436.43,437.727 434.5,441.5C 436.226,445.384 439.226,447.884 443.5,449C 450.023,454.004 452.19,460.504 450,468.5C 449.347,471.807 447.681,474.473 445,476.5C 444.534,483.025 447.701,485.858 454.5,485C 458.925,489.182 460.592,494.348 459.5,500.5C 403.163,500.833 346.829,500.5 290.5,499.5C 288.616,494.994 288.116,490.327 289,485.5C 294.707,492.106 301.874,494.94 310.5,494C 312.919,492.491 313.919,490.325 313.5,487.5C 321.075,485.76 325.908,481.093 328,473.5C 329.378,467.489 328.211,462.155 324.5,457.5C 326.333,455.504 326.833,453.171 326,450.5C 322.703,447.433 318.869,445.267 314.5,444C 313.483,442.951 313.316,441.784 314,440.5C 318.352,432.657 325.018,428.657 334,428.5C 335.903,412.235 344.737,405.735 360.5,409C 361.416,409.374 362.25,409.874 363,410.5C 363.333,413.167 363.667,415.833 364,418.5C 365.789,420.229 367.956,420.896 370.5,420.5 Z"/></g>
<g><path style="opacity:1" fill="#070102" d="M 353.5,439.5 C 359.563,438.838 365.23,440.004 370.5,443C 377.274,447.665 377.107,451.831 370,455.5C 367.248,454.414 364.748,452.914 362.5,451C 355.833,449.667 351.833,452.334 350.5,459C 350.658,461.149 351.492,462.983 353,464.5C 354.5,471 352,473.5 345.5,472C 343.106,470.048 341.606,467.548 341,464.5C 338.824,452.852 342.99,444.519 353.5,439.5 Z"/></g>
<g><path style="opacity:1" fill="#a82f49" d="M 193.5,446.5 C 145.991,446.835 98.6579,447.835 51.5,449.5C 50.596,448.791 50.2627,447.791 50.5,446.5C 98.1667,446.5 145.833,446.5 193.5,446.5 Z"/></g>
<g><path style="opacity:1" fill="#090404" d="M 421.5,481.5 C 420.569,479.967 419.902,478.3 419.5,476.5C 423.419,464.501 419.086,458.334 406.5,458C 402.028,459.972 398.695,463.138 396.5,467.5C 395.264,468.246 393.93,468.579 392.5,468.5C 389.848,467.848 388.181,466.181 387.5,463.5C 394.826,447.513 406.493,443.347 422.5,451C 431.433,458.351 433.933,467.518 430,478.5C 428.107,482.186 425.274,483.186 421.5,481.5 Z"/></g>
<g><path style="opacity:1" fill="#fbfafa" d="M 324.5,457.5 C 328.211,462.155 329.378,467.489 328,473.5C 325.908,481.093 321.075,485.76 313.5,487.5C 312.657,485.827 311.324,484.66 309.5,484C 297.148,482.644 291.982,475.811 294,463.5C 297.617,456.275 303.45,453.108 311.5,454C 314.649,455.659 317.816,457.159 321,458.5C 322.256,458.352 323.423,458.018 324.5,457.5 Z"/></g>
<g><path style="opacity:1" fill="#fafafa" d="M 421.5,481.5 C 412.101,488.691 403.268,488.025 395,479.5C 393.096,476.077 392.263,472.41 392.5,468.5C 393.93,468.579 395.264,468.246 396.5,467.5C 398.695,463.138 402.028,459.972 406.5,458C 419.086,458.334 423.419,464.501 419.5,476.5C 419.902,478.3 420.569,479.967 421.5,481.5 Z"/></g>
</svg>
