<?xml version="1.0" encoding="UTF-8"?>
<!DOCTYPE svg PUBLIC "-//W3C//DTD SVG 1.1//EN" "http://www.w3.org/Graphics/SVG/1.1/DTD/svg11.dtd">
<svg xmlns="http://www.w3.org/2000/svg" version="1.1" width="100px" height="100px" style="shape-rendering:geometricPrecision; text-rendering:geometricPrecision; image-rendering:optimizeQuality; fill-rule:evenodd; clip-rule:evenodd" xmlns:xlink="http://www.w3.org/1999/xlink">
<g><path style="opacity:0.86" fill="#224166" d="M 81.5,-0.5 C 84.1667,-0.5 86.8333,-0.5 89.5,-0.5C 92.3549,2.59189 93.1882,6.25856 92,10.5C 86.1667,17 80.3333,23.5 74.5,30C 76.2551,32.9301 77.4217,36.0967 78,39.5C 83.0655,41.5666 86.3988,45.2333 88,50.5C 90.5494,75.4142 80.0494,91.7475 56.5,99.5C 50.5,99.5 44.5,99.5 38.5,99.5C 13.513,91.2258 3.01302,73.8925 7,47.5C 8.08044,45.0038 9.41378,42.6705 11,40.5C 17.4911,33.3986 24.4911,26.732 32,20.5C 33.5869,16.2869 35.0869,12.1203 36.5,8C 48.6836,6.74168 56.3502,11.9083 59.5,23.5C 62.0444,23.8957 64.2111,23.229 66,21.5C 70.9304,13.9623 76.097,6.62893 81.5,-0.5 Z"/></g>
<g><path style="opacity:1" fill="#e0ac6c" d="M 80.5,78.5 C 69.8118,94.0012 55.1451,99.8346 36.5,96C 27.6868,93.263 20.6868,88.0963 15.5,80.5C 21.0628,84.8724 27.0628,88.7058 33.5,92C 44.4285,95.7562 55.0952,95.0896 65.5,90C 70.6797,86.3101 75.6797,82.4767 80.5,78.5 Z"/></g>
<g><path style="opacity:1" fill="#fbc377" d="M 80.5,78.5 C 75.6797,82.4767 70.6797,86.3101 65.5,90C 55.0952,95.0896 44.4285,95.7562 33.5,92C 27.0628,88.7058 21.0628,84.8724 15.5,80.5C 11.9658,75.7301 10.1324,70.3967 10,64.5C 20.2017,72.566 31.8684,76.2326 45,75.5C 56.2349,75.9195 67.0682,74.0861 77.5,70C 80.2664,68.5331 82.7664,66.6998 85,64.5C 84.6208,69.4729 83.1208,74.1395 80.5,78.5 Z"/></g>
<g><path style="opacity:1" fill="#fffaf3" d="M 61.5,79.5 C 65.0289,80.6092 65.3622,82.4425 62.5,85C 61.552,85.4828 60.552,85.6495 59.5,85.5C 59.2525,83.1417 59.9192,81.1417 61.5,79.5 Z"/></g>
<g><path style="opacity:1" fill="#fff8ef" d="M 33.5,79.5 C 34.5,79.5 35.5,79.5 36.5,79.5C 37.1518,83.5601 35.4851,85.5601 31.5,85.5C 31.2525,83.1417 31.9192,81.1417 33.5,79.5 Z"/></g>
<g><path style="opacity:1" fill="#d5d7da" d="M 85.5,59.5 C 83.6578,63.5076 80.6578,66.3409 76.5,68C 58.7142,74.4911 40.7142,75.1577 22.5,70C 17.0333,68.2778 12.7,65.1111 9.5,60.5C 16.9074,65.0324 24.9074,68.1991 33.5,70C 45.2795,71.0624 56.9461,70.3957 68.5,68C 74.7781,66.1943 80.4448,63.361 85.5,59.5 Z"/></g>
<g><path style="opacity:1" fill="#f0f0f1" d="M 85.5,59.5 C 80.4448,63.361 74.7781,66.1943 68.5,68C 56.9461,70.3957 45.2795,71.0624 33.5,70C 24.9074,68.1991 16.9074,65.0324 9.5,60.5C 6.86018,51.9504 9.19352,45.117 16.5,40C 25.2029,40.2029 29.8695,44.7029 30.5,53.5C 31.9802,44.8106 28.3136,39.8106 19.5,38.5C 19.3832,36.5165 20.0499,34.8498 21.5,33.5C 25.948,30.1864 30.1147,26.5197 34,22.5C 36.285,18.8131 37.4517,14.8131 37.5,10.5C 49.3683,9.6456 55.8683,14.9789 57,26.5C 56.2155,28.286 55.0488,29.786 53.5,31C 50.1815,31.8792 46.8482,32.7125 43.5,33.5C 50.9885,35.589 56.3219,33.089 59.5,26C 66.146,25.5779 70.9793,28.4112 74,34.5C 75.7238,39.7314 74.2238,43.5647 69.5,46C 65.789,46.1747 62.1224,46.6747 58.5,47.5C 65.7451,50.4916 71.9118,48.8249 77,42.5C 84.0437,45.9201 86.877,51.5867 85.5,59.5 Z"/></g>
<g><path style="opacity:1" fill="#25466c" d="M 36.5,61.5 C 37.5,61.5 38.5,61.5 39.5,61.5C 39.5,62.8333 39.5,64.1667 39.5,65.5C 38.5,65.5 37.5,65.5 36.5,65.5C 36.5,64.1667 36.5,62.8333 36.5,61.5 Z"/></g>
<g><path style="opacity:1" fill="#3c597b" d="M 64.5,59.5 C 67.9563,60.5362 68.2896,62.2029 65.5,64.5C 63.2957,63.218 62.9624,61.5514 64.5,59.5 Z"/></g>
<g><path style="opacity:1" fill="#20446a" d="M 38.5,46.5 C 39.5,46.5 40.5,46.5 41.5,46.5C 41.7778,48.3464 41.1112,49.6798 39.5,50.5C 38.5713,49.3112 38.238,47.9778 38.5,46.5 Z"/></g>
<g><path style="opacity:1" fill="#22446b" d="M 61.5,37.5 C 62.5,37.5 63.5,37.5 64.5,37.5C 64.5,38.8333 64.5,40.1667 64.5,41.5C 63.5,41.5 62.5,41.5 61.5,41.5C 61.5,40.1667 61.5,38.8333 61.5,37.5 Z"/></g>
<g><path style="opacity:1" fill="#21446a" d="M 44.5,21.5 C 45.5,21.5 46.5,21.5 47.5,21.5C 47.5,22.8333 47.5,24.1667 47.5,25.5C 46.5,25.5 45.5,25.5 44.5,25.5C 44.5,24.1667 44.5,22.8333 44.5,21.5 Z"/></g>
<g><path style="opacity:1" fill="#c48081" d="M 83.5,1.5 C 88.3247,1.48808 90.4914,3.82141 90,8.5C 84.5,14.6667 79,20.8333 73.5,27C 72.5,27.6667 71.5,27.6667 70.5,27C 68.7448,26.2801 67.9115,25.1134 68,23.5C 72.9304,15.9623 78.097,8.62893 83.5,1.5 Z"/></g>
</svg>
