<?xml version="1.0" encoding="UTF-8"?>
<!DOCTYPE svg PUBLIC "-//W3C//DTD SVG 1.1//EN" "http://www.w3.org/Graphics/SVG/1.1/DTD/svg11.dtd">
<svg xmlns="http://www.w3.org/2000/svg" version="1.1" width="512px" height="512px" style="shape-rendering:geometricPrecision; text-rendering:geometricPrecision; image-rendering:optimizeQuality; fill-rule:evenodd; clip-rule:evenodd" xmlns:xlink="http://www.w3.org/1999/xlink">
<g><path style="opacity:0.967" fill="#020000" d="M 460.5,168.5 C 458.772,170.226 456.772,171.559 454.5,172.5C 452.801,172.66 451.134,172.494 449.5,172C 422.88,159.171 394.88,154.837 365.5,159C 342.243,161.752 320.576,169.085 300.5,181C 295.689,183.985 291.356,187.485 287.5,191.5C 284.041,193.791 281.041,196.624 278.5,200C 297.998,225.5 306.832,254.333 305,286.5C 303.771,308.044 299.271,328.878 291.5,349C 293.656,353.469 296.656,357.303 300.5,360.5C 310.191,371.492 321.191,380.826 333.5,388.5C 377.442,419.365 417.276,414.699 453,374.5C 486.702,333.724 500.369,287.057 494,234.5C 490.119,217.739 482.785,202.739 472,189.5C 471.131,186.007 471.964,183.007 474.5,180.5C 477.268,178.1 480.268,177.934 483.5,180C 499.329,198.328 508.663,219.495 511.5,243.5C 511.5,255.167 511.5,266.833 511.5,278.5C 504.545,327.246 483.212,368.413 447.5,402C 416.072,426.844 382.072,430.844 345.5,414C 321.763,402.379 301.263,386.545 284,366.5C 265.506,402.326 239.339,431.16 205.5,453C 170.167,473.667 134.833,473.667 99.5,453C 65.661,431.16 39.4943,402.326 21,366.5C 10.0668,344.541 2.9001,321.541 -0.5,297.5C -0.5,285.833 -0.5,274.167 -0.5,262.5C 1.16146,253.065 3.66146,243.731 7,234.5C 9.49164,232.503 12.325,231.503 15.5,231.5C 16.8333,232.933 18.3333,234.267 20,235.5C 20.1667,236.833 20.3333,238.167 20.5,239.5C 10.7313,276.91 13.8979,313.243 30,348.5C 42.113,375.415 58.9463,398.748 80.5,418.5C 97.3147,435.757 117.648,446.924 141.5,452C 163.161,453.585 183.161,448.585 201.5,437C 252.819,401.238 282.319,352.071 290,289.5C 292.356,261.241 285.356,235.575 269,212.5C 264.997,207.331 260.497,202.664 255.5,198.5C 239.062,184.281 220.062,174.781 198.5,170C 166.067,163.694 133.733,164.028 101.5,171C 73.9115,178.124 51.2448,192.79 33.5,215C 30.2637,216.724 26.9303,216.89 23.5,215.5C 21.1131,211.613 20.9464,207.613 23,203.5C 31.0642,192.268 40.8975,182.935 52.5,175.5C 37.1544,156.965 29.6544,135.632 30,111.5C 30.5,109.667 31.6667,108.5 33.5,108C 47.1279,104.835 60.7945,104.669 74.5,107.5C 74.2687,96.3504 75.4354,85.3504 78,74.5C 79.5604,70.2778 82.5604,68.6112 87,69.5C 113.647,71.6476 133.981,83.9809 148,106.5C 151.667,84.1783 160,63.845 173,45.5C 182.157,40.7718 186.824,43.4384 187,53.5C 178.805,65.2193 172.805,77.886 169,91.5C 184.195,76.8778 202.362,69.7112 223.5,70C 226.181,72.194 227.681,75.0273 228,78.5C 229.872,88.0785 230.705,97.7451 230.5,107.5C 244.205,104.669 257.872,104.835 271.5,108C 273.333,108.5 274.5,109.667 275,111.5C 275.346,135.632 267.846,156.965 252.5,175.5C 257.757,179.379 262.924,183.379 268,187.5C 279.337,176.247 292.17,167.081 306.5,160C 287.111,140.499 279.277,116.999 283,89.5C 285.262,85.0687 288.929,83.0687 294,83.5C 304.887,83.8971 315.387,86.0637 325.5,90C 329.419,91.5403 332.919,93.7069 336,96.5C 333.172,89.1618 330.006,81.8285 326.5,74.5C 327.764,67.6986 331.764,65.1986 338.5,67C 339.931,67.4652 341.097,68.2986 342,69.5C 348.099,80.3634 353.099,91.6967 357,103.5C 368.027,82.4602 385.194,69.9602 408.5,66C 410.081,66.7065 411.581,67.5399 413,68.5C 424.456,93.4779 424.29,118.311 412.5,143C 427.481,145.662 441.814,150.329 455.5,157C 459.907,159.532 461.574,163.365 460.5,168.5 Z"/></g>
<g><path style="opacity:1" fill="#639621" d="M 384.5,142.5 C 394.241,124.894 397.908,106.227 395.5,86.5C 397.22,85.1359 399.22,84.1359 401.5,83.5C 408.578,103.866 406.411,123.2 395,141.5C 391.606,142.456 388.106,142.789 384.5,142.5 Z"/></g>
<g><path style="opacity:1" fill="#89ca3e" d="M 107.5,91.5 C 121.85,108.544 130.517,128.211 133.5,150.5C 126.372,150.661 119.372,151.661 112.5,153.5C 102.186,144.334 95.3525,133 92,119.5C 90.5956,108.866 90.2623,98.199 91,87.5C 91.3076,86.6919 91.8076,86.0253 92.5,85.5C 97.798,87.0588 102.798,89.0588 107.5,91.5 Z"/></g>
<g><path style="opacity:1" fill="#639621" d="M 176.5,150.5 C 180.664,150.857 183.831,149.19 186,145.5C 198.143,128.242 204.31,109.242 204.5,88.5C 206.949,87.2092 209.616,86.2092 212.5,85.5C 217.347,105.754 214.18,124.754 203,142.5C 200.203,146.299 197.036,149.799 193.5,153C 187.596,153.133 181.929,152.3 176.5,150.5 Z"/></g>
<g><path style="opacity:1" fill="#89c93e" d="M 395.5,86.5 C 397.908,106.227 394.241,124.894 384.5,142.5C 378.171,142.9 371.838,143.233 365.5,143.5C 363.861,124.148 369.861,107.648 383.5,94C 387.388,91.2279 391.388,88.7279 395.5,86.5 Z"/></g>
<g><path style="opacity:1" fill="#89c93e" d="M 204.5,88.5 C 204.31,109.242 198.143,128.242 186,145.5C 183.831,149.19 180.664,150.857 176.5,150.5C 171.167,150.5 165.833,150.5 160.5,150.5C 161.171,122.632 173.838,102.465 198.5,90C 200.436,89.187 202.436,88.687 204.5,88.5 Z"/></g>
<g><path style="opacity:1" fill="#629521" d="M 107.5,91.5 C 118.842,95.6632 127.675,102.996 134,113.5C 141.046,124.807 144.546,137.14 144.5,150.5C 140.833,150.5 137.167,150.5 133.5,150.5C 130.517,128.211 121.85,108.544 107.5,91.5 Z"/></g>
<g><path style="opacity:1" fill="#4d7122" d="M 304.5,100.5 C 302.5,100.5 300.5,100.5 298.5,100.5C 298.5,103.5 298.5,106.5 298.5,109.5C 297.521,106.375 297.187,103.042 297.5,99.5C 300.059,99.1984 302.393,99.5318 304.5,100.5 Z"/></g>
<g><path style="opacity:1" fill="#89c93e" d="M 304.5,100.5 C 307.598,100.756 310.598,101.422 313.5,102.5C 326.88,115.24 336.213,130.573 341.5,148.5C 335.539,149.653 329.706,151.32 324,153.5C 308.569,142.987 300.069,128.32 298.5,109.5C 298.5,106.5 298.5,103.5 298.5,100.5C 300.5,100.5 302.5,100.5 304.5,100.5 Z"/></g>
<g><path style="opacity:1" fill="#629521" d="M 313.5,102.5 C 332.812,110.157 345.146,124.157 350.5,144.5C 350.182,145.647 349.516,146.481 348.5,147C 346.08,147.29 343.746,147.79 341.5,148.5C 336.213,130.573 326.88,115.24 313.5,102.5 Z"/></g>
<g><path style="opacity:1" fill="#89c93e" d="M 58.5,121.5 C 71.1295,132.125 81.1295,144.792 88.5,159.5C 81.4934,161.67 74.66,164.337 68,167.5C 60.128,160.784 54.4614,152.451 51,142.5C 48.8467,135.883 47.0134,129.217 45.5,122.5C 49.7828,121.508 54.1161,121.174 58.5,121.5 Z"/></g>
<g><path style="opacity:1" fill="#629521" d="M 58.5,121.5 C 65.5893,121.678 72.2559,123.344 78.5,126.5C 81.8768,137.756 87.2102,147.923 94.5,157C 92.5115,157.938 90.5115,158.772 88.5,159.5C 81.1295,144.792 71.1295,132.125 58.5,121.5 Z"/></g>
<g><path style="opacity:1" fill="#88c83d" d="M 251.5,121.5 C 248.511,138.151 240.844,152.151 228.5,163.5C 222.299,161.823 216.299,159.656 210.5,157C 217.957,147.589 223.457,137.089 227,125.5C 234.776,122.024 242.943,120.691 251.5,121.5 Z"/></g>
<g><path style="opacity:1" fill="#639621" d="M 251.5,121.5 C 254.247,121.187 256.914,121.52 259.5,122.5C 256.999,139.525 249.999,154.358 238.5,167C 234.869,166.684 231.535,165.518 228.5,163.5C 240.844,152.151 248.511,138.151 251.5,121.5 Z"/></g>
<g><path style="opacity:1" fill="#fa4138" d="M 454.5,172.5 C 458.573,180.986 462.406,189.653 466,198.5C 469.715,210.553 471.548,222.887 471.5,235.5C 467.42,236.816 465.42,239.649 465.5,244C 466.41,247.985 467.743,251.818 469.5,255.5C 467.215,275.687 461.881,295.021 453.5,313.5C 443.697,308.83 438.53,311.83 438,322.5C 439.319,326.472 441.153,330.139 443.5,333.5C 438.131,339.848 432.965,346.515 428,353.5C 415.296,368.884 399.796,380.384 381.5,388C 365.508,393.761 349.508,393.928 333.5,388.5C 321.191,380.826 310.191,371.492 300.5,360.5C 308.745,340.593 314.245,319.927 317,298.5C 317.667,285.5 317.667,272.5 317,259.5C 315.829,252.821 314.662,246.154 313.5,239.5C 315.071,234.603 315.571,229.603 315,224.5C 313.594,221.591 311.428,219.591 308.5,218.5C 306.958,217.837 305.291,217.17 303.5,216.5C 298.895,207.59 293.562,199.257 287.5,191.5C 291.356,187.485 295.689,183.985 300.5,181C 320.576,169.085 342.243,161.752 365.5,159C 394.88,154.837 422.88,159.171 449.5,172C 451.134,172.494 452.801,172.66 454.5,172.5 Z"/></g>
<g><path style="opacity:1" fill="#fa4138" d="M 255.5,198.5 C 265.578,221.645 268.244,245.645 263.5,270.5C 256.947,272.909 254.447,277.576 256,284.5C 257.145,287.432 257.978,290.432 258.5,293.5C 252.305,315.554 242.638,335.888 229.5,354.5C 224.131,350.567 218.798,350.567 213.5,354.5C 211.971,356.707 211.305,359.207 211.5,362C 211.76,366.35 212.76,370.517 214.5,374.5C 195.002,398.255 170.668,415.088 141.5,425C 120.352,430.019 100.019,427.853 80.5,418.5C 58.9463,398.748 42.113,375.415 30,348.5C 13.8979,313.243 10.7313,276.91 20.5,239.5C 20.3333,238.167 20.1667,236.833 20,235.5C 18.3333,234.267 16.8333,232.933 15.5,231.5C 18.5283,226.436 21.1949,221.103 23.5,215.5C 26.9303,216.89 30.2637,216.724 33.5,215C 51.2448,192.79 73.9115,178.124 101.5,171C 133.733,164.028 166.067,163.694 198.5,170C 220.062,174.781 239.062,184.281 255.5,198.5 Z"/></g>
<g><path style="opacity:1" fill="#e11e1c" d="M 460.5,168.5 C 465.436,172.096 470.103,176.096 474.5,180.5C 471.964,183.007 471.131,186.007 472,189.5C 482.785,202.739 490.119,217.739 494,234.5C 500.369,287.057 486.702,333.724 453,374.5C 417.276,414.699 377.442,419.365 333.5,388.5C 349.508,393.928 365.508,393.761 381.5,388C 399.796,380.384 415.296,368.884 428,353.5C 432.965,346.515 438.131,339.848 443.5,333.5C 445.737,337.395 448.571,338.061 452,335.5C 455.645,328.242 456.145,320.909 453.5,313.5C 461.881,295.021 467.215,275.687 469.5,255.5C 474.459,263.792 478.626,263.459 482,254.5C 484.962,247.413 483.796,241.247 478.5,236C 476.19,235.503 473.857,235.337 471.5,235.5C 471.548,222.887 469.715,210.553 466,198.5C 462.406,189.653 458.573,180.986 454.5,172.5C 456.772,171.559 458.772,170.226 460.5,168.5 Z"/></g>
<g><path style="opacity:1" fill="#0b0201" d="M 362.5,188.5 C 372.428,187.931 376.595,192.598 375,202.5C 374.273,206.689 372.773,210.522 370.5,214C 367.211,214.746 364.711,213.58 363,210.5C 359.247,205.359 357.581,199.693 358,193.5C 359.059,191.341 360.559,189.674 362.5,188.5 Z"/></g>
<g><path style="opacity:1" fill="#070101" d="M 148.5,198.5 C 156.229,197.509 160.895,200.676 162.5,208C 162.409,214.386 160.575,220.219 157,225.5C 154,229.5 151,229.5 148,225.5C 143.874,219.075 142.208,212.075 143,204.5C 144.36,201.977 146.193,199.977 148.5,198.5 Z"/></g>
<g><path style="opacity:1" fill="#070101" d="M 429.5,198.5 C 434.347,197.84 438.181,199.507 441,203.5C 442.035,210.152 441.035,216.485 438,222.5C 437.196,223.804 436.029,224.471 434.5,224.5C 431.559,223.394 429.392,221.394 428,218.5C 426.104,214.811 424.604,210.978 423.5,207C 424.174,203.17 426.174,200.336 429.5,198.5 Z"/></g>
<g><path style="opacity:1" fill="#e11e1c" d="M 255.5,198.5 C 260.497,202.664 264.997,207.331 269,212.5C 285.356,235.575 292.356,261.241 290,289.5C 282.319,352.071 252.819,401.238 201.5,437C 183.161,448.585 163.161,453.585 141.5,452C 117.648,446.924 97.3147,435.757 80.5,418.5C 100.019,427.853 120.352,430.019 141.5,425C 170.668,415.088 195.002,398.255 214.5,374.5C 215.69,376.355 217.023,378.188 218.5,380C 221.636,381.041 224.136,380.207 226,377.5C 230.594,370.186 231.76,362.519 229.5,354.5C 242.638,335.888 252.305,315.554 258.5,293.5C 259.97,295.151 261.303,296.985 262.5,299C 265.51,301.222 268.01,300.722 270,297.5C 274.951,290.359 276.284,282.692 274,274.5C 271.303,271.13 267.803,269.796 263.5,270.5C 268.244,245.645 265.578,221.645 255.5,198.5 Z"/></g>
<g><path style="opacity:1" fill="#090100" d="M 308.5,218.5 C 311.428,219.591 313.594,221.591 315,224.5C 315.571,229.603 315.071,234.603 313.5,239.5C 310.782,245.708 307.282,246.042 303,240.5C 299.247,235.359 297.581,229.693 298,223.5C 300.22,219.308 303.72,217.641 308.5,218.5 Z"/></g>
<g><path style="opacity:1" fill="#080101" d="M 76.5,221.5 C 87.0324,221.199 91.1991,226.199 89,236.5C 88.09,241.651 86.09,246.318 83,250.5C 79.7944,252.124 77.1277,251.458 75,248.5C 70.7561,241.559 69.4228,234.226 71,226.5C 72.7297,224.598 74.563,222.931 76.5,221.5 Z"/></g>
<g><path style="opacity:1" fill="#080101" d="M 221.5,221.5 C 229.272,220.618 233.939,223.951 235.5,231.5C 234.568,237.461 232.735,243.128 230,248.5C 226.157,252.729 222.823,252.395 220,247.5C 216.44,241.262 215.107,234.596 216,227.5C 217.36,224.977 219.193,222.977 221.5,221.5 Z"/></g>
<g><path style="opacity:1" fill="#0c0201" d="M 471.5,235.5 C 473.857,235.337 476.19,235.503 478.5,236C 483.796,241.247 484.962,247.413 482,254.5C 478.626,263.459 474.459,263.792 469.5,255.5C 467.743,251.818 466.41,247.985 465.5,244C 465.42,239.649 467.42,236.816 471.5,235.5 Z"/></g>
<g><path style="opacity:1" fill="#ce0d0d" d="M 287.5,191.5 C 293.562,199.257 298.895,207.59 303.5,216.5C 305.291,217.17 306.958,217.837 308.5,218.5C 303.72,217.641 300.22,219.308 298,223.5C 297.581,229.693 299.247,235.359 303,240.5C 307.282,246.042 310.782,245.708 313.5,239.5C 314.662,246.154 315.829,252.821 317,259.5C 317.667,272.5 317.667,285.5 317,298.5C 314.245,319.927 308.745,340.593 300.5,360.5C 296.656,357.303 293.656,353.469 291.5,349C 299.271,328.878 303.771,308.044 305,286.5C 306.832,254.333 297.998,225.5 278.5,200C 281.041,196.624 284.041,193.791 287.5,191.5 Z"/></g>
<g><path style="opacity:1" fill="#0b0201" d="M 404.5,256.5 C 414.821,255.655 418.987,260.321 417,270.5C 416.333,273.167 415.667,275.833 415,278.5C 412.621,283.505 409.621,283.839 406,279.5C 401.669,274.195 399.669,268.195 400,261.5C 401.059,259.341 402.559,257.674 404.5,256.5 Z"/></g>
<g><path style="opacity:1" fill="#070101" d="M 343.5,265.5 C 348.384,264.861 352.217,266.527 355,270.5C 356.325,277.841 355.159,284.675 351.5,291C 348.364,292.041 345.864,291.207 344,288.5C 340.089,283.102 338.422,277.102 339,270.5C 340.707,268.963 342.207,267.296 343.5,265.5 Z"/></g>
<g><path style="opacity:1" fill="#080101" d="M 35.5,270.5 C 45.9884,269.487 50.4884,274.154 49,284.5C 43.332,305.347 36.9986,305.681 30,285.5C 28.0867,278.97 29.92,273.97 35.5,270.5 Z"/></g>
<g><path style="opacity:1" fill="#070100" d="M 263.5,270.5 C 267.803,269.796 271.303,271.13 274,274.5C 276.284,282.692 274.951,290.359 270,297.5C 268.01,300.722 265.51,301.222 262.5,299C 261.303,296.985 259.97,295.151 258.5,293.5C 257.978,290.432 257.145,287.432 256,284.5C 254.447,277.576 256.947,272.909 263.5,270.5 Z"/></g>
<g><path style="opacity:1" fill="#070101" d="M 113.5,282.5 C 121.715,281.428 126.382,284.928 127.5,293C 126.48,299.237 124.313,305.071 121,310.5C 117.329,313.396 114.329,312.729 112,308.5C 108.44,302.262 107.107,295.596 108,288.5C 109.36,285.977 111.193,283.977 113.5,282.5 Z"/></g>
<g><path style="opacity:1" fill="#070201" d="M 183.5,282.5 C 194.486,281.653 198.986,286.653 197,297.5C 196.27,303.975 193.27,308.975 188,312.5C 186.527,312.097 185.194,311.43 184,310.5C 179.961,304.003 177.961,297.003 178,289.5C 179.371,286.734 181.204,284.401 183.5,282.5 Z"/></g>
<g><path style="opacity:1" fill="#090201" d="M 453.5,313.5 C 456.145,320.909 455.645,328.242 452,335.5C 448.571,338.061 445.737,337.395 443.5,333.5C 441.153,330.139 439.319,326.472 438,322.5C 438.53,311.83 443.697,308.83 453.5,313.5 Z"/></g>
<g><path style="opacity:1" fill="#0c0301" d="M 324.5,329.5 C 334.415,330.301 338.248,335.634 336,345.5C 335.259,349.993 333.259,353.659 330,356.5C 322.396,351.627 318.729,344.627 319,335.5C 320.36,332.977 322.193,330.977 324.5,329.5 Z"/></g>
<g><path style="opacity:1" fill="#090201" d="M 388.5,348.5 C 398.886,348.903 402.72,354.236 400,364.5C 397.416,376.482 392.749,377.482 386,367.5C 380.482,360.05 381.315,353.717 388.5,348.5 Z"/></g>
<g><path style="opacity:1" fill="#060100" d="M 79.5,351.5 C 91.2218,350.576 95.7218,355.909 93,367.5C 91.4861,372.029 89.3194,376.195 86.5,380C 83.3637,381.041 80.8637,380.207 79,377.5C 75.4689,371.251 73.8022,364.584 74,357.5C 75.3597,354.977 77.193,352.977 79.5,351.5 Z"/></g>
<g><path style="opacity:1" fill="#050100" d="M 229.5,354.5 C 231.76,362.519 230.594,370.186 226,377.5C 224.136,380.207 221.636,381.041 218.5,380C 217.023,378.188 215.69,376.355 214.5,374.5C 212.76,370.517 211.76,366.35 211.5,362C 211.305,359.207 211.971,356.707 213.5,354.5C 218.798,350.567 224.131,350.567 229.5,354.5 Z"/></g>
<g><path style="opacity:1" fill="#070101" d="M 148.5,383.5 C 156.515,381.993 161.182,385.159 162.5,393C 161.672,399.15 159.839,404.984 157,410.5C 154,414.5 151,414.5 148,410.5C 143.597,403.254 142.264,395.587 144,387.5C 145.397,385.93 146.897,384.596 148.5,383.5 Z"/></g>
</svg>
