<?xml version="1.0" encoding="UTF-8"?>
<!DOCTYPE svg PUBLIC "-//W3C//DTD SVG 1.1//EN" "http://www.w3.org/Graphics/SVG/1.1/DTD/svg11.dtd">
<svg xmlns="http://www.w3.org/2000/svg" version="1.1" width="512px" height="512px" style="shape-rendering:geometricPrecision; text-rendering:geometricPrecision; image-rendering:optimizeQuality; fill-rule:evenodd; clip-rule:evenodd" xmlns:xlink="http://www.w3.org/1999/xlink">
<g><path style="opacity:0.975" fill="#010202" d="M 236.5,-0.5 C 249.167,-0.5 261.833,-0.5 274.5,-0.5C 324.371,7.35176 366.204,30.0184 400,67.5C 413.841,83.3525 426.341,100.186 437.5,118C 456.04,121.873 467.207,133.04 471,151.5C 471.667,171.833 471.667,192.167 471,212.5C 468.663,220.195 464.163,226.195 457.5,230.5C 467.111,267.942 472.944,305.942 475,344.5C 473.982,346.928 472.148,348.262 469.5,348.5C 463.657,348.494 460.49,345.494 460,339.5C 457.16,302.786 450.993,266.786 441.5,231.5C 317.667,230.334 193.667,230.167 69.5,231C 64.9853,246.236 61.4853,261.736 59,277.5C 50.4744,327.807 46.1411,378.473 46,429.5C 45.7435,433.377 44.7435,437.043 43,440.5C 40,445.5 37,450.5 34,455.5C 28.5938,467.103 29.5938,478.103 37,488.5C 44.3922,495.85 53.2255,498.35 63.5,496C 66.5,495 69.5,494 72.5,493C 79.522,487.989 87.1887,484.322 95.5,482C 200.833,481.5 306.166,481.333 411.5,481.5C 415.222,482.017 418.888,482.85 422.5,484C 428.5,487.333 434.5,490.667 440.5,494C 452.847,498.733 464.014,496.9 474,488.5C 481.404,478.121 482.404,467.121 477,455.5C 474,450.5 471,445.5 468,440.5C 466.257,437.043 465.257,433.377 465,429.5C 464.167,408.501 463.833,387.501 464,366.5C 465.678,364.334 467.845,363.001 470.5,362.5C 474.597,362.469 477.097,364.469 478,368.5C 479.154,389.158 480.154,409.825 481,430.5C 484.633,437.48 488.3,444.48 492,451.5C 498.226,468.306 496.226,483.973 486,498.5C 479.794,505.235 472.294,509.568 463.5,511.5C 457.167,511.5 450.833,511.5 444.5,511.5C 440.226,510.171 435.893,508.671 431.5,507C 425.278,502.777 418.611,499.444 411.5,497C 307.5,496.333 203.5,496.333 99.5,497C 92.3892,499.444 85.7225,502.777 79.5,507C 75.1073,508.671 70.774,510.171 66.5,511.5C 59.8333,511.5 53.1667,511.5 46.5,511.5C 26.2973,505.474 15.9639,491.808 15.5,470.5C 15.4453,463.94 16.612,457.607 19,451.5C 22.6667,444.5 26.3333,437.5 30,430.5C 30.8537,376.109 35.8537,322.109 45,268.5C 47.261,255.694 50.0943,243.027 53.5,230.5C 46.8366,226.195 42.3366,220.195 40,212.5C 39.0554,190.458 39.3887,168.458 41,146.5C 44.5866,134.578 52.0866,126.078 63.5,121C 67.6559,120.176 71.4893,118.676 75,116.5C 92.8226,85.673 115.989,59.5063 144.5,38C 148.149,37.037 151.482,37.537 154.5,39.5C 155.987,42.9133 155.82,46.2467 154,49.5C 129.766,68.895 109.266,91.5616 92.5,117.5C 91.9569,117.56 91.6236,117.893 91.5,118.5C 200.833,119.833 310.167,119.833 419.5,118.5C 419.376,117.893 419.043,117.56 418.5,117.5C 396.901,82.4007 368.234,54.5674 332.5,34C 300.064,16.8789 265.731,11.0456 229.5,16.5C 210.764,19.5788 193.097,25.7454 176.5,35C 174.5,35.6667 172.5,35.6667 170.5,35C 169.295,33.6244 167.962,32.4577 166.5,31.5C 165.175,27.9606 165.842,24.794 168.5,22C 189.931,10.3561 212.597,2.85607 236.5,-0.5 Z"/></g>
<g><path style="opacity:1" fill="#fefbdb" d="M 418.5,117.5 C 317.001,118.499 215.335,118.833 113.5,118.5C 140.686,71.3063 179.353,37.3063 229.5,16.5C 265.731,11.0456 300.064,16.8789 332.5,34C 368.234,54.5674 396.901,82.4007 418.5,117.5 Z"/></g>
<g><path style="opacity:1" fill="#f4e669" d="M 229.5,16.5 C 179.353,37.3063 140.686,71.3063 113.5,118.5C 106.313,118.825 99.3134,118.491 92.5,117.5C 109.266,91.5616 129.766,68.895 154,49.5C 155.82,46.2467 155.987,42.9133 154.5,39.5C 158.537,36.8202 162.537,34.1535 166.5,31.5C 167.962,32.4577 169.295,33.6244 170.5,35C 172.5,35.6667 174.5,35.6667 176.5,35C 193.097,25.7454 210.764,19.5788 229.5,16.5 Z"/></g>
<g><path style="opacity:1" fill="#33312a" d="M 92.5,117.5 C 99.3134,118.491 106.313,118.825 113.5,118.5C 215.335,118.833 317.001,118.499 418.5,117.5C 419.043,117.56 419.376,117.893 419.5,118.5C 310.167,119.833 200.833,119.833 91.5,118.5C 91.6236,117.893 91.9569,117.56 92.5,117.5 Z"/></g>
<g><path style="opacity:1" fill="#00b0f7" d="M 88.5,133.5 C 83.4814,138.199 79.9814,143.866 78,150.5C 77.3333,170.833 77.3333,191.167 78,211.5C 78.7914,212.745 79.2914,214.078 79.5,215.5C 72.825,215.666 66.1583,215.5 59.5,215C 57.6217,213.457 56.1217,211.624 55,209.5C 54.3333,190.833 54.3333,172.167 55,153.5C 60.3771,137.548 71.5437,130.881 88.5,133.5 Z"/></g>
<g><path style="opacity:1" fill="#a3e5fd" d="M 88.5,133.5 C 204.834,133.333 321.167,133.5 437.5,134C 445.841,136.341 451.674,141.507 455,149.5C 455.667,170.167 455.667,190.833 455,211.5C 453.833,212.667 452.667,213.833 451.5,215C 327.5,215.5 203.5,215.667 79.5,215.5C 79.2914,214.078 78.7914,212.745 78,211.5C 77.3333,191.167 77.3333,170.833 78,150.5C 79.9814,143.866 83.4814,138.199 88.5,133.5 Z"/></g>
<g><path style="opacity:1" fill="#030505" d="M 151.5,153.5 C 153.857,153.337 156.19,153.503 158.5,154C 160.333,154.5 161.5,155.667 162,157.5C 162.667,165.5 162.667,173.5 162,181.5C 159.91,187.292 156.076,188.792 150.5,186C 149.107,184.829 148.273,183.329 148,181.5C 147.333,173.5 147.333,165.5 148,157.5C 149.032,155.973 150.199,154.64 151.5,153.5 Z"/></g>
<g><path style="opacity:1" fill="#030505" d="M 352.5,153.5 C 356.954,152.617 360.454,153.95 363,157.5C 363.667,165.5 363.667,173.5 363,181.5C 360.89,187.258 357.057,188.758 351.5,186C 350.299,185.097 349.465,183.931 349,182.5C 348.333,174.167 348.333,165.833 349,157.5C 349.69,155.65 350.856,154.316 352.5,153.5 Z"/></g>
<g><path style="opacity:1" fill="#030505" d="M 226.5,171.5 C 231.739,171.287 235.739,173.454 238.5,178C 245.716,183.142 253.716,184.808 262.5,183C 269.539,179.935 276.039,176.101 282,171.5C 288.796,173.093 290.796,177.093 288,183.5C 271.595,199.914 253.095,202.747 232.5,192C 229.035,189.537 225.869,186.704 223,183.5C 220.458,178.361 221.624,174.361 226.5,171.5 Z"/></g>
<g><path style="opacity:1" fill="#008fdb" d="M 441.5,231.5 C 324.167,231.5 206.833,231.5 89.5,231.5C 77.9347,264.208 70.4347,297.875 67,332.5C 63.5955,376.75 71.5955,418.75 91,458.5C 95.4417,465.94 100.275,473.106 105.5,480C 207.667,480.167 309.667,480.667 411.5,481.5C 306.166,481.333 200.833,481.5 95.5,482C 87.1887,484.322 79.522,487.989 72.5,493C 69.5,494 66.5,495 63.5,496C 53.2255,498.35 44.3922,495.85 37,488.5C 29.5938,478.103 28.5938,467.103 34,455.5C 37,450.5 40,445.5 43,440.5C 44.7435,437.043 45.7435,433.377 46,429.5C 46.1411,378.473 50.4744,327.807 59,277.5C 61.4853,261.736 64.9853,246.236 69.5,231C 193.667,230.167 317.667,230.334 441.5,231.5 Z"/></g>
<g><path style="opacity:1" fill="#00b3fb" d="M 441.5,231.5 C 450.993,266.786 457.16,302.786 460,339.5C 460.49,345.494 463.657,348.494 469.5,348.5C 469.283,353.23 469.617,357.897 470.5,362.5C 467.845,363.001 465.678,364.334 464,366.5C 463.833,387.501 464.167,408.501 465,429.5C 465.257,433.377 466.257,437.043 468,440.5C 471,445.5 474,450.5 477,455.5C 482.404,467.121 481.404,478.121 474,488.5C 464.014,496.9 452.847,498.733 440.5,494C 434.5,490.667 428.5,487.333 422.5,484C 418.888,482.85 415.222,482.017 411.5,481.5C 309.667,480.667 207.667,480.167 105.5,480C 100.275,473.106 95.4417,465.94 91,458.5C 71.5955,418.75 63.5955,376.75 67,332.5C 70.4347,297.875 77.9347,264.208 89.5,231.5C 206.833,231.5 324.167,231.5 441.5,231.5 Z"/></g>
<g><path style="opacity:1" fill="#010305" d="M 100.5,302.5 C 113.355,301.285 124.522,304.952 134,313.5C 135.955,321.791 132.788,325.291 124.5,324C 119.448,320.137 113.781,317.971 107.5,317.5C 99.4492,317.054 95.6158,320.72 96,328.5C 96.3742,329.416 96.8742,330.25 97.5,331C 107.782,334.758 117.782,339.091 127.5,344C 141.527,358.404 140.527,371.737 124.5,384C 106.803,391.256 91.3025,388.09 78,374.5C 75.2036,368.093 77.2036,364.093 84,362.5C 85.6268,362.625 87.1268,363.125 88.5,364C 97.0932,373.541 107.093,375.541 118.5,370C 123.833,365.333 123.833,360.667 118.5,356C 109.167,352 99.8333,348 90.5,344C 79.8169,335.756 77.6502,325.589 84,313.5C 88.3558,307.92 93.8558,304.253 100.5,302.5 Z"/></g>
<g><path style="opacity:1" fill="#010406" d="M 149.5,302.5 C 154.28,301.641 157.78,303.308 160,307.5C 160.333,326.167 160.667,344.833 161,363.5C 169.254,374.903 179.088,376.403 190.5,368C 192.102,366.065 193.269,363.899 194,361.5C 194.333,343.167 194.667,324.833 195,306.5C 198.958,301.564 203.291,301.231 208,305.5C 209.641,324.41 209.974,343.41 209,362.5C 206.194,375.973 198.027,384.14 184.5,387C 166.031,389.85 153.198,382.684 146,365.5C 145.333,345.833 145.333,326.167 146,306.5C 147.376,305.295 148.542,303.962 149.5,302.5 Z"/></g>
<g><path style="opacity:1" fill="#010305" d="M 251.5,302.5 C 263.373,301.386 274.373,303.886 284.5,310C 288.514,317.049 286.68,321.549 279,323.5C 274.935,321.553 270.768,319.72 266.5,318C 241.675,316.827 230.508,328.66 233,353.5C 240.069,370.286 252.236,376.12 269.5,371C 272.562,369.939 275.062,368.106 277,365.5C 279.107,361.619 280.941,357.619 282.5,353.5C 276.862,352.67 271.196,352.17 265.5,352C 259.925,346.885 260.258,342.219 266.5,338C 275.167,337.333 283.833,337.333 292.5,338C 294.286,338.785 295.786,339.951 297,341.5C 298.055,374.447 282.221,389.614 249.5,387C 225.367,378.242 214.867,361.075 218,335.5C 223.113,318.219 234.28,307.219 251.5,302.5 Z"/></g>
<g><path style="opacity:1" fill="#010304" d="M 349.5,372.5 C 344.376,371.171 338.876,370.505 333,370.5C 327.323,370.501 321.823,370.834 316.5,371.5C 314.719,375.744 312.885,380.077 311,384.5C 308.091,387.394 304.591,388.227 300.5,387C 297.806,384.347 296.973,381.18 298,377.5C 306.47,354.422 315.137,331.422 324,308.5C 327.892,302.043 333.058,300.876 339.5,305C 349.074,328.652 358.24,352.485 367,376.5C 368.833,385.333 365.333,388.833 356.5,387C 353.497,382.491 351.164,377.658 349.5,372.5 Z"/></g>
<g><path style="opacity:1" fill="#000203" d="M 385.5,302.5 C 394.839,302.334 404.173,302.5 413.5,303C 431.498,309.162 437.664,321.328 432,339.5C 427.6,346.564 421.433,351.398 413.5,354C 420.706,361.537 427.54,369.371 434,377.5C 434.568,386.818 430.402,389.651 421.5,386C 413.333,376.5 405.167,367 397,357.5C 396.667,365.833 396.333,374.167 396,382.5C 393.565,387.224 389.731,388.724 384.5,387C 384,386.5 383.5,386 383,385.5C 381.352,359.254 381.018,332.92 382,306.5C 383.376,305.295 384.542,303.962 385.5,302.5 Z"/></g>
<g><path style="opacity:1" fill="#00b0f8" d="M 396.5,317.5 C 402.262,317.149 407.928,317.649 413.5,319C 421.092,324.508 421.425,330.508 414.5,337C 408.762,339.295 402.762,340.128 396.5,339.5C 396.5,332.167 396.5,324.833 396.5,317.5 Z"/></g>
<g><path style="opacity:1" fill="#00adf4" d="M 332.5,328.5 C 336.601,337.128 339.934,346.128 342.5,355.5C 335.8,355.83 329.134,355.497 322.5,354.5C 325.849,345.808 329.183,337.141 332.5,328.5 Z"/></g>
<g><path style="opacity:1" fill="#0082b8" d="M 316.5,371.5 C 321.823,370.834 327.323,370.501 333,370.5C 338.876,370.505 344.376,371.171 349.5,372.5C 338.581,371.523 327.581,371.19 316.5,371.5 Z"/></g>
</svg>
