<?xml version="1.0" encoding="UTF-8"?>
<!DOCTYPE svg PUBLIC "-//W3C//DTD SVG 1.1//EN" "http://www.w3.org/Graphics/SVG/1.1/DTD/svg11.dtd">
<svg xmlns="http://www.w3.org/2000/svg" version="1.1" width="512px" height="512px" style="shape-rendering:geometricPrecision; text-rendering:geometricPrecision; image-rendering:optimizeQuality; fill-rule:evenodd; clip-rule:evenodd" xmlns:xlink="http://www.w3.org/1999/xlink">
<g><path style="opacity:0.977" fill="#000000" d="M 511.5,41.5 C 511.5,47.8333 511.5,54.1667 511.5,60.5C 503.28,84.671 486.28,95.671 460.5,93.5C 460.667,175.834 460.5,258.167 460,340.5C 450.598,411.873 413.098,462.04 347.5,491C 317.754,501.676 287.087,505.843 255.5,503.5C 187.514,509.029 131.681,486.029 88,434.5C 66.851,406.734 54.5176,375.401 51,340.5C 50.5,258.167 50.3333,175.834 50.5,93.5C 24.7197,95.671 7.71974,84.671 -0.5,60.5C -0.5,54.1667 -0.5,47.8333 -0.5,41.5C 4.53999,22.9631 16.54,11.7965 35.5,8C 182.167,7.33333 328.833,7.33333 475.5,8C 494.46,11.7965 506.46,22.9631 511.5,41.5 Z"/></g>
<g><path style="opacity:1" fill="#81592b" d="M 39.5,25.5 C 181.834,25.3333 324.167,25.5 466.5,26C 480.81,41.9556 481.144,58.2889 467.5,75C 323.834,75.5 180.167,75.6667 36.5,75.5C 20.1525,69.8101 13.9858,58.4768 18,41.5C 22.2087,32.1499 29.3754,26.8166 39.5,25.5 Z"/></g>
<g><path style="opacity:1" fill="#583d1d" d="M 39.5,25.5 C 183.333,24.3339 327.333,24.1672 471.5,25C 488.205,28.9049 495.705,39.4049 494,56.5C 490.736,66.7647 483.902,73.2647 473.5,76C 327.666,76.8328 181.999,76.6661 36.5,75.5C 180.167,75.6667 323.834,75.5 467.5,75C 481.144,58.2889 480.81,41.9556 466.5,26C 324.167,25.5 181.834,25.3333 39.5,25.5 Z"/></g>
<g><path style="opacity:1" fill="#9f512c" d="M 426.5,93.5 C 426.667,173.167 426.5,252.834 426,332.5C 420.05,398.793 387.883,447.459 329.5,478.5C 319.348,481.454 309.015,483.621 298.5,485C 269.167,485.667 239.833,485.667 210.5,485C 143.452,473.742 98.2856,436.242 75,372.5C 71.3773,360.1 69.0439,347.433 68,334.5C 67.5,254.167 67.3333,173.834 67.5,93.5C 187.167,93.5 306.833,93.5 426.5,93.5 Z"/></g>
<g><path style="opacity:1" fill="#763d21" d="M 426.5,93.5 C 432.167,93.5 437.833,93.5 443.5,93.5C 443.667,173.501 443.5,253.501 443,333.5C 435.13,405.511 397.297,453.845 329.5,478.5C 387.883,447.459 420.05,398.793 426,332.5C 426.5,252.834 426.667,173.167 426.5,93.5 Z"/></g>
<g><path style="opacity:1" fill="#030200" d="M 341.5,110.5 C 365.99,110.331 379.324,122.331 381.5,146.5C 399.803,146.968 411.637,155.968 417,173.5C 418.479,184.112 416.145,193.778 410,202.5C 393.9,217.595 378.9,233.595 365,250.5C 357.452,258.663 349.286,265.996 340.5,272.5C 355.581,283.414 368.081,296.748 378,312.5C 384.369,322.273 385.703,332.606 382,343.5C 378.694,349.911 373.528,354.078 366.5,356C 342.518,360.24 319.684,356.74 298,345.5C 295.848,366.289 289.514,385.623 279,403.5C 263.282,422.042 247.615,422.042 232,403.5C 229.299,398.659 226.465,393.992 223.5,389.5C 209.985,402.849 196.318,416.015 182.5,429C 160.614,439.925 143.78,434.758 132,413.5C 130.364,408.625 129.531,403.625 129.5,398.5C 112.517,398.267 101.017,390.267 95,374.5C 91.5485,362.786 93.5485,352.119 101,342.5C 117.432,327.072 132.766,310.738 147,293.5C 154.71,286.286 162.543,279.286 170.5,272.5C 156.132,261.965 143.965,249.298 134,234.5C 119.126,205.241 127.959,189.241 160.5,186.5C 178.695,187.382 196.028,191.715 212.5,199.5C 214.474,183.607 218.641,168.274 225,153.5C 230.11,142.057 238.276,133.557 249.5,128C 261.408,126.534 270.908,130.701 278,140.5C 281.181,145.536 284.347,150.536 287.5,155.5C 299.986,143.514 312.319,131.348 324.5,119C 329.712,115.061 335.379,112.227 341.5,110.5 Z"/></g>
<g><path style="opacity:1" fill="#6a3f21" d="M 307.5,195.5 C 318.798,183.702 330.298,172.035 342,160.5C 348.851,150.68 349.184,140.68 343,130.5C 341.989,129.663 340.822,129.33 339.5,129.5C 350.399,124.688 358.566,127.688 364,138.5C 365.519,145.184 364.186,151.184 360,156.5C 349.167,167.333 338.333,178.167 327.5,189C 320.711,190.874 314.045,193.041 307.5,195.5 Z"/></g>
<g><path style="opacity:1" fill="#8f542c" d="M 339.5,129.5 C 340.822,129.33 341.989,129.663 343,130.5C 349.184,140.68 348.851,150.68 342,160.5C 330.298,172.035 318.798,183.702 307.5,195.5C 304.286,196.689 301.12,198.023 298,199.5C 296.795,190.742 295.461,182.075 294,173.5C 308.731,158.267 323.898,143.6 339.5,129.5 Z"/></g>
<g><path style="opacity:1" fill="#f6d232" d="M 262.5,199.5 C 262.233,181.787 257.567,165.12 248.5,149.5C 252.602,143.322 257.269,142.989 262.5,148.5C 269.526,157.395 274.359,167.395 277,178.5C 282.441,197.762 282.774,217.095 278,236.5C 273.486,234.108 268.819,232.108 264,230.5C 263.809,220.09 263.309,209.757 262.5,199.5 Z"/></g>
<g><path style="opacity:1" fill="#fbe739" d="M 248.5,149.5 C 257.567,165.12 262.233,181.787 262.5,199.5C 256.017,193.463 251.017,194.463 247.5,202.5C 246.81,212.068 246.143,221.735 245.5,231.5C 240.956,232.188 236.789,233.854 233,236.5C 226.616,208.291 229.949,181.291 243,155.5C 244.331,153.004 246.164,151.004 248.5,149.5 Z"/></g>
<g><path style="opacity:1" fill="#6b3f21" d="M 377.5,195.5 C 381.807,191.61 383.807,186.61 383.5,180.5C 383.659,175.811 382.493,171.478 380,167.5C 379.184,166.177 378.017,165.511 376.5,165.5C 384.903,162.235 392.07,164.235 398,171.5C 401.432,178.305 401.098,184.972 397,191.5C 392.652,196.015 388.152,200.349 383.5,204.5C 382.237,200.964 380.237,197.964 377.5,195.5 Z"/></g>
<g><path style="opacity:1" fill="#8f552c" d="M 376.5,165.5 C 378.017,165.511 379.184,166.177 380,167.5C 382.493,171.478 383.659,175.811 383.5,180.5C 383.807,186.61 381.807,191.61 377.5,195.5C 370.828,190.104 363.161,186.938 354.5,186C 361.402,178.594 368.735,171.761 376.5,165.5 Z"/></g>
<g><path style="opacity:1" fill="#fbdc00" d="M 152.5,203.5 C 173.912,202.853 193.912,207.853 212.5,218.5C 213.863,229.976 215.863,241.309 218.5,252.5C 207.654,253.726 197.487,257.06 188,262.5C 168.157,251.658 153.49,235.991 144,215.5C 143.153,212.412 143.653,209.579 145.5,207C 147.925,205.787 150.259,204.621 152.5,203.5 Z"/></g>
<g><path style="opacity:1" fill="#746b1a" d="M 247.5,202.5 C 248.14,212.558 247.473,222.225 245.5,231.5C 246.143,221.735 246.81,212.068 247.5,202.5 Z"/></g>
<g><path style="opacity:1" fill="#fcdc00" d="M 340.5,204.5 C 343.187,204.336 345.854,204.503 348.5,205C 351.127,211.647 350.627,218.147 347,224.5C 339.527,238.141 329.694,249.807 317.5,259.5C 309.452,256.151 301.119,253.817 292.5,252.5C 295.131,241.303 297.131,229.969 298.5,218.5C 311.486,210.838 325.486,206.171 340.5,204.5 Z"/></g>
<g><path style="opacity:1" fill="#f7bc07" d="M 340.5,204.5 C 346.319,203.347 352.319,203.181 358.5,204C 367.799,206.511 369.966,212.011 365,220.5C 354.987,238.513 340.987,252.513 323,262.5C 320.88,261.86 319.046,260.86 317.5,259.5C 329.694,249.807 339.527,238.141 347,224.5C 350.627,218.147 351.127,211.647 348.5,205C 345.854,204.503 343.187,204.336 340.5,204.5 Z"/></g>
<g><path style="opacity:1" fill="#fc9601" d="M 251.5,247.5 C 256.388,250.553 259.888,254.886 262,260.5C 265.294,272.328 263.627,283.328 257,293.5C 255.549,295.464 253.716,296.797 251.5,297.5C 237.952,294.788 230.619,286.455 229.5,272.5C 230.615,258.558 237.948,250.225 251.5,247.5 Z"/></g>
<g><path style="opacity:1" fill="#ed7800" d="M 251.5,247.5 C 268.773,246.348 278.773,254.514 281.5,272C 279.367,290.183 269.367,298.683 251.5,297.5C 253.716,296.797 255.549,295.464 257,293.5C 263.627,283.328 265.294,272.328 262,260.5C 259.888,254.886 256.388,250.553 251.5,247.5 Z"/></g>
<g><path style="opacity:1" fill="#fae739" d="M 208.5,271.5 C 209.833,271.5 211.167,271.5 212.5,271.5C 213.498,276.476 213.998,281.476 214,286.5C 206.085,290.874 198.252,295.374 190.5,300C 185.904,306.086 186.904,311.086 193.5,315C 195.167,315.667 196.833,315.667 198.5,315C 206.833,310.167 215.167,305.333 223.5,300.5C 227.183,304.18 231.183,307.514 235.5,310.5C 211.833,331.446 184.166,341.612 152.5,341C 145.378,340.223 142.544,336.39 144,329.5C 150.817,314.677 160.65,302.177 173.5,292C 184.309,283.599 195.975,276.766 208.5,271.5 Z"/></g>
<g><path style="opacity:1" fill="#f8d333" d="M 348.5,341.5 C 350.231,337.318 350.731,332.984 350,328.5C 347.721,321.276 344.388,314.609 340,308.5C 328.668,293.652 314.835,281.985 298.5,273.5C 298.47,272.503 298.97,271.836 300,271.5C 329.011,281.519 351.011,299.852 366,326.5C 369.068,332.695 367.568,337.195 361.5,340C 357.249,341.195 352.915,341.695 348.5,341.5 Z"/></g>
<g><path style="opacity:1" fill="#fbe739" d="M 298.5,273.5 C 314.835,281.985 328.668,293.652 340,308.5C 344.388,314.609 347.721,321.276 350,328.5C 350.731,332.984 350.231,337.318 348.5,341.5C 320.705,339.13 296.371,328.796 275.5,310.5C 279.817,307.514 283.817,304.18 287.5,300.5C 295.833,305.333 304.167,310.167 312.5,315C 321.872,314.953 325.039,310.453 322,301.5C 313.998,295.997 305.665,290.997 297,286.5C 296.683,282.09 297.183,277.757 298.5,273.5 Z"/></g>
<g><path style="opacity:1" fill="#fabe07" d="M 247.5,395.5 C 252.411,388.985 255.911,381.651 258,373.5C 262.347,359.429 263.847,345.095 262.5,330.5C 257.873,327.865 253.54,324.865 249.5,321.5C 250.748,317.395 253.415,315.562 257.5,316C 264.063,323.562 271.563,330.062 280,335.5C 280.517,355.766 275.85,374.766 266,392.5C 263.74,397.092 260.074,399.759 255,400.5C 251.896,399.701 249.396,398.034 247.5,395.5 Z"/></g>
<g><path style="opacity:1" fill="#fddd00" d="M 249.5,321.5 C 253.54,324.865 257.873,327.865 262.5,330.5C 263.847,345.095 262.347,359.429 258,373.5C 255.911,381.651 252.411,388.985 247.5,395.5C 240.523,385.536 235.689,374.536 233,362.5C 231.257,353.562 230.59,344.562 231,335.5C 237.611,331.385 243.777,326.719 249.5,321.5 Z"/></g>
<g><path style="opacity:1" fill="#8d532b" d="M 126.5,340.5 C 133.285,351.568 143.285,357.901 156.5,359.5C 150.317,366.517 143.65,373.017 136.5,379C 122.119,384.311 113.452,379.478 110.5,364.5C 110.507,360.481 111.673,356.815 114,353.5C 118.37,349.298 122.537,344.964 126.5,340.5 Z"/></g>
<g><path style="opacity:1" fill="#8f552c" d="M 211.5,345.5 C 212.693,345.97 213.36,346.97 213.5,348.5C 215.166,356.143 216.333,363.81 217,371.5C 202.5,386 188,400.5 173.5,415C 161.747,421.193 152.914,418.36 147,406.5C 145.932,401.232 146.599,396.232 149,391.5C 160.833,379.667 172.667,367.833 184.5,356C 193.943,353.358 202.943,349.858 211.5,345.5 Z"/></g>
</svg>
