<?xml version="1.0" encoding="UTF-8"?>
<!DOCTYPE svg PUBLIC "-//W3C//DTD SVG 1.1//EN" "http://www.w3.org/Graphics/SVG/1.1/DTD/svg11.dtd">
<svg xmlns="http://www.w3.org/2000/svg" version="1.1" width="512px" height="512px" style="shape-rendering:geometricPrecision; text-rendering:geometricPrecision; image-rendering:optimizeQuality; fill-rule:evenodd; clip-rule:evenodd" xmlns:xlink="http://www.w3.org/1999/xlink">
<g><path style="opacity:0.987" fill="#232222" d="M 174.5,17.5 C 199.822,14.4328 219.989,23.0995 235,43.5C 252.185,27.9145 272.018,23.4145 294.5,30C 319.159,40.0024 332.159,58.3357 333.5,85C 333.365,102.424 326.865,116.924 314,128.5C 313.333,156.833 313.333,185.167 314,213.5C 326.667,227.833 326.667,242.167 314,256.5C 313.667,271.833 313.333,287.167 313,302.5C 308.95,324.884 295.783,338.384 273.5,343C 264.5,343.333 255.5,343.667 246.5,344C 251.858,347.027 255.858,351.36 258.5,357C 271.761,361.53 284.594,367.03 297,373.5C 302.433,342.398 320.267,322.232 350.5,313C 377.167,307 403.833,307 430.5,313C 463.757,322.905 481.257,345.072 483,379.5C 477.394,402.425 471.56,425.259 465.5,448C 474.654,448.315 480.488,452.815 483,461.5C 483.667,467.833 483.667,474.167 483,480.5C 481.564,486.87 477.731,491.037 471.5,493C 327.5,493.667 183.5,493.667 39.5,493C 33.2689,491.037 29.4356,486.87 28,480.5C 22.0559,415.864 50.2226,374.697 112.5,357C 115.142,351.36 119.142,347.027 124.5,344C 115.5,343.667 106.5,343.333 97.5,343C 75.2169,338.384 62.0502,324.884 58,302.5C 57.6667,287.167 57.3333,271.833 57,256.5C 44.3333,242.167 44.3333,227.833 57,213.5C 57.6667,185.167 57.6667,156.833 57,128.5C 38.567,110.519 33.2337,89.1859 41,64.5C 53.7952,36.3479 75.6285,24.1812 106.5,28C 117.972,30.1514 127.805,35.3181 136,43.5C 145.649,29.939 158.482,21.2724 174.5,17.5 Z"/></g>
<g><path style="opacity:1" fill="#f0e7db" d="M 298.5,123.5 C 297.504,138.658 297.17,153.991 297.5,169.5C 234.499,169.667 171.499,169.5 108.5,169C 102.18,166.014 98.0133,161.181 96,154.5C 95.6667,144.5 95.3333,134.5 95,124.5C 78.4653,110.565 72.4653,92.8984 77,71.5C 80.1602,62.0181 85.3269,53.8514 92.5,47C 95.0722,44.7132 98.0722,43.5465 101.5,43.5C 115.639,45.409 126.305,52.5757 133.5,65C 137.388,67.2225 140.888,66.7225 144,63.5C 152.434,41.0704 168.601,30.9038 192.5,33C 209.613,36.7779 221.113,46.9446 227,63.5C 230.077,66.8091 233.577,67.3091 237.5,65C 254.468,40.7597 275.801,36.093 301.5,51C 317.183,64.3899 321.683,80.8899 315,100.5C 311.905,108.763 306.739,115.429 299.5,120.5C 298.873,121.417 298.539,122.417 298.5,123.5 Z"/></g>
<g><path style="opacity:1" fill="#ecd8c4" d="M 101.5,43.5 C 98.0722,43.5465 95.0722,44.7132 92.5,47C 85.3269,53.8514 80.1602,62.0181 77,71.5C 72.4653,92.8984 78.4653,110.565 95,124.5C 95.3333,134.5 95.6667,144.5 96,154.5C 98.0133,161.181 102.18,166.014 108.5,169C 171.499,169.5 234.499,169.667 297.5,169.5C 297.17,153.991 297.504,138.658 298.5,123.5C 298.5,141.5 298.5,159.5 298.5,177.5C 223.167,177.5 147.833,177.5 72.5,177.5C 72.6666,158.83 72.4999,140.164 72,121.5C 51.1187,103.225 47.7854,82.225 62,58.5C 72.5183,45.9714 85.685,40.9714 101.5,43.5 Z"/></g>
<g><path style="opacity:1" fill="#6a6a70" d="M 72.5,192.5 C 82.8333,192.5 93.1667,192.5 103.5,192.5C 103.666,201.506 103.5,210.506 103,219.5C 98.3971,214.896 93.2304,211.062 87.5,208C 82.5111,207.501 77.5111,207.334 72.5,207.5C 72.5,202.5 72.5,197.5 72.5,192.5 Z"/></g>
<g><path style="opacity:1" fill="#fdc87f" d="M 105.5,290.5 C 104.868,272.264 105.534,254.264 107.5,236.5C 111.912,235.93 115.078,233.597 117,229.5C 117.5,217.171 117.667,204.838 117.5,192.5C 162.833,192.5 208.167,192.5 253.5,192.5C 253.333,204.838 253.5,217.171 254,229.5C 257.655,236.07 263.155,238.237 270.5,236C 273,234.167 275.5,232.333 278,230.5C 278.848,243.205 278.515,255.871 277,268.5C 273.434,282.065 265.934,292.898 254.5,301C 237.167,309.667 219.833,318.333 202.5,327C 191.935,331.136 181.268,331.47 170.5,328C 152.5,319 134.5,310 116.5,301C 112.332,297.998 108.665,294.498 105.5,290.5 Z"/></g>
<g><path style="opacity:1" fill="#6c6c73" d="M 267.5,192.5 C 277.833,192.5 288.167,192.5 298.5,192.5C 298.5,197.5 298.5,202.5 298.5,207.5C 293.156,207.334 287.823,207.501 282.5,208C 277.576,211.713 272.742,215.546 268,219.5C 267.5,210.506 267.334,201.506 267.5,192.5 Z"/></g>
<g><path style="opacity:1" fill="#2b2a29" d="M 371.5,218.5 C 382.541,218.056 386.041,223.056 382,233.5C 379.284,237.77 376.451,241.937 373.5,246C 375.653,248.822 377.819,251.656 380,254.5C 385.939,266.033 383.939,276.033 374,284.5C 373.048,292.124 368.882,294.957 361.5,293C 357.047,288.584 356.213,283.417 359,277.5C 361.961,273.738 364.794,269.905 367.5,266C 365.347,263.178 363.181,260.344 361,257.5C 355.063,245.913 357.063,235.913 367,227.5C 367.333,225.833 367.667,224.167 368,222.5C 369.376,221.295 370.542,219.962 371.5,218.5 Z"/></g>
<g><path style="opacity:1" fill="#2b2a29" d="M 411.5,218.5 C 422.541,218.056 426.041,223.056 422,233.5C 419.284,237.77 416.451,241.937 413.5,246C 415.653,248.822 417.819,251.656 420,254.5C 425.939,266.033 423.939,276.033 414,284.5C 413.048,292.124 408.882,294.957 401.5,293C 397.047,288.584 396.213,283.417 399,277.5C 401.961,273.738 404.794,269.905 407.5,266C 405.347,263.178 403.181,260.344 401,257.5C 395.063,245.913 397.063,235.913 407,227.5C 407.333,225.833 407.667,224.167 408,222.5C 409.376,221.295 410.542,219.962 411.5,218.5 Z"/></g>
<g><path style="opacity:1" fill="#f2bd78" d="M 292.5,222.5 C 304.359,222.231 309.192,227.898 307,239.5C 304.191,245.619 299.358,248.286 292.5,247.5C 292.5,239.167 292.5,230.833 292.5,222.5 Z"/></g>
<g><path style="opacity:1" fill="#f2bd78" d="M 71.5,222.5 C 73.8333,222.5 76.1667,222.5 78.5,222.5C 78.5,230.833 78.5,239.167 78.5,247.5C 66.3505,247.573 61.5172,241.573 64,229.5C 66.0147,226.588 68.5147,224.255 71.5,222.5 Z"/></g>
<g><path style="opacity:1" fill="#2a2826" d="M 142.5,229.5 C 149.503,229.339 153.003,232.672 153,239.5C 150.565,244.224 146.731,245.724 141.5,244C 136.147,238.871 136.48,234.038 142.5,229.5 Z"/></g>
<g><path style="opacity:1" fill="#2a2826" d="M 222.5,229.5 C 229.503,229.339 233.003,232.672 233,239.5C 230.565,244.224 226.731,245.724 221.5,244C 216.147,238.871 216.48,234.038 222.5,229.5 Z"/></g>
<g><path style="opacity:1" fill="#f0b56f" d="M 107.5,236.5 C 105.534,254.264 104.868,272.264 105.5,290.5C 99.8617,284.228 96.0284,276.894 94,268.5C 92.4851,255.871 92.1518,243.205 93,230.5C 96.7456,235.123 101.579,237.123 107.5,236.5 Z"/></g>
<g><path style="opacity:1" fill="#646469" d="M 86.5,289.5 C 84.1056,304.469 88.7723,316.969 100.5,327C 105.833,327.167 111.167,327.333 116.5,327.5C 122.211,327.495 127.544,326.828 132.5,325.5C 133.404,326.209 133.737,327.209 133.5,328.5C 122.162,328.667 110.828,328.5 99.5,328C 85.6399,324.807 77.1399,316.307 74,302.5C 73.5001,289.171 73.3334,275.837 73.5,262.5C 75.1667,262.5 76.8333,262.5 78.5,262.5C 79.1548,272.124 81.8215,281.124 86.5,289.5 Z"/></g>
<g><path style="opacity:1" fill="#6d6d73" d="M 292.5,262.5 C 294.5,262.5 296.5,262.5 298.5,262.5C 298.667,274.838 298.5,287.171 298,299.5C 295.283,315.217 286.117,324.717 270.5,328C 259.505,328.5 248.505,328.667 237.5,328.5C 237.5,327.5 237.5,326.5 237.5,325.5C 260.934,318.898 277.768,304.564 288,282.5C 290.449,276.037 291.949,269.37 292.5,262.5 Z"/></g>
<g><path style="opacity:1" fill="#6f6f75" d="M 86.5,289.5 C 97.3803,307.031 112.714,319.031 132.5,325.5C 127.544,326.828 122.211,327.495 116.5,327.5C 111.167,327.333 105.833,327.167 100.5,327C 88.7723,316.969 84.1056,304.469 86.5,289.5 Z"/></g>
<g><path style="opacity:1" fill="#f7c830" d="M 331.5,382.5 C 327.285,375.329 326.452,367.663 329,359.5C 334.244,345.271 343.411,334.604 356.5,327.5C 382.803,321.306 408.803,322.472 434.5,331C 455.484,340.108 466.151,355.942 466.5,378.5C 455.265,373.546 444.932,375.046 435.5,383C 433.419,383.869 431.253,384.369 429,384.5C 422.653,382.408 416.486,379.908 410.5,377C 405.167,376.333 399.833,376.333 394.5,377C 389.294,380.604 383.628,383.104 377.5,384.5C 376.167,384.333 374.833,384.167 373.5,384C 366.911,379.204 359.578,376.371 351.5,375.5C 348.468,375.806 345.468,376.306 342.5,377C 338.78,378.86 335.114,380.693 331.5,382.5 Z"/></g>
<g><path style="opacity:1" fill="#f1a530" d="M 356.5,327.5 C 343.411,334.604 334.244,345.271 329,359.5C 326.452,367.663 327.285,375.329 331.5,382.5C 325.676,385.537 320.176,384.871 315,380.5C 312.945,373.32 313.611,366.32 317,359.5C 325.049,342.554 338.216,331.887 356.5,327.5 Z"/></g>
<g><path style="opacity:1" fill="#896b48" d="M 149.5,334.5 C 148.517,338.298 148.183,342.298 148.5,346.5C 147.189,342.317 147.189,337.984 148.5,333.5C 149.107,333.624 149.44,333.957 149.5,334.5 Z"/></g>
<g><path style="opacity:1" fill="#8b704d" d="M 221.5,334.5 C 221.56,333.957 221.893,333.624 222.5,333.5C 223.811,337.984 223.811,342.317 222.5,346.5C 222.817,342.298 222.483,338.298 221.5,334.5 Z"/></g>
<g><path style="opacity:1" fill="#f8c179" d="M 149.5,334.5 C 173.449,349.055 197.449,349.055 221.5,334.5C 222.483,338.298 222.817,342.298 222.5,346.5C 214.193,350.319 205.859,354.153 197.5,358C 190.273,360.809 182.939,361.142 175.5,359C 166.474,354.819 157.474,350.653 148.5,346.5C 148.183,342.298 148.517,338.298 149.5,334.5 Z"/></g>
<g><path style="opacity:1" fill="#292523" d="M 387.5,338.5 C 397.197,338.72 399.864,343.22 395.5,352C 386.319,355.325 382.485,352.158 384,342.5C 384.69,340.65 385.856,339.316 387.5,338.5 Z"/></g>
<g><path style="opacity:1" fill="#292523" d="M 357.5,348.5 C 367.197,348.72 369.864,353.22 365.5,362C 356.319,365.325 352.485,362.158 354,352.5C 354.69,350.65 355.856,349.316 357.5,348.5 Z"/></g>
<g><path style="opacity:1" fill="#292523" d="M 417.5,348.5 C 427.197,348.72 429.864,353.22 425.5,362C 416.319,365.325 412.485,362.158 414,352.5C 414.69,350.65 415.856,349.316 417.5,348.5 Z"/></g>
<g><path style="opacity:1" fill="#e64a31" d="M 131.5,357.5 C 133.527,357.338 135.527,357.505 137.5,358C 147.5,362.667 157.5,367.333 167.5,372C 164.975,375.186 162.475,378.353 160,381.5C 149.774,376.97 139.607,372.304 129.5,367.5C 127.859,363.63 128.526,360.297 131.5,357.5 Z"/></g>
<g><path style="opacity:1" fill="#e54a31" d="M 233.5,357.5 C 241.019,357.015 243.686,360.349 241.5,367.5C 231.393,372.304 221.226,376.97 211,381.5C 208.525,378.353 206.025,375.186 203.5,372C 213.525,367.057 223.525,362.223 233.5,357.5 Z"/></g>
<g><path style="opacity:1" fill="#ead7c2" d="M 78.5,454.5 C 77.5111,459.975 77.1778,465.642 77.5,471.5C 71.7823,471.402 67.949,468.735 66,463.5C 65.5,442.836 65.3334,422.169 65.5,401.5C 69.968,395.873 75.3013,391.039 81.5,387C 91.5897,381.526 102.09,377.026 113,373.5C 116.505,378.009 121.005,381.176 126.5,383C 118.304,384.539 112.471,389.039 109,396.5C 108.5,423.831 108.333,451.165 108.5,478.5C 103.167,478.5 97.8333,478.5 92.5,478.5C 92.8056,469.446 92.4722,460.446 91.5,451.5C 85.7579,446.842 81.4246,447.842 78.5,454.5 Z"/></g>
<g><path style="opacity:1" fill="#efe6da" d="M 278.5,454.5 C 277.512,459.64 277.179,464.974 277.5,470.5C 226.167,470.5 174.833,470.5 123.5,470.5C 123.5,447.5 123.5,424.5 123.5,401.5C 129.7,397.909 136.366,395.076 143.5,393C 145.728,392.18 147.728,392.513 149.5,394C 146.988,397.858 145.155,402.025 144,406.5C 143.333,415.167 143.333,423.833 144,432.5C 145.814,439.666 150.314,442.833 157.5,442C 168.251,438.795 177.585,433.295 185.5,425.5C 194.707,434.77 205.707,440.27 218.5,442C 223.071,440.427 225.904,437.26 227,432.5C 227.667,423.833 227.667,415.167 227,406.5C 225.845,402.025 224.012,397.858 221.5,394C 231.68,388.744 242.014,383.744 252.5,379C 254.355,377.145 256.188,375.312 258,373.5C 274.764,378.379 289.764,386.379 303,397.5C 307.953,414.314 312.12,431.314 315.5,448.5C 308.741,448.795 303.574,451.795 300,457.5C 298.575,464.385 298.075,471.385 298.5,478.5C 296.5,478.5 294.5,478.5 292.5,478.5C 292.806,469.446 292.472,460.446 291.5,451.5C 285.758,446.842 281.425,447.842 278.5,454.5 Z"/></g>
<g><path style="opacity:1" fill="#d13a2a" d="M 182.5,379.5 C 194.011,379.873 198.178,385.54 195,396.5C 190.752,401.596 185.585,402.763 179.5,400C 172.072,391.824 173.072,384.991 182.5,379.5 Z"/></g>
<g><path style="opacity:1" fill="#d68444" d="M 343.5,448.5 C 339.656,432.126 335.656,415.792 331.5,399.5C 337.131,397.404 342.464,394.57 347.5,391C 350.928,390.299 354.262,390.632 357.5,392C 365.103,398.2 373.77,400.533 383.5,399C 389.971,396.012 396.471,393.179 403,390.5C 405.253,390.631 407.419,391.131 409.5,392C 418.789,399.877 429.123,401.544 440.5,397C 444.931,393.894 449.764,391.728 455,390.5C 458.444,390.64 461.277,391.973 463.5,394.5C 458.677,412.123 454.011,429.79 449.5,447.5C 414.173,448.5 378.84,448.833 343.5,448.5 Z"/></g>
<g><path style="opacity:1" fill="#cd773d" d="M 331.5,399.5 C 335.656,415.792 339.656,432.126 343.5,448.5C 339.003,449.055 334.836,448.389 331,446.5C 327.006,430.856 323.172,415.19 319.5,399.5C 323.5,399.5 327.5,399.5 331.5,399.5 Z"/></g>
<g><path style="opacity:1" fill="#ddc8b6" d="M 65.5,401.5 C 65.3334,422.169 65.5,442.836 66,463.5C 67.949,468.735 71.7823,471.402 77.5,471.5C 77.1778,465.642 77.5111,459.975 78.5,454.5C 78.5,462.5 78.5,470.5 78.5,478.5C 66.4143,479.133 54.581,478.466 43,476.5C 40.1723,454.949 43.839,434.616 54,415.5C 57.3198,410.353 61.1531,405.686 65.5,401.5 Z"/></g>
<g><path style="opacity:1" fill="#e14931" d="M 161.5,402.5 C 165.16,407.157 169.493,411.157 174.5,414.5C 170.303,419.517 165.137,423.183 159,425.5C 157.75,417.52 158.583,409.853 161.5,402.5 Z"/></g>
<g><path style="opacity:1" fill="#e14931" d="M 208.5,402.5 C 210.41,403.975 211.576,405.975 212,408.5C 212.83,414.196 212.663,419.863 211.5,425.5C 205.574,423.043 200.574,419.376 196.5,414.5C 201.521,411.479 205.521,407.479 208.5,402.5 Z"/></g>
<g><path style="opacity:1" fill="#8eb8c8" d="M 325.5,463.5 C 325.5,468.5 325.5,473.5 325.5,478.5C 321.445,478.824 317.445,478.491 313.5,477.5C 312.189,472.969 312.189,468.469 313.5,464C 317.486,463.501 321.486,463.334 325.5,463.5 Z"/></g>
<g><path style="opacity:1" fill="#abd0e3" d="M 325.5,463.5 C 372.501,463.333 419.501,463.5 466.5,464C 467.743,465.87 468.41,468.036 468.5,470.5C 468.333,472.5 468.167,474.5 468,476.5C 467.5,477 467,477.5 466.5,478C 419.501,478.5 372.501,478.667 325.5,478.5C 325.5,473.5 325.5,468.5 325.5,463.5 Z"/></g>
<g><path style="opacity:1" fill="#e7d4c0" d="M 123.5,401.5 C 123.5,424.5 123.5,447.5 123.5,470.5C 174.833,470.5 226.167,470.5 277.5,470.5C 277.179,464.974 277.512,459.64 278.5,454.5C 278.5,462.5 278.5,470.5 278.5,478.5C 226.5,478.5 174.5,478.5 122.5,478.5C 122.169,452.661 122.502,426.995 123.5,401.5 Z"/></g>
</svg>
