<?xml version="1.0" encoding="UTF-8"?>
<!DOCTYPE svg PUBLIC "-//W3C//DTD SVG 1.1//EN" "http://www.w3.org/Graphics/SVG/1.1/DTD/svg11.dtd">
<svg xmlns="http://www.w3.org/2000/svg" version="1.1" width="512px" height="512px" style="shape-rendering:geometricPrecision; text-rendering:geometricPrecision; image-rendering:optimizeQuality; fill-rule:evenodd; clip-rule:evenodd" xmlns:xlink="http://www.w3.org/1999/xlink">
<g><path style="opacity:0.939" fill="#000000" d="M 511.5,141.5 C 511.5,152.5 511.5,163.5 511.5,174.5C 508.798,180.528 504.132,183.862 497.5,184.5C 500.838,204.341 494.671,220.341 479,232.5C 478.5,305.166 478.333,377.833 478.5,450.5C 484.909,450.183 491.243,450.683 497.5,452C 502.428,453.927 505.594,457.427 507,462.5C 507.667,472.833 507.667,483.167 507,493.5C 505.5,499.667 501.667,503.5 495.5,505C 336.833,505.667 178.167,505.667 19.5,505C 14.4268,503.594 10.9268,500.428 9,495.5C 8.33333,484.167 8.33333,472.833 9,461.5C 10.1045,456.794 12.9378,453.627 17.5,452C 23.7688,450.743 30.1021,450.243 36.5,450.5C 36.6667,377.499 36.5,304.499 36,231.5C 25.1117,224.063 19.1117,213.73 18,200.5C 17.5006,195.177 17.334,189.844 17.5,184.5C 10.479,183.397 5.97898,179.397 4,172.5C 3.33333,162.833 3.33333,153.167 4,143.5C 7.77094,133.692 14.9376,129.692 25.5,131.5C 22.3163,118.099 18.8163,104.766 15,91.5C 7.76044,86.7698 2.59377,80.4364 -0.5,72.5C -0.5,67.1667 -0.5,61.8333 -0.5,56.5C 3.39013,44.7809 11.3901,37.2809 23.5,34C 36.265,10.0662 55.9316,1.39955 82.5,8C 87.2798,9.55574 91.6131,11.8891 95.5,15C 229.833,15.3333 364.167,15.6667 498.5,16C 501.773,16.9404 503.606,19.1071 504,22.5C 504.167,59.8378 504.667,97.1711 505.5,134.5C 508.219,136.307 510.219,138.64 511.5,141.5 Z M 62.5,21.5 C 73.7133,20.8613 83.2133,24.528 91,32.5C 94.21,37.4668 97.0434,42.6334 99.5,48C 110.384,48.2298 117.051,53.5631 119.5,64C 118.546,73.1072 113.546,77.9406 104.5,78.5C 99.9884,78.051 95.8217,76.7177 92,74.5C 87.3182,77.0923 82.4849,79.5923 77.5,82C 70.5,84 63.5,84 56.5,82C 51.8289,79.0819 46.9956,76.5819 42,74.5C 32.701,80.7124 24.3676,79.7124 17,71.5C 13.481,56.9903 19.3143,49.1569 34.5,48C 36.8485,43.9756 39.0151,39.809 41,35.5C 46.5162,28.167 53.6829,23.5004 62.5,21.5 Z M 109.5,32.5 C 235.666,31.5004 361.999,31.1671 488.5,31.5C 488.5,64.8333 488.5,98.1667 488.5,131.5C 417.833,131.333 347.166,131.5 276.5,132C 272.723,134.911 271.556,138.744 273,143.5C 274.214,145.049 275.714,146.215 277.5,147C 350.499,147.5 423.499,147.667 496.5,147.5C 496.5,154.5 496.5,161.5 496.5,168.5C 337.5,168.5 178.5,168.5 19.5,168.5C 19.5,161.5 19.5,154.5 19.5,147.5C 94.8341,147.667 170.167,147.5 245.5,147C 250.224,144.565 251.724,140.731 250,135.5C 248.786,133.951 247.286,132.785 245.5,132C 199.835,131.5 154.168,131.333 108.5,131.5C 111.688,118.433 115.188,105.433 119,92.5C 135.761,80.3702 139.428,65.0368 130,46.5C 124.357,39.9407 117.524,35.2741 109.5,32.5 Z M 160.5,62.5 C 163.187,62.3359 165.854,62.5026 168.5,63C 171.838,64.9879 172.172,67.3212 169.5,70C 166.518,70.498 163.518,70.6646 160.5,70.5C 160.5,67.8333 160.5,65.1667 160.5,62.5 Z M 386.5,62.5 C 390.839,61.8461 394.673,62.8461 398,65.5C 399.041,68.6363 398.207,71.1363 395.5,73C 392.518,73.498 389.518,73.6646 386.5,73.5C 386.5,69.8333 386.5,66.1667 386.5,62.5 Z M 227.5,76.5 C 228.79,77.0577 229.623,78.0577 230,79.5C 231.278,83.1653 232.444,86.832 233.5,90.5C 229.818,90.6653 226.152,90.4986 222.5,90C 224.31,85.5484 225.976,81.0484 227.5,76.5 Z M 160.5,86.5 C 164.182,86.3347 167.848,86.5014 171.5,87C 177.682,90.3024 178.015,93.969 172.5,98C 168.514,98.4988 164.514,98.6655 160.5,98.5C 160.5,94.5 160.5,90.5 160.5,86.5 Z M 40.5,92.5 C 58.0242,101.816 75.5242,101.816 93,92.5C 95.8766,93.4032 98.71,94.4032 101.5,95.5C 98.1667,107.167 94.8333,118.833 91.5,130.5C 75.1803,131.499 58.8469,131.833 42.5,131.5C 39.4809,119.425 36.1476,107.425 32.5,95.5C 35.2763,94.4852 37.9429,93.4852 40.5,92.5 Z M 33.5,184.5 C 54.1667,184.5 74.8333,184.5 95.5,184.5C 98.5512,208.428 88.2179,221.762 64.5,224.5C 40.8144,221.789 30.481,208.456 33.5,184.5 Z M 111.5,184.5 C 131.833,184.5 152.167,184.5 172.5,184.5C 175.639,208.175 165.473,221.508 142,224.5C 118.152,221.862 107.985,208.528 111.5,184.5 Z M 188.5,184.5 C 208.833,184.5 229.167,184.5 249.5,184.5C 252.946,200.368 247.946,212.535 234.5,221C 218.332,227.943 204.499,224.776 193,211.5C 188.915,202.993 187.415,193.993 188.5,184.5 Z M 265.5,184.5 C 286.167,184.5 306.833,184.5 327.5,184.5C 328.545,215.63 313.878,228.13 283.5,222C 268.446,214.067 262.446,201.567 265.5,184.5 Z M 343.5,184.5 C 363.833,184.5 384.167,184.5 404.5,184.5C 407.639,208.175 397.473,221.508 374,224.5C 350.152,221.862 339.985,208.528 343.5,184.5 Z M 420.5,184.5 C 440.833,184.5 461.167,184.5 481.5,184.5C 481.666,190.509 481.499,196.509 481,202.5C 476.135,216.682 466.135,224.016 451,224.5C 427.551,221.528 417.384,208.195 420.5,184.5 Z M 102.5,221.5 C 119.267,240.493 139.6,245.326 163.5,236C 169.886,232.451 175.553,227.951 180.5,222.5C 196.567,239.819 215.9,244.652 238.5,237C 245.853,233.478 252.186,228.644 257.5,222.5C 276.844,242.334 298.844,245.834 323.5,233C 328,229.833 331.833,226 335,221.5C 349.738,239.075 368.238,244.575 390.5,238C 399.026,234.567 406.359,229.4 412.5,222.5C 425.772,237.663 442.439,243.33 462.5,239.5C 462.5,309.833 462.5,380.167 462.5,450.5C 431.832,450.333 401.165,450.5 370.5,451C 364.37,452.414 362.204,456.247 364,462.5C 364.374,463.416 364.874,464.25 365.5,465C 407.415,466.489 449.415,466.989 491.5,466.5C 491.5,474.167 491.5,481.833 491.5,489.5C 335.833,489.5 180.167,489.5 24.5,489.5C 24.5,481.833 24.5,474.167 24.5,466.5C 128.834,466.667 233.167,466.5 337.5,466C 341.212,463.487 342.378,459.987 341,455.5C 339.934,452.437 337.767,450.937 334.5,451C 294.501,450.5 254.501,450.333 214.5,450.5C 214.985,390.454 214.485,330.454 213,270.5C 211.5,267.667 209.333,265.5 206.5,264C 164.833,263.333 123.167,263.333 81.5,264C 78.2716,265.563 76.1049,268.063 75,271.5C 74.5,331.166 74.3333,390.832 74.5,450.5C 67.1667,450.5 59.8333,450.5 52.5,450.5C 52.5,380.167 52.5,309.833 52.5,239.5C 67.7075,242.492 81.7075,239.659 94.5,231C 97.7768,228.234 100.443,225.067 102.5,221.5 Z M 90.5,278.5 C 126.5,278.5 162.5,278.5 198.5,278.5C 198.5,335.833 198.5,393.167 198.5,450.5C 162.5,450.5 126.5,450.5 90.5,450.5C 90.5,393.167 90.5,335.833 90.5,278.5 Z M 255.5,278.5 C 313.501,278.333 371.501,278.5 429.5,279C 430.416,279.374 431.25,279.874 432,280.5C 432.5,288.159 432.666,295.826 432.5,303.5C 416.865,302.38 401.199,302.213 385.5,303C 381.806,304.198 378.472,306.032 375.5,308.5C 372.112,306.139 368.446,304.306 364.5,303C 349.833,302.333 335.167,302.333 320.5,303C 316.621,304.189 313.121,306.022 310,308.5C 306.879,306.022 303.379,304.189 299.5,303C 283.801,302.213 268.135,302.38 252.5,303.5C 252.334,295.826 252.5,288.159 253,280.5C 253.995,279.934 254.828,279.267 255.5,278.5 Z M 119.5,312.5 C 136.167,312.5 152.833,312.5 169.5,312.5C 169.5,318.167 169.5,323.833 169.5,329.5C 152.833,329.5 136.167,329.5 119.5,329.5C 119.5,323.833 119.5,318.167 119.5,312.5 Z M 258.5,318.5 C 271.171,318.333 283.838,318.5 296.5,319C 298,320.5 299.5,322 301,323.5C 301.499,328.155 301.666,332.821 301.5,337.5C 285.167,337.5 268.833,337.5 252.5,337.5C 251.99,331.928 252.823,326.595 255,321.5C 256.145,320.364 257.312,319.364 258.5,318.5 Z M 323.5,318.5 C 336.171,318.333 348.838,318.5 361.5,319C 364.663,320.48 366.496,322.98 367,326.5C 367.499,330.152 367.665,333.818 367.5,337.5C 350.833,337.5 334.167,337.5 317.5,337.5C 316.291,329.959 318.291,323.626 323.5,318.5 Z M 389.5,318.5 C 401.838,318.333 414.171,318.5 426.5,319C 429.381,320.251 431.214,322.417 432,325.5C 432.499,329.486 432.666,333.486 432.5,337.5C 416.167,337.5 399.833,337.5 383.5,337.5C 383.334,333.154 383.501,328.821 384,324.5C 385.36,321.977 387.193,319.977 389.5,318.5 Z M 252.5,353.5 C 312.5,353.5 372.5,353.5 432.5,353.5C 432.666,362.506 432.5,371.506 432,380.5C 414.593,372.105 397.427,372.605 380.5,382C 378.983,383.685 377.316,385.185 375.5,386.5C 359.525,373.898 341.858,371.064 322.5,378C 317.825,380.336 313.492,383.169 309.5,386.5C 297.389,376.137 283.389,372.304 267.5,375C 262.349,376.049 257.516,377.883 253,380.5C 252.5,371.506 252.334,362.506 252.5,353.5 Z M 269.5,390.5 C 278.337,389.473 286.671,390.973 294.5,395C 299.997,399.16 302.33,404.66 301.5,411.5C 285.83,411.667 270.163,411.5 254.5,411C 253.106,410.044 252.439,408.711 252.5,407C 254.733,397.933 260.4,392.433 269.5,390.5 Z M 335.5,390.5 C 345.703,389.009 354.87,391.342 363,397.5C 365.938,401.67 367.438,406.337 367.5,411.5C 350.833,411.5 334.167,411.5 317.5,411.5C 317.462,406.314 318.962,401.647 322,397.5C 326.242,394.464 330.742,392.13 335.5,390.5 Z M 400.5,390.5 C 411.376,388.63 420.876,391.296 429,398.5C 431.245,401.89 432.245,405.557 432,409.5C 431.25,410.126 430.416,410.626 429.5,411C 414.17,411.5 398.837,411.667 383.5,411.5C 383.624,400.04 389.291,393.04 400.5,390.5 Z"/></g>
<g><path style="opacity:0.941" fill="#000000" d="M 149.5,46.5 C 156.841,46.3337 164.174,46.5003 171.5,47C 185.769,51.8728 190.435,61.5395 185.5,76C 195.012,87.6067 194.678,98.9401 184.5,110C 182.833,111 181.167,112 179.5,113C 169.241,114.592 158.907,114.926 148.5,114C 146.667,113.5 145.5,112.333 145,110.5C 144.333,90.5 144.333,70.5 145,50.5C 146.397,48.9297 147.897,47.5964 149.5,46.5 Z M 160.5,62.5 C 160.5,65.1667 160.5,67.8333 160.5,70.5C 163.518,70.6646 166.518,70.498 169.5,70C 172.172,67.3212 171.838,64.9879 168.5,63C 165.854,62.5026 163.187,62.3359 160.5,62.5 Z M 160.5,86.5 C 160.5,90.5 160.5,94.5 160.5,98.5C 164.514,98.6655 168.514,98.4988 172.5,98C 178.015,93.969 177.682,90.3024 171.5,87C 167.848,86.5014 164.182,86.3347 160.5,86.5 Z"/></g>
<g><path style="opacity:0.935" fill="#000000" d="M 225.5,46.5 C 230.814,45.7397 234.647,47.7397 237,52.5C 243.333,69.1667 249.667,85.8333 256,102.5C 257.846,113.16 253.68,116.66 243.5,113C 242.034,111.448 241.034,109.614 240.5,107.5C 232.521,106.335 224.521,106.168 216.5,107C 214.512,113.649 210.179,115.983 203.5,114C 199.965,111.293 198.798,107.793 200,103.5C 206.667,86.1667 213.333,68.8333 220,51.5C 221.406,49.2563 223.239,47.5897 225.5,46.5 Z M 227.5,76.5 C 225.976,81.0484 224.31,85.5484 222.5,90C 226.152,90.4986 229.818,90.6653 233.5,90.5C 232.444,86.832 231.278,83.1653 230,79.5C 229.623,78.0577 228.79,77.0577 227.5,76.5 Z"/></g>
<g><path style="opacity:0.922" fill="#000000" d="M 271.5,46.5 C 275.426,46.0466 278.592,47.3799 281,50.5C 281.333,54.5 281.667,58.5 282,62.5C 287.134,58.3671 291.968,53.8671 296.5,49C 306.68,45.34 310.846,48.84 309,59.5C 302.121,66.6795 294.954,73.5129 287.5,80C 295.303,86.8019 302.803,93.9686 310,101.5C 313.5,112.667 309.667,116.5 298.5,113C 293.302,107.467 287.802,102.3 282,97.5C 281.667,101.833 281.333,106.167 281,110.5C 279.607,113.366 277.274,114.699 274,114.5C 271.186,114.592 268.853,113.592 267,111.5C 265.37,91.8983 265.037,72.2316 266,52.5C 267.021,49.6499 268.854,47.6499 271.5,46.5 Z"/></g>
<g><path style="opacity:0.932" fill="#000000" d="M 376.5,46.5 C 384.571,46.1367 392.571,46.6367 400.5,48C 412.012,53.1896 416.512,62.023 414,74.5C 411.925,80.9097 407.758,85.4097 401.5,88C 405.667,92.8333 409.833,97.6667 414,102.5C 415.846,113.16 411.68,116.66 401.5,113C 396.667,107.5 391.833,102 387,96.5C 386.667,101.167 386.333,105.833 386,110.5C 381.625,115.381 376.958,115.715 372,111.5C 370.358,91.5896 370.025,71.5896 371,51.5C 372.107,48.887 373.94,47.2203 376.5,46.5 Z M 386.5,62.5 C 386.5,66.1667 386.5,69.8333 386.5,73.5C 389.518,73.6646 392.518,73.498 395.5,73C 398.207,71.1363 399.041,68.6363 398,65.5C 394.673,62.8461 390.839,61.8461 386.5,62.5 Z"/></g>
<g><path style="opacity:0.921" fill="#000000" d="M 429.5,46.5 C 431.989,46.2978 434.323,46.7978 436.5,48C 440.693,53.36 444.693,58.86 448.5,64.5C 452.61,59.1265 456.61,53.6265 460.5,48C 470.683,45.5165 474.516,49.3498 472,59.5C 467,67.1667 462,74.8333 457,82.5C 456.667,91.8333 456.333,101.167 456,110.5C 453.045,114.277 449.212,115.443 444.5,114C 442.951,112.786 441.785,111.286 441,109.5C 440.667,100.167 440.333,90.8333 440,81.5C 434.751,74.004 429.751,66.3374 425,58.5C 423.309,53.1311 424.809,49.1311 429.5,46.5 Z"/></g>
<g><path style="opacity:0.939" fill="#000000" d="M 326.5,47.5 C 336.506,47.3335 346.506,47.5002 356.5,48C 361.833,52.6667 361.833,57.3333 356.5,62C 350.593,63.3608 344.593,63.8608 338.5,63.5C 338.5,66.8333 338.5,70.1667 338.5,73.5C 343.844,73.334 349.177,73.5006 354.5,74C 357.366,75.3929 358.699,77.7262 358.5,81C 358.699,84.2738 357.366,86.6071 354.5,88C 349.177,88.4994 343.844,88.666 338.5,88.5C 338.5,91.8333 338.5,95.1667 338.5,98.5C 344.593,98.1392 350.593,98.6392 356.5,100C 361.833,104.667 361.833,109.333 356.5,114C 346.5,114.667 336.5,114.667 326.5,114C 325.333,112.833 324.167,111.667 323,110.5C 322.333,90.8333 322.333,71.1667 323,51.5C 324.376,50.2949 325.542,48.9616 326.5,47.5 Z"/></g>
<g><path style="opacity:0.95" fill="#000000" d="M 248.5,263.5 C 311.168,263.333 373.834,263.5 436.5,264C 442.492,266.659 446.325,271.159 448,277.5C 448.667,322.5 448.667,367.5 448,412.5C 445.602,420.9 440.102,425.733 431.5,427C 371.833,427.667 312.167,427.667 252.5,427C 244.444,425.278 239.277,420.444 237,412.5C 236.333,367.167 236.333,321.833 237,276.5C 239.273,270.73 243.106,266.397 248.5,263.5 Z M 255.5,278.5 C 254.828,279.267 253.995,279.934 253,280.5C 252.5,288.159 252.334,295.826 252.5,303.5C 268.135,302.38 283.801,302.213 299.5,303C 303.379,304.189 306.879,306.022 310,308.5C 313.121,306.022 316.621,304.189 320.5,303C 335.167,302.333 349.833,302.333 364.5,303C 368.446,304.306 372.112,306.139 375.5,308.5C 378.472,306.032 381.806,304.198 385.5,303C 401.199,302.213 416.865,302.38 432.5,303.5C 432.666,295.826 432.5,288.159 432,280.5C 431.25,279.874 430.416,279.374 429.5,279C 371.501,278.5 313.501,278.333 255.5,278.5 Z M 258.5,318.5 C 257.312,319.364 256.145,320.364 255,321.5C 252.823,326.595 251.99,331.928 252.5,337.5C 268.833,337.5 285.167,337.5 301.5,337.5C 301.666,332.821 301.499,328.155 301,323.5C 299.5,322 298,320.5 296.5,319C 283.838,318.5 271.171,318.333 258.5,318.5 Z M 323.5,318.5 C 318.291,323.626 316.291,329.959 317.5,337.5C 334.167,337.5 350.833,337.5 367.5,337.5C 367.665,333.818 367.499,330.152 367,326.5C 366.496,322.98 364.663,320.48 361.5,319C 348.838,318.5 336.171,318.333 323.5,318.5 Z M 389.5,318.5 C 387.193,319.977 385.36,321.977 384,324.5C 383.501,328.821 383.334,333.154 383.5,337.5C 399.833,337.5 416.167,337.5 432.5,337.5C 432.666,333.486 432.499,329.486 432,325.5C 431.214,322.417 429.381,320.251 426.5,319C 414.171,318.5 401.838,318.333 389.5,318.5 Z M 252.5,353.5 C 252.334,362.506 252.5,371.506 253,380.5C 257.516,377.883 262.349,376.049 267.5,375C 283.389,372.304 297.389,376.137 309.5,386.5C 313.492,383.169 317.825,380.336 322.5,378C 341.858,371.064 359.525,373.898 375.5,386.5C 377.316,385.185 378.983,383.685 380.5,382C 397.427,372.605 414.593,372.105 432,380.5C 432.5,371.506 432.666,362.506 432.5,353.5C 372.5,353.5 312.5,353.5 252.5,353.5 Z M 269.5,390.5 C 260.4,392.433 254.733,397.933 252.5,407C 252.439,408.711 253.106,410.044 254.5,411C 270.163,411.5 285.83,411.667 301.5,411.5C 302.33,404.66 299.997,399.16 294.5,395C 286.671,390.973 278.337,389.473 269.5,390.5 Z M 335.5,390.5 C 330.742,392.13 326.242,394.464 322,397.5C 318.962,401.647 317.462,406.314 317.5,411.5C 334.167,411.5 350.833,411.5 367.5,411.5C 367.438,406.337 365.938,401.67 363,397.5C 354.87,391.342 345.703,389.009 335.5,390.5 Z M 400.5,390.5 C 389.291,393.04 383.624,400.04 383.5,411.5C 398.837,411.667 414.17,411.5 429.5,411C 430.416,410.626 431.25,410.126 432,409.5C 432.245,405.557 431.245,401.89 429,398.5C 420.876,391.296 411.376,388.63 400.5,390.5 Z"/></g>
<g><path style="opacity:0.936" fill="#000000" d="M 111.5,296.5 C 133.169,296.333 154.836,296.5 176.5,297C 181.099,298.598 183.932,301.765 185,306.5C 185.667,316.167 185.667,325.833 185,335.5C 183.167,340 180,343.167 175.5,345C 154.833,345.667 134.167,345.667 113.5,345C 108.765,343.932 105.598,341.099 104,336.5C 103.333,325.833 103.333,315.167 104,304.5C 105.69,300.979 108.19,298.312 111.5,296.5 Z M 119.5,312.5 C 119.5,318.167 119.5,323.833 119.5,329.5C 136.167,329.5 152.833,329.5 169.5,329.5C 169.5,323.833 169.5,318.167 169.5,312.5C 152.833,312.5 136.167,312.5 119.5,312.5 Z"/></g>
</svg>
