<?xml version="1.0" encoding="UTF-8"?>
<!DOCTYPE svg PUBLIC "-//W3C//DTD SVG 1.1//EN" "http://www.w3.org/Graphics/SVG/1.1/DTD/svg11.dtd">
<svg xmlns="http://www.w3.org/2000/svg" version="1.1" width="512px" height="512px" style="shape-rendering:geometricPrecision; text-rendering:geometricPrecision; image-rendering:optimizeQuality; fill-rule:evenodd; clip-rule:evenodd" xmlns:xlink="http://www.w3.org/1999/xlink">
<g><path style="opacity:0.938" fill="#000000" d="M 511.5,194.5 C 511.5,229.833 511.5,265.167 511.5,300.5C 508.091,311.575 500.758,318.575 489.5,321.5C 489.667,375.834 489.5,430.168 489,484.5C 487.564,490.87 483.731,495.037 477.5,497C 331.529,498.657 185.529,498.991 39.5,498C 26.0241,496.183 20.5241,488.683 23,475.5C 26.3088,472.353 30.1421,471.687 34.5,473.5C 36.5299,476.139 38.1966,478.972 39.5,482C 183.5,482.667 327.5,482.667 471.5,482C 472,481.5 472.5,481 473,480.5C 473.5,466.837 473.667,453.171 473.5,439.5C 328.167,439.5 182.833,439.5 37.5,439.5C 37.6653,443.182 37.4986,446.848 37,450.5C 34.0046,454.723 30.1712,455.889 25.5,454C 23.9512,452.786 22.7845,451.286 22,449.5C 21.5,406.835 21.3333,364.168 21.5,321.5C 10.2161,318.548 2.88279,311.548 -0.5,300.5C -0.5,265.167 -0.5,229.833 -0.5,194.5C 3.00372,182.709 10.6704,174.876 22.5,171C 48.4568,169.546 74.4568,169.046 100.5,169.5C 102.427,139.907 118.094,123.24 147.5,119.5C 144.193,104.582 145.026,89.9157 150,75.5C 154.809,67.1154 161.976,63.9487 171.5,66C 180.57,67.2999 188.903,70.4666 196.5,75.5C 205.023,52.2685 219.023,33.1018 238.5,18C 249.833,10.6667 261.167,10.6667 272.5,18C 291.977,33.1018 305.977,52.2685 314.5,75.5C 326.826,66.9112 340.159,64.4112 354.5,68C 360.66,73.786 364.16,80.9527 365,89.5C 365.92,99.5929 365.42,109.593 363.5,119.5C 392.906,123.24 408.573,139.907 410.5,169.5C 436.543,169.046 462.543,169.546 488.5,171C 500.33,174.876 507.996,182.709 511.5,194.5 Z M 250.5,29.5 C 256.026,28.711 261.026,29.8777 265.5,33C 292.862,56.2215 305.529,85.7215 303.5,121.5C 285.109,117.097 269.109,121.431 255.5,134.5C 241.891,121.431 225.891,117.097 207.5,121.5C 205.664,83.1759 219.998,52.5092 250.5,29.5 Z M 165.5,81.5 C 175.465,82.541 184.298,86.2077 192,92.5C 190.399,103.931 190.232,115.431 191.5,127C 189.729,129.941 187.395,132.441 184.5,134.5C 179.525,129.677 173.858,125.843 167.5,123C 163.093,116.209 161.093,108.709 161.5,100.5C 161.103,93.7618 162.436,87.4284 165.5,81.5 Z M 341.5,81.5 C 343.144,81.2865 344.644,81.6198 346,82.5C 350.287,94.0181 350.62,105.685 347,117.5C 346.208,119.587 345.041,121.421 343.5,123C 337.142,125.843 331.475,129.677 326.5,134.5C 323.605,132.441 321.271,129.941 319.5,127C 320.966,115.765 320.633,104.598 318.5,93.5C 325.015,87.2225 332.681,83.2225 341.5,81.5 Z M 144.5,135.5 C 157.245,134.541 167.578,139.041 175.5,149C 172.824,155.548 171.491,162.381 171.5,169.5C 153.167,169.5 134.833,169.5 116.5,169.5C 117.503,151.174 126.837,139.841 144.5,135.5 Z M 215.5,135.5 C 228.124,134.87 238.457,139.37 246.5,149C 243.345,155.456 242.012,162.29 242.5,169.5C 224.167,169.5 205.833,169.5 187.5,169.5C 188.454,151.217 197.787,139.883 215.5,135.5 Z M 286.5,135.5 C 298.269,134.919 308.102,138.919 316,147.5C 314.221,154.654 313.388,161.987 313.5,169.5C 295.167,169.5 276.833,169.5 258.5,169.5C 259.488,151.187 268.822,139.854 286.5,135.5 Z M 357.5,135.5 C 380.074,135.742 392.407,147.075 394.5,169.5C 388.71,169.096 383.044,169.596 377.5,171C 373.221,176.033 373.554,180.7 378.5,185C 412.833,185.333 447.167,185.667 481.5,186C 490.14,188.091 494.973,193.591 496,202.5C 496.667,232.5 496.667,262.5 496,292.5C 493.933,303.29 487.433,307.79 476.5,306C 471.28,303.394 468.114,299.228 467,293.5C 466.667,274.5 466.333,255.5 466,236.5C 461.6,221.619 451.6,213.619 436,212.5C 419.35,214.152 409.35,223.152 406,239.5C 405.667,274.833 405.333,310.167 405,345.5C 400.04,355.561 392.54,358.061 382.5,353C 380.044,350.592 378.211,347.759 377,344.5C 376.667,325.5 376.333,306.5 376,287.5C 372.195,271.695 362.195,263.029 346,261.5C 326.074,263.428 315.74,274.428 315,294.5C 312.413,304.045 306.246,307.879 296.5,306C 291.162,303.993 287.996,300.159 287,294.5C 286.667,284.833 286.333,275.167 286,265.5C 281.079,241.922 266.913,233.088 243.5,239C 236,242.5 230.5,248 227,255.5C 225.771,261.883 224.437,268.216 223,274.5C 218.837,280.993 213.004,283.159 205.5,281C 200.162,278.993 196.996,275.159 196,269.5C 195.278,249.445 184.945,238.445 165,236.5C 148.801,238.033 138.801,246.7 135,262.5C 134.667,289.833 134.333,317.167 134,344.5C 129.57,355.294 122.07,358.128 111.5,353C 109.641,351.442 108.141,349.609 107,347.5C 105.976,326.188 104.976,304.855 104,283.5C 96.0028,264.753 82.1694,258.253 62.5,264C 50.1038,270.278 43.9371,280.445 44,294.5C 39.7806,306.355 31.9473,309.521 20.5,304C 18.3834,302.269 16.8834,300.102 16,297.5C 14.3708,265.873 14.0375,234.206 15,202.5C 15.7466,195.428 19.2466,190.261 25.5,187C 134.457,185.675 243.457,185.008 352.5,185C 359.401,179.58 359.067,174.58 351.5,170C 344.174,169.5 336.841,169.334 329.5,169.5C 330.478,151.196 339.812,139.862 357.5,135.5 Z M 434.5,228.5 C 441.757,228.706 446.924,232.039 450,238.5C 450.333,257.5 450.667,276.5 451,295.5C 453.186,308.93 460.686,317.597 473.5,321.5C 473.5,325.5 473.5,329.5 473.5,333.5C 456.167,333.5 438.833,333.5 421.5,333.5C 421.333,302.832 421.5,272.165 422,241.5C 423.682,234.653 427.849,230.32 434.5,228.5 Z M 163.5,252.5 C 171.077,252.929 176.244,256.595 179,263.5C 181.08,290.254 195.246,301.088 221.5,296C 235.285,289.291 242.119,278.124 242,262.5C 247.359,252.824 254.859,250.657 264.5,256C 267.515,258.863 269.349,262.363 270,266.5C 270.333,276.5 270.667,286.5 271,296.5C 275.791,316.314 288.291,324.814 308.5,322C 324.088,316.393 331.921,305.227 332,288.5C 335.669,279.583 342.169,276.416 351.5,279C 355.817,281.315 358.65,284.815 360,289.5C 360.5,304.163 360.667,318.83 360.5,333.5C 290.5,333.5 220.5,333.5 150.5,333.5C 150.333,310.498 150.5,287.498 151,264.5C 153.12,258.211 157.286,254.211 163.5,252.5 Z M 72.5,277.5 C 80.9502,277.451 86.4502,281.451 89,289.5C 89.4999,304.163 89.6666,318.83 89.5,333.5C 72.1667,333.5 54.8333,333.5 37.5,333.5C 37.5,329.5 37.5,325.5 37.5,321.5C 46.3007,319.514 52.8007,314.514 57,306.5C 59.0806,298.808 61.0806,291.142 63,283.5C 65.8426,280.837 69.0093,278.837 72.5,277.5 Z M 37.5,349.5 C 55.1698,349.333 72.8365,349.5 90.5,350C 97.2922,366.567 109.626,373.567 127.5,371C 138.405,367.762 145.739,360.762 149.5,350C 220.167,349.333 290.833,349.333 361.5,350C 368.292,366.567 380.626,373.567 398.5,371C 409.181,367.821 416.514,360.987 420.5,350.5C 438.154,349.5 455.821,349.167 473.5,349.5C 473.5,360.167 473.5,370.833 473.5,381.5C 373.833,381.333 274.166,381.5 174.5,382C 167.582,387.37 167.916,392.37 175.5,397C 274.833,397.5 374.166,397.667 473.5,397.5C 473.5,406.167 473.5,414.833 473.5,423.5C 328.167,423.5 182.833,423.5 37.5,423.5C 37.5,414.833 37.5,406.167 37.5,397.5C 73.8349,397.667 110.168,397.5 146.5,397C 150.666,396.015 152.666,393.348 152.5,389C 152.699,385.726 151.366,383.393 148.5,382C 111.502,381.5 74.5015,381.333 37.5,381.5C 37.5,370.833 37.5,360.167 37.5,349.5 Z"/></g>
<g><path style="opacity:0.853" fill="#000000" d="M 251.5,43.5 C 258.49,41.8383 262.49,44.5049 263.5,51.5C 263.181,56.4853 260.515,59.152 255.5,59.5C 249.033,58.5716 246.533,54.905 248,48.5C 248.997,46.6769 250.164,45.0103 251.5,43.5 Z"/></g>
<g><path style="opacity:0.869" fill="#000000" d="M 236.5,71.5 C 248.818,70.6575 251.818,75.4908 245.5,86C 238.429,88.4347 234.096,86.1014 232.5,79C 232.994,75.9919 234.327,73.4919 236.5,71.5 Z"/></g>
<g><path style="opacity:0.869" fill="#000000" d="M 265.5,71.5 C 272.581,69.5591 276.914,72.0591 278.5,79C 276.904,86.1014 272.571,88.4347 265.5,86C 261.537,81.1678 261.537,76.3345 265.5,71.5 Z"/></g>
<g><path style="opacity:0.848" fill="#000000" d="M 223.5,98.5 C 231.678,97.8424 235.178,101.509 234,109.5C 231.459,114.069 227.625,115.569 222.5,114C 217.034,108.434 217.368,103.267 223.5,98.5 Z"/></g>
<g><path style="opacity:0.844" fill="#000000" d="M 252.5,98.5 C 260.658,97.8229 264.158,101.49 263,109.5C 260.565,114.224 256.731,115.724 251.5,114C 245.974,108.357 246.308,103.19 252.5,98.5 Z"/></g>
<g><path style="opacity:0.849" fill="#000000" d="M 282.5,98.5 C 290.642,98.4807 293.808,102.481 292,110.5C 289.398,114.212 285.898,115.378 281.5,114C 277.139,111.774 275.639,108.274 277,103.5C 278.107,100.887 279.94,99.2203 282.5,98.5 Z"/></g>
</svg>
