<?xml version="1.0" encoding="UTF-8"?>
<!DOCTYPE svg PUBLIC "-//W3C//DTD SVG 1.1//EN" "http://www.w3.org/Graphics/SVG/1.1/DTD/svg11.dtd">
<svg xmlns="http://www.w3.org/2000/svg" version="1.1" width="170px" height="90px" style="shape-rendering:geometricPrecision; text-rendering:geometricPrecision; image-rendering:optimizeQuality; fill-rule:evenodd; clip-rule:evenodd" xmlns:xlink="http://www.w3.org/1999/xlink">
<g><path style="opacity:0.757" fill="#0d0d0d" d="M 80.5,-0.5 C 87.1667,-0.5 93.8333,-0.5 100.5,-0.5C 116.784,4.78394 126.784,15.7839 130.5,32.5C 137.239,33.2028 142.906,36.0361 147.5,41C 157.314,40.4043 164.648,44.2376 169.5,52.5C 169.5,56.8333 169.5,61.1667 169.5,65.5C 165.585,73.1372 159.252,77.3038 150.5,78C 145.77,83.3542 140.104,87.1875 133.5,89.5C 127.5,89.5 121.5,89.5 115.5,89.5C 110.647,87.74 105.98,85.4067 101.5,82.5C 93.0826,86.0067 84.5826,86.34 76,83.5C 73.1574,86.1627 69.9907,88.1627 66.5,89.5C 62.8333,89.5 59.1667,89.5 55.5,89.5C 49.6456,86.8138 44.4789,83.1471 40,78.5C 25.1653,83.1255 12.4986,79.7921 2,68.5C 1.62638,66.5087 0.793048,64.842 -0.5,63.5C -0.5,59.8333 -0.5,56.1667 -0.5,52.5C 6.65998,39.8611 17.66,34.1944 32.5,35.5C 35.6513,26.0749 42.318,21.9082 52.5,23C 58.5485,11.157 67.8819,3.32371 80.5,-0.5 Z"/></g>
<g><path style="opacity:1" fill="#fdfdfd" d="M 80.5,2.5 C 105.977,-0.28438 121.977,10.549 128.5,35C 135.594,35.9137 141.594,38.9137 146.5,44C 158.008,42.9048 165.008,47.9048 167.5,59C 165.839,69.1683 159.839,74.1683 149.5,74C 140.643,84.7518 129.309,88.7518 115.5,86C 110.5,84.3183 106,81.8183 102,78.5C 93.5868,82.8395 84.9201,83.5062 76,80.5C 62.1717,90.4074 51.0051,88.074 42.5,73.5C 30.6418,79.4803 19.3084,78.647 8.5,71C -1.50776,56.6333 1.82557,46.2999 18.5,40C 23.8229,39.5006 29.1563,39.334 34.5,39.5C 34.6861,33.2904 37.6861,29.1237 43.5,27C 47.2533,26.909 50.92,26.7423 54.5,26.5C 59.7254,14.6019 68.392,6.6019 80.5,2.5 Z"/></g>
</svg>
