<?xml version="1.0" encoding="UTF-8"?>
<!DOCTYPE svg PUBLIC "-//W3C//DTD SVG 1.1//EN" "http://www.w3.org/Graphics/SVG/1.1/DTD/svg11.dtd">
<svg xmlns="http://www.w3.org/2000/svg" version="1.1" width="75px" height="42px" style="shape-rendering:geometricPrecision; text-rendering:geometricPrecision; image-rendering:optimizeQuality; fill-rule:evenodd; clip-rule:evenodd" xmlns:xlink="http://www.w3.org/1999/xlink">
<g><path style="opacity:0.733" fill="#0f0f0f" d="M 40.5,-0.5 C 45.1667,-0.5 49.8333,-0.5 54.5,-0.5C 62.5466,3.22475 66.5466,9.55808 66.5,18.5C 70.1794,18.667 72.846,20.3337 74.5,23.5C 74.5,25.1667 74.5,26.8333 74.5,28.5C 72.5296,31.8272 69.5296,33.6605 65.5,34C 64.8333,35 64.1667,36 63.5,37C 58.8155,38.8298 54.1489,40.3298 49.5,41.5C 41.1667,41.5 32.8333,41.5 24.5,41.5C 20.9207,40.4754 17.2541,39.3088 13.5,38C 10.9595,36.9596 9.29287,35.1263 8.5,32.5C 4.40448,31.3181 1.40448,28.9847 -0.5,25.5C -0.5,23.8333 -0.5,22.1667 -0.5,20.5C 4.17039,14.2606 10.5037,11.7606 18.5,13C 21.1249,7.43368 25.2916,5.60035 31,7.5C 33.3247,3.76521 36.4914,1.09854 40.5,-0.5 Z"/></g>
<g><path style="opacity:1" fill="#fafafa" d="M 43.5,1.5 C 57.8735,0.65671 64.5401,7.32338 63.5,21.5C 69.9331,20.6515 72.2664,23.1515 70.5,29C 67.9865,30.2525 65.3198,30.7525 62.5,30.5C 61.9851,34.4526 59.6517,36.6192 55.5,37C 44.2317,39.7737 32.8984,40.107 21.5,38C 16.496,37.1937 13.1627,34.527 11.5,30C 5.34983,29.5286 2.5165,26.3619 3,20.5C 3.83333,19.6667 4.66667,18.8333 5.5,18C 10.4562,17.0023 15.4562,16.169 20.5,15.5C 22.3591,9.80477 26.0257,8.1381 31.5,10.5C 34.4539,6.03133 38.4539,3.03133 43.5,1.5 Z"/></g>
</svg>
