<?xml version="1.0" encoding="UTF-8"?>
<!DOCTYPE svg PUBLIC "-//W3C//DTD SVG 1.1//EN" "http://www.w3.org/Graphics/SVG/1.1/DTD/svg11.dtd">
<svg xmlns="http://www.w3.org/2000/svg" version="1.1" width="512px" height="512px" style="shape-rendering:geometricPrecision; text-rendering:geometricPrecision; image-rendering:optimizeQuality; fill-rule:evenodd; clip-rule:evenodd" xmlns:xlink="http://www.w3.org/1999/xlink">
<g><path style="opacity:0.966" fill="#000000" d="M 73.5,33.5 C 194.834,33.3333 316.167,33.5 437.5,34C 469.559,39.7253 488.725,58.5586 495,90.5C 495.667,167.833 495.667,245.167 495,322.5C 488.725,354.441 469.559,373.275 437.5,379C 364.833,379.333 292.167,379.667 219.5,380C 173.333,412.167 127.167,444.333 81,476.5C 80.5,444.168 80.3334,411.835 80.5,379.5C 48.4581,377.232 27.2915,360.899 17,330.5C 16.0881,326.205 15.4215,321.872 15,317.5C 14.3333,243.167 14.3333,168.833 15,94.5C 18.0562,68.781 31.2228,50.281 54.5,39C 60.8169,36.6753 67.1502,34.842 73.5,33.5 Z M 77.5,62.5 C 195.834,62.3333 314.167,62.5 432.5,63C 450.77,65.9365 461.937,76.4365 466,94.5C 466.667,169.167 466.667,243.833 466,318.5C 461.933,336.568 450.766,347.068 432.5,350C 358.167,350.333 283.833,350.667 209.5,351C 176.333,374.167 143.167,397.333 110,420.5C 109.5,397.169 109.333,373.836 109.5,350.5C 99.1613,350.666 88.828,350.5 78.5,350C 57.4112,346.911 45.9112,334.744 44,313.5C 43.025,239.476 43.3584,165.476 45,91.5C 49.8557,75.0091 60.6891,65.3425 77.5,62.5 Z"/></g>
<g><path style="opacity:0.966" fill="#000000" d="M 143.5,132.5 C 218.167,132.5 292.833,132.5 367.5,132.5C 367.5,142.167 367.5,151.833 367.5,161.5C 292.833,161.5 218.167,161.5 143.5,161.5C 143.5,151.833 143.5,142.167 143.5,132.5 Z"/></g>
<g><path style="opacity:0.966" fill="#000000" d="M 143.5,192.5 C 218.167,192.5 292.833,192.5 367.5,192.5C 367.5,202.167 367.5,211.833 367.5,221.5C 292.833,221.5 218.167,221.5 143.5,221.5C 143.5,211.833 143.5,202.167 143.5,192.5 Z"/></g>
<g><path style="opacity:0.966" fill="#000000" d="M 143.5,252.5 C 218.167,252.5 292.833,252.5 367.5,252.5C 367.5,262.167 367.5,271.833 367.5,281.5C 292.833,281.5 218.167,281.5 143.5,281.5C 143.5,271.833 143.5,262.167 143.5,252.5 Z"/></g>
</svg>
