<svg width="37" height="27" viewBox="0 0 37 27" fill="none" xmlns="http://www.w3.org/2000/svg">
<path d="M13.373 3.96484C11.8431 4.77865 10.6224 5.49479 9.71094 6.11328C8.79948 6.73177 8.03451 7.51302 7.41602 8.45703C6.83008 9.40104 6.53711 10.5404 6.53711 11.875C7.02539 12.5911 7.59505 13.1608 8.24609 13.584C8.92969 14.0072 9.75977 14.3001 10.7363 14.4629C14.1543 15.0814 15.8633 16.9206 15.8633 19.9805C15.8633 21.8034 15.2285 23.3171 13.959 24.5215C12.6895 25.7259 11.0456 26.3281 9.02734 26.3281C7.30208 26.3281 5.77214 25.9049 4.4375 25.0586C3.10286 24.2122 2.0612 23.0241 1.3125 21.4941C0.596354 19.9642 0.238281 18.2227 0.238281 16.2695C0.238281 13.8932 0.759115 11.5658 1.80078 9.28711C2.875 6.97591 4.42122 5.00651 6.43945 3.37891C8.45768 1.7513 10.8177 0.693359 13.5195 0.205078C14.431 0.953776 15.0169 1.86523 15.2773 2.93945L13.373 3.96484ZM34.125 3.96484C32.5951 4.77865 31.3743 5.49479 30.4629 6.11328C29.5514 6.73177 28.7865 7.51302 28.168 8.45703C27.582 9.40104 27.2891 10.5404 27.2891 11.875C28.2005 13.2747 29.6003 14.1374 31.4883 14.4629C34.8737 15.0814 36.5664 16.9206 36.5664 19.9805C36.5664 21.8034 35.9316 23.3171 34.6621 24.5215C33.4251 25.7259 31.7975 26.3281 29.7793 26.3281C28.054 26.3281 26.5241 25.9049 25.1895 25.0586C23.8548 24.2122 22.8132 23.0241 22.0645 21.4941C21.3483 19.9642 20.9902 18.2227 20.9902 16.2695C20.9902 13.8932 21.5111 11.5658 22.5527 9.28711C23.627 6.97591 25.1732 5.00651 27.1914 3.37891C29.2096 1.7513 31.5697 0.693359 34.2715 0.205078C35.1829 0.953776 35.7689 1.86523 36.0293 2.93945L34.125 3.96484Z" fill="black"/>
</svg>
