<?xml version="1.0" encoding="UTF-8"?>
<!DOCTYPE svg PUBLIC "-//W3C//DTD SVG 1.1//EN" "http://www.w3.org/Graphics/SVG/1.1/DTD/svg11.dtd">
<svg xmlns="http://www.w3.org/2000/svg" version="1.1" width="500px" height="500px" style="shape-rendering:geometricPrecision; text-rendering:geometricPrecision; image-rendering:optimizeQuality; fill-rule:evenodd; clip-rule:evenodd" xmlns:xlink="http://www.w3.org/1999/xlink">
<g><path style="opacity:1" fill="#ffdd5b" d="M 198.5,171.5 C 199.11,172.391 199.443,173.391 199.5,174.5C 200.158,184.363 197.158,192.863 190.5,200C 191.727,202.298 193.06,204.465 194.5,206.5C 195.422,209.126 196.422,211.793 197.5,214.5C 198.257,215.773 198.923,215.773 199.5,214.5C 199.5,209.833 199.5,205.167 199.5,200.5C 199.928,191.838 200.262,183.171 200.5,174.5C 200.5,172.167 200.5,169.833 200.5,167.5C 200.871,163.795 202.871,161.795 206.5,161.5C 213.152,160.386 219.818,160.386 226.5,161.5C 234.694,160.637 240.027,163.971 242.5,171.5C 240.514,173.893 238.181,176.06 235.5,178C 230.833,178.333 226.167,178.667 221.5,179C 217.799,185.355 219.466,187.522 226.5,185.5C 227.209,186.404 228.209,186.737 229.5,186.5C 231.621,186.325 233.621,186.659 235.5,187.5C 237.446,188.035 238.446,189.368 238.5,191.5C 238.5,193.833 238.5,196.167 238.5,198.5C 238.256,201.263 236.923,203.429 234.5,205C 230.174,204.907 225.841,204.907 221.5,205C 217.636,209.155 218.636,211.988 224.5,213.5C 229.64,214.488 234.974,214.821 240.5,214.5C 242.044,214.703 243.378,215.37 244.5,216.5C 245.852,212.392 247.185,208.392 248.5,204.5C 249.924,202.485 250.59,200.152 250.5,197.5C 252.277,194.495 253.277,191.162 253.5,187.5C 254.525,180.583 257.191,174.417 261.5,169C 263.078,167.906 264.745,167.072 266.5,166.5C 270.5,166.5 274.5,166.5 278.5,166.5C 282.217,167.92 284.55,170.587 285.5,174.5C 290.166,189.664 295.332,204.664 301,219.5C 301.703,217.071 301.537,214.738 300.5,212.5C 301.167,211.167 301.833,209.833 302.5,208.5C 304.134,201.051 305.134,193.385 305.5,185.5C 305.5,185.167 305.5,184.833 305.5,184.5C 306.768,182.095 307.435,179.428 307.5,176.5C 308.054,172.945 310.054,170.612 313.5,169.5C 315.833,169.5 318.167,169.5 320.5,169.5C 327.405,172.07 332.405,176.737 335.5,183.5C 335.56,184.043 335.893,184.376 336.5,184.5C 337.952,183.06 338.952,181.394 339.5,179.5C 339.738,177.596 340.738,176.262 342.5,175.5C 344.833,173.833 346.833,171.833 348.5,169.5C 353.181,165.511 358.014,165.511 363,169.5C 364.18,171.86 365.347,174.193 366.5,176.5C 365.167,177.833 365.167,179.167 366.5,180.5C 369.169,193.706 370.002,207.039 369,220.5C 368.907,226.07 367.074,230.903 363.5,235C 361.866,235.494 360.199,235.66 358.5,235.5C 358.158,234.662 357.492,234.328 356.5,234.5C 354.738,233.738 353.738,232.404 353.5,230.5C 353.817,226.298 353.483,222.298 352.5,218.5C 352.795,216.265 352.461,214.265 351.5,212.5C 352.765,208.546 352.765,204.546 351.5,200.5C 348.266,204.903 344.266,208.403 339.5,211C 335.579,212.139 332.246,211.305 329.5,208.5C 328.5,208.167 327.833,207.5 327.5,206.5C 327.672,205.508 327.338,204.842 326.5,204.5C 325.443,202.059 324.11,199.725 322.5,197.5C 322.167,198 321.833,198.5 321.5,199C 320.093,207.097 319.26,215.263 319,223.5C 317.974,227.722 315.807,231.222 312.5,234C 307.438,235.291 303.938,233.458 302,228.5C 299.921,232.957 296.421,234.957 291.5,234.5C 288.261,232.365 286.261,229.365 285.5,225.5C 286.03,223.284 285.363,221.118 283.5,219C 277.636,217.493 271.803,217.326 266,218.5C 264.349,222.745 263.016,227.079 262,231.5C 255.866,236.983 250.032,236.649 244.5,230.5C 242.446,232.194 240.112,233.361 237.5,234C 228.155,234.312 218.822,234.812 209.5,235.5C 204.516,235.758 200.683,233.758 198,229.5C 193.686,235.998 188.519,236.998 182.5,232.5C 179.328,227.988 177.328,222.988 176.5,217.5C 174.833,217.5 173.167,217.5 171.5,217.5C 172.919,216.549 174.585,216.216 176.5,216.5C 176.275,209.671 172.942,207.671 166.5,210.5C 165.914,210.709 165.414,211.043 165,211.5C 164.418,217.495 162.752,223.162 160,228.5C 156.21,232.497 151.71,233.497 146.5,231.5C 143.201,228.924 141.201,225.591 140.5,221.5C 142.861,208.631 143.861,195.631 143.5,182.5C 144.339,176.325 145.006,169.992 145.5,163.5C 146.989,159.847 149.656,157.347 153.5,156C 165.604,153.318 177.27,154.651 188.5,160C 193.127,162.788 196.461,166.622 198.5,171.5 Z M 175.5,184.5 C 176.551,185.222 177.218,186.222 177.5,187.5C 174.287,190.274 170.62,192.274 166.5,193.5C 165.309,186.183 168.309,183.183 175.5,184.5 Z M 197.5,203.5 C 198.833,206.167 198.833,208.833 197.5,211.5C 196.37,209.685 195.704,207.685 195.5,205.5C 196.5,205.167 197.167,204.5 197.5,203.5 Z"/></g>
<g><path style="opacity:0.007" fill="#fff9e4" d="M 226.5,161.5 C 219.818,160.386 213.152,160.386 206.5,161.5C 209.017,160.027 211.85,159.36 215,159.5C 219.068,159.594 222.901,160.26 226.5,161.5 Z"/></g>
<g><path style="opacity:1" fill="#ffdd5d" d="M 133.5,167.5 C 134.167,168.833 135.167,169.833 136.5,170.5C 138.735,173.291 140.735,176.291 142.5,179.5C 144.312,194.888 140.479,208.888 131,221.5C 120.481,231.682 107.981,236.015 93.5,234.5C 93.1667,233.5 92.5,232.833 91.5,232.5C 89.7497,231.341 88.7497,229.674 88.5,227.5C 88.5874,210.156 88.2541,192.823 87.5,175.5C 88.7822,166.391 94.1155,161.558 103.5,161C 112.424,159.839 121.091,160.839 129.5,164C 131.093,164.949 132.426,166.115 133.5,167.5 Z M 121.5,192.5 C 122.136,200.563 118.969,206.896 112,211.5C 111.503,208.854 111.336,206.187 111.5,203.5C 111.241,199.76 111.574,196.094 112.5,192.5C 113.242,191.713 114.075,191.047 115,190.5C 117.087,191.397 119.254,192.064 121.5,192.5 Z"/></g>
<g><path style="opacity:0.999" fill="#ffde61" d="M 387.5,173.5 C 388.435,177.306 389.769,180.972 391.5,184.5C 392.386,183.675 392.719,182.675 392.5,181.5C 394.919,175.186 398.919,170.02 404.5,166C 410.986,164.979 414.319,167.812 414.5,174.5C 410.816,182.859 406.316,190.859 401,198.5C 400.924,208.573 400.258,218.573 399,228.5C 396.163,235.221 391.329,237.221 384.5,234.5C 384.167,233.5 383.5,232.833 382.5,232.5C 380.59,231.025 379.424,229.025 379,226.5C 378.189,219.586 378.355,212.752 379.5,206C 379.185,198.211 376.519,191.378 371.5,185.5C 371.5,184.833 371.5,184.167 371.5,183.5C 371.5,182.833 371.167,182.5 370.5,182.5C 370.5,182.167 370.5,181.833 370.5,181.5C 370.672,180.508 370.338,179.842 369.5,179.5C 369.5,179.167 369.5,178.833 369.5,178.5C 369.672,177.508 369.338,176.842 368.5,176.5C 368.167,176.5 367.833,176.5 367.5,176.5C 366.444,165.376 371.11,161.543 381.5,165C 384.523,167.177 386.523,170.011 387.5,173.5 Z"/></g>
<g><path style="opacity:0.888" fill="#ffefb2" d="M 278.5,166.5 C 274.5,166.5 270.5,166.5 266.5,166.5C 270.5,163.833 274.5,163.833 278.5,166.5 Z"/></g>
<g><path style="opacity:0.004" fill="#fff7d6" d="M 133.5,167.5 C 135.5,167.5 136.5,168.5 136.5,170.5C 135.167,169.833 134.167,168.833 133.5,167.5 Z"/></g>
<g><path style="opacity:0.643" fill="#fff3c5" d="M 320.5,169.5 C 318.167,169.5 315.833,169.5 313.5,169.5C 314.531,168.751 315.698,168.085 317,167.5C 318.302,168.085 319.469,168.751 320.5,169.5 Z"/></g>
<g><path style="opacity:0.086" fill="#fff8ef" d="M 200.5,167.5 C 200.5,169.833 200.5,172.167 200.5,174.5C 200.167,174.5 199.833,174.5 199.5,174.5C 199.443,173.391 199.11,172.391 198.5,171.5C 199.167,170.167 199.833,168.833 200.5,167.5 Z"/></g>
<g><path style="opacity:0.998" fill="#ff423a" d="M 242.5,171.5 C 242.427,173.027 243.094,174.027 244.5,174.5C 245.379,177.117 245.212,179.784 244,182.5C 242.736,184.607 240.903,185.607 238.5,185.5C 234.307,184.968 230.307,184.968 226.5,185.5C 219.466,187.522 217.799,185.355 221.5,179C 226.167,178.667 230.833,178.333 235.5,178C 238.181,176.06 240.514,173.893 242.5,171.5 Z"/></g>
<g><path style="opacity:0.424" fill="#ffefbe" d="M 145.5,163.5 C 145.006,169.992 144.339,176.325 143.5,182.5C 142.89,181.609 142.557,180.609 142.5,179.5C 143.037,175.153 143.537,170.486 144,165.5C 144.278,164.584 144.778,163.918 145.5,163.5 Z"/></g>
<g><path style="opacity:0.341" fill="#ffbbb7" d="M 242.5,171.5 C 243.906,171.973 244.573,172.973 244.5,174.5C 243.094,174.027 242.427,173.027 242.5,171.5 Z"/></g>
<g><path style="opacity:0.514" fill="#fff3c8" d="M 348.5,169.5 C 346.833,171.833 344.833,173.833 342.5,175.5C 343.5,172.5 345.5,170.5 348.5,169.5 Z"/></g>
<g><path style="opacity:0.999" fill="#ff4f43" d="M 414.5,174.5 C 414.833,174.5 415.167,174.5 415.5,174.5C 415.427,176.027 416.094,177.027 417.5,177.5C 417.064,187.377 413.564,196.044 407,203.5C 405.937,205.916 405.104,208.416 404.5,211C 405.614,218.129 405.781,225.296 405,232.5C 402.574,242.633 396.741,245.466 387.5,241C 385.84,239.512 384.84,237.679 384.5,235.5C 384.5,235.167 384.5,234.833 384.5,234.5C 391.329,237.221 396.163,235.221 399,228.5C 400.258,218.573 400.924,208.573 401,198.5C 406.316,190.859 410.816,182.859 414.5,174.5 Z"/></g>
<g><path style="opacity:0.38" fill="#ffb5b1" d="M 415.5,174.5 C 416.906,174.973 417.573,175.973 417.5,177.5C 416.094,177.027 415.427,176.027 415.5,174.5 Z"/></g>
<g><path style="opacity:0.996" fill="#ff463b" d="M 178.5,182.5 C 178.179,184.048 177.179,184.715 175.5,184.5C 168.309,183.183 165.309,186.183 166.5,193.5C 166.189,194.478 165.522,195.145 164.5,195.5C 162.306,190.366 161.473,185.033 162,179.5C 162.5,179 163,178.5 163.5,178C 166.833,177.333 170.167,177.333 173.5,178C 175.66,178.996 177.327,180.496 178.5,182.5 Z"/></g>
<g><path style="opacity:0.996" fill="#ff5146" d="M 368.5,179.5 C 368.328,180.492 368.662,181.158 369.5,181.5C 369.5,181.833 369.5,182.167 369.5,182.5C 369.263,183.791 369.596,184.791 370.5,185.5C 370.833,185.5 371.167,185.5 371.5,185.5C 372.763,196.802 373.763,208.136 374.5,219.5C 374.442,224.547 373.942,229.547 373,234.5C 371.58,241.588 367.413,244.088 360.5,242C 359.177,241.184 358.511,240.017 358.5,238.5C 358.5,237.5 358.5,236.5 358.5,235.5C 360.199,235.66 361.866,235.494 363.5,235C 367.074,230.903 368.907,226.07 369,220.5C 370.002,207.039 369.169,193.706 366.5,180.5C 366.409,178.302 367.075,177.969 368.5,179.5 Z"/></g>
<g><path style="opacity:1" fill="#ffad7f" d="M 366.5,176.5 C 366.833,176.5 367.167,176.5 367.5,176.5C 367.833,177.833 368.167,177.833 368.5,176.5C 369.338,176.842 369.672,177.508 369.5,178.5C 368.833,178.5 368.5,178.833 368.5,179.5C 367.075,177.969 366.409,178.302 366.5,180.5C 365.167,179.167 365.167,177.833 366.5,176.5 Z"/></g>
<g><path style="opacity:0.325" fill="#ffead2" d="M 368.5,179.5 C 368.833,179.5 369.167,179.5 369.5,179.5C 370.338,179.842 370.672,180.508 370.5,181.5C 370.167,181.5 369.833,181.5 369.5,181.5C 368.662,181.158 368.328,180.492 368.5,179.5 Z"/></g>
<g><path style="opacity:0.58" fill="#ffefb3" d="M 339.5,179.5 C 338.952,181.394 337.952,183.06 336.5,184.5C 335.893,184.376 335.56,184.043 335.5,183.5C 336.473,181.861 337.806,180.527 339.5,179.5 Z"/></g>
<g><path style="opacity:1" fill="#ff7a64" d="M 387.5,173.5 C 389.653,175.794 391.32,178.46 392.5,181.5C 392.719,182.675 392.386,183.675 391.5,184.5C 389.769,180.972 388.435,177.306 387.5,173.5 Z"/></g>
<g><path style="opacity:0.997" fill="#ff4a3e" d="M 121.5,192.5 C 119.254,192.064 117.087,191.397 115,190.5C 114.075,191.047 113.242,191.713 112.5,192.5C 111.574,196.094 111.241,199.76 111.5,203.5C 110.834,206.028 110.168,208.694 109.5,211.5C 108.029,210.619 107.196,209.286 107,207.5C 106.333,200.167 106.333,192.833 107,185.5C 112.894,182.573 117.894,183.906 122,189.5C 122.74,190.749 122.573,191.749 121.5,192.5 Z"/></g>
<g><path style="opacity:0.404" fill="#fff4ca" d="M 307.5,176.5 C 307.435,179.428 306.768,182.095 305.5,184.5C 305.294,181.505 305.96,178.838 307.5,176.5 Z"/></g>
<g><path style="opacity:0.973" fill="#ffaf8b" d="M 178.5,182.5 C 179.678,184.338 179.345,186.005 177.5,187.5C 177.218,186.222 176.551,185.222 175.5,184.5C 177.179,184.715 178.179,184.048 178.5,182.5 Z"/></g>
<g><path style="opacity:0.553" fill="#ffb9b7" d="M 369.5,182.5 C 369.833,182.5 370.167,182.5 370.5,182.5C 371.167,182.5 371.5,182.833 371.5,183.5C 370.662,183.842 370.328,184.508 370.5,185.5C 369.596,184.791 369.263,183.791 369.5,182.5 Z"/></g>
<g><path style="opacity:0.188" fill="#ffd6d5" d="M 226.5,185.5 C 230.307,184.968 234.307,184.968 238.5,185.5C 237.5,186.167 236.5,186.833 235.5,187.5C 233.621,186.659 231.621,186.325 229.5,186.5C 228.791,185.596 227.791,185.263 226.5,185.5 Z"/></g>
<g><path style="opacity:0.999" fill="#ff4637" d="M 199.5,174.5 C 199.833,174.5 200.167,174.5 200.5,174.5C 200.262,183.171 199.928,191.838 199.5,200.5C 198.599,201.29 197.932,202.29 197.5,203.5C 197.167,204.5 196.5,205.167 195.5,205.5C 194.833,205.5 194.5,205.833 194.5,206.5C 193.06,204.465 191.727,202.298 190.5,200C 197.158,192.863 200.158,184.363 199.5,174.5 Z"/></g>
<g><path style="opacity:0.855" fill="#fff0b5" d="M 253.5,187.5 C 253.277,191.162 252.277,194.495 250.5,197.5C 250.723,193.838 251.723,190.505 253.5,187.5 Z"/></g>
<g><path style="opacity:0.757" fill="#fff3c5" d="M 305.5,185.5 C 305.134,193.385 304.134,201.051 302.5,208.5C 302.614,200.583 303.614,192.916 305.5,185.5 Z"/></g>
<g><path style="opacity:1" fill="#ffbd8a" d="M 238.5,191.5 C 239.488,192.795 240.488,194.128 241.5,195.5C 240.1,196.1 239.1,197.1 238.5,198.5C 238.5,196.167 238.5,193.833 238.5,191.5 Z"/></g>
<g><path style="opacity:0.999" fill="#ff4a40" d="M 241.5,195.5 C 243.033,197.634 243.7,200.134 243.5,203C 244.222,207.028 242.889,210.028 239.5,212C 234.718,212.206 230.051,212.373 225.5,212.5C 224.833,212.5 224.5,212.833 224.5,213.5C 218.636,211.988 217.636,209.155 221.5,205C 225.841,204.907 230.174,204.907 234.5,205C 236.923,203.429 238.256,201.263 238.5,198.5C 239.1,197.1 240.1,196.1 241.5,195.5 Z"/></g>
<g><path style="opacity:1" fill="#ff5236" d="M 273.5,195.5 C 275.655,197.617 276.655,200.284 276.5,203.5C 274.833,203.5 273.167,203.5 271.5,203.5C 271.963,200.779 272.629,198.112 273.5,195.5 Z"/></g>
<g><path style="opacity:0.46" fill="#fff3c7" d="M 87.5,175.5 C 88.2541,192.823 88.5874,210.156 88.5,227.5C 87.6734,213.167 87.0068,198.667 86.5,184C 86.5022,180.979 86.8356,178.146 87.5,175.5 Z"/></g>
<g><path style="opacity:0.999" fill="#ff4f43" d="M 326.5,204.5 C 325.89,205.391 325.557,206.391 325.5,207.5C 325,214.494 324.5,221.494 324,228.5C 323.323,233.205 321.49,237.372 318.5,241C 313.38,243.506 309.214,242.339 306,237.5C 301.286,242.823 296.62,242.823 292,237.5C 291.517,236.552 291.351,235.552 291.5,234.5C 296.421,234.957 299.921,232.957 302,228.5C 303.938,233.458 307.438,235.291 312.5,234C 315.807,231.222 317.974,227.722 319,223.5C 319.26,215.263 320.093,207.097 321.5,199C 321.833,198.5 322.167,198 322.5,197.5C 324.11,199.725 325.443,202.059 326.5,204.5 Z"/></g>
<g><path style="opacity:1" fill="#ff493e" d="M 142.5,179.5 C 142.557,180.609 142.89,181.609 143.5,182.5C 143.861,195.631 142.861,208.631 140.5,221.5C 134.304,232.449 124.971,239.282 112.5,242C 107.833,242.667 103.167,242.667 98.5,242C 95.4659,240.809 93.7993,238.642 93.5,235.5C 93.5,235.167 93.5,234.833 93.5,234.5C 107.981,236.015 120.481,231.682 131,221.5C 140.479,208.888 144.312,194.888 142.5,179.5 Z"/></g>
<g><path style="opacity:0.8" fill="#fff1bc" d="M 250.5,197.5 C 250.59,200.152 249.924,202.485 248.5,204.5C 248.41,201.848 249.076,199.515 250.5,197.5 Z"/></g>
<g><path style="opacity:0.973" fill="#ff6354" d="M 285.5,174.5 C 287.81,177.102 289.643,180.102 291,183.5C 294.277,193.165 297.444,202.832 300.5,212.5C 301.537,214.738 301.703,217.071 301,219.5C 295.332,204.664 290.166,189.664 285.5,174.5 Z"/></g>
<g><path style="opacity:1" fill="#ff4d41" d="M 351.5,212.5 C 348.167,217.828 343.5,219.828 337.5,218.5C 337.027,217.094 336.027,216.427 334.5,216.5C 332.05,214.371 330.383,211.704 329.5,208.5C 332.246,211.305 335.579,212.139 339.5,211C 344.266,208.403 348.266,204.903 351.5,200.5C 352.765,204.546 352.765,208.546 351.5,212.5 Z"/></g>
<g><path style="opacity:0.071" fill="#ffe6e1" d="M 326.5,204.5 C 327.338,204.842 327.672,205.508 327.5,206.5C 326.833,206.833 326.167,207.167 325.5,207.5C 325.557,206.391 325.89,205.391 326.5,204.5 Z"/></g>
<g><path style="opacity:0.341" fill="#fff1cb" d="M 199.5,200.5 C 199.5,205.167 199.5,209.833 199.5,214.5C 198.599,213.71 197.932,212.71 197.5,211.5C 198.833,208.833 198.833,206.167 197.5,203.5C 197.932,202.29 198.599,201.29 199.5,200.5 Z"/></g>
<g><path style="opacity:0.996" fill="#ffb17a" d="M 195.5,205.5 C 195.704,207.685 196.37,209.685 197.5,211.5C 197.932,212.71 198.599,213.71 199.5,214.5C 198.923,215.773 198.257,215.773 197.5,214.5C 196.422,211.793 195.422,209.126 194.5,206.5C 194.5,205.833 194.833,205.5 195.5,205.5 Z"/></g>
<g><path style="opacity:0.998" fill="#ff4c40" d="M 171.5,217.5 C 170.883,217.611 170.383,217.944 170,218.5C 169.418,224.495 167.752,230.162 165,235.5C 161.156,240.41 156.656,241.41 151.5,238.5C 151.027,237.094 150.027,236.427 148.5,236.5C 147.069,235.22 146.402,233.553 146.5,231.5C 151.71,233.497 156.21,232.497 160,228.5C 162.752,223.162 164.418,217.495 165,211.5C 165.414,211.043 165.914,210.709 166.5,210.5C 172.942,207.671 176.275,209.671 176.5,216.5C 174.585,216.216 172.919,216.549 171.5,217.5 Z"/></g>
<g><path style="opacity:0.069" fill="#fffbe7" d="M 225.5,212.5 C 230.5,213.167 235.5,213.833 240.5,214.5C 234.974,214.821 229.64,214.488 224.5,213.5C 224.5,212.833 224.833,212.5 225.5,212.5 Z"/></g>
<g><path style="opacity:0.384" fill="#ffb6b2" d="M 334.5,216.5 C 336.027,216.427 337.027,217.094 337.5,218.5C 335.973,218.573 334.973,217.906 334.5,216.5 Z"/></g>
<g><path style="opacity:0.727" fill="#fff2c3" d="M 352.5,218.5 C 353.483,222.298 353.817,226.298 353.5,230.5C 352.042,226.62 351.709,222.62 352.5,218.5 Z"/></g>
<g><path style="opacity:0.999" fill="#ff4c3f" d="M 285.5,225.5 C 280.821,225.334 276.155,225.501 271.5,226C 269.381,230.219 267.881,234.719 267,239.5C 266.097,240.701 264.931,241.535 263.5,242C 260.167,242.667 256.833,242.667 253.5,242C 251.333,241.167 249.833,239.667 249,237.5C 246.806,240.181 243.973,241.681 240.5,242C 233.174,242.5 225.841,242.666 218.5,242.5C 214.517,237.685 209.517,236.351 203.5,238.5C 202.221,237.285 201.221,237.618 200.5,239.5C 199.833,239.5 199.5,239.833 199.5,240.5C 196.482,242.463 193.149,242.963 189.5,242C 186.547,239.248 184.214,236.082 182.5,232.5C 188.519,236.998 193.686,235.998 198,229.5C 200.683,233.758 204.516,235.758 209.5,235.5C 218.822,234.812 228.155,234.312 237.5,234C 240.112,233.361 242.446,232.194 244.5,230.5C 250.032,236.649 255.866,236.983 262,231.5C 263.016,227.079 264.349,222.745 266,218.5C 271.803,217.326 277.636,217.493 283.5,219C 285.363,221.118 286.03,223.284 285.5,225.5 Z M 203.5,238.5 C 202.609,239.11 201.609,239.443 200.5,239.5C 201.221,237.618 202.221,237.285 203.5,238.5 Z"/></g>
<g><path style="opacity:0.125" fill="#ffe3d7" d="M 91.5,232.5 C 92.5,232.833 93.1667,233.5 93.5,234.5C 93.5,234.833 93.5,235.167 93.5,235.5C 92.0937,235.027 91.427,234.027 91.5,232.5 Z"/></g>
<g><path style="opacity:0.192" fill="#ffded4" d="M 382.5,232.5 C 383.5,232.833 384.167,233.5 384.5,234.5C 384.5,234.833 384.5,235.167 384.5,235.5C 383.094,235.027 382.427,234.027 382.5,232.5 Z"/></g>
<g><path style="opacity:0.757" fill="#ffaaa4" d="M 148.5,236.5 C 150.027,236.427 151.027,237.094 151.5,238.5C 149.973,238.573 148.973,237.906 148.5,236.5 Z"/></g>
<g><path style="opacity:0.447" fill="#ffb7a7" d="M 356.5,234.5 C 357.492,234.328 358.158,234.662 358.5,235.5C 358.5,236.5 358.5,237.5 358.5,238.5C 357.655,237.329 356.989,235.995 356.5,234.5 Z"/></g>
<g><path style="opacity:0.999" fill="#ffde5e" d="M 354.5,248.5 C 353.636,249.688 352.636,250.855 351.5,252C 345.297,254.016 339.797,257.183 335,261.5C 331.095,267.405 331.928,272.405 337.5,276.5C 343.572,280.237 348.239,285.237 351.5,291.5C 351.557,292.609 351.89,293.609 352.5,294.5C 354.165,305.692 349.831,313.192 339.5,317C 329.956,319.366 320.622,318.699 311.5,315C 310.019,314.02 308.685,312.853 307.5,311.5C 305.886,314.284 303.552,316.118 300.5,317C 292.162,317.426 283.829,317.926 275.5,318.5C 272.626,318.426 269.792,318.093 267,317.5C 265.97,317.836 265.47,318.503 265.5,319.5C 263.863,317.684 262.363,315.684 261,313.5C 260.242,303.466 260.409,293.466 261.5,283.5C 262.473,281.052 262.806,278.385 262.5,275.5C 262.665,272.482 262.498,269.482 262,266.5C 257.369,268.272 252.536,268.938 247.5,268.5C 250.09,281.377 250.923,294.377 250,307.5C 249.297,315.249 245.13,318.916 237.5,318.5C 237.027,317.094 236.027,316.427 234.5,316.5C 233.069,315.22 232.402,313.553 232.5,311.5C 232.907,300.169 233.241,288.836 233.5,277.5C 231.833,276.833 230.167,276.167 228.5,275.5C 230.167,275.5 231.833,275.5 233.5,275.5C 233.5,273.167 233.5,270.833 233.5,268.5C 228.917,268.333 224.584,268.333 220.5,268.5C 218.821,267.084 217.154,265.75 215.5,264.5C 216.228,261.921 216.728,259.254 217,256.5C 218.049,254.616 219.549,253.282 221.5,252.5C 226.167,252.5 230.833,252.5 235.5,252.5C 241.176,252.334 246.843,252.501 252.5,253C 256.039,253.187 259.205,254.354 262,256.5C 262.194,246.477 267.36,241.811 277.5,242.5C 284.632,242.933 291.632,244.099 298.5,246C 301.789,247.41 303.456,249.91 303.5,253.5C 300.95,261.367 295.617,263.701 287.5,260.5C 282.747,261.352 281.08,264.018 282.5,268.5C 284.045,269.452 285.712,269.785 287.5,269.5C 290.625,270.479 293.958,270.813 297.5,270.5C 300.858,271.527 302.525,273.86 302.5,277.5C 302.046,280.945 300.712,284.112 298.5,287C 297.127,287.875 295.627,288.375 294,288.5C 289.719,286.86 285.719,287.193 282,289.5C 281.206,293.221 282.706,295.555 286.5,296.5C 291.74,297.449 297.073,297.782 302.5,297.5C 305.642,297.799 307.809,299.466 309,302.5C 310.438,301.282 312.105,300.615 314,300.5C 317.958,301.656 321.958,302.656 326,303.5C 328.842,303.485 330.675,302.152 331.5,299.5C 332.573,298.749 332.74,297.749 332,296.5C 328.613,292.554 324.446,289.72 319.5,288C 317.963,286.293 316.296,284.793 314.5,283.5C 309.766,278.46 307.933,272.46 309,265.5C 313.61,246.277 325.777,237.443 345.5,239C 350.731,240.064 353.731,243.231 354.5,248.5 Z"/></g>
<g><path style="opacity:0.443" fill="#fff2c0" d="M 187.5,245.5 C 175.067,243.861 162.734,244.194 150.5,246.5C 151.347,245.034 152.68,244.2 154.5,244C 164.5,243.333 174.5,243.333 184.5,244C 185.737,244.232 186.737,244.732 187.5,245.5 Z"/></g>
<g><path style="opacity:1" fill="#ffdd5b" d="M 218.5,242.5 C 217.167,243.5 217.167,244.5 218.5,245.5C 216.487,254.868 210.82,259.202 201.5,258.5C 201.167,258.5 200.833,258.5 200.5,258.5C 199.883,258.389 199.383,258.056 199,257.5C 198.267,265.8 194.767,272.633 188.5,278C 190.041,279.579 191.208,281.413 192,283.5C 192.671,284.252 193.504,284.586 194.5,284.5C 194.833,285.833 195.167,287.167 195.5,288.5C 195.01,306.494 185.677,316.328 167.5,318C 161.758,319.166 156.425,318.332 151.5,315.5C 148.117,312.711 146.45,309.045 146.5,304.5C 146.599,287.822 146.265,271.155 145.5,254.5C 145.343,253.127 145.51,251.793 146,250.5C 146.876,248.365 148.376,247.031 150.5,246.5C 162.734,244.194 175.067,243.861 187.5,245.5C 191.138,245.738 193.971,247.404 196,250.5C 196.348,246.82 197.515,243.486 199.5,240.5C 200.167,240.5 200.5,240.167 200.5,239.5C 201.609,239.443 202.609,239.11 203.5,238.5C 209.517,236.351 214.517,237.685 218.5,242.5 Z M 167.5,296.5 C 170.059,296.198 172.393,296.532 174.5,297.5C 171.621,299.572 168.621,300.572 165.5,300.5C 165.733,298.938 166.4,297.605 167.5,296.5 Z"/></g>
<g><path style="opacity:0.995" fill="#ff4438" d="M 218.5,245.5 C 220.5,245.5 221.5,246.5 221.5,248.5C 221.5,249.833 221.5,251.167 221.5,252.5C 219.549,253.282 218.049,254.616 217,256.5C 216.728,259.254 216.228,261.921 215.5,264.5C 215.167,264.5 214.833,264.5 214.5,264.5C 212.9,265.512 211.566,265.012 210.5,263C 208.19,262.503 205.857,262.337 203.5,262.5C 202.326,261.486 201.66,260.153 201.5,258.5C 210.82,259.202 216.487,254.868 218.5,245.5 Z"/></g>
<g><path style="opacity:0.999" fill="#ff5043" d="M 354.5,248.5 C 358.465,251.028 359.299,254.362 357,258.5C 351.465,260.869 346.298,263.869 341.5,267.5C 338.801,269.898 337.467,272.898 337.5,276.5C 331.928,272.405 331.095,267.405 335,261.5C 339.797,257.183 345.297,254.016 351.5,252C 352.636,250.855 353.636,249.688 354.5,248.5 Z"/></g>
<g><path style="opacity:0.686" fill="#fff1c8" d="M 221.5,248.5 C 222.404,249.209 222.737,250.209 222.5,251.5C 227.032,251.182 231.366,251.515 235.5,252.5C 230.833,252.5 226.167,252.5 221.5,252.5C 221.5,251.167 221.5,249.833 221.5,248.5 Z"/></g>
<g><path style="opacity:0.999" fill="#ff473d" d="M 303.5,253.5 C 308.057,257.047 308.723,261.38 305.5,266.5C 304.423,267.705 303.09,268.372 301.5,268.5C 299.833,268.5 298.167,268.5 296.5,268.5C 296.167,268.5 295.833,268.5 295.5,268.5C 294.833,268.5 294.167,268.5 293.5,268.5C 292.167,268.5 290.833,268.5 289.5,268.5C 288.508,268.328 287.842,268.662 287.5,269.5C 285.712,269.785 284.045,269.452 282.5,268.5C 281.08,264.018 282.747,261.352 287.5,260.5C 295.617,263.701 300.95,261.367 303.5,253.5 Z"/></g>
<g><path style="opacity:0.999" fill="#ff4337" d="M 200.5,258.5 C 200.833,260.5 201.167,262.5 201.5,264.5C 199.476,270.082 197.809,275.749 196.5,281.5C 196.068,282.71 195.401,283.71 194.5,284.5C 193.504,284.586 192.671,284.252 192,283.5C 191.208,281.413 190.041,279.579 188.5,278C 194.767,272.633 198.267,265.8 199,257.5C 199.383,258.056 199.883,258.389 200.5,258.5 Z"/></g>
<g><path style="opacity:0.998" fill="#ff3e33" d="M 174.5,268.5 C 171.447,268.111 168.78,268.777 166.5,270.5C 164.833,270.5 163.167,270.5 161.5,270.5C 160.492,262.816 163.826,259.982 171.5,262C 174.249,262.364 176.249,263.697 177.5,266C 176.87,267.31 175.87,268.144 174.5,268.5 Z"/></g>
<g><path style="opacity:1" fill="#ffa191" d="M 200.5,258.5 C 200.833,258.5 201.167,258.5 201.5,258.5C 201.66,260.153 202.326,261.486 203.5,262.5C 203.167,263.5 202.5,264.167 201.5,264.5C 201.167,262.5 200.833,260.5 200.5,258.5 Z"/></g>
<g><path style="opacity:1" fill="#ffdc5b" d="M 203.5,262.5 C 205.857,262.337 208.19,262.503 210.5,263C 211.566,265.012 212.9,265.512 214.5,264.5C 215.038,266.117 215.371,267.784 215.5,269.5C 215.557,270.609 215.89,271.609 216.5,272.5C 218.104,285.631 217.27,298.631 214,311.5C 212.293,317.725 208.46,319.725 202.5,317.5C 199.806,315.672 197.806,313.339 196.5,310.5C 196.901,304.238 196.901,297.904 196.5,291.5C 197.468,289.393 197.802,287.059 197.5,284.5C 197.737,283.209 197.404,282.209 196.5,281.5C 197.809,275.749 199.476,270.082 201.5,264.5C 202.5,264.167 203.167,263.5 203.5,262.5 Z"/></g>
<g><path style="opacity:0.997" fill="#ff4b40" d="M 262.5,275.5 C 258.774,275.177 255.107,275.511 251.5,276.5C 251.624,277.107 251.957,277.44 252.5,277.5C 255.984,291.83 256.15,306.164 253,320.5C 250.103,325.155 245.937,326.655 240.5,325C 238.859,323.871 237.859,322.371 237.5,320.5C 237.5,319.833 237.5,319.167 237.5,318.5C 245.13,318.916 249.297,315.249 250,307.5C 250.923,294.377 250.09,281.377 247.5,268.5C 252.536,268.938 257.369,268.272 262,266.5C 262.498,269.482 262.665,272.482 262.5,275.5 Z"/></g>
<g><path style="opacity:0.996" fill="#ff4a3f" d="M 228.5,275.5 C 223.924,275.253 221.257,272.919 220.5,268.5C 224.584,268.333 228.917,268.333 233.5,268.5C 233.5,270.833 233.5,273.167 233.5,275.5C 231.833,275.5 230.167,275.5 228.5,275.5 Z"/></g>
<g><path style="opacity:0.012" fill="#ffe3d5" d="M 174.5,268.5 C 172.22,270.223 169.553,270.889 166.5,270.5C 168.78,268.777 171.447,268.111 174.5,268.5 Z"/></g>
<g><path style="opacity:0.671" fill="#ffe7ad" d="M 289.5,268.5 C 290.833,269.833 292.167,269.833 293.5,268.5C 294.167,268.5 294.833,268.5 295.5,268.5C 295.833,269.833 296.167,269.833 296.5,268.5C 298.167,268.5 299.833,268.5 301.5,268.5C 300.167,269.167 298.833,269.833 297.5,270.5C 293.958,270.813 290.625,270.479 287.5,269.5C 287.842,268.662 288.508,268.328 289.5,268.5 Z"/></g>
<g><path style="opacity:0.616" fill="#ffd7c5" d="M 215.5,269.5 C 216.906,269.973 217.573,270.973 217.5,272.5C 217.167,272.5 216.833,272.5 216.5,272.5C 215.89,271.609 215.557,270.609 215.5,269.5 Z"/></g>
<g><path style="opacity:0.997" fill="#ff5447" d="M 216.5,272.5 C 216.833,272.5 217.167,272.5 217.5,272.5C 219.117,274.121 220.284,276.121 221,278.5C 223.15,291.947 222.484,305.28 219,318.5C 216.67,325.463 212.17,327.296 205.5,324C 203.781,322.13 202.781,319.963 202.5,317.5C 208.46,319.725 212.293,317.725 214,311.5C 217.27,298.631 218.104,285.631 216.5,272.5 Z"/></g>
<g><path style="opacity:0.77" fill="#fff0b7" d="M 145.5,254.5 C 146.265,271.155 146.599,287.822 146.5,304.5C 145.511,298.685 144.845,292.685 144.5,286.5C 144.809,275.68 145.143,265.013 145.5,254.5 Z"/></g>
<g><path style="opacity:0.999" fill="#ff4d42" d="M 302.5,277.5 C 304.61,278.453 305.777,280.119 306,282.5C 307.213,287.382 306.046,291.548 302.5,295C 297.718,295.206 293.051,295.373 288.5,295.5C 287.508,295.328 286.842,295.662 286.5,296.5C 282.706,295.555 281.206,293.221 282,289.5C 285.719,287.193 289.719,286.86 294,288.5C 295.627,288.375 297.127,287.875 298.5,287C 300.712,284.112 302.046,280.945 302.5,277.5 Z"/></g>
<g><path style="opacity:0.467" fill="#ffe3c4" d="M 262.5,275.5 C 262.806,278.385 262.473,281.052 261.5,283.5C 261.5,281.167 261.5,278.833 261.5,276.5C 258.287,276.19 255.287,276.523 252.5,277.5C 251.957,277.44 251.624,277.107 251.5,276.5C 255.107,275.511 258.774,275.177 262.5,275.5 Z"/></g>
<g><path style="opacity:0.999" fill="#ff4a3f" d="M 195.5,288.5 C 196.11,289.391 196.443,290.391 196.5,291.5C 196.901,297.904 196.901,304.238 196.5,310.5C 192.173,318.964 185.173,323.797 175.5,325C 170.167,325.667 164.833,325.667 159.5,325C 154.838,323.505 152.172,320.339 151.5,315.5C 156.425,318.332 161.758,319.166 167.5,318C 185.677,316.328 195.01,306.494 195.5,288.5 Z"/></g>
<g><path style="opacity:0.153" fill="#ffeedd" d="M 197.5,284.5 C 197.802,287.059 197.468,289.393 196.5,291.5C 196.443,290.391 196.11,289.391 195.5,288.5C 196.167,287.167 196.833,285.833 197.5,284.5 Z"/></g>
<g><path style="opacity:0.997" fill="#ff6150" d="M 314.5,283.5 C 316.296,284.793 317.963,286.293 319.5,288C 324.446,289.72 328.613,292.554 332,296.5C 332.74,297.749 332.573,298.749 331.5,299.5C 323.234,296.9 317.567,291.566 314.5,283.5 Z"/></g>
<g><path style="opacity:0.998" fill="#ff4337" d="M 175.5,295.5 C 172.615,295.194 169.948,295.527 167.5,296.5C 166.4,297.605 165.733,298.938 165.5,300.5C 164.817,302.176 163.483,302.843 161.5,302.5C 158.191,290.309 162.524,286.142 174.5,290C 176.553,291.678 176.887,293.511 175.5,295.5 Z"/></g>
<g><path style="opacity:0.999" fill="#ffde6b" d="M 385.5,292.5 C 384.613,297.721 381.613,301.054 376.5,302.5C 371.523,300.151 370.356,296.485 373,291.5C 377.472,286.408 381.638,286.741 385.5,292.5 Z"/></g>
<g><path style="opacity:0.827" fill="#ffbba9" d="M 351.5,291.5 C 352.906,291.973 353.573,292.973 353.5,294.5C 353.167,294.5 352.833,294.5 352.5,294.5C 351.89,293.609 351.557,292.609 351.5,291.5 Z"/></g>
<g><path style="opacity:0.999" fill="#ff5a4d" d="M 385.5,292.5 C 388.874,294.88 389.374,297.88 387,301.5C 383.587,304.886 380.087,305.22 376.5,302.5C 381.613,301.054 384.613,297.721 385.5,292.5 Z"/></g>
<g><path style="opacity:0.029" fill="#ffe6e3" d="M 167.5,296.5 C 169.948,295.527 172.615,295.194 175.5,295.5C 175.672,296.492 175.338,297.158 174.5,297.5C 172.393,296.532 170.059,296.198 167.5,296.5 Z"/></g>
<g><path style="opacity:0.094" fill="#fffce8" d="M 286.5,296.5 C 286.842,295.662 287.508,295.328 288.5,295.5C 293.167,296.167 297.833,296.833 302.5,297.5C 297.073,297.782 291.74,297.449 286.5,296.5 Z"/></g>
<g><path style="opacity:0.999" fill="#ff4a3f" d="M 352.5,294.5 C 352.833,294.5 353.167,294.5 353.5,294.5C 358.644,302.218 358.811,310.218 354,318.5C 348.74,323.698 342.407,326.365 335,326.5C 331.17,325.801 327.337,325.134 323.5,324.5C 321.485,323.076 319.152,322.41 316.5,322.5C 314.629,322.141 313.129,321.141 312,319.5C 309.814,323.018 306.647,324.852 302.5,325C 291.326,325.826 280.326,325.659 269.5,324.5C 269.027,323.094 268.027,322.427 266.5,322.5C 265.89,321.609 265.557,320.609 265.5,319.5C 265.47,318.503 265.97,317.836 267,317.5C 269.792,318.093 272.626,318.426 275.5,318.5C 283.829,317.926 292.162,317.426 300.5,317C 303.552,316.118 305.886,314.284 307.5,311.5C 308.685,312.853 310.019,314.02 311.5,315C 320.622,318.699 329.956,319.366 339.5,317C 349.831,313.192 354.165,305.692 352.5,294.5 Z"/></g>
<g><path style="opacity:0.065" fill="#fffbe8" d="M 233.5,277.5 C 233.241,288.836 232.907,300.169 232.5,311.5C 231.836,308.854 231.502,306.021 231.5,303C 231.841,294.32 232.508,285.82 233.5,277.5 Z"/></g>
<g><path style="opacity:0.255" fill="#ffddca" d="M 234.5,316.5 C 236.027,316.427 237.027,317.094 237.5,318.5C 237.5,319.167 237.5,319.833 237.5,320.5C 236.512,319.205 235.512,317.872 234.5,316.5 Z"/></g>
<g><path style="opacity:0.482" fill="#ffb0ad" d="M 266.5,322.5 C 268.027,322.427 269.027,323.094 269.5,324.5C 267.973,324.573 266.973,323.906 266.5,322.5 Z"/></g>
<g><path style="opacity:0.733" fill="#ff938d" d="M 316.5,322.5 C 319.152,322.41 321.485,323.076 323.5,324.5C 320.848,324.59 318.515,323.924 316.5,322.5 Z"/></g>
</svg>
