<?xml version="1.0" encoding="UTF-8"?>
<!DOCTYPE svg PUBLIC "-//W3C//DTD SVG 1.1//EN" "http://www.w3.org/Graphics/SVG/1.1/DTD/svg11.dtd">
<svg xmlns="http://www.w3.org/2000/svg" version="1.1" width="512px" height="512px" style="shape-rendering:geometricPrecision; text-rendering:geometricPrecision; image-rendering:optimizeQuality; fill-rule:evenodd; clip-rule:evenodd" xmlns:xlink="http://www.w3.org/1999/xlink">
<g><path style="opacity:0.959" fill="#010201" d="M 467.5,143.5 C 464.613,143.067 462.113,141.733 460,139.5C 458.703,126.24 453.203,115.24 443.5,106.5C 430.697,98.0983 417.03,91.265 402.5,86C 396.911,83.4005 391.577,80.4005 386.5,77C 379.03,70.5316 371.864,63.6983 365,56.5C 356.363,44.1942 345.53,34.3609 332.5,27C 324.299,24.7166 315.966,24.0499 307.5,25C 294.769,27.4128 282.102,30.0795 269.5,33C 259.833,33.6667 250.167,33.6667 240.5,33C 227.542,30.1251 214.542,27.4584 201.5,25C 187.324,22.6155 174.991,26.2822 164.5,36C 157.593,42.2362 151.427,49.0695 146,56.5C 139.136,63.6983 131.97,70.5316 124.5,77C 119.423,80.4005 114.089,83.4005 108.5,86C 97.3317,90.6124 86.3317,95.6124 75.5,101C 63.4362,107.74 55.9362,117.906 53,131.5C 50.764,147.139 48.764,162.805 47,178.5C 45.8217,182.88 44.4883,187.213 43,191.5C 34.588,207.992 25.9213,224.325 17,240.5C 13.5298,251.263 13.8632,261.93 18,272.5C 26.9362,288.706 35.6028,305.04 44,321.5C 45.802,326.375 47.1353,331.375 48,336.5C 49.1449,352.285 51.1449,367.952 54,383.5C 57.2583,395.523 64.425,404.356 75.5,410C 92.2637,417.216 108.597,425.216 124.5,434C 131.97,440.468 139.136,447.302 146,454.5C 153.5,464.667 162.333,473.5 172.5,481C 181.527,486.162 191.194,487.829 201.5,486C 214.523,483.462 227.523,480.795 240.5,478C 250.167,477.333 259.833,477.333 269.5,478C 286.538,482.761 303.871,485.594 321.5,486.5C 328.859,485.828 335.526,483.328 341.5,479C 355.475,465.358 369.141,451.358 382.5,437C 386.898,433.606 391.565,430.606 396.5,428C 410.287,421.94 423.953,415.607 437.5,409C 449.928,400.88 457.095,389.38 459,374.5C 460.408,358.748 462.408,343.081 465,327.5C 467.221,320.172 470.221,313.172 474,306.5C 483.724,292.718 491.057,277.718 496,261.5C 496.988,254.332 496.322,247.332 494,240.5C 487.522,227.543 480.522,214.877 473,202.5C 467.8,192.401 464.3,181.735 462.5,170.5C 462.997,166.01 465.331,163.01 469.5,161.5C 472.559,161.797 475.059,163.13 477,165.5C 480.525,183.88 487.859,200.547 499,215.5C 504.325,224.801 508.492,234.468 511.5,244.5C 511.5,251.833 511.5,259.167 511.5,266.5C 509.936,270.687 508.436,275.02 507,279.5C 499,294.167 491,308.833 483,323.5C 481.465,327.773 480.131,332.106 479,336.5C 477.136,350.142 475.469,363.808 474,377.5C 471.56,397.568 461.726,412.734 444.5,423C 428.379,430.481 412.379,438.148 396.5,446C 389.698,451.801 383.198,457.968 377,464.5C 368.126,476.374 357.626,486.541 345.5,495C 336.651,499.97 327.151,502.137 317,501.5C 301.243,500.682 285.743,498.182 270.5,494C 260.504,492.044 250.504,492.044 240.5,494C 229.192,496.462 217.858,498.795 206.5,501C 186.779,504.738 169.445,500.072 154.5,487C 146.928,480.099 140.095,472.599 134,464.5C 127.802,457.968 121.302,451.801 114.5,446C 96.2212,437.527 78.2212,428.527 60.5,419C 46.7946,408.596 38.9613,394.763 37,377.5C 35.5916,362.413 33.5916,347.413 31,332.5C 29.1608,325.821 26.4941,319.488 23,313.5C 13.0064,298.846 5.17309,283.18 -0.5,266.5C -0.5,259.167 -0.5,251.833 -0.5,244.5C 1.06378,240.313 2.56378,235.98 4,231.5C 12,216.833 20,202.167 28,187.5C 29.5354,183.227 30.8688,178.894 32,174.5C 33.8642,160.858 35.5309,147.192 37,133.5C 39.4404,113.432 49.2738,98.2656 66.5,88C 82.7742,80.8625 98.7742,73.1959 114.5,65C 121.302,59.1987 127.802,53.0321 134,46.5C 142.874,34.6259 153.374,24.4592 165.5,16C 170.534,13.2107 175.868,11.2107 181.5,10C 189.833,9.33333 198.167,9.33333 206.5,10C 222.86,13.739 239.36,16.5724 256,18.5C 272.339,16.6991 288.506,13.8657 304.5,10C 324.221,6.26159 341.555,10.9283 356.5,24C 364.072,30.9013 370.905,38.4013 377,46.5C 383.198,53.0321 389.698,59.1987 396.5,65C 412.379,72.8524 428.379,80.519 444.5,88C 464.671,99.9378 474.005,117.438 472.5,140.5C 470.971,141.763 469.305,142.763 467.5,143.5 Z"/></g>
<g><path style="opacity:1" fill="#dff3e8" d="M 443.5,106.5 C 444.962,111.761 446.129,117.094 447,122.5C 447.128,139.197 447.794,155.864 449,172.5C 454.553,188.939 462.219,204.272 472,218.5C 478.718,229.257 482.551,240.924 483.5,253.5C 483.509,259.29 482.675,264.956 481,270.5C 473.861,286.112 466.194,301.445 458,316.5C 457,319.5 456,322.5 455,325.5C 452.578,340.548 449.911,355.548 447,370.5C 441.905,385.599 432.405,397.099 418.5,405C 401.876,413.31 385.876,422.644 370.5,433C 360.265,442.998 351.098,453.832 343,465.5C 335.891,472.779 328.724,479.779 321.5,486.5C 303.871,485.594 286.538,482.761 269.5,478C 259.833,477.333 250.167,477.333 240.5,478C 227.523,480.795 214.523,483.462 201.5,486C 191.194,487.829 181.527,486.162 172.5,481C 162.333,473.5 153.5,464.667 146,454.5C 139.136,447.302 131.97,440.468 124.5,434C 108.597,425.216 92.2637,417.216 75.5,410C 64.425,404.356 57.2583,395.523 54,383.5C 51.1449,367.952 49.1449,352.285 48,336.5C 47.1353,331.375 45.802,326.375 44,321.5C 35.6028,305.04 26.9362,288.706 18,272.5C 13.8632,261.93 13.5298,251.263 17,240.5C 25.9213,224.325 34.588,207.992 43,191.5C 44.4883,187.213 45.8217,182.88 47,178.5C 48.764,162.805 50.764,147.139 53,131.5C 55.9362,117.906 63.4362,107.74 75.5,101C 86.3317,95.6124 97.3317,90.6124 108.5,86C 114.089,83.4005 119.423,80.4005 124.5,77C 131.97,70.5316 139.136,63.6983 146,56.5C 151.427,49.0695 157.593,42.2362 164.5,36C 174.991,26.2822 187.324,22.6155 201.5,25C 214.542,27.4584 227.542,30.1251 240.5,33C 250.167,33.6667 259.833,33.6667 269.5,33C 282.102,30.0795 294.769,27.4128 307.5,25C 315.966,24.0499 324.299,24.7166 332.5,27C 345.53,34.3609 356.363,44.1942 365,56.5C 371.864,63.6983 379.03,70.5316 386.5,77C 391.577,80.4005 396.911,83.4005 402.5,86C 417.03,91.265 430.697,98.0983 443.5,106.5 Z"/></g>
<g><path style="opacity:1" fill="#030504" d="M 132.5,407.5 C 135.007,404.964 138.007,404.131 141.5,405C 181.331,434.46 225.998,446.794 275.5,442C 277.708,441.809 279.708,441.309 281.5,440.5C 342.043,431.104 387.876,400.104 419,347.5C 445.48,297.364 449.814,245.364 432,191.5C 419.311,158.321 399.144,130.655 371.5,108.5C 320.092,69.5203 263.092,58.687 200.5,76C 128.419,101.412 84.9192,151.579 70,226.5C 62.3993,287.355 79.066,340.355 120,385.5C 120.793,388.741 120.293,391.741 118.5,394.5C 114.396,397.38 110.563,397.047 107,393.5C 54.5868,332.52 40.5868,263.52 65,186.5C 95.8656,110.961 151.699,66.7939 232.5,54C 308.798,48.2959 370.632,75.1292 418,134.5C 462.201,197.522 469.867,264.855 441,336.5C 407.33,407.13 351.497,447.297 273.5,457C 222.19,461.259 175.856,448.259 134.5,418C 131.458,414.959 130.792,411.459 132.5,407.5 Z"/></g>
<g><path style="opacity:1" fill="#6dd3a0" d="M 371.5,108.5 C 430.75,170.944 445.917,242.944 417,324.5C 390.218,384.785 345.051,423.452 281.5,440.5C 279.708,441.309 277.708,441.809 275.5,442C 225.998,446.794 181.331,434.46 141.5,405C 138.007,404.131 135.007,404.964 132.5,407.5C 127.859,403.195 123.193,398.861 118.5,394.5C 120.293,391.741 120.793,388.741 120,385.5C 79.066,340.355 62.3993,287.355 70,226.5C 84.9192,151.579 128.419,101.412 200.5,76C 263.092,58.687 320.092,69.5203 371.5,108.5 Z"/></g>
<g><path style="opacity:1" fill="#cbebda" d="M 443.5,106.5 C 453.203,115.24 458.703,126.24 460,139.5C 462.113,141.733 464.613,143.067 467.5,143.5C 468.429,149.453 469.096,155.453 469.5,161.5C 465.331,163.01 462.997,166.01 462.5,170.5C 464.3,181.735 467.8,192.401 473,202.5C 480.522,214.877 487.522,227.543 494,240.5C 496.322,247.332 496.988,254.332 496,261.5C 491.057,277.718 483.724,292.718 474,306.5C 470.221,313.172 467.221,320.172 465,327.5C 462.408,343.081 460.408,358.748 459,374.5C 457.095,389.38 449.928,400.88 437.5,409C 423.953,415.607 410.287,421.94 396.5,428C 391.565,430.606 386.898,433.606 382.5,437C 369.141,451.358 355.475,465.358 341.5,479C 335.526,483.328 328.859,485.828 321.5,486.5C 328.724,479.779 335.891,472.779 343,465.5C 351.098,453.832 360.265,442.998 370.5,433C 385.876,422.644 401.876,413.31 418.5,405C 432.405,397.099 441.905,385.599 447,370.5C 449.911,355.548 452.578,340.548 455,325.5C 456,322.5 457,319.5 458,316.5C 466.194,301.445 473.861,286.112 481,270.5C 482.675,264.956 483.509,259.29 483.5,253.5C 482.551,240.924 478.718,229.257 472,218.5C 462.219,204.272 454.553,188.939 449,172.5C 447.794,155.864 447.128,139.197 447,122.5C 446.129,117.094 444.962,111.761 443.5,106.5 Z"/></g>
<g><path style="opacity:1" fill="#45c88b" d="M 371.5,108.5 C 399.144,130.655 419.311,158.321 432,191.5C 449.814,245.364 445.48,297.364 419,347.5C 387.876,400.104 342.043,431.104 281.5,440.5C 345.051,423.452 390.218,384.785 417,324.5C 445.917,242.944 430.75,170.944 371.5,108.5 Z"/></g>
<g><path style="opacity:1" fill="#030604" d="M 184.5,143.5 C 189.023,143.345 192.189,145.345 194,149.5C 194.966,177.215 194.632,204.882 193,232.5C 183.091,257.204 165.258,266.038 139.5,259C 119.153,248.465 111.653,231.965 117,209.5C 120.158,200.672 126.158,195.005 135,192.5C 141.248,192.976 143.581,196.31 142,202.5C 139.68,205.148 137.014,207.481 134,209.5C 126.58,225.657 130.746,237.824 146.5,246C 162.698,249.116 173.531,242.95 179,227.5C 179.333,200.833 179.667,174.167 180,147.5C 181.397,145.93 182.897,144.596 184.5,143.5 Z"/></g>
<g><path style="opacity:1" fill="#020403" d="M 278.5,148.5 C 282.426,148.047 285.592,149.38 288,152.5C 288.148,164.161 287.982,175.828 287.5,187.5C 286.251,202.676 289.084,217.01 296,230.5C 306.308,244.408 320.141,252.241 337.5,254C 351.933,255.766 365.933,254.099 379.5,249C 381.238,245.156 380.571,241.823 377.5,239C 365.61,231.257 352.61,227.591 338.5,228C 336.605,230.806 334.272,233.14 331.5,235C 324.333,235.833 321.167,232.667 322,225.5C 326.27,216.446 333.436,212.113 343.5,212.5C 361.961,213.82 378.128,220.487 392,232.5C 398.412,244.584 396.246,254.751 385.5,263C 361.442,271.469 337.442,271.469 313.5,263C 298.834,256.667 287.667,246.5 280,232.5C 266.055,260.225 243.555,271.725 212.5,267C 207.864,266.121 203.531,264.455 199.5,262C 196.655,257.736 196.988,253.736 200.5,250C 208.077,250.967 215.744,251.8 223.5,252.5C 248.873,252.631 264.373,240.298 270,215.5C 270.573,211.152 271.24,206.819 272,202.5C 272.355,186.153 273.021,169.82 274,153.5C 275.366,151.638 276.866,149.972 278.5,148.5 Z"/></g>
<g><path style="opacity:1" fill="#020503" d="M 214.5,162.5 C 221.027,162.431 226.694,164.598 231.5,169C 244.926,179.679 250.759,193.513 249,210.5C 246.487,214.212 242.987,215.378 238.5,214C 237.667,213.167 236.833,212.333 236,211.5C 236.235,194.74 228.735,182.907 213.5,176C 209.285,171.134 209.618,166.634 214.5,162.5 Z"/></g>
<g><path style="opacity:1" fill="#030604" d="M 127.5,288.5 C 127.5,295.5 127.5,302.5 127.5,309.5C 135.352,309.825 143.018,309.492 150.5,308.5C 150.068,300.721 150.568,293.054 152,285.5C 156.625,281.354 160.959,281.687 165,286.5C 165.667,306.833 165.667,327.167 165,347.5C 162.661,352.256 159.161,353.423 154.5,351C 152.859,349.871 151.859,348.371 151.5,346.5C 151.5,338.833 151.5,331.167 151.5,323.5C 143.5,323.5 135.5,323.5 127.5,323.5C 127.5,331.167 127.5,338.833 127.5,346.5C 124.004,353.496 119.504,354.162 114,348.5C 112.856,338.094 112.356,327.594 112.5,317C 112.667,307.167 112.833,297.333 113,287.5C 115.665,282.566 119.498,281.399 124.5,284C 126.141,285.129 127.141,286.629 127.5,288.5 Z"/></g>
<g><path style="opacity:1" fill="#020403" d="M 203.5,282.5 C 207.803,281.796 211.303,283.13 214,286.5C 221.278,304.723 228.278,323.056 235,341.5C 236.439,347.629 234.106,351.296 228,352.5C 225.497,352.01 223.497,350.677 222,348.5C 220.526,345.244 219.36,341.911 218.5,338.5C 210.826,338.334 203.159,338.5 195.5,339C 193.809,342.401 192.309,345.901 191,349.5C 185.303,354.095 180.97,353.095 178,346.5C 177.333,344.833 177.333,343.167 178,341.5C 184.941,322.675 192.275,304.009 200,285.5C 201.145,284.364 202.312,283.364 203.5,282.5 Z"/></g>
<g><path style="opacity:1" fill="#030604" d="M 251.5,282.5 C 256.28,281.641 259.78,283.308 262,287.5C 262.5,304.163 262.667,320.83 262.5,337.5C 267.511,337.334 272.511,337.501 277.5,338C 283.078,343.459 282.411,348.126 275.5,352C 267.833,352.667 260.167,352.667 252.5,352C 251.069,351.535 249.903,350.701 249,349.5C 247.357,328.589 247.023,307.589 248,286.5C 249.376,285.295 250.542,283.962 251.5,282.5 Z"/></g>
<g><path style="opacity:1" fill="#020403" d="M 319.5,282.5 C 323.803,281.796 327.303,283.13 330,286.5C 337.278,304.723 344.278,323.056 351,341.5C 352.439,347.629 350.106,351.296 344,352.5C 341.497,352.01 339.497,350.677 338,348.5C 336.526,345.244 335.36,341.911 334.5,338.5C 326.826,338.334 319.159,338.5 311.5,339C 309.809,342.401 308.309,345.901 307,349.5C 301.303,354.095 296.97,353.095 294,346.5C 293.333,344.833 293.333,343.167 294,341.5C 300.941,322.675 308.275,304.009 316,285.5C 317.145,284.364 318.312,283.364 319.5,282.5 Z"/></g>
<g><path style="opacity:1" fill="#050906" d="M 378.5,288.5 C 378.5,304.833 378.5,321.167 378.5,337.5C 383.167,337.5 387.833,337.5 392.5,337.5C 397.261,339.616 398.761,343.283 397,348.5C 395.786,350.049 394.286,351.215 392.5,352C 384.833,352.667 377.167,352.667 369.5,352C 367,350.833 365.167,349 364,346.5C 363.333,326.833 363.333,307.167 364,287.5C 366.665,282.566 370.498,281.399 375.5,284C 377.141,285.129 378.141,286.629 378.5,288.5 Z"/></g>
<g><path style="opacity:1" fill="#438362" d="M 378.5,288.5 C 379.496,304.325 379.83,320.325 379.5,336.5C 384.032,336.182 388.366,336.515 392.5,337.5C 387.833,337.5 383.167,337.5 378.5,337.5C 378.5,321.167 378.5,304.833 378.5,288.5 Z"/></g>
<g><path style="opacity:1" fill="#2c5641" d="M 127.5,288.5 C 128.491,294.979 128.824,301.646 128.5,308.5C 135.833,308.5 143.167,308.5 150.5,308.5C 143.018,309.492 135.352,309.825 127.5,309.5C 127.5,302.5 127.5,295.5 127.5,288.5 Z"/></g>
<g><path style="opacity:1" fill="#66c595" d="M 205.5,309.5 C 206.75,309.577 207.583,310.244 208,311.5C 209.484,315.447 210.65,319.447 211.5,323.5C 208.167,323.5 204.833,323.5 201.5,323.5C 202.833,318.833 204.167,314.167 205.5,309.5 Z"/></g>
<g><path style="opacity:1" fill="#67c998" d="M 322.5,309.5 C 324.94,313.817 326.607,318.483 327.5,323.5C 324.167,323.5 320.833,323.5 317.5,323.5C 318.77,318.688 320.437,314.022 322.5,309.5 Z"/></g>
<g><path style="opacity:1" fill="#3a7155" d="M 151.5,346.5 C 150.508,339.352 150.175,332.019 150.5,324.5C 143.167,324.5 135.833,324.5 128.5,324.5C 128.825,332.019 128.492,339.352 127.5,346.5C 127.5,338.833 127.5,331.167 127.5,323.5C 135.5,323.5 143.5,323.5 151.5,323.5C 151.5,331.167 151.5,338.833 151.5,346.5 Z"/></g>
</svg>
