<?xml version="1.0" encoding="UTF-8"?>
<!DOCTYPE svg PUBLIC "-//W3C//DTD SVG 1.1//EN" "http://www.w3.org/Graphics/SVG/1.1/DTD/svg11.dtd">
<svg xmlns="http://www.w3.org/2000/svg" version="1.1" width="512px" height="512px" style="shape-rendering:geometricPrecision; text-rendering:geometricPrecision; image-rendering:optimizeQuality; fill-rule:evenodd; clip-rule:evenodd" xmlns:xlink="http://www.w3.org/1999/xlink">
<g><path style="opacity:0.979" fill="#000000" d="M 163.5,-0.5 C 225.167,-0.5 286.833,-0.5 348.5,-0.5C 369.672,-0.0338248 390.672,2.79951 411.5,8C 461.111,23.9444 492.611,57.111 506,107.5C 508.363,118.896 510.197,130.23 511.5,141.5C 511.5,216.5 511.5,291.5 511.5,366.5C 510.058,397.588 500.892,426.255 484,452.5C 458.166,486.009 423.999,504.843 381.5,509C 370.673,509.77 360.006,510.604 349.5,511.5C 287.5,511.5 225.5,511.5 163.5,511.5C 131.361,511.77 100.694,504.937 71.5,491C 27.5928,463.645 4.42617,423.812 2,371.5C 1.09935,348.008 0.266021,324.675 -0.5,301.5C -0.5,270.833 -0.5,240.167 -0.5,209.5C 0.277028,186.992 1.11036,164.325 2,141.5C 3.37624,95.2735 21.8762,57.7735 57.5,29C 75.8348,16.0059 96.1682,7.67255 118.5,4C 133.572,1.67667 148.572,0.176674 163.5,-0.5 Z M 180.5,46.5 C 231.168,46.3333 281.834,46.5 332.5,47C 348.888,47.1685 365.221,48.1685 381.5,50C 421.448,55.2908 447.281,77.1241 459,115.5C 461.784,125.651 463.45,135.984 464,146.5C 466,219.5 466,292.5 464,365.5C 463.687,402.313 448.187,430.48 417.5,450C 395.328,460.218 371.995,464.884 347.5,464C 280.158,465.82 212.825,465.487 145.5,463C 89.5553,459.385 57.722,429.885 50,374.5C 49.0442,362.517 48.3775,350.517 48,338.5C 47.3333,283.167 47.3333,227.833 48,172.5C 47.1996,148.1 50.8662,124.433 59,101.5C 72.7796,73.1761 95.2796,56.3428 126.5,51C 144.571,48.5044 162.571,47.0044 180.5,46.5 Z M 250.5,170.5 C 296.165,171.016 325.665,193.016 339,236.5C 345.547,272.199 334.714,301.366 306.5,324C 271.087,346.785 236.42,345.785 202.5,321C 169.188,289.162 163.022,252.662 184,211.5C 199.686,187.313 221.852,173.646 250.5,170.5 Z"/></g>
<g><path style="opacity:0.962" fill="#000000" d="M 388.5,87.5 C 412.307,87.8064 424.14,99.8064 424,123.5C 418.973,143.496 406.139,151.996 385.5,149C 367.053,142.611 359.553,129.778 363,110.5C 367.004,97.6548 375.504,89.9881 388.5,87.5 Z"/></g>
<g><path style="opacity:0.975" fill="#000000" d="M 245.5,123.5 C 299.137,121.733 340.637,143.066 370,187.5C 398.035,241.118 394.035,292.118 358,340.5C 320.843,380.994 275.343,395.161 221.5,383C 165.02,364.85 132.853,326.35 125,267.5C 121.915,213.168 143.082,171.335 188.5,142C 206.359,131.879 225.359,125.712 245.5,123.5 Z M 250.5,170.5 C 221.852,173.646 199.686,187.313 184,211.5C 163.022,252.662 169.188,289.162 202.5,321C 236.42,345.785 271.087,346.785 306.5,324C 334.714,301.366 345.547,272.199 339,236.5C 325.665,193.016 296.165,171.016 250.5,170.5 Z"/></g>
</svg>
