<?xml version="1.0" encoding="UTF-8"?>
<!DOCTYPE svg PUBLIC "-//W3C//DTD SVG 1.1//EN" "http://www.w3.org/Graphics/SVG/1.1/DTD/svg11.dtd">
<svg xmlns="http://www.w3.org/2000/svg" version="1.1" width="512px" height="512px" style="shape-rendering:geometricPrecision; text-rendering:geometricPrecision; image-rendering:optimizeQuality; fill-rule:evenodd; clip-rule:evenodd" xmlns:xlink="http://www.w3.org/1999/xlink">
<g><path style="opacity:0.976" fill="#000000" d="M 98.5,73.5 C 203.167,73.3333 307.834,73.5 412.5,74C 449.878,78.7112 474.712,98.8779 487,134.5C 488.317,139.1 489.317,143.766 490,148.5C 490.667,219.833 490.667,291.167 490,362.5C 483.854,398.648 463.354,422.481 428.5,434C 422.925,435.515 417.258,436.515 411.5,437C 307.5,437.667 203.5,437.667 99.5,437C 60.3853,432.217 34.8853,411.051 23,373.5C 22.2255,369.853 21.5588,366.186 21,362.5C 20.3333,291.167 20.3333,219.833 21,148.5C 26.331,116.337 43.831,93.5039 73.5,80C 81.7553,77.0207 90.0887,74.854 98.5,73.5 Z M 99.5,117.5 C 203.501,117.333 307.501,117.5 411.5,118C 417.743,118.956 423.41,121.289 428.5,125C 383.167,160.333 337.833,195.667 292.5,231C 267.833,246.333 243.167,246.333 218.5,231C 173.167,195.667 127.833,160.333 82.5,125C 87.7816,121.353 93.4483,118.853 99.5,117.5 Z M 63.5,166.5 C 107.498,199.841 151.165,233.674 194.5,268C 235.167,292.667 275.833,292.667 316.5,268C 359.729,233.804 403.229,199.971 447,166.5C 447.667,228.167 447.667,289.833 447,351.5C 445.234,373.934 433.4,387.767 411.5,393C 307.5,393.667 203.5,393.667 99.5,393C 77.5898,387.758 65.7565,373.925 64,351.5C 63.5,289.834 63.3333,228.168 63.5,166.5 Z"/></g>
</svg>
