<?xml version="1.0" encoding="UTF-8"?>
<!DOCTYPE svg PUBLIC "-//W3C//DTD SVG 1.1//EN" "http://www.w3.org/Graphics/SVG/1.1/DTD/svg11.dtd">
<svg xmlns="http://www.w3.org/2000/svg" version="1.1" width="512px" height="512px" style="shape-rendering:geometricPrecision; text-rendering:geometricPrecision; image-rendering:optimizeQuality; fill-rule:evenodd; clip-rule:evenodd" xmlns:xlink="http://www.w3.org/1999/xlink">
<g><path style="opacity:0.98" fill="#040302" d="M 230.5,-0.5 C 247.167,-0.5 263.833,-0.5 280.5,-0.5C 285.378,1.70535 289.378,5.03868 292.5,9.5C 292.709,10.9217 293.209,12.255 294,13.5C 294.181,29.9072 294.681,46.2405 295.5,62.5C 295.333,79.8365 295.5,97.1699 296,114.5C 299.989,118.433 300.489,122.766 297.5,127.5C 292.335,130.834 288.002,130 284.5,125C 277.508,124.5 270.508,124.334 263.5,124.5C 251.162,124.333 238.829,124.5 226.5,125C 219.539,133.63 212.205,141.963 204.5,150C 201.132,150.543 197.799,150.376 194.5,149.5C 193.844,147.516 193.178,145.516 192.5,143.5C 193.054,141.39 193.888,139.39 195,137.5C 201.903,130.02 208.569,122.354 215,114.5C 215.5,97.1699 215.667,79.8365 215.5,62.5C 216.331,46.3385 216.831,30.0051 217,13.5C 217.791,12.255 218.291,10.9217 218.5,9.5C 221.622,5.03868 225.622,1.70535 230.5,-0.5 Z"/></g>
<g><path style="opacity:0.958" fill="#020100" d="M 201.5,12.5 C 201.953,16.4257 200.62,19.5923 197.5,22C 111.762,46.7383 54.2624,101.238 25,185.5C 5.26611,255.783 14.2661,322.117 52,384.5C 74.0723,418.907 102.906,446.074 138.5,466C 141.87,468.697 143.204,472.197 142.5,476.5C 139.707,480.171 136.04,481.338 131.5,480C 52.849,433.577 8.84899,364.744 -0.5,273.5C -0.5,262.167 -0.5,250.833 -0.5,239.5C 10.0794,136.824 62.0794,63.6572 155.5,20C 168.004,14.8322 180.837,10.6655 194,7.5C 197.45,7.804 199.95,9.47066 201.5,12.5 Z"/></g>
<g><path style="opacity:0.956" fill="#030101" d="M 406.5,57.5 C 403.864,60.6511 400.531,61.8178 396.5,61C 370.516,42.6759 342.183,29.1759 311.5,20.5C 309.87,17.7239 309.203,14.7239 309.5,11.5C 312.136,8.3489 315.469,7.18223 319.5,8C 350.431,15.8017 378.764,28.9684 404.5,47.5C 407.358,50.4566 408.025,53.7899 406.5,57.5 Z"/></g>
<g><path style="opacity:0.999" fill="#f07a7a" d="M 218.5,9.5 C 218.291,10.9217 217.791,12.255 217,13.5C 216.831,30.0051 216.331,46.3385 215.5,62.5C 210.905,63.8152 206.239,64.8152 201.5,65.5C 198.262,61.9119 194.262,60.7452 189.5,62C 125.779,86.055 82.6119,130.222 60,194.5C 41.4559,261.912 52.4559,323.912 93,380.5C 98.1667,386.333 103.333,392.167 108.5,398C 111.303,398.755 113.97,398.422 116.5,397C 127.378,384.457 137.878,371.624 148,358.5C 150.158,354.461 149.658,350.794 146.5,347.5C 149.486,343.183 152.82,339.183 156.5,335.5C 159.445,336.468 162.445,336.634 165.5,336C 231.712,255.457 297.545,174.623 363,93.5C 367.283,86.9347 365.783,82.1013 358.5,79C 346.337,72.2525 333.67,66.5859 320.5,62C 316.077,60.8824 312.41,62.0491 309.5,65.5C 304.833,64.5 300.167,63.5 295.5,62.5C 294.681,46.2405 294.181,29.9072 294,13.5C 293.209,12.255 292.709,10.9217 292.5,9.5C 298.18,10.0579 303.847,10.7245 309.5,11.5C 309.203,14.7239 309.87,17.7239 311.5,20.5C 342.183,29.1759 370.516,42.6759 396.5,61C 400.531,61.8178 403.864,60.6511 406.5,57.5C 411.014,60.5912 415.347,63.9245 419.5,67.5C 416.342,70.7942 415.842,74.4608 418,78.5C 475.75,133.394 501.417,200.728 495,280.5C 483.768,363.69 442.101,426.356 370,468.5C 368.187,471.078 368.02,473.745 369.5,476.5C 364.167,478.833 358.833,481.167 353.5,483.5C 353.179,463.757 353.513,444.091 354.5,424.5C 359.543,421.985 364.21,418.985 368.5,415.5C 370.138,416.657 371.804,417.824 373.5,419C 375.971,419.706 378.305,419.373 380.5,418C 438.554,370.36 464.721,308.86 459,233.5C 453.53,187.734 435.03,148.234 403.5,115C 400.97,113.578 398.303,113.245 395.5,114C 311.974,216.225 228.807,318.725 146,421.5C 145.515,429.686 149.181,432.686 157,430.5C 157.5,448.164 157.667,465.83 157.5,483.5C 152.555,480.967 147.555,478.634 142.5,476.5C 143.204,472.197 141.87,468.697 138.5,466C 102.906,446.074 74.0723,418.907 52,384.5C 14.2661,322.117 5.26611,255.783 25,185.5C 54.2624,101.238 111.762,46.7383 197.5,22C 200.62,19.5923 201.953,16.4257 201.5,12.5C 207.039,10.9654 212.706,9.96539 218.5,9.5 Z M 215.5,62.5 C 215.667,79.8365 215.5,97.1699 215,114.5C 208.569,122.354 201.903,130.02 195,137.5C 193.888,139.39 193.054,141.39 192.5,143.5C 193.178,145.516 193.844,147.516 194.5,149.5C 191.514,153.817 188.18,157.817 184.5,161.5C 182.545,159.674 180.212,159.174 177.5,160C 167.042,168.735 160.542,179.901 158,193.5C 156.401,222.472 156.068,251.472 157,280.5C 158.256,284.046 160.756,286.046 164.5,286.5C 164.5,295.5 164.5,304.5 164.5,313.5C 161.547,317.625 158.381,321.625 155,325.5C 154.037,329.149 154.537,332.482 156.5,335.5C 152.82,339.183 149.486,343.183 146.5,347.5C 143.123,346.099 139.79,346.265 136.5,348C 128.333,358.167 120.167,368.333 112,378.5C 69.4628,326.495 56.7961,267.828 74,202.5C 94.6067,140.227 135.773,98.0603 197.5,76C 201.048,73.4093 202.382,69.9093 201.5,65.5C 206.239,64.8152 210.905,63.8152 215.5,62.5 Z M 295.5,62.5 C 300.167,63.5 304.833,64.5 309.5,65.5C 308.618,69.9093 309.952,73.4093 313.5,76C 324.665,79.584 335.332,84.2507 345.5,90C 332.362,105.812 319.362,121.645 306.5,137.5C 303.529,134.192 300.529,130.859 297.5,127.5C 300.489,122.766 299.989,118.433 296,114.5C 295.5,97.1699 295.333,79.8365 295.5,62.5 Z M 368.5,415.5 C 364.21,418.985 359.543,421.985 354.5,424.5C 354.667,360.166 354.5,295.832 354,231.5C 353.097,227.469 350.597,225.469 346.5,225.5C 346.5,216.5 346.5,207.5 346.5,198.5C 363.787,176.708 381.287,155.041 399,133.5C 441.537,185.503 454.204,244.17 437,309.5C 424.517,349.303 401.85,381.97 369,407.5C 368.503,410.146 368.336,412.813 368.5,415.5 Z"/></g>
<g><path style="opacity:1" fill="#fde87c" d="M 271.5,14.5 C 271.013,15.4734 270.513,16.4734 270,17.5C 269.5,27.4944 269.334,37.4944 269.5,47.5C 256.833,47.5 244.167,47.5 231.5,47.5C 231.334,37.4944 231.5,27.4944 232,17.5C 232.833,16.6667 233.667,15.8333 234.5,15C 246.829,14.5001 259.162,14.3335 271.5,14.5 Z"/></g>
<g><path style="opacity:1" fill="#fdefab" d="M 271.5,14.5 C 274.652,13.9586 277.152,14.9586 279,17.5C 279.5,27.4944 279.666,37.4944 279.5,47.5C 276.167,47.5 272.833,47.5 269.5,47.5C 269.334,37.4944 269.5,27.4944 270,17.5C 270.513,16.4734 271.013,15.4734 271.5,14.5 Z"/></g>
<g><path style="opacity:0.962" fill="#020101" d="M 201.5,65.5 C 202.382,69.9093 201.048,73.4093 197.5,76C 135.773,98.0603 94.6067,140.227 74,202.5C 56.7961,267.828 69.4628,326.495 112,378.5C 120.167,368.333 128.333,358.167 136.5,348C 139.79,346.265 143.123,346.099 146.5,347.5C 149.658,350.794 150.158,354.461 148,358.5C 137.878,371.624 127.378,384.457 116.5,397C 113.97,398.422 111.303,398.755 108.5,398C 103.333,392.167 98.1667,386.333 93,380.5C 52.4559,323.912 41.4559,261.912 60,194.5C 82.6119,130.222 125.779,86.055 189.5,62C 194.262,60.7452 198.262,61.9119 201.5,65.5 Z"/></g>
<g><path style="opacity:0.984" fill="#040201" d="M 156.5,335.5 C 154.537,332.482 154.037,329.149 155,325.5C 158.381,321.625 161.547,317.625 164.5,313.5C 180.918,294.752 196.584,275.418 211.5,255.5C 217.848,248.482 223.848,241.149 229.5,233.5C 255.919,202.083 281.586,170.083 306.5,137.5C 319.362,121.645 332.362,105.812 345.5,90C 335.332,84.2507 324.665,79.584 313.5,76C 309.952,73.4093 308.618,69.9093 309.5,65.5C 312.41,62.0491 316.077,60.8824 320.5,62C 333.67,66.5859 346.337,72.2525 358.5,79C 365.783,82.1013 367.283,86.9347 363,93.5C 297.545,174.623 231.712,255.457 165.5,336C 162.445,336.634 159.445,336.468 156.5,335.5 Z"/></g>
<g><path style="opacity:1" fill="#fdc064" d="M 270.5,62.5 C 270.5,78.1667 270.5,93.8333 270.5,109.5C 257.5,109.5 244.5,109.5 231.5,109.5C 231.5,93.8333 231.5,78.1667 231.5,62.5C 244.5,62.5 257.5,62.5 270.5,62.5 Z"/></g>
<g><path style="opacity:1" fill="#fdcd84" d="M 270.5,62.5 C 273.5,62.5 276.5,62.5 279.5,62.5C 279.5,78.1667 279.5,93.8333 279.5,109.5C 276.5,109.5 273.5,109.5 270.5,109.5C 270.5,93.8333 270.5,78.1667 270.5,62.5 Z"/></g>
<g><path style="opacity:0.958" fill="#020101" d="M 511.5,238.5 C 511.5,249.833 511.5,261.167 511.5,272.5C 504.588,350.168 470.588,413.002 409.5,461C 399.838,467.833 389.838,474.166 379.5,480C 375.047,481.419 371.714,480.252 369.5,476.5C 368.02,473.745 368.187,471.078 370,468.5C 442.101,426.356 483.768,363.69 495,280.5C 501.417,200.728 475.75,133.394 418,78.5C 415.842,74.4608 416.342,70.7942 419.5,67.5C 422.408,66.4309 425.408,66.2642 428.5,67C 477.723,113.615 505.389,170.781 511.5,238.5 Z"/></g>
<g><path style="opacity:0.976" fill="#020201" d="M 368.5,415.5 C 368.336,412.813 368.503,410.146 369,407.5C 401.85,381.97 424.517,349.303 437,309.5C 454.204,244.17 441.537,185.503 399,133.5C 381.287,155.041 363.787,176.708 346.5,198.5C 336.486,209.85 326.819,221.517 317.5,233.5C 286.484,271.186 255.818,309.186 225.5,347.5C 219.794,353.873 214.46,360.539 209.5,367.5C 197.198,381.977 185.031,396.643 173,411.5C 172.333,435.5 172.333,459.5 173,483.5C 174.399,489.9 178.233,494.066 184.5,496C 231.833,496.667 279.167,496.667 326.5,496C 332.416,494.252 336.083,490.419 337.5,484.5C 338.494,441.572 338.828,398.572 338.5,355.5C 309.165,355.667 279.831,355.5 250.5,355C 247.159,353.15 245.826,350.317 246.5,346.5C 246.848,343.981 248.181,342.147 250.5,341C 279.831,340.5 309.165,340.333 338.5,340.5C 338.5,304.833 338.5,269.167 338.5,233.5C 339.533,229.134 342.199,226.467 346.5,225.5C 350.597,225.469 353.097,227.469 354,231.5C 354.5,295.832 354.667,360.166 354.5,424.5C 353.513,444.091 353.179,463.757 353.5,483.5C 351.557,498.104 343.557,507.437 329.5,511.5C 280.167,511.5 230.833,511.5 181.5,511.5C 167.443,507.437 159.443,498.104 157.5,483.5C 157.667,465.83 157.5,448.164 157,430.5C 149.181,432.686 145.515,429.686 146,421.5C 228.807,318.725 311.974,216.225 395.5,114C 398.303,113.245 400.97,113.578 403.5,115C 435.03,148.234 453.53,187.734 459,233.5C 464.721,308.86 438.554,370.36 380.5,418C 378.305,419.373 375.971,419.706 373.5,419C 371.804,417.824 370.138,416.657 368.5,415.5 Z"/></g>
<g><path style="opacity:1" fill="#96d97a" d="M 263.5,124.5 C 250.149,141.173 236.316,157.507 222,173.5C 216.726,181.049 213.393,189.382 212,198.5C 211.5,210.162 211.333,221.829 211.5,233.5C 198.5,233.5 185.5,233.5 172.5,233.5C 172.333,221.162 172.5,208.829 173,196.5C 175.583,186.664 180.25,177.997 187,170.5C 188.073,166.9 187.24,163.9 184.5,161.5C 188.18,157.817 191.514,153.817 194.5,149.5C 197.799,150.376 201.132,150.543 204.5,150C 212.205,141.963 219.539,133.63 226.5,125C 238.829,124.5 251.162,124.333 263.5,124.5 Z"/></g>
<g><path style="opacity:0.999" fill="#ace093" d="M 263.5,124.5 C 270.508,124.334 277.508,124.5 284.5,125C 288.002,130 292.335,130.834 297.5,127.5C 300.529,130.859 303.529,134.192 306.5,137.5C 281.586,170.083 255.919,202.083 229.5,233.5C 223.5,233.5 217.5,233.5 211.5,233.5C 211.333,221.829 211.5,210.162 212,198.5C 213.393,189.382 216.726,181.049 222,173.5C 236.316,157.507 250.149,141.173 263.5,124.5 Z"/></g>
<g><path style="opacity:0.945" fill="#030301" d="M 184.5,161.5 C 187.24,163.9 188.073,166.9 187,170.5C 180.25,177.997 175.583,186.664 173,196.5C 172.5,208.829 172.333,221.162 172.5,233.5C 172.667,249.17 172.5,264.837 172,280.5C 170.458,283.892 167.958,285.892 164.5,286.5C 160.756,286.046 158.256,284.046 157,280.5C 156.068,251.472 156.401,222.472 158,193.5C 160.542,179.901 167.042,168.735 177.5,160C 180.212,159.174 182.545,159.674 184.5,161.5 Z"/></g>
<g><path style="opacity:0.995" fill="#aadd91" d="M 346.5,198.5 C 346.5,207.5 346.5,216.5 346.5,225.5C 342.199,226.467 339.533,229.134 338.5,233.5C 331.5,233.5 324.5,233.5 317.5,233.5C 326.819,221.517 336.486,209.85 346.5,198.5 Z"/></g>
<g><path style="opacity:1" fill="#fce259" d="M 172.5,233.5 C 185.5,233.5 198.5,233.5 211.5,233.5C 211.5,240.833 211.5,248.167 211.5,255.5C 196.584,275.418 180.918,294.752 164.5,313.5C 164.5,304.5 164.5,295.5 164.5,286.5C 167.958,285.892 170.458,283.892 172,280.5C 172.5,264.837 172.667,249.17 172.5,233.5 Z"/></g>
<g><path style="opacity:1" fill="#f9e47a" d="M 211.5,233.5 C 217.5,233.5 223.5,233.5 229.5,233.5C 223.848,241.149 217.848,248.482 211.5,255.5C 211.5,248.167 211.5,240.833 211.5,233.5 Z"/></g>
<g><path style="opacity:1" fill="#fde87c" d="M 317.5,233.5 C 324.5,233.5 331.5,233.5 338.5,233.5C 338.5,269.167 338.5,304.833 338.5,340.5C 309.165,340.333 279.831,340.5 250.5,341C 248.181,342.147 246.848,343.981 246.5,346.5C 239.588,347.462 232.588,347.795 225.5,347.5C 255.818,309.186 286.484,271.186 317.5,233.5 Z"/></g>
<g><path style="opacity:1" fill="#ace093" d="M 246.5,346.5 C 245.826,350.317 247.159,353.15 250.5,355C 279.831,355.5 309.165,355.667 338.5,355.5C 338.828,398.572 338.494,441.572 337.5,484.5C 301.832,484.667 266.165,484.5 230.5,484C 219.893,482.062 213.06,475.895 210,465.5C 209.5,432.835 209.333,400.168 209.5,367.5C 214.46,360.539 219.794,353.873 225.5,347.5C 232.588,347.795 239.588,347.462 246.5,346.5 Z"/></g>
<g><path style="opacity:1" fill="#96d97a" d="M 209.5,367.5 C 209.333,400.168 209.5,432.835 210,465.5C 213.06,475.895 219.893,482.062 230.5,484C 266.165,484.5 301.832,484.667 337.5,484.5C 336.083,490.419 332.416,494.252 326.5,496C 279.167,496.667 231.833,496.667 184.5,496C 178.233,494.066 174.399,489.9 173,483.5C 172.333,459.5 172.333,435.5 173,411.5C 185.031,396.643 197.198,381.977 209.5,367.5 Z"/></g>
</svg>
