<svg xmlns="http://www.w3.org/2000/svg" xmlns:xlink="http://www.w3.org/1999/xlink" width="1366" zoomAndPan="magnify" viewBox="0 0 1024.5 1099.500012" height="768" preserveAspectRatio="xMidYMid meet" version="1.0"><defs><clipPath id="b619d1631c"><path d="M 0 0.0195312 L 1024 0.0195312 L 1024 1098.769531 L 0 1098.769531 Z M 0 0.0195312 " clip-rule="nonzero"/></clipPath></defs><path fill="#f8f7f2" d="M 1020.496094 295.625 L 1020.496094 800.964844 L 512.25 1094.59375 L 4 800.964844 L 4 295.625 L 6.199219 296.941406 L 510.273438 5.726562 L 1016.328125 298.039062 Z M 1020.496094 295.625 " fill-opacity="1" fill-rule="nonzero"/><path fill="#582308" d="M 234.523438 716.632812 L 212.570312 738.59375 L 96.648438 854.554688 L 97.527344 855.210938 L 169.539062 783.175781 L 279.09375 673.585938 L 417.84375 534.789062 L 416.96875 534.128906 Z M 234.523438 716.632812 " fill-opacity="1" fill-rule="nonzero"/><path fill="#582308" d="M 256.480469 716.632812 L 212.570312 760.554688 L 110.480469 862.679688 L 111.578125 863.117188 L 169.539062 805.140625 L 301.046875 673.585938 L 431.894531 542.695312 L 430.796875 542.253906 Z M 256.480469 716.632812 " fill-opacity="1" fill-rule="nonzero"/><path fill="#582308" d="M 278.433594 716.632812 L 212.570312 782.296875 L 124.3125 870.585938 L 125.410156 871.242188 L 169.539062 826.882812 L 323 673.585938 L 432.335938 563.996094 L 445.726562 550.820312 L 444.628906 550.160156 Z M 278.433594 716.632812 " fill-opacity="1" fill-rule="nonzero"/><path fill="#582308" d="M 300.167969 716.632812 L 212.570312 804.261719 L 138.363281 878.710938 L 139.242188 879.148438 L 169.539062 848.84375 L 344.738281 673.585938 L 432.335938 585.960938 L 459.558594 558.726562 L 458.679688 558.289062 Z M 300.167969 716.632812 " fill-opacity="1" fill-rule="nonzero"/><path fill="#582308" d="M 322.125 716.632812 L 212.570312 826.222656 L 152.195312 886.617188 L 153.074219 887.277344 L 169.539062 870.804688 L 366.691406 673.585938 L 432.335938 607.921875 L 473.390625 566.851562 L 472.511719 566.195312 Z M 322.125 716.632812 " fill-opacity="1" fill-rule="nonzero"/><path fill="#582308" d="M 344.078125 716.632812 L 212.570312 848.183594 L 166.027344 894.742188 L 167.125 895.183594 L 169.539062 892.765625 L 388.644531 673.585938 L 432.335938 629.882812 L 487.441406 574.757812 L 486.34375 574.320312 L 475.367188 585.082031 Z M 344.078125 716.632812 " fill-opacity="1" fill-rule="nonzero"/><path fill="#582308" d="M 366.03125 716.632812 L 212.570312 869.925781 L 179.859375 902.648438 L 180.957031 903.308594 L 410.601562 673.585938 L 432.335938 651.625 L 501.273438 582.886719 L 500.175781 582.226562 L 475.367188 607.042969 Z M 366.03125 716.632812 " fill-opacity="1" fill-rule="nonzero"/><path fill="#582308" d="M 387.769531 716.632812 L 212.570312 891.886719 L 193.910156 910.773438 L 194.785156 911.214844 L 432.335938 673.585938 L 512.25 593.867188 L 512.25 592.328125 L 475.367188 629.003906 Z M 387.769531 716.632812 " fill-opacity="1" fill-rule="nonzero"/><path fill="#582308" d="M 190.835938 716.632812 L 68.769531 838.519531 L 69.867188 839.179688 L 169.539062 739.253906 L 235.402344 673.585938 L 390.183594 518.757812 L 389.085938 518.097656 Z M 190.835938 716.632812 " fill-opacity="1" fill-rule="nonzero"/><path fill="#582308" d="M 169.539062 498.332031 L 237.378906 430.46875 L 236.5 430.03125 L 212.570312 453.75 L 4 662.605469 L 4 664.144531 Z M 169.539062 498.332031 " fill-opacity="1" fill-rule="nonzero"/><path fill="#582308" d="M 16.296875 673.585938 L 169.539062 520.292969 L 251.210938 438.597656 L 250.332031 437.9375 L 234.523438 453.75 L 212.570312 475.710938 L 4 684.347656 L 4 685.886719 Z M 16.296875 673.585938 " fill-opacity="1" fill-rule="nonzero"/><path fill="#582308" d="M 38.25 673.585938 L 169.539062 542.035156 L 265.261719 446.503906 L 264.164062 446.0625 L 256.480469 453.75 L 212.570312 497.453125 L 4 706.308594 L 4 707.847656 Z M 38.25 673.585938 " fill-opacity="1" fill-rule="nonzero"/><path fill="#582308" d="M 59.984375 673.585938 L 169.539062 563.996094 L 279.09375 454.628906 L 277.996094 453.96875 L 212.570312 519.414062 L 15.417969 716.632812 L 4 728.273438 L 4 729.808594 Z M 59.984375 673.585938 " fill-opacity="1" fill-rule="nonzero"/><path fill="#582308" d="M 81.941406 673.585938 L 169.539062 585.960938 L 292.925781 462.535156 L 292.046875 462.09375 L 212.570312 541.378906 L 37.371094 716.632812 L 4 750.234375 L 4 751.769531 Z M 81.941406 673.585938 " fill-opacity="1" fill-rule="nonzero"/><path fill="#582308" d="M 103.894531 673.585938 L 169.539062 607.921875 L 306.753906 470.660156 L 305.878906 470 L 212.570312 563.339844 L 59.328125 716.632812 L 4 771.976562 L 4 773.511719 Z M 103.894531 673.585938 " fill-opacity="1" fill-rule="nonzero"/><path fill="#582308" d="M 125.851562 673.585938 L 169.539062 629.882812 L 320.804688 478.566406 L 319.707031 478.128906 L 212.570312 585.082031 L 81.28125 716.632812 L 4 793.9375 L 4 795.476562 Z M 125.851562 673.585938 " fill-opacity="1" fill-rule="nonzero"/><path fill="#582308" d="M 147.804688 673.585938 L 169.539062 651.625 L 334.636719 486.691406 L 333.539062 486.035156 L 212.570312 607.042969 L 103.015625 716.632812 L 13.222656 806.457031 L 14.320312 807.113281 Z M 147.804688 673.585938 " fill-opacity="1" fill-rule="nonzero"/><path fill="#582308" d="M 348.46875 494.597656 L 347.589844 494.160156 L 212.570312 629.003906 L 124.972656 716.632812 L 27.273438 814.582031 L 28.152344 815.023438 L 169.539062 673.585938 Z M 348.46875 494.597656 " fill-opacity="1" fill-rule="nonzero"/><path fill="#582308" d="M 191.492188 673.585938 L 362.300781 502.722656 L 361.421875 502.066406 L 212.570312 650.964844 L 146.925781 716.632812 L 41.105469 822.488281 L 41.984375 823.148438 L 169.539062 695.550781 Z M 191.492188 673.585938 " fill-opacity="1" fill-rule="nonzero"/><path fill="#582308" d="M 431.675781 716.632812 L 221.570312 926.808594 L 222.667969 927.246094 L 476.246094 673.585938 L 512.25 637.570312 L 512.25 636.03125 Z M 431.675781 716.632812 " fill-opacity="1" fill-rule="nonzero"/><path fill="#582308" d="M 453.632812 716.632812 L 235.402344 934.714844 L 236.5 935.371094 L 432.335938 739.253906 L 498.199219 673.585938 L 512.25 659.53125 L 512.25 657.996094 Z M 453.632812 716.632812 " fill-opacity="1" fill-rule="nonzero"/><path fill="#582308" d="M 431.675781 979.515625 L 388.207031 1023 L 389.304688 1023.660156 L 476.246094 936.46875 L 512.25 900.453125 L 512.25 898.914062 Z M 431.675781 979.515625 " fill-opacity="1" fill-rule="nonzero"/><path fill="#582308" d="M 453.632812 979.515625 L 402.039062 1031.125 L 403.136719 1031.566406 L 432.335938 1002.355469 L 498.199219 936.46875 L 512.25 922.414062 L 512.25 920.878906 Z M 453.632812 979.515625 " fill-opacity="1" fill-rule="nonzero"/><path fill="#582308" d="M 169.539062 476.371094 L 223.546875 422.5625 L 222.449219 421.90625 L 190.835938 453.75 L 4 640.644531 L 4 642.183594 Z M 169.539062 476.371094 " fill-opacity="1" fill-rule="nonzero"/><path fill="#582308" d="M 69.867188 333.617188 L 4 399.503906 L 4 401.042969 L 70.742188 334.277344 Z M 69.867188 333.617188 " fill-opacity="1" fill-rule="nonzero"/><path fill="#582308" d="M 16.296875 410.703125 L 84.574219 342.183594 L 83.695312 341.746094 L 4 421.464844 L 4 423.003906 Z M 16.296875 410.703125 " fill-opacity="1" fill-rule="nonzero"/><path fill="#582308" d="M 38.25 410.703125 L 98.625 350.308594 L 97.527344 349.652344 L 4 443.425781 L 4 444.964844 Z M 38.25 410.703125 " fill-opacity="1" fill-rule="nonzero"/><path fill="#582308" d="M 59.984375 410.703125 L 112.457031 358.214844 L 111.359375 357.777344 L 15.417969 453.75 L 4 465.390625 L 4 466.925781 Z M 59.984375 410.703125 " fill-opacity="1" fill-rule="nonzero"/><path fill="#582308" d="M 81.941406 410.703125 L 126.289062 366.339844 L 125.410156 365.683594 L 37.371094 453.75 L 4 487.132812 L 4 488.886719 Z M 81.941406 410.703125 " fill-opacity="1" fill-rule="nonzero"/><path fill="#582308" d="M 103.894531 410.703125 L 140.121094 374.246094 L 139.242188 373.808594 L 59.328125 453.75 L 4 509.09375 L 4 510.628906 Z M 103.894531 410.703125 " fill-opacity="1" fill-rule="nonzero"/><path fill="#582308" d="M 125.851562 410.703125 L 154.171875 382.375 L 153.074219 381.714844 L 81.28125 453.75 L 4 531.054688 L 4 532.59375 Z M 125.851562 410.703125 " fill-opacity="1" fill-rule="nonzero"/><path fill="#582308" d="M 147.804688 410.703125 L 168.003906 390.5 L 166.90625 389.839844 L 103.015625 453.75 L 4 553.015625 L 4 554.554688 Z M 147.804688 410.703125 " fill-opacity="1" fill-rule="nonzero"/><path fill="#582308" d="M 181.832031 398.40625 L 180.957031 397.746094 L 124.972656 453.75 L 4 574.980469 L 4 576.515625 L 169.539062 410.703125 Z M 181.832031 398.40625 " fill-opacity="1" fill-rule="nonzero"/><path fill="#582308" d="M 191.492188 410.703125 L 195.664062 406.53125 L 194.785156 405.871094 L 146.925781 453.75 L 4 596.722656 L 4 598.257812 L 169.539062 432.667969 Z M 191.492188 410.703125 " fill-opacity="1" fill-rule="nonzero"/><path fill="#582308" d="M 55.816406 325.710938 L 4 377.761719 L 4 379.300781 L 56.914062 326.152344 Z M 55.816406 325.710938 " fill-opacity="1" fill-rule="nonzero"/><path fill="#582308" d="M 14.320312 301.554688 L 4 311.875 L 4 313.414062 L 15.199219 302.214844 Z M 14.320312 301.554688 " fill-opacity="1" fill-rule="nonzero"/><path fill="#582308" d="M 28.152344 309.679688 L 4 333.839844 L 4 335.375 L 29.03125 310.121094 Z M 28.152344 309.679688 " fill-opacity="1" fill-rule="nonzero"/><path fill="#582308" d="M 41.984375 317.585938 L 4 355.800781 L 4 357.335938 L 43.082031 318.246094 Z M 41.984375 317.585938 " fill-opacity="1" fill-rule="nonzero"/><path fill="#582308" d="M 475.367188 979.515625 L 416.089844 1039.03125 L 416.96875 1039.691406 L 432.335938 1024.097656 L 512.25 944.375 L 512.25 942.839844 Z M 475.367188 979.515625 " fill-opacity="1" fill-rule="nonzero"/><path fill="#582308" d="M 497.320312 979.515625 L 475.367188 1001.476562 L 429.921875 1047.15625 L 430.796875 1047.597656 L 432.335938 1046.058594 L 512.25 966.339844 L 512.25 964.800781 Z M 497.320312 979.515625 " fill-opacity="1" fill-rule="nonzero"/><path fill="#582308" d="M 443.75 1055.0625 L 444.847656 1055.722656 L 512.25 988.300781 L 512.25 986.542969 L 475.367188 1023.4375 Z M 443.75 1055.0625 " fill-opacity="1" fill-rule="nonzero"/><path fill="#582308" d="M 457.582031 1063.191406 L 458.679688 1063.628906 L 512.25 1010.042969 L 512.25 1008.503906 L 475.367188 1045.402344 Z M 457.582031 1063.191406 " fill-opacity="1" fill-rule="nonzero"/><path fill="#582308" d="M 471.632812 1071.097656 L 472.511719 1071.753906 L 512.25 1032.003906 L 512.25 1030.46875 L 475.367188 1067.144531 Z M 471.632812 1071.097656 " fill-opacity="1" fill-rule="nonzero"/><path fill="#582308" d="M 486.34375 1079.660156 L 512.25 1053.964844 L 512.25 1052.429688 L 485.464844 1079.222656 Z M 486.34375 1079.660156 " fill-opacity="1" fill-rule="nonzero"/><path fill="#582308" d="M 500.394531 1087.789062 L 512.25 1075.929688 L 512.25 1074.390625 L 499.296875 1087.128906 Z M 500.394531 1087.789062 " fill-opacity="1" fill-rule="nonzero"/><path fill="#582308" d="M 475.367188 716.632812 L 249.453125 942.839844 L 250.332031 943.277344 L 257.136719 936.46875 L 432.335938 761.214844 L 512.25 681.492188 L 512.25 679.957031 Z M 475.367188 716.632812 " fill-opacity="1" fill-rule="nonzero"/><path fill="#582308" d="M 497.320312 716.632812 L 475.367188 738.59375 L 263.285156 950.746094 L 264.164062 951.40625 L 279.09375 936.46875 L 432.335938 783.175781 L 512.25 703.457031 L 512.25 701.917969 Z M 497.320312 716.632812 " fill-opacity="1" fill-rule="nonzero"/><path fill="#582308" d="M 277.117188 958.871094 L 278.214844 959.53125 L 301.046875 936.46875 L 432.335938 805.140625 L 512.25 725.199219 L 512.25 723.660156 L 475.367188 760.554688 Z M 277.117188 958.871094 " fill-opacity="1" fill-rule="nonzero"/><path fill="#582308" d="M 290.949219 966.777344 L 292.046875 967.4375 L 323 936.46875 L 432.335938 826.882812 L 512.25 747.160156 L 512.25 745.621094 L 475.367188 782.296875 Z M 290.949219 966.777344 " fill-opacity="1" fill-rule="nonzero"/><path fill="#582308" d="M 305 974.902344 L 305.878906 975.5625 L 344.738281 936.46875 L 432.335938 848.84375 L 512.25 769.121094 L 512.25 767.582031 L 475.367188 804.261719 Z M 305 974.902344 " fill-opacity="1" fill-rule="nonzero"/><path fill="#582308" d="M 322.125 979.515625 L 318.832031 982.808594 L 319.707031 983.46875 L 366.691406 936.46875 L 432.335938 870.804688 L 512.25 791.082031 L 512.25 789.546875 L 475.367188 826.222656 Z M 322.125 979.515625 " fill-opacity="1" fill-rule="nonzero"/><path fill="#582308" d="M 344.078125 979.515625 L 332.660156 990.9375 L 333.757812 991.59375 L 388.644531 936.46875 L 432.335938 892.765625 L 512.25 812.824219 L 512.25 811.289062 L 475.367188 848.183594 Z M 344.078125 979.515625 " fill-opacity="1" fill-rule="nonzero"/><path fill="#582308" d="M 366.03125 979.515625 L 346.492188 999.0625 L 347.589844 999.5 L 410.601562 936.46875 L 432.335938 914.507812 L 512.25 834.789062 L 512.25 833.25 L 475.367188 869.925781 Z M 366.03125 979.515625 " fill-opacity="1" fill-rule="nonzero"/><path fill="#582308" d="M 387.769531 979.515625 L 360.542969 1006.96875 L 361.421875 1007.625 L 432.335938 936.46875 L 512.25 856.75 L 512.25 855.210938 L 475.367188 891.886719 Z M 387.769531 979.515625 " fill-opacity="1" fill-rule="nonzero"/><path fill="#582308" d="M 409.722656 979.515625 L 374.375 1015.09375 L 375.253906 1015.53125 L 432.335938 958.433594 L 454.289062 936.46875 L 512.25 878.710938 L 512.25 877.171875 L 475.367188 913.851562 Z M 409.722656 979.515625 " fill-opacity="1" fill-rule="nonzero"/><path fill="#582308" d="M 213.449219 673.585938 L 376.351562 510.628906 L 375.253906 510.191406 L 168.878906 716.632812 L 54.9375 830.613281 L 56.035156 831.054688 Z M 213.449219 673.585938 " fill-opacity="1" fill-rule="nonzero"/><path fill="#582308" d="M 212.570312 716.632812 L 82.820312 846.648438 L 83.695312 847.085938 L 169.539062 761.214844 L 257.136719 673.585938 L 404.015625 526.664062 L 403.136719 526.222656 Z M 212.570312 716.632812 " fill-opacity="1" fill-rule="nonzero"/><path fill="#582308" d="M 409.722656 716.632812 L 212.570312 913.851562 L 207.738281 918.679688 L 208.617188 919.339844 L 432.335938 695.550781 L 454.289062 673.585938 L 512.25 615.828125 L 512.25 614.289062 L 475.367188 650.964844 Z M 409.722656 716.632812 " fill-opacity="1" fill-rule="nonzero"/><path fill="#582308" d="M 208.617188 413.777344 L 168.878906 453.75 L 4 618.683594 L 4 620.21875 L 209.714844 414.4375 Z M 208.617188 413.777344 " fill-opacity="1" fill-rule="nonzero"/><path fill="#fcc761" d="M 987.785156 504.699219 L 779.4375 625.050781 L 779.4375 504.699219 L 987.785156 384.351562 Z M 987.785156 504.699219 " fill-opacity="1" fill-rule="nonzero"/><path fill="#2d1902" d="M 326.515625 482.300781 L 324.757812 481.203125 L 324.757812 657.773438 L 303.242188 680.835938 L 279.972656 629.222656 L 256.699219 654.042969 L 233.425781 602.429688 L 210.15625 627.246094 L 191.492188 585.960938 L 191.492188 404.117188 L 193.6875 405.433594 L 697.984375 114 L 831.03125 190.867188 Z M 326.515625 482.300781 " fill-opacity="1" fill-rule="nonzero"/><g clip-path="url(#b619d1631c)"><path fill="#582308" d="M 987.785156 771.976562 L 854.742188 848.84375 L 854.742188 771.976562 L 987.785156 695.109375 Z M 991.296875 506.898438 L 991.296875 378.199219 L 775.484375 502.722656 L 775.484375 631.421875 Z M 984.054688 390.71875 L 984.054688 502.722656 L 782.949219 618.902344 L 782.949219 506.898438 Z M 1024.230469 297.820312 L 1024.011719 803.164062 L 512.25 1098.769531 L 0.269531 803.164062 L 0.269531 293.648438 L 508.738281 0.0195312 Z M 195.226562 410.703125 L 195.226562 585.082031 L 211.253906 620.660156 L 234.523438 595.84375 L 257.796875 647.453125 L 281.070312 622.636719 L 304.339844 674.246094 L 321.027344 656.238281 L 321.027344 483.179688 Z M 326.734375 477.90625 L 823.785156 190.867188 L 697.984375 118.171875 L 201.152344 405.214844 Z M 11.464844 295.625 L 193.910156 401.042969 L 690.960938 113.78125 L 508.519531 8.363281 Z M 508.519531 591.230469 L 328.269531 487.132812 L 328.269531 659.3125 L 301.925781 687.421875 L 278.652344 635.8125 L 255.382812 660.628906 L 232.109375 609.019531 L 208.839844 633.835938 L 187.761719 586.839844 L 187.761719 406.3125 L 7.515625 301.992188 L 7.515625 798.988281 L 508.519531 1088.226562 Z M 512.25 584.863281 L 1009.519531 297.601562 L 831.46875 194.820312 L 334.199219 482.082031 Z M 1016.765625 301.992188 L 515.761719 591.449219 L 515.761719 1088.226562 L 1016.765625 798.988281 Z M 642.441406 925.269531 L 604.460938 878.050781 L 566.476562 969.195312 L 584.917969 958.433594 L 584.917969 994.890625 L 624 972.488281 L 624 936.25 Z M 642.441406 925.269531 " fill-opacity="1" fill-rule="nonzero"/></g></svg>