<svg xmlns="http://www.w3.org/2000/svg" xmlns:xlink="http://www.w3.org/1999/xlink" width="1366" zoomAndPan="magnify" viewBox="0 0 1024.5 1061.249947" height="768" preserveAspectRatio="xMidYMid meet" version="1.0"><defs><clipPath id="8c51d06b3f"><path d="M 0.113281 2 L 1023.886719 2 L 1023.886719 1056 L 0.113281 1056 Z M 0.113281 2 " clip-rule="nonzero"/></clipPath></defs><path fill="#ffebea" d="M 971.585938 176.496094 L 341.84375 540.03125 C 314.214844 555.847656 292.28125 598.023438 292.28125 634.5 L 292.28125 1005.628906 C 292.28125 1042.109375 314.425781 1058.769531 341.84375 1042.953125 L 971.585938 679.417969 C 999.214844 663.601562 1021.148438 621.429688 1021.148438 584.949219 L 1021.148438 213.820312 C 1021.359375 177.128906 999.214844 160.679688 971.585938 176.496094 Z M 971.585938 176.496094 " fill-opacity="1" fill-rule="nonzero"/><path fill="#bec4ed" d="M 244.621094 615.945312 C 244.621094 576.722656 268.03125 532.441406 297.765625 515.152344 L 900.726562 166.796875 L 900.726562 142.757812 C 900.726562 106.277344 878.582031 89.617188 851.164062 105.433594 L 221.421875 468.128906 C 193.792969 483.941406 171.859375 526.117188 171.859375 562.597656 L 171.859375 933.722656 C 171.859375 970.203125 194.003906 986.863281 221.421875 971.046875 L 244.832031 957.972656 Z M 870.988281 625.433594 C 870.988281 605.402344 880.6875 582.628906 894.398438 565.335938 C 887.4375 564.703125 879.847656 566.8125 870.988281 571.453125 C 845.46875 586.636719 824.167969 622.484375 824.167969 652.214844 C 824.167969 681.945312 844.835938 693.546875 870.988281 678.363281 C 879.214844 673.511719 887.4375 665.921875 894.398438 657.699219 C 880.6875 657.277344 870.988281 645.46875 870.988281 625.433594 Z M 917.808594 544.882812 C 909.582031 549.734375 901.359375 557.324219 894.398438 565.546875 C 908.105469 567.023438 917.808594 578.621094 917.808594 598.65625 C 917.808594 618.6875 908.105469 641.460938 894.398438 658.75 C 901.355469 659.382812 908.949219 657.277344 917.808594 652.636719 C 943.328125 637.453125 964.628906 601.605469 964.628906 571.875 C 964.207031 542.140625 943.328125 530.332031 917.808594 544.882812 Z M 917.808594 544.882812 " fill-opacity="1" fill-rule="nonzero"/><path fill="#fdf493" d="M 123.140625 547.625 C 123.140625 508.402344 146.550781 464.121094 176.289062 446.828125 L 779.246094 98.476562 L 779.246094 71.695312 C 779.246094 35.214844 757.101562 18.554688 729.6875 34.371094 L 99.734375 397.90625 C 72.105469 413.722656 50.171875 455.898438 50.171875 492.375 L 50.171875 863.503906 C 50.171875 899.984375 72.316406 916.644531 99.734375 900.828125 L 123.140625 887.753906 Z M 917.808594 598.65625 C 917.808594 578.621094 908.105469 567.023438 894.398438 565.546875 C 880.6875 582.839844 870.988281 605.613281 870.988281 625.644531 C 870.988281 645.679688 880.6875 657.277344 894.398438 658.75 C 908.316406 641.460938 917.808594 618.6875 917.808594 598.65625 Z M 917.808594 598.65625 " fill-opacity="1" fill-rule="nonzero"/><path fill="#582308" d="M 526.800781 609.621094 L 533.761719 605.402344 L 533.761719 590.21875 L 526.800781 594.4375 C 510.984375 603.503906 498.542969 596.546875 498.542969 578.621094 C 498.542969 560.699219 511.617188 539.402344 526.800781 530.332031 L 533.761719 526.117188 L 533.761719 511.566406 L 526.800781 515.785156 C 504.023438 528.855469 486.097656 560.699219 486.097656 586.214844 C 486.097656 612.359375 504.65625 622.691406 526.800781 609.621094 Z M 526.800781 609.621094 " fill-opacity="1" fill-rule="nonzero"/><path fill="#582308" d="M 463.320312 645.46875 L 470.28125 641.25 L 470.28125 626.066406 L 463.320312 630.285156 C 447.503906 639.351562 435.0625 632.394531 435.0625 614.46875 C 435.0625 596.546875 448.136719 575.246094 463.320312 566.179688 L 470.28125 561.964844 L 470.28125 547.414062 L 463.320312 551.628906 C 440.542969 564.703125 422.617188 596.546875 422.617188 622.0625 C 422.617188 648.207031 441.175781 658.539062 463.320312 645.46875 Z M 463.320312 645.46875 " fill-opacity="1" fill-rule="nonzero"/><path fill="#582308" d="M 400.472656 682.15625 L 407.433594 677.941406 L 407.433594 662.757812 L 400.472656 666.976562 C 384.65625 676.042969 372.214844 669.085938 372.214844 651.160156 C 372.214844 633.238281 385.289062 611.9375 400.472656 602.871094 L 407.433594 598.65625 L 407.433594 584.105469 L 400.472656 588.320312 C 377.695312 601.394531 359.769531 633.238281 359.769531 658.75 C 359.769531 684.898438 378.539062 695.230469 400.472656 682.15625 Z M 400.472656 682.15625 " fill-opacity="1" fill-rule="nonzero"/><path fill="#582308" d="M 360.613281 897.875 L 684.132812 711.046875 L 684.132812 695.863281 L 360.613281 882.695312 Z M 360.613281 897.875 " fill-opacity="1" fill-rule="nonzero"/><path fill="#582308" d="M 954.503906 535.183594 C 943.535156 529.066406 928.984375 530.332031 914.433594 538.558594 C 905.996094 543.195312 897.351562 550.15625 890.179688 559.222656 C 882.796875 559.433594 875.417969 561.753906 867.613281 566.179688 C 839.351562 581.996094 817.207031 619.953125 817.207031 652.425781 C 817.207031 668.875 823.324219 682.15625 834.503906 688.273438 C 839.351562 691.015625 844.835938 692.492188 850.320312 692.492188 C 857.914062 692.492188 866.136719 689.75 874.363281 686.375 C 883.007812 681.734375 891.445312 674.566406 898.828125 665.5 C 905.785156 665.078125 913.800781 662.335938 921.183594 657.277344 C 949.441406 641.460938 971.585938 603.503906 971.585938 571.03125 C 971.585938 554.371094 965.46875 541.296875 954.503906 535.183594 Z M 867.613281 673.089844 C 857.28125 679.207031 848.210938 680.683594 841.460938 676.464844 C 834.503906 672.246094 831.128906 664.023438 831.128906 652.425781 C 831.128906 624.800781 850.53125 591.695312 874.574219 577.988281 C 875.839844 577.355469 877.527344 576.722656 878.792969 576.300781 C 870.777344 590.21875 865.714844 605.191406 864.449219 619.109375 C 864.449219 619.53125 864.449219 620.164062 864.238281 620.585938 C 864.238281 621.21875 864.238281 621.640625 864.238281 622.273438 C 864.238281 623.324219 864.238281 624.589844 864.238281 625.644531 C 864.238281 626.910156 864.238281 628.175781 864.449219 629.441406 C 864.449219 629.863281 864.449219 630.285156 864.449219 630.707031 C 864.449219 631.550781 864.660156 632.394531 864.660156 633.027344 C 864.660156 633.660156 864.871094 634.082031 864.871094 634.710938 C 864.871094 635.132812 865.082031 635.765625 865.082031 636.1875 C 867.191406 648.628906 873.308594 657.699219 881.953125 662.125 C 877.105469 666.34375 872.253906 670.347656 867.613281 673.089844 Z M 891.234375 650.949219 C 882.585938 647.996094 877.949219 639.351562 877.949219 626.066406 C 877.949219 609.621094 885.539062 589.796875 897.984375 573.5625 C 898.40625 573.773438 898.828125 573.984375 899.25 573.984375 C 899.460938 573.984375 899.460938 574.195312 899.671875 574.195312 C 899.882812 574.40625 900.09375 574.40625 900.304688 574.617188 C 906.207031 578.199219 910.214844 585.582031 910.847656 596.125 C 910.847656 596.757812 910.847656 597.390625 910.847656 598.023438 C 910.847656 598.234375 910.847656 598.445312 910.847656 598.65625 C 910.847656 598.867188 910.847656 598.867188 910.847656 599.074219 C 910.847656 599.917969 910.847656 600.972656 910.847656 601.816406 C 910.847656 602.027344 910.847656 602.449219 910.847656 602.660156 C 910.847656 603.503906 910.636719 604.347656 910.636719 604.980469 C 910.636719 605.191406 910.636719 605.613281 910.636719 605.824219 C 910.425781 606.667969 910.425781 607.511719 910.214844 608.566406 C 910.214844 608.777344 910.214844 608.988281 910.214844 608.988281 C 907.683594 622.902344 901.148438 638.085938 891.234375 650.949219 Z M 914.433594 646.101562 C 912.957031 646.730469 911.058594 647.574219 909.582031 648.207031 C 919.285156 632.394531 924.765625 614.46875 924.765625 598.65625 C 924.765625 580.730469 918.019531 568.5 907.050781 562.175781 L 908.105469 560.910156 C 912.113281 557.113281 916.964844 553.527344 921.394531 551 C 931.726562 544.882812 940.796875 543.40625 947.542969 547.625 C 954.503906 551.839844 957.878906 560.066406 957.878906 571.664062 C 957.878906 599.285156 938.476562 632.394531 914.433594 646.101562 Z M 914.433594 646.101562 " fill-opacity="1" fill-rule="nonzero"/><path fill="#582308" d="M 360.613281 964.933594 L 423.25 928.875 L 423.25 886.277344 L 360.613281 922.757812 Z M 360.613281 964.933594 " fill-opacity="1" fill-rule="nonzero"/><g clip-path="url(#8c51d06b3f)"><path fill="#582308" d="M 1022.835938 202.644531 C 1022.835938 201.167969 1022.203125 199.269531 1022.203125 197.792969 C 1022.203125 196.316406 1021.570312 195.683594 1021.570312 194.421875 C 1021.570312 192.945312 1020.9375 191.679688 1020.09375 190.203125 C 1019.25 188.726562 1019.460938 188.09375 1018.617188 186.828125 C 1017.984375 185.351562 1017.984375 184.71875 1017.140625 183.457031 C 1016.507812 182.824219 1016.507812 181.347656 1015.664062 180.714844 C 1015.03125 180.082031 1014.1875 178.605469 1013.554688 177.972656 C 1012.921875 177.339844 1012.078125 176.496094 1011.445312 175.230469 C 1010.8125 174.597656 1009.96875 173.753906 1009.335938 172.488281 C 1008.703125 171.855469 1007.859375 171.015625 1007.226562 170.382812 C 1006.597656 169.75 1005.121094 168.90625 1003.855469 168.273438 C 1003.222656 167.640625 1002.378906 167.640625 1002.378906 166.796875 C 1000.902344 166.164062 970.742188 150.347656 967.789062 149.503906 C 955.980469 141.914062 941.640625 141.914062 926.453125 150.980469 L 901.988281 165.320312 L 901.988281 143.390625 C 901.988281 140.648438 901.988281 137.90625 901.359375 135.167969 C 901.359375 134.535156 901.359375 133.058594 900.726562 132.425781 C 900.726562 130.949219 900.09375 129.050781 900.09375 127.574219 C 900.09375 126.097656 899.460938 125.464844 899.460938 124.203125 C 899.460938 122.726562 898.828125 121.460938 897.984375 119.984375 C 897.351562 118.507812 897.351562 117.875 896.507812 116.609375 C 895.664062 115.34375 895.875 114.5 895.03125 113.234375 C 894.398438 112.605469 894.398438 111.128906 893.554688 110.496094 C 892.921875 109.863281 892.078125 108.386719 891.445312 107.753906 C 890.8125 107.121094 889.96875 106.277344 889.335938 105.011719 C 888.703125 104.378906 887.859375 103.535156 887.226562 102.269531 C 886.59375 101.636719 885.75 100.792969 885.117188 100.164062 C 884.484375 99.53125 883.007812 98.6875 881.742188 98.054688 C 881.109375 97.421875 880.265625 97.421875 880.265625 96.578125 C 878.792969 95.945312 848.632812 80.128906 845.679688 79.285156 C 833.871094 71.695312 819.527344 71.695312 804.34375 80.761719 L 780.300781 94.679688 L 780.300781 71.695312 C 780.300781 68.953125 780.300781 66.210938 779.667969 63.472656 C 779.667969 62.839844 779.667969 61.363281 779.035156 60.730469 C 779.035156 59.253906 778.402344 57.355469 778.402344 55.878906 C 778.402344 54.402344 777.769531 53.769531 777.769531 52.507812 C 777.769531 51.242188 777.136719 49.765625 776.292969 48.289062 C 775.660156 46.8125 775.660156 46.179688 774.820312 44.914062 C 774.1875 43.4375 774.1875 42.804688 773.34375 41.539062 C 772.710938 40.910156 772.710938 39.433594 771.867188 38.800781 C 771.234375 38.167969 770.390625 36.691406 769.757812 36.058594 C 769.125 35.425781 768.28125 34.582031 767.648438 33.316406 C 767.015625 32.683594 766.171875 31.839844 765.539062 30.574219 C 764.90625 29.941406 764.0625 29.101562 763.429688 28.46875 C 762.796875 27.835938 761.320312 26.992188 760.054688 26.359375 C 759.421875 25.726562 758.578125 25.726562 758.578125 24.882812 C 757.101562 24.25 726.945312 8.433594 723.992188 7.589844 C 712.179688 0 697.839844 0 682.65625 9.066406 L 53.546875 372.394531 C 23.808594 389.683594 0.398438 433.753906 0.398438 473.1875 L 0.398438 844.316406 C 0.398438 869.199219 10.101562 887.121094 25.917969 892.605469 C 28.027344 894.082031 63.878906 912.003906 63.878906 912.003906 C 66.621094 912.636719 69.996094 913.480469 73.582031 913.480469 C 81.171875 913.480469 88.765625 911.371094 96.992188 906.523438 L 121.878906 891.972656 L 121.878906 877.632812 L 91.507812 894.714844 C 90.03125 895.347656 89.398438 896.1875 88.132812 896.820312 C 88.132812 896.820312 87.5 896.820312 86.65625 897.453125 C 86.023438 898.085938 84.546875 898.085938 83.914062 898.929688 L 83.28125 898.929688 C 78.433594 900.40625 73.582031 901.039062 70.207031 899.5625 C 69.574219 899.5625 68.730469 898.929688 68.097656 898.929688 C 67.464844 898.929688 67.464844 898.296875 66.621094 898.296875 C 65.777344 898.296875 65.988281 897.664062 65.144531 897.664062 C 56.921875 892.183594 52.070312 880.375 52.070312 863.925781 L 52.070312 492.796875 C 52.070312 458.214844 72.738281 418.996094 98.257812 403.8125 L 728.210938 39.855469 C 734.324219 36.480469 742.761719 32.894531 750.355469 35.636719 C 751.832031 36.269531 753.097656 36.269531 753.730469 37.113281 L 754.359375 37.746094 C 754.992188 38.378906 755.835938 39.222656 756.46875 39.855469 C 757.101562 39.855469 757.101562 40.488281 757.945312 41.332031 C 758.578125 41.960938 759.421875 42.804688 760.054688 43.4375 C 760.054688 44.070312 760.6875 44.070312 760.6875 44.914062 C 761.320312 45.546875 761.320312 46.390625 762.164062 47.65625 C 762.164062 48.289062 762.796875 49.132812 762.796875 49.765625 C 763.429688 50.398438 763.429688 51.875 764.273438 52.507812 C 764.273438 53.140625 764.90625 53.980469 764.90625 54.613281 C 764.90625 56.089844 765.539062 56.722656 765.539062 57.988281 C 765.539062 58.621094 765.539062 59.464844 766.171875 60.097656 C 766.171875 61.574219 766.804688 62.839844 766.804688 64.316406 L 766.804688 102.691406 L 175.023438 444.300781 C 145.285156 461.378906 121.878906 505.449219 121.878906 544.882812 L 121.878906 916.011719 C 121.878906 940.894531 131.578125 958.816406 147.394531 964.300781 C 149.503906 965.777344 185.359375 983.699219 185.359375 983.699219 C 188.097656 984.332031 191.472656 985.175781 195.058594 985.175781 C 202.652344 985.175781 210.242188 983.066406 218.46875 978.21875 L 243.355469 963.667969 L 243.355469 948.484375 L 212.984375 965.566406 C 211.507812 966.199219 210.875 967.039062 209.609375 967.671875 C 209.609375 967.671875 208.976562 967.671875 208.132812 968.304688 C 207.289062 968.9375 206.027344 968.9375 205.394531 969.78125 L 204.761719 969.78125 C 199.910156 971.257812 195.058594 971.890625 191.683594 970.414062 C 191.050781 970.414062 190.207031 969.78125 189.574219 969.78125 C 188.941406 969.78125 188.941406 969.148438 188.097656 969.148438 C 187.464844 969.148438 187.464844 968.515625 186.621094 968.515625 C 178.398438 963.035156 173.546875 951.226562 173.546875 934.777344 L 173.546875 747.949219 C 175.023438 748.582031 176.289062 749.425781 177.765625 749.425781 C 179.242188 749.425781 180.507812 748.792969 181.984375 747.949219 C 183.460938 746.472656 183.460938 745.207031 183.460938 743.730469 C 183.460938 742.253906 182.828125 740.992188 181.984375 739.515625 C 179.875 737.40625 175.867188 737.40625 173.757812 739.515625 L 173.757812 642.304688 C 174.390625 641.671875 175.234375 641.671875 175.867188 640.828125 C 176.5 640.195312 176.5 639.351562 176.5 638.71875 C 176.5 638.085938 175.867188 637.242188 175.867188 636.609375 C 175.234375 635.976562 174.390625 635.976562 173.757812 635.976562 L 173.757812 563.648438 C 173.757812 529.066406 194.425781 489.847656 219.945312 474.664062 L 255.164062 454.210938 C 255.164062 454.421875 255.375 454.632812 255.796875 454.632812 C 257.273438 455.265625 258.539062 456.109375 260.015625 456.109375 C 261.492188 456.109375 262.757812 455.476562 264.234375 454.632812 C 265.710938 453.15625 265.710938 451.890625 265.710938 450.414062 C 265.710938 449.78125 265.710938 449.148438 265.289062 448.515625 L 366.308594 390.316406 C 366.308594 390.738281 366.730469 391.371094 367.363281 391.792969 C 367.996094 392.425781 368.839844 392.425781 369.472656 392.425781 C 370.105469 392.425781 370.949219 391.792969 371.582031 391.792969 C 372.214844 391.160156 372.214844 390.316406 372.214844 389.683594 C 372.214844 389.050781 371.582031 388.207031 371.582031 387.574219 L 371.371094 387.363281 L 508.03125 308.5 C 508.453125 308.710938 508.664062 308.921875 508.664062 308.921875 C 510.140625 308.289062 510.773438 308.289062 511.40625 307.445312 C 511.828125 307.023438 512.039062 306.390625 512.039062 305.96875 L 601.25 254.519531 C 601.882812 255.148438 601.882812 255.78125 602.515625 256.414062 C 603.148438 257.046875 603.992188 257.046875 604.625 257.046875 C 605.257812 257.046875 606.101562 256.414062 606.734375 256.414062 C 607.363281 255.78125 607.363281 254.941406 607.363281 254.308594 C 607.363281 253.675781 606.734375 252.832031 606.734375 252.199219 C 606.523438 251.988281 606.3125 251.777344 606.101562 251.777344 L 767.226562 158.785156 C 767.859375 159.207031 768.914062 159.207031 769.546875 159.207031 C 770.179688 159.207031 771.023438 158.574219 771.65625 158.574219 C 772.289062 157.941406 772.289062 157.097656 772.289062 156.464844 C 772.289062 156.253906 772.289062 156.042969 772.289062 155.832031 L 790.003906 145.710938 C 790.636719 146.132812 791.058594 145.921875 791.691406 145.5 C 792.113281 145.078125 792.113281 144.867188 792.324219 144.445312 L 850.320312 110.917969 C 856.4375 107.542969 864.871094 103.957031 872.464844 106.699219 C 873.941406 107.332031 875.207031 107.332031 875.839844 108.175781 L 876.472656 108.808594 C 877.105469 109.441406 877.949219 110.285156 878.582031 110.917969 C 879.214844 110.917969 879.214844 111.550781 880.058594 112.394531 C 880.6875 113.023438 881.53125 113.867188 882.164062 114.5 C 882.164062 115.132812 882.796875 115.132812 882.796875 115.976562 C 883.429688 116.609375 883.429688 117.453125 884.273438 118.71875 C 884.273438 119.351562 884.90625 120.195312 884.90625 120.828125 C 885.539062 121.460938 885.539062 122.9375 886.382812 123.570312 C 886.382812 124.203125 887.015625 125.042969 887.015625 125.675781 C 887.015625 127.152344 887.648438 127.785156 887.648438 129.050781 C 887.648438 129.683594 887.648438 130.527344 888.28125 131.160156 C 888.28125 132.636719 888.914062 133.902344 888.914062 135.378906 L 888.914062 173.542969 L 799.070312 225.417969 C 799.070312 224.785156 799.070312 224.363281 799.070312 223.730469 C 799.070312 222.253906 798.4375 220.988281 797.59375 219.511719 C 795.484375 217.40625 791.480469 217.40625 789.371094 219.511719 C 787.894531 220.988281 787.894531 222.253906 787.894531 223.730469 C 787.894531 225.207031 788.527344 226.472656 789.371094 227.949219 C 790.425781 228.371094 791.480469 229.003906 792.535156 229.214844 L 563.921875 361.21875 C 561.8125 359.742188 558.226562 359.953125 556.328125 361.847656 C 554.851562 363.324219 554.851562 364.589844 554.851562 366.066406 C 554.851562 366.277344 554.851562 366.277344 554.851562 366.488281 L 538.613281 375.976562 C 538.402344 375.765625 538.402344 375.34375 538.402344 375.132812 C 536.925781 373.65625 535.027344 373.65625 534.183594 375.132812 C 533.550781 375.765625 533.550781 376.609375 533.550781 377.242188 C 533.550781 377.664062 533.972656 378.296875 534.183594 378.71875 L 304.726562 511.144531 C 304.726562 511.144531 304.726562 511.144531 304.515625 511.144531 C 302.40625 509.035156 298.398438 509.035156 296.289062 511.144531 C 294.8125 512.621094 294.8125 513.886719 294.8125 515.363281 C 294.8125 515.785156 295.023438 516.414062 295.023438 516.835938 C 289.753906 520.210938 284.902344 524.21875 280.261719 529.066406 C 278.785156 527.800781 276.886719 527.800781 276.253906 529.066406 C 275.621094 529.699219 275.621094 530.542969 275.621094 531.175781 C 275.621094 531.808594 276.253906 532.652344 276.253906 533.285156 C 276.253906 533.285156 276.253906 533.285156 276.464844 533.285156 C 262.757812 548.890625 252 570.1875 247.363281 591.90625 C 246.519531 591.90625 245.675781 592.117188 245.253906 592.539062 C 244.621094 593.171875 244.621094 594.015625 244.621094 594.648438 C 244.621094 595.28125 245.253906 596.125 245.253906 596.757812 C 245.675781 597.179688 245.886719 597.179688 246.308594 597.390625 C 245.253906 603.714844 244.621094 610.042969 244.621094 616.15625 L 244.621094 628.597656 C 244.621094 629.230469 243.988281 630.074219 243.988281 630.707031 C 243.988281 631.339844 244.621094 632.183594 244.621094 632.816406 L 244.621094 947.640625 L 243.988281 947.640625 L 243.988281 948.484375 L 244.621094 948.0625 L 244.621094 986.230469 C 244.621094 1011.113281 254.320312 1029.035156 270.136719 1034.519531 C 272.246094 1035.996094 308.101562 1053.917969 308.101562 1053.917969 C 310.84375 1054.550781 314.214844 1055.394531 317.800781 1055.394531 C 325.394531 1055.394531 332.984375 1053.285156 341.210938 1048.4375 L 970.953125 684.898438 C 1000.691406 667.609375 1024.101562 623.535156 1024.101562 584.105469 L 1024.101562 212.976562 C 1024.101562 210.867188 1024.101562 208.125 1024.101562 205.386719 C 1023.46875 204.753906 1023.46875 203.488281 1022.835938 202.644531 Z M 963.363281 673.722656 L 333.617188 1037.261719 C 332.144531 1037.890625 331.511719 1038.734375 330.246094 1039.367188 C 330.246094 1039.367188 329.613281 1039.367188 328.769531 1040 C 327.925781 1040.632812 326.660156 1040.632812 326.027344 1041.476562 L 325.394531 1041.476562 C 320.542969 1042.953125 315.691406 1043.585938 312.316406 1042.109375 C 311.6875 1042.109375 310.84375 1041.476562 310.210938 1041.476562 C 309.578125 1041.476562 309.578125 1040.84375 308.734375 1040.84375 C 308.101562 1040.84375 308.101562 1040.210938 307.257812 1040.210938 C 299.03125 1034.730469 294.179688 1022.921875 294.179688 1006.472656 L 294.179688 635.34375 C 294.179688 600.761719 314.847656 561.542969 340.367188 546.359375 L 970.320312 182.613281 C 976.4375 179.238281 984.875 175.652344 992.464844 178.394531 C 993.941406 179.027344 995.207031 179.027344 995.839844 179.871094 L 996.472656 180.503906 C 997.105469 181.136719 997.949219 181.980469 998.582031 182.613281 C 999.214844 182.613281 999.214844 183.246094 1000.058594 184.085938 C 1000.691406 184.71875 1001.535156 185.5625 1002.167969 186.195312 C 1002.167969 186.828125 1002.800781 186.828125 1002.800781 187.671875 C 1003.433594 188.304688 1003.433594 189.148438 1004.277344 190.414062 C 1004.277344 191.046875 1004.910156 191.890625 1004.910156 192.523438 C 1005.542969 193.15625 1005.542969 194.632812 1006.386719 195.265625 C 1006.386719 195.894531 1007.015625 196.738281 1007.015625 197.371094 C 1007.015625 198.847656 1007.648438 199.480469 1007.648438 200.746094 C 1007.648438 201.378906 1007.648438 202.222656 1008.28125 202.855469 C 1008.28125 204.332031 1008.914062 205.597656 1008.914062 207.074219 L 1008.914062 584.949219 L 1009.546875 584.949219 C 1009.546875 619.320312 988.878906 658.539062 963.363281 673.722656 Z M 963.363281 673.722656 " fill-opacity="1" fill-rule="nonzero"/></g><path fill="#582308" d="M 449.402344 913.691406 L 576.363281 840.097656 L 576.363281 797.925781 L 449.402344 871.097656 Z M 449.402344 913.691406 " fill-opacity="1" fill-rule="nonzero"/><path fill="#582308" d="M 602.726562 824.914062 L 665.363281 788.855469 L 665.363281 746.261719 L 602.726562 782.742188 Z M 602.726562 824.914062 " fill-opacity="1" fill-rule="nonzero"/><path fill="#582308" d="M 706.699219 268.222656 C 707.332031 268.222656 708.175781 267.589844 708.808594 267.589844 C 709.441406 266.957031 709.441406 266.117188 709.441406 265.484375 C 709.441406 264.851562 708.808594 264.007812 708.808594 263.375 C 707.332031 261.898438 705.433594 261.898438 704.589844 263.375 C 703.957031 264.007812 703.957031 264.851562 703.957031 265.484375 C 703.957031 266.117188 704.589844 266.957031 704.589844 267.589844 C 704.589844 268.222656 705.433594 268.222656 706.699219 268.222656 Z M 706.699219 268.222656 " fill-opacity="1" fill-rule="nonzero"/><path fill="#582308" d="M 684.132812 259.367188 C 684.765625 259.367188 685.609375 258.734375 686.242188 258.734375 C 686.875 258.101562 686.875 257.257812 686.875 256.625 C 686.875 255.992188 686.242188 255.148438 686.242188 254.519531 C 684.765625 253.042969 682.867188 253.042969 682.023438 254.519531 C 681.390625 255.148438 681.390625 255.992188 681.390625 256.625 C 681.390625 257.257812 682.023438 258.101562 682.023438 258.734375 C 682.65625 259.367188 683.289062 259.367188 684.132812 259.367188 Z M 684.132812 259.367188 " fill-opacity="1" fill-rule="nonzero"/><path fill="#582308" d="M 710.917969 226.261719 C 711.550781 226.261719 712.390625 225.628906 713.023438 225.628906 C 713.65625 224.996094 713.65625 224.152344 713.65625 223.519531 C 713.65625 222.886719 713.023438 222.042969 713.023438 221.410156 C 711.550781 219.933594 709.652344 219.933594 708.808594 221.410156 C 708.175781 222.042969 708.175781 222.886719 708.175781 223.519531 C 708.175781 224.152344 708.808594 224.996094 708.808594 225.628906 C 709.652344 226.261719 710.285156 226.261719 710.917969 226.261719 Z M 710.917969 226.261719 " fill-opacity="1" fill-rule="nonzero"/><path fill="#582308" d="M 828.808594 191.046875 C 829.441406 191.046875 830.285156 190.414062 830.917969 190.414062 C 831.550781 189.78125 831.550781 188.9375 831.550781 188.304688 C 831.550781 187.671875 830.917969 186.828125 830.917969 186.195312 C 829.441406 184.71875 827.542969 184.71875 826.699219 186.195312 C 826.066406 186.828125 826.066406 187.671875 826.066406 188.304688 C 826.066406 188.9375 826.699219 189.78125 826.699219 190.414062 C 826.910156 190.203125 828.175781 191.046875 828.808594 191.046875 Z M 828.808594 191.046875 " fill-opacity="1" fill-rule="nonzero"/><path fill="#582308" d="M 579.949219 306.179688 C 580.582031 306.179688 581.425781 305.546875 582.058594 305.546875 C 582.691406 304.914062 582.691406 304.070312 582.691406 303.4375 C 582.691406 302.804688 582.058594 301.964844 582.058594 301.332031 C 580.582031 299.855469 578.683594 299.855469 577.839844 301.332031 C 577.207031 301.964844 577.207031 302.804688 577.207031 303.4375 C 577.207031 304.070312 577.839844 304.914062 577.839844 305.546875 C 578.472656 306.179688 579.105469 306.179688 579.949219 306.179688 Z M 579.949219 306.179688 " fill-opacity="1" fill-rule="nonzero"/><path fill="#582308" d="M 637.734375 257.257812 C 638.367188 257.257812 639.210938 256.625 639.84375 256.625 C 640.476562 255.992188 640.476562 255.148438 640.476562 254.519531 C 640.476562 253.886719 639.84375 253.042969 639.84375 252.410156 C 638.367188 250.933594 636.46875 250.933594 635.625 252.410156 C 634.992188 253.042969 634.992188 253.886719 634.992188 254.519531 C 634.992188 255.148438 635.625 255.992188 635.625 256.625 C 635.625 257.257812 637.101562 257.257812 637.734375 257.257812 Z M 637.734375 257.257812 " fill-opacity="1" fill-rule="nonzero"/><path fill="#582308" d="M 677.804688 293.105469 C 678.4375 293.105469 679.28125 292.472656 679.914062 292.472656 C 680.546875 291.839844 680.546875 290.996094 680.546875 290.367188 C 680.546875 289.734375 679.914062 288.890625 679.914062 288.257812 C 678.4375 286.78125 676.539062 286.78125 675.695312 288.257812 C 675.0625 288.890625 675.0625 289.734375 675.0625 290.367188 C 675.0625 290.996094 675.695312 291.839844 675.695312 292.472656 C 675.695312 292.472656 677.171875 293.105469 677.804688 293.105469 Z M 677.804688 293.105469 " fill-opacity="1" fill-rule="nonzero"/><path fill="#582308" d="M 590.914062 336.546875 C 591.546875 337.179688 592.390625 337.179688 593.023438 337.179688 C 593.65625 337.179688 594.5 336.546875 595.132812 336.546875 C 595.765625 335.914062 595.765625 335.070312 595.765625 334.4375 C 595.765625 333.804688 595.132812 332.960938 595.132812 332.328125 C 593.65625 330.851562 591.757812 330.851562 590.914062 332.328125 C 590.28125 332.960938 590.28125 333.804688 590.28125 334.4375 C 590.28125 335.070312 590.28125 335.914062 590.914062 336.546875 Z M 590.914062 336.546875 " fill-opacity="1" fill-rule="nonzero"/><path fill="#582308" d="M 559.914062 324.105469 C 560.546875 324.105469 561.390625 323.472656 562.023438 323.472656 C 562.65625 322.839844 562.65625 321.996094 562.65625 321.363281 C 562.65625 320.730469 562.023438 319.886719 562.023438 319.253906 C 560.546875 317.777344 558.648438 317.777344 557.804688 319.253906 C 557.171875 319.886719 557.171875 320.730469 557.171875 321.363281 C 557.171875 321.996094 557.804688 322.839844 557.804688 323.472656 C 558.4375 323.472656 559.28125 324.105469 559.914062 324.105469 Z M 559.914062 324.105469 " fill-opacity="1" fill-rule="nonzero"/><path fill="#582308" d="M 772.921875 197.160156 C 773.554688 197.160156 774.398438 196.527344 775.03125 196.527344 C 775.660156 195.894531 775.660156 195.054688 775.660156 194.421875 C 775.660156 193.789062 775.03125 192.945312 775.03125 192.3125 C 773.554688 190.835938 771.65625 190.835938 770.8125 192.3125 C 770.179688 192.945312 770.179688 193.789062 770.179688 194.421875 C 770.179688 195.054688 770.8125 195.894531 770.8125 196.527344 C 771.65625 197.160156 772.289062 197.160156 772.921875 197.160156 Z M 772.921875 197.160156 " fill-opacity="1" fill-rule="nonzero"/><path fill="#582308" d="M 842.09375 141.914062 C 842.726562 141.914062 843.570312 141.28125 844.203125 141.28125 C 844.835938 140.648438 844.835938 139.804688 844.835938 139.171875 C 844.835938 138.539062 844.203125 137.695312 844.203125 137.0625 C 842.726562 135.589844 840.828125 135.589844 839.984375 137.0625 C 839.351562 137.695312 839.351562 138.539062 839.351562 139.171875 C 839.351562 139.804688 839.984375 140.648438 839.984375 141.28125 C 840.617188 141.28125 841.25 141.914062 842.09375 141.914062 Z M 842.09375 141.914062 " fill-opacity="1" fill-rule="nonzero"/><path fill="#582308" d="M 583.957031 280.03125 C 585.433594 280.03125 586.695312 279.398438 588.171875 278.558594 C 589.648438 277.082031 589.648438 275.816406 589.648438 274.339844 C 589.648438 272.863281 589.015625 271.597656 588.171875 270.121094 C 586.0625 268.011719 582.058594 268.011719 579.949219 270.121094 C 578.472656 271.597656 578.472656 272.863281 578.472656 274.339844 C 578.472656 275.816406 579.105469 277.082031 579.949219 278.558594 C 581.214844 279.1875 582.691406 280.03125 583.957031 280.03125 Z M 583.957031 280.03125 " fill-opacity="1" fill-rule="nonzero"/><path fill="#582308" d="M 868.878906 171.015625 C 870.355469 171.015625 871.621094 170.382812 873.097656 169.539062 C 874.574219 168.0625 874.574219 166.796875 874.574219 165.320312 C 874.574219 163.84375 873.941406 162.578125 873.097656 161.101562 C 870.988281 158.996094 866.980469 158.996094 864.871094 161.101562 C 863.394531 162.578125 863.394531 163.84375 863.394531 165.320312 C 863.394531 166.796875 864.027344 168.0625 864.871094 169.539062 C 865.503906 170.382812 867.613281 171.015625 868.878906 171.015625 Z M 868.878906 171.015625 " fill-opacity="1" fill-rule="nonzero"/><path fill="#582308" d="M 628.875 306.8125 C 630.351562 306.8125 631.617188 306.179688 633.09375 305.335938 C 634.570312 303.859375 634.570312 302.59375 634.570312 301.121094 C 634.570312 299.644531 633.9375 298.378906 633.09375 296.902344 C 630.984375 294.792969 626.980469 294.792969 624.871094 296.902344 C 623.394531 298.378906 623.394531 299.644531 623.394531 301.121094 C 623.394531 302.59375 624.027344 303.859375 624.871094 305.335938 C 625.503906 306.179688 627.402344 306.8125 628.875 306.8125 Z M 628.875 306.8125 " fill-opacity="1" fill-rule="nonzero"/><path fill="#582308" d="M 735.167969 248.824219 C 736.644531 248.824219 737.910156 248.191406 739.386719 247.347656 C 740.863281 245.871094 740.863281 244.605469 740.863281 243.128906 C 740.863281 241.65625 740.230469 240.390625 739.386719 238.914062 C 737.277344 236.804688 733.269531 236.804688 731.164062 238.914062 C 729.6875 239.546875 729.054688 241.65625 729.054688 243.128906 C 729.054688 244.605469 729.6875 245.871094 730.53125 247.347656 C 732.429688 248.191406 733.691406 248.824219 735.167969 248.824219 Z M 735.167969 248.824219 " fill-opacity="1" fill-rule="nonzero"/><path fill="#582308" d="M 504.023438 359.320312 C 504.65625 359.320312 505.5 358.6875 506.132812 358.6875 C 506.765625 358.054688 506.765625 357.210938 506.765625 356.578125 C 506.765625 355.945312 506.132812 355.101562 506.132812 354.46875 C 504.65625 352.992188 502.757812 352.992188 501.914062 354.46875 C 501.285156 355.101562 501.285156 355.945312 501.285156 356.578125 C 501.285156 357.210938 501.914062 358.054688 501.914062 358.6875 C 502.546875 359.320312 503.390625 359.320312 504.023438 359.320312 Z M 504.023438 359.320312 " fill-opacity="1" fill-rule="nonzero"/><path fill="#582308" d="M 430.84375 393.058594 C 431.476562 393.058594 432.320312 392.425781 432.953125 392.425781 C 433.585938 391.792969 433.585938 390.949219 433.585938 390.316406 C 433.585938 389.683594 432.953125 388.839844 432.953125 388.207031 C 431.476562 386.730469 429.578125 386.730469 428.734375 388.207031 C 428.101562 388.839844 428.101562 389.683594 428.101562 390.316406 C 428.101562 390.949219 428.101562 391.792969 428.734375 392.425781 C 429.578125 392.425781 430.210938 393.058594 430.84375 393.058594 Z M 430.84375 393.058594 " fill-opacity="1" fill-rule="nonzero"/><path fill="#582308" d="M 524.058594 315.035156 C 524.691406 315.035156 525.535156 314.402344 526.167969 314.402344 C 526.800781 313.773438 526.800781 312.929688 526.800781 312.296875 C 526.800781 311.664062 526.167969 310.820312 526.167969 310.1875 C 524.691406 308.710938 522.792969 308.710938 521.953125 310.1875 C 521.320312 310.820312 521.320312 311.664062 521.320312 312.296875 C 521.320312 312.929688 521.953125 313.773438 521.953125 314.402344 C 522.582031 314.402344 523.214844 315.035156 524.058594 315.035156 Z M 524.058594 315.035156 " fill-opacity="1" fill-rule="nonzero"/><path fill="#582308" d="M 475.765625 355.101562 C 476.398438 355.101562 477.242188 354.46875 477.875 354.46875 C 478.507812 353.835938 478.507812 352.992188 478.507812 352.359375 C 478.507812 351.726562 477.875 350.882812 477.875 350.25 C 476.398438 348.777344 474.5 348.777344 473.65625 350.25 C 473.023438 350.882812 473.023438 351.726562 473.023438 352.359375 C 473.023438 352.992188 473.65625 353.835938 473.65625 354.46875 C 473.65625 354.46875 474.289062 355.101562 475.765625 355.101562 Z M 475.765625 355.101562 " fill-opacity="1" fill-rule="nonzero"/><path fill="#582308" d="M 483.988281 379.351562 C 484.621094 379.351562 485.464844 378.71875 486.097656 378.71875 C 486.730469 378.085938 486.730469 377.242188 486.730469 376.609375 C 486.730469 375.976562 486.097656 375.132812 486.097656 374.5 C 484.621094 373.027344 482.722656 373.027344 481.878906 374.5 C 481.246094 375.132812 481.246094 375.976562 481.246094 376.609375 C 481.246094 377.242188 481.878906 378.085938 481.878906 378.71875 C 482.511719 379.351562 483.355469 379.351562 483.988281 379.351562 Z M 483.988281 379.351562 " fill-opacity="1" fill-rule="nonzero"/><path fill="#582308" d="M 455.730469 397.273438 C 456.363281 397.273438 457.207031 396.644531 457.839844 396.644531 C 458.472656 396.011719 458.472656 395.167969 458.472656 394.535156 C 458.472656 393.902344 457.839844 393.058594 457.839844 392.425781 C 456.363281 390.949219 454.464844 390.949219 453.621094 392.425781 C 452.988281 393.058594 452.988281 393.902344 452.988281 394.535156 C 452.988281 395.167969 453.621094 396.011719 453.621094 396.644531 C 453.621094 397.273438 454.253906 397.273438 455.730469 397.273438 Z M 455.730469 397.273438 " fill-opacity="1" fill-rule="nonzero"/><path fill="#582308" d="M 439.910156 359.953125 C 441.386719 359.953125 442.652344 359.320312 444.128906 358.476562 C 445.605469 357 445.605469 355.734375 445.605469 354.257812 C 445.605469 352.78125 444.972656 351.515625 444.128906 350.039062 C 442.019531 347.933594 438.015625 347.933594 435.90625 350.039062 C 434.429688 351.515625 434.429688 352.78125 434.429688 354.257812 C 434.429688 355.734375 435.0625 357 435.90625 358.476562 C 437.171875 359.320312 438.433594 359.953125 439.910156 359.953125 Z M 439.910156 359.953125 " fill-opacity="1" fill-rule="nonzero"/><path fill="#582308" d="M 175.65625 613.835938 C 175.023438 614.46875 175.023438 615.3125 175.023438 615.945312 C 175.023438 616.578125 175.65625 617.421875 175.65625 618.054688 C 176.289062 618.6875 177.132812 618.6875 177.765625 618.6875 C 178.398438 618.6875 179.242188 618.054688 179.875 618.054688 C 180.507812 617.421875 180.507812 616.578125 180.507812 615.945312 C 180.507812 615.3125 179.875 614.46875 179.875 613.835938 C 178.398438 612.992188 176.289062 612.992188 175.65625 613.835938 Z M 175.65625 613.835938 " fill-opacity="1" fill-rule="nonzero"/><path fill="#582308" d="M 203.917969 587.476562 C 204.550781 586.847656 204.550781 586.003906 204.550781 585.371094 C 204.550781 584.738281 203.917969 583.894531 203.917969 583.261719 C 202.441406 581.785156 200.542969 581.785156 199.699219 583.261719 C 199.066406 583.894531 199.066406 584.738281 199.066406 585.371094 C 199.066406 586.003906 199.699219 586.847656 199.699219 587.476562 C 200.332031 588.109375 201.175781 588.109375 201.808594 588.109375 C 202.652344 588.320312 203.285156 587.476562 203.917969 587.476562 Z M 203.917969 587.476562 " fill-opacity="1" fill-rule="nonzero"/><path fill="#582308" d="M 177.765625 538.558594 C 177.132812 539.191406 177.132812 540.03125 177.132812 540.664062 C 177.132812 541.296875 177.765625 542.140625 177.765625 542.773438 C 178.398438 543.40625 179.242188 543.40625 179.875 543.40625 C 180.507812 543.40625 181.351562 542.773438 181.984375 542.773438 C 182.617188 542.140625 182.617188 541.296875 182.617188 540.664062 C 182.617188 540.03125 181.984375 539.191406 181.984375 538.558594 C 181.140625 537.292969 179.03125 537.292969 177.765625 538.558594 Z M 177.765625 538.558594 " fill-opacity="1" fill-rule="nonzero"/><path fill="#582308" d="M 268.875 475.085938 C 269.507812 475.085938 270.347656 474.453125 270.980469 474.453125 C 271.613281 473.820312 271.613281 472.976562 271.613281 472.34375 C 271.613281 471.710938 270.980469 470.867188 270.980469 470.234375 C 269.507812 468.757812 268.242188 468.757812 266.765625 470.234375 C 266.132812 470.867188 266.132812 471.710938 266.132812 472.34375 C 266.132812 472.976562 266.132812 473.820312 266.765625 474.453125 C 267.398438 474.453125 268.03125 475.085938 268.875 475.085938 Z M 268.875 475.085938 " fill-opacity="1" fill-rule="nonzero"/><path fill="#582308" d="M 304.726562 472.976562 C 305.359375 472.976562 306.203125 472.34375 306.835938 472.34375 C 307.46875 471.710938 307.46875 470.867188 307.46875 470.234375 C 307.46875 469.601562 306.835938 468.757812 306.835938 468.128906 C 305.359375 466.652344 303.460938 466.652344 302.617188 468.128906 C 301.984375 468.757812 301.984375 469.601562 301.984375 470.234375 C 301.984375 470.867188 302.617188 471.710938 302.617188 472.34375 C 302.617188 472.34375 303.25 472.976562 304.726562 472.976562 Z M 304.726562 472.976562 " fill-opacity="1" fill-rule="nonzero"/><path fill="#582308" d="M 401.949219 419.207031 C 402.582031 419.207031 403.425781 418.574219 404.058594 418.574219 C 404.691406 417.941406 404.691406 417.097656 404.691406 416.464844 C 404.691406 415.832031 404.058594 414.988281 404.058594 414.355469 C 402.582031 412.878906 400.683594 412.878906 399.839844 414.355469 C 399.207031 414.988281 399.207031 415.832031 399.207031 416.464844 C 399.207031 417.097656 399.839844 417.941406 399.839844 418.574219 C 400.472656 419.207031 401.316406 419.207031 401.949219 419.207031 Z M 401.949219 419.207031 " fill-opacity="1" fill-rule="nonzero"/><path fill="#582308" d="M 186.621094 858.65625 C 185.988281 859.289062 185.988281 860.128906 185.988281 860.761719 C 185.988281 861.394531 186.621094 862.238281 186.621094 862.871094 C 187.253906 863.503906 188.097656 863.503906 188.730469 863.503906 C 189.363281 863.503906 190.207031 862.871094 190.839844 862.871094 C 191.472656 862.238281 191.472656 861.394531 191.472656 860.761719 C 191.472656 860.128906 190.839844 859.289062 190.839844 858.65625 C 190.207031 857.179688 188.097656 857.179688 186.621094 858.65625 Z M 186.621094 858.65625 " fill-opacity="1" fill-rule="nonzero"/><path fill="#582308" d="M 181.773438 902.726562 C 181.140625 903.359375 181.140625 904.203125 181.140625 904.835938 C 181.140625 905.46875 181.773438 906.3125 181.773438 906.945312 C 182.40625 907.574219 183.25 907.574219 183.882812 907.574219 C 184.515625 907.574219 185.359375 906.945312 185.988281 906.945312 C 186.621094 906.3125 186.621094 905.46875 186.621094 904.835938 C 186.621094 904.203125 185.988281 903.359375 185.988281 902.726562 C 185.359375 902.09375 183.25 902.09375 181.773438 902.726562 Z M 181.773438 902.726562 " fill-opacity="1" fill-rule="nonzero"/><path fill="#582308" d="M 181.773438 918.542969 C 181.140625 919.171875 181.140625 920.015625 181.140625 920.648438 C 181.140625 921.28125 181.773438 922.125 181.773438 922.757812 C 182.40625 923.390625 183.25 923.390625 183.882812 923.390625 C 184.515625 923.390625 185.359375 922.757812 185.988281 922.757812 C 186.621094 922.125 186.621094 921.28125 186.621094 920.648438 C 186.621094 920.015625 185.988281 919.171875 185.988281 918.542969 C 185.359375 917.277344 183.25 917.277344 181.773438 918.542969 Z M 181.773438 918.542969 " fill-opacity="1" fill-rule="nonzero"/><path fill="#582308" d="M 199.699219 928.875 C 200.332031 929.507812 201.175781 929.507812 201.808594 929.507812 C 202.441406 929.507812 203.285156 928.875 203.917969 928.875 C 204.550781 928.242188 204.550781 927.398438 204.550781 926.765625 C 204.550781 926.132812 203.917969 925.289062 203.917969 924.65625 C 203.285156 924.023438 201.175781 924.023438 199.699219 924.65625 C 199.066406 925.289062 199.066406 926.132812 199.066406 926.765625 C 199.066406 927.609375 199.699219 928.242188 199.699219 928.875 Z M 199.699219 928.875 " fill-opacity="1" fill-rule="nonzero"/><path fill="#582308" d="M 217.835938 907.574219 C 217.203125 908.207031 217.203125 909.050781 217.203125 909.683594 C 217.203125 910.316406 217.835938 911.160156 217.835938 911.792969 C 218.46875 912.425781 219.3125 912.425781 219.945312 912.425781 C 220.578125 912.425781 221.421875 911.792969 222.054688 911.792969 C 222.6875 911.160156 222.6875 910.316406 222.6875 909.683594 C 222.6875 909.050781 222.054688 908.207031 222.054688 907.574219 C 221.210938 906.3125 219.101562 906.3125 217.835938 907.574219 Z M 217.835938 907.574219 " fill-opacity="1" fill-rule="nonzero"/><path fill="#582308" d="M 186.621094 824.914062 C 185.988281 825.546875 185.988281 826.390625 185.988281 827.023438 C 185.988281 827.65625 186.621094 828.5 186.621094 829.132812 C 187.253906 829.765625 188.097656 829.765625 188.730469 829.765625 C 189.363281 829.765625 190.207031 829.132812 190.839844 829.132812 C 191.472656 828.5 191.472656 827.65625 191.472656 827.023438 C 191.472656 826.390625 190.839844 825.546875 190.839844 824.914062 C 190.207031 824.070312 188.097656 824.070312 186.621094 824.914062 Z M 186.621094 824.914062 " fill-opacity="1" fill-rule="nonzero"/><path fill="#582308" d="M 237.660156 698.605469 C 237.027344 699.238281 237.027344 700.082031 237.027344 700.714844 C 237.027344 701.347656 237.660156 702.191406 237.660156 702.824219 C 238.292969 703.457031 239.136719 703.457031 239.769531 703.457031 C 240.402344 703.457031 241.246094 702.824219 241.878906 702.824219 C 242.511719 702.191406 242.511719 701.347656 242.511719 700.714844 C 242.511719 700.082031 241.878906 699.238281 241.878906 698.605469 C 241.246094 697.128906 239.136719 697.128906 237.660156 698.605469 Z M 237.660156 698.605469 " fill-opacity="1" fill-rule="nonzero"/><path fill="#582308" d="M 228.800781 838.621094 C 228.167969 839.253906 228.167969 840.097656 228.167969 840.730469 C 228.167969 841.363281 228.800781 842.207031 228.800781 842.839844 C 229.433594 843.472656 230.277344 843.472656 230.910156 843.472656 C 231.542969 843.472656 232.386719 842.839844 233.019531 842.839844 C 233.652344 842.207031 233.652344 841.363281 233.652344 840.730469 C 233.652344 840.097656 233.019531 839.253906 233.019531 838.621094 C 232.175781 837.144531 230.066406 837.144531 228.800781 838.621094 Z M 228.800781 838.621094 " fill-opacity="1" fill-rule="nonzero"/><path fill="#582308" d="M 390.773438 446.195312 C 391.40625 446.195312 392.25 445.5625 392.882812 445.5625 C 393.515625 444.929688 393.515625 444.089844 393.515625 443.457031 C 393.515625 442.824219 392.882812 441.980469 392.882812 441.347656 C 391.40625 439.871094 389.507812 439.871094 388.664062 441.347656 C 388.03125 441.980469 388.03125 442.824219 388.03125 443.457031 C 388.03125 444.089844 388.664062 444.929688 388.664062 445.5625 C 389.507812 445.5625 390.140625 446.195312 390.773438 446.195312 Z M 390.773438 446.195312 " fill-opacity="1" fill-rule="nonzero"/><path fill="#582308" d="M 228.800781 479.304688 C 229.433594 479.304688 230.277344 478.671875 230.910156 478.671875 C 231.542969 478.039062 231.542969 477.195312 231.542969 476.5625 C 231.542969 475.929688 230.910156 475.085938 230.910156 474.453125 C 229.433594 472.976562 227.539062 472.976562 226.695312 474.453125 C 226.0625 475.085938 226.0625 475.929688 226.0625 476.5625 C 226.0625 477.195312 226.695312 478.039062 226.695312 478.671875 C 227.328125 479.304688 228.167969 479.304688 228.800781 479.304688 Z M 228.800781 479.304688 " fill-opacity="1" fill-rule="nonzero"/><path fill="#582308" d="M 337.835938 480.566406 C 337.203125 481.199219 337.203125 482.042969 337.203125 482.675781 C 337.203125 483.308594 337.203125 484.152344 337.835938 484.785156 C 338.46875 485.417969 339.3125 485.417969 339.945312 485.417969 C 340.578125 485.417969 341.421875 484.785156 342.054688 484.785156 C 342.6875 484.152344 342.6875 483.308594 342.6875 482.675781 C 342.6875 482.042969 342.054688 481.199219 342.054688 480.566406 C 341.210938 479.9375 339.101562 479.9375 337.835938 480.566406 Z M 337.835938 480.566406 " fill-opacity="1" fill-rule="nonzero"/><path fill="#582308" d="M 306.625 489.636719 C 305.992188 490.269531 305.992188 491.113281 305.992188 491.746094 C 305.992188 492.375 306.625 493.21875 306.625 493.851562 C 307.257812 494.484375 308.101562 494.484375 308.734375 494.484375 C 309.367188 494.484375 310.210938 493.851562 310.84375 493.851562 C 311.476562 493.21875 311.476562 492.375 311.476562 491.746094 C 311.476562 491.113281 310.84375 490.269531 310.84375 489.636719 C 309.578125 488.160156 307.46875 488.160156 306.625 489.636719 Z M 306.625 489.636719 " fill-opacity="1" fill-rule="nonzero"/><path fill="#582308" d="M 217.835938 510.300781 C 218.46875 510.300781 219.3125 509.667969 219.945312 509.667969 C 220.578125 509.035156 220.578125 508.191406 220.578125 507.558594 C 220.578125 506.925781 219.945312 506.082031 219.945312 505.449219 C 218.46875 503.976562 216.570312 503.976562 215.726562 505.449219 C 215.09375 506.082031 215.09375 506.925781 215.09375 507.558594 C 215.09375 508.191406 215.726562 509.035156 215.726562 509.667969 C 216.359375 510.300781 216.992188 510.300781 217.835938 510.300781 Z M 217.835938 510.300781 " fill-opacity="1" fill-rule="nonzero"/><path fill="#582308" d="M 248.835938 546.148438 C 249.46875 546.148438 250.3125 545.515625 250.945312 545.515625 C 251.578125 544.882812 251.578125 544.039062 251.578125 543.40625 C 251.578125 542.773438 250.945312 541.929688 250.945312 541.296875 C 249.46875 539.820312 247.574219 539.820312 246.730469 541.296875 C 246.097656 541.929688 246.097656 542.773438 246.097656 543.40625 C 246.097656 544.039062 246.730469 544.882812 246.730469 545.515625 C 247.363281 545.515625 247.996094 546.148438 248.835938 546.148438 Z M 248.835938 546.148438 " fill-opacity="1" fill-rule="nonzero"/><path fill="#582308" d="M 186.621094 688.273438 C 187.253906 688.273438 188.097656 687.640625 188.730469 687.640625 C 189.363281 687.007812 189.363281 686.164062 189.363281 685.53125 C 189.363281 684.898438 188.730469 684.054688 188.730469 683.421875 C 187.253906 681.945312 185.359375 681.945312 184.515625 683.421875 C 183.882812 684.054688 183.882812 684.898438 183.882812 685.53125 C 183.882812 686.164062 184.515625 687.007812 184.515625 687.640625 C 185.359375 688.273438 185.988281 688.273438 186.621094 688.273438 Z M 186.621094 688.273438 " fill-opacity="1" fill-rule="nonzero"/><path fill="#582308" d="M 202.652344 654.535156 C 202.019531 655.167969 202.019531 656.011719 202.019531 656.644531 C 202.019531 657.277344 202.652344 658.121094 202.652344 658.75 C 203.285156 659.382812 204.128906 659.382812 204.761719 659.382812 C 205.394531 659.382812 206.238281 658.75 206.867188 658.75 C 207.5 658.121094 207.5 657.277344 207.5 656.644531 C 207.5 656.011719 206.867188 655.167969 206.867188 654.535156 C 205.394531 653.058594 203.285156 653.058594 202.652344 654.535156 Z M 202.652344 654.535156 " fill-opacity="1" fill-rule="nonzero"/><path fill="#582308" d="M 224.585938 584.105469 C 225.21875 584.105469 226.0625 583.472656 226.695312 583.472656 C 227.328125 582.839844 227.328125 581.996094 227.328125 581.363281 C 227.328125 580.730469 226.695312 579.886719 226.695312 579.253906 C 225.21875 577.777344 223.953125 577.777344 222.476562 579.253906 C 221.84375 579.886719 221.84375 580.730469 221.84375 581.363281 C 221.84375 581.996094 221.84375 582.839844 222.476562 583.472656 C 222.476562 583.472656 223.320312 584.105469 224.585938 584.105469 Z M 224.585938 584.105469 " fill-opacity="1" fill-rule="nonzero"/><path fill="#582308" d="M 200.542969 780.632812 C 201.175781 781.265625 202.019531 781.265625 202.652344 781.265625 C 203.285156 781.265625 204.128906 780.632812 204.761719 780.632812 C 205.394531 780 205.394531 779.15625 205.394531 778.523438 C 205.394531 777.890625 204.761719 777.046875 204.761719 776.417969 C 203.285156 774.941406 201.386719 774.941406 200.542969 776.417969 C 199.910156 777.046875 199.910156 777.890625 199.910156 778.523438 C 199.699219 779.367188 200.542969 780 200.542969 780.632812 Z M 200.542969 780.632812 " fill-opacity="1" fill-rule="nonzero"/><path fill="#582308" d="M 221.84375 876.578125 C 221.210938 877.210938 221.210938 878.054688 221.210938 878.6875 C 221.210938 879.320312 221.210938 880.164062 221.84375 880.796875 C 222.476562 881.429688 223.320312 881.429688 223.953125 881.429688 C 224.585938 881.429688 225.429688 880.796875 226.0625 880.796875 C 226.695312 880.164062 226.695312 879.320312 226.695312 878.6875 C 226.695312 878.054688 226.0625 877.210938 226.0625 876.578125 C 225.21875 875.101562 223.320312 875.101562 221.84375 876.578125 Z M 221.84375 876.578125 " fill-opacity="1" fill-rule="nonzero"/><path fill="#582308" d="M 257.695312 506.925781 C 259.171875 506.925781 260.4375 506.292969 261.914062 505.449219 C 263.390625 503.976562 263.390625 502.710938 263.390625 501.234375 C 263.390625 499.757812 262.757812 497.859375 261.914062 497.015625 C 259.804688 494.90625 255.796875 494.90625 253.6875 497.015625 C 252.210938 498.492188 252.210938 499.757812 252.210938 501.234375 C 252.210938 502.710938 252.84375 503.976562 253.6875 505.449219 C 254.953125 506.082031 256.429688 506.925781 257.695312 506.925781 Z M 257.695312 506.925781 " fill-opacity="1" fill-rule="nonzero"/><path fill="#582308" d="M 197.800781 941.316406 C 196.324219 942.789062 196.324219 944.054688 196.324219 945.53125 C 196.324219 947.007812 196.957031 948.273438 197.800781 949.75 C 199.277344 951.226562 200.542969 951.226562 202.019531 951.226562 C 203.496094 951.226562 204.761719 950.59375 206.238281 949.75 C 207.710938 948.273438 207.710938 947.007812 207.710938 945.53125 C 207.710938 944.054688 207.078125 942.160156 206.238281 941.316406 C 203.917969 938.574219 200.542969 938.574219 197.800781 941.316406 Z M 197.800781 941.316406 " fill-opacity="1" fill-rule="nonzero"/><path fill="#582308" d="M 219.101562 616.578125 C 219.101562 615.101562 218.46875 613.835938 217.625 612.359375 C 215.515625 610.253906 211.507812 610.253906 209.398438 612.359375 C 207.921875 613.835938 207.921875 615.101562 207.921875 616.578125 C 207.921875 618.054688 208.554688 619.320312 209.398438 620.796875 C 210.875 622.273438 212.140625 622.273438 213.617188 622.273438 C 215.09375 622.273438 216.359375 621.640625 217.835938 620.796875 C 218.46875 619.320312 219.101562 617.84375 219.101562 616.578125 Z M 219.101562 616.578125 " fill-opacity="1" fill-rule="nonzero"/><path fill="#582308" d="M 224.585938 801.296875 C 223.109375 802.773438 223.109375 804.039062 223.109375 805.515625 C 223.109375 806.992188 223.742188 808.257812 224.585938 809.734375 C 226.0625 811.210938 227.328125 811.210938 228.800781 811.210938 C 230.277344 811.210938 231.542969 810.578125 233.019531 809.734375 C 234.496094 808.257812 234.496094 806.992188 234.496094 805.515625 C 234.496094 804.039062 233.863281 802.773438 233.019531 801.296875 C 230.910156 798.558594 226.695312 798.558594 224.585938 801.296875 Z M 224.585938 801.296875 " fill-opacity="1" fill-rule="nonzero"/><path fill="#582308" d="M 197.800781 548.257812 C 196.324219 549.734375 196.324219 551 196.324219 552.472656 C 196.324219 553.949219 196.957031 555.214844 197.800781 556.691406 C 199.277344 557.324219 200.542969 558.167969 202.019531 558.167969 C 203.496094 558.167969 204.761719 557.535156 206.238281 556.691406 C 207.710938 555.214844 207.710938 553.949219 207.710938 552.472656 C 207.710938 551 207.078125 549.734375 206.238281 548.257812 C 203.917969 546.148438 199.699219 546.148438 197.800781 548.257812 Z M 197.800781 548.257812 " fill-opacity="1" fill-rule="nonzero"/><path fill="#582308" d="M 339.734375 455.898438 C 341.210938 455.898438 342.476562 455.265625 343.953125 454.421875 C 345.429688 452.945312 345.429688 451.679688 345.429688 450.203125 C 345.429688 448.726562 344.796875 447.460938 343.953125 445.984375 C 341.84375 443.878906 337.835938 443.878906 335.726562 445.984375 C 334.25 447.460938 334.25 448.726562 334.25 450.203125 C 334.25 451.679688 334.882812 452.945312 335.726562 454.421875 C 336.992188 455.054688 338.46875 455.898438 339.734375 455.898438 Z M 339.734375 455.898438 " fill-opacity="1" fill-rule="nonzero"/><path fill="#582308" d="M 234.917969 658.539062 C 232.808594 656.433594 228.800781 656.433594 226.695312 658.539062 C 225.21875 660.015625 225.21875 661.28125 225.21875 662.757812 C 225.21875 664.234375 225.851562 665.5 226.695312 666.976562 C 228.167969 668.453125 229.433594 668.453125 230.910156 668.453125 C 232.386719 668.453125 233.652344 667.820312 235.128906 666.976562 C 236.605469 665.5 236.605469 664.234375 236.605469 662.757812 C 237.027344 661.28125 236.394531 660.015625 234.917969 658.539062 Z M 234.917969 658.539062 " fill-opacity="1" fill-rule="nonzero"/></svg>