<?xml version="1.0" encoding="UTF-8"?>
<!DOCTYPE svg PUBLIC "-//W3C//DTD SVG 1.1//EN" "http://www.w3.org/Graphics/SVG/1.1/DTD/svg11.dtd">
<svg xmlns="http://www.w3.org/2000/svg" version="1.1" width="512px" height="512px" style="shape-rendering:geometricPrecision; text-rendering:geometricPrecision; image-rendering:optimizeQuality; fill-rule:evenodd; clip-rule:evenodd" xmlns:xlink="http://www.w3.org/1999/xlink">
<g><path style="opacity:0.964" fill="#000000" d="M 156.5,47.5 C 169.244,45.5943 176.577,50.9276 178.5,63.5C 174.134,81.9613 169.634,100.295 165,118.5C 224.989,86.6698 285.156,86.5031 345.5,118C 406.395,154.083 438.061,207.75 440.5,279C 437.331,357.065 400.997,413.399 331.5,448C 266.344,474.311 204.677,467.978 146.5,429C 88.8536,383.446 64.3536,323.946 73,250.5C 74.4213,240.147 77.0879,230.147 81,220.5C 87.9446,213.931 95.7779,212.764 104.5,217C 110.167,222.319 112.001,228.819 110,236.5C 96.1654,291.154 107.499,339.821 144,382.5C 186.995,425.49 238.162,439.656 297.5,425C 360.518,403.97 396.684,360.47 406,294.5C 409.896,229.785 384.396,180.618 329.5,147C 275.654,119.312 222.987,121.312 171.5,153C 195.223,159.514 218.889,166.18 242.5,173C 251.833,182.333 251.833,191.667 242.5,201C 239.698,202.545 236.698,203.378 233.5,203.5C 197.142,194.911 161.142,185.077 125.5,174C 120.261,169.282 118.428,163.449 120,156.5C 128.932,122.374 138.265,88.3744 148,54.5C 150.441,51.5464 153.275,49.2131 156.5,47.5 Z"/></g>
</svg>
