<svg xmlns="http://www.w3.org/2000/svg" xmlns:xlink="http://www.w3.org/1999/xlink" width="1366" zoomAndPan="magnify" viewBox="0 0 1024.5 920.999994" height="768" preserveAspectRatio="xMidYMid meet" version="1.0"><defs><clipPath id="58ad8b0e44"><path d="M 1 2 L 1024 2 L 1024 918.222656 L 1 918.222656 Z M 1 2 " clip-rule="nonzero"/></clipPath></defs><path fill="#f9fcff" d="M 768.40625 525.4375 C 766.359375 526.253906 764.316406 527.074219 762.476562 528.09375 C 763.703125 527.480469 765.132812 526.867188 766.359375 526.253906 C 766.769531 526.050781 767.179688 525.847656 767.585938 525.847656 C 767.792969 525.644531 767.996094 525.644531 768.40625 525.4375 Z M 882.070312 611.476562 C 869.191406 585.726562 845.273438 567.539062 819.515625 563.859375 C 806.839844 562.019531 794.164062 563.859375 782.921875 569.375 C 767.792969 576.734375 756.34375 590.015625 750.621094 606.773438 C 743.667969 627.210938 745.714844 651.324219 756.140625 672.375 C 769.019531 698.125 792.9375 716.3125 818.695312 719.992188 C 821.761719 720.402344 824.828125 720.605469 828.101562 720.605469 C 837.707031 720.605469 846.90625 718.5625 855.289062 714.472656 C 870.417969 707.117188 881.867188 693.832031 887.589844 677.074219 C 894.746094 656.433594 892.699219 632.523438 882.070312 611.476562 Z M 762.273438 528.09375 C 760.839844 528.707031 759.613281 529.527344 758.183594 530.136719 L 801.933594 506.433594 C 803.160156 505.820312 804.179688 505.207031 805.40625 504.59375 C 805.613281 504.59375 805.816406 504.390625 806.019531 504.390625 C 807.246094 503.777344 808.679688 503.164062 809.90625 502.550781 C 810.3125 502.34375 810.722656 502.140625 811.132812 502.140625 C 812.152344 501.730469 812.972656 501.324219 813.992188 501.117188 C 814.402344 500.914062 814.8125 500.710938 815.425781 500.710938 C 816.449219 500.300781 817.46875 500.097656 818.289062 499.6875 C 818.695312 499.484375 819.105469 499.484375 819.308594 499.28125 C 820.742188 498.871094 821.96875 498.460938 823.398438 498.054688 C 823.398438 498.054688 823.398438 498.054688 823.601562 498.054688 C 823.808594 498.054688 824.011719 498.054688 824.011719 497.847656 C 825.238281 497.441406 826.464844 497.234375 827.691406 497.03125 C 828.101562 497.03125 828.507812 496.828125 828.917969 496.828125 C 830.144531 496.621094 831.167969 496.417969 832.394531 496.214844 C 832.800781 496.214844 833.007812 496.011719 833.414062 496.011719 C 834.847656 495.804688 836.277344 495.601562 837.707031 495.398438 C 838.117188 495.398438 838.320312 495.398438 838.730469 495.398438 C 839.957031 495.191406 840.980469 495.191406 842.207031 495.191406 C 842.613281 495.191406 843.023438 495.191406 843.433594 495.191406 C 844.660156 495.191406 845.886719 495.191406 847.113281 495.191406 C 847.316406 495.191406 847.519531 495.191406 847.726562 495.191406 C 849.15625 495.191406 850.585938 495.191406 852.019531 495.191406 C 852.425781 495.191406 852.835938 495.191406 853.246094 495.191406 C 854.269531 495.191406 855.496094 495.398438 856.515625 495.398438 C 856.925781 495.398438 857.335938 495.398438 857.742188 495.601562 C 859.175781 495.804688 860.605469 496.011719 862.242188 496.214844 C 863.46875 496.417969 864.898438 496.621094 866.125 496.828125 C 862.445312 493.558594 858.765625 490.902344 854.882812 488.652344 L 55.546875 26.792969 C 27.539062 10.648438 4.84375 27.8125 4.84375 65.210938 L 4.84375 205.199219 C 4.84375 242.597656 27.539062 286.128906 55.75 302.273438 L 719.546875 685.453125 C 690.515625 623.53125 709.324219 553.640625 762.273438 528.09375 Z M 762.273438 528.09375 " fill-opacity="1" fill-rule="nonzero"/><path fill="#fdf493" d="M 903.332031 735.523438 C 903.945312 734.910156 904.761719 734.09375 905.375 733.480469 C 905.785156 733.070312 906.195312 732.664062 906.398438 732.253906 C 907.011719 731.640625 907.625 730.824219 908.035156 730.210938 C 908.441406 729.800781 908.851562 729.1875 909.261719 728.78125 C 909.875 728.167969 910.28125 727.347656 910.894531 726.734375 C 911.304688 726.328125 911.714844 725.714844 911.917969 725.304688 C 912.328125 724.691406 912.941406 723.875 913.347656 723.261719 C 913.757812 722.648438 913.960938 722.238281 914.371094 721.628906 C 914.78125 721.015625 915.1875 720.195312 915.800781 719.582031 C 916.210938 718.96875 916.414062 718.5625 916.824219 717.949219 C 917.234375 717.132812 917.640625 716.519531 918.050781 715.699219 C 918.253906 715.085938 918.664062 714.679688 918.867188 714.066406 C 919.277344 713.25 919.6875 712.429688 920.09375 711.613281 C 920.300781 711.203125 920.503906 710.589844 920.914062 710.183594 C 921.320312 709.160156 921.933594 708.140625 922.34375 707.117188 C 922.546875 706.707031 922.546875 706.503906 922.753906 706.09375 C 923.367188 704.664062 923.980469 703.4375 924.386719 702.007812 C 924.59375 701.597656 924.59375 701.394531 924.796875 700.984375 C 925.207031 699.964844 925.613281 698.941406 926.023438 697.921875 C 926.226562 697.308594 926.433594 696.898438 926.636719 696.285156 C 926.839844 695.46875 927.25 694.445312 927.453125 693.628906 C 927.660156 693.015625 927.863281 692.402344 927.863281 691.789062 C 928.066406 690.972656 928.273438 690.15625 928.476562 689.132812 C 928.679688 688.519531 928.886719 687.90625 928.886719 687.292969 C 929.089844 686.476562 929.292969 685.660156 929.5 684.636719 C 929.703125 684.023438 929.703125 683.410156 929.90625 682.796875 C 930.113281 681.980469 930.316406 681.164062 930.316406 680.140625 C 930.519531 679.527344 930.519531 678.914062 930.726562 678.300781 C 930.929688 677.484375 930.929688 676.460938 931.132812 675.644531 C 931.132812 675.03125 931.339844 674.417969 931.339844 673.804688 C 931.542969 672.785156 931.542969 671.96875 931.75 670.945312 C 931.75 670.332031 931.953125 669.71875 931.953125 669.105469 C 931.953125 668.085938 932.15625 667.0625 932.15625 666.039062 C 932.15625 665.425781 932.15625 665.019531 932.15625 664.609375 C 932.15625 662.976562 932.363281 661.542969 932.363281 659.910156 C 932.363281 658.273438 932.363281 656.84375 932.363281 655.210938 C 932.363281 654.597656 932.363281 654.1875 932.363281 653.574219 C 932.363281 652.550781 932.363281 651.53125 932.15625 650.304688 C 932.15625 649.691406 932.15625 649.078125 931.953125 648.464844 C 931.953125 647.445312 931.75 646.421875 931.75 645.605469 C 931.75 644.992188 931.542969 644.378906 931.542969 643.558594 C 931.542969 642.539062 931.339844 641.722656 931.132812 640.699219 C 931.132812 640.085938 930.929688 639.269531 930.929688 638.65625 C 930.726562 637.632812 930.726562 636.816406 930.519531 635.792969 C 930.316406 635.179688 930.316406 634.363281 930.113281 633.75 C 929.90625 632.730469 929.703125 631.910156 929.5 630.890625 C 929.292969 630.277344 929.292969 629.460938 929.089844 628.847656 C 928.886719 627.824219 928.679688 627.007812 928.476562 625.984375 C 928.273438 625.371094 928.066406 624.757812 928.066406 623.941406 C 927.863281 622.917969 927.453125 621.898438 927.25 620.875 C 927.046875 620.261719 926.839844 619.648438 926.839844 619.035156 C 926.433594 617.8125 926.023438 616.585938 925.820312 615.359375 C 925.613281 614.949219 925.613281 614.539062 925.410156 614.132812 C 924.796875 612.496094 924.386719 610.863281 923.773438 609.226562 C 923.773438 609.023438 923.570312 608.820312 923.570312 608.613281 C 923.160156 607.386719 922.546875 605.957031 922.140625 604.730469 C 921.933594 604.324219 921.730469 603.710938 921.527344 603.300781 C 921.117188 602.277344 920.503906 601.054688 920.09375 600.03125 C 919.890625 599.621094 919.6875 599.214844 919.480469 598.601562 C 918.867188 597.171875 918.050781 595.535156 917.4375 594.105469 C 916.824219 592.675781 916.007812 591.449219 915.394531 590.222656 C 915.394531 590.222656 915.394531 590.015625 915.1875 590.015625 C 913.757812 587.566406 912.328125 584.910156 910.894531 582.457031 C 910.894531 582.25 910.691406 582.25 910.691406 582.046875 C 909.261719 579.59375 907.625 577.347656 906.195312 575.097656 C 905.988281 574.894531 905.988281 574.894531 905.785156 574.691406 C 904.355469 572.644531 902.71875 570.601562 901.082031 568.558594 C 901.082031 568.558594 900.878906 568.355469 900.878906 568.355469 C 899.242188 566.3125 897.609375 564.265625 895.972656 562.429688 C 894.132812 560.382812 892.292969 558.546875 890.453125 556.5 C 890.453125 556.5 890.453125 556.5 890.246094 556.296875 C 888.40625 554.457031 886.566406 552.617188 884.523438 550.984375 C 884.523438 550.984375 884.320312 550.78125 884.320312 550.78125 C 883.296875 549.757812 882.273438 548.941406 881.046875 547.917969 C 880.84375 547.714844 880.640625 547.714844 880.433594 547.507812 C 879.617188 546.691406 878.59375 546.078125 877.777344 545.261719 C 877.367188 544.851562 876.960938 544.648438 876.550781 544.445312 C 875.9375 543.832031 875.121094 543.421875 874.507812 542.808594 C 874.097656 542.402344 873.6875 542.195312 873.074219 541.789062 C 872.460938 541.378906 871.644531 540.765625 871.03125 540.355469 C 870.621094 540.152344 870.214844 539.742188 869.804688 539.539062 C 868.78125 538.925781 867.761719 538.109375 866.738281 537.496094 C 866.328125 537.292969 865.921875 537.085938 865.511719 536.679688 C 864.082031 535.859375 862.855469 535.042969 861.421875 534.226562 C 861.421875 534.226562 861.421875 534.226562 861.21875 534.226562 C 859.789062 533.410156 858.5625 532.796875 857.128906 531.976562 C 856.71875 531.773438 856.3125 531.570312 855.902344 531.363281 C 854.878906 530.75 853.652344 530.34375 852.632812 529.730469 C 852.222656 529.527344 851.8125 529.320312 851.40625 529.117188 C 850.585938 528.707031 849.566406 528.300781 848.542969 527.890625 C 848.132812 527.6875 847.929688 527.480469 847.519531 527.480469 C 846.292969 526.867188 845.066406 526.460938 843.636719 525.847656 C 843.433594 525.644531 843.023438 525.644531 842.820312 525.644531 C 841.796875 525.234375 840.773438 524.824219 839.753906 524.621094 C 839.34375 524.417969 838.933594 524.210938 838.320312 524.210938 C 837.503906 524.007812 836.6875 523.597656 835.867188 523.394531 C 835.460938 523.191406 834.847656 522.984375 834.4375 522.984375 C 833.621094 522.78125 832.800781 522.578125 831.984375 522.375 C 831.371094 522.167969 830.960938 522.167969 830.347656 521.964844 C 829.53125 521.761719 828.714844 521.554688 827.894531 521.351562 C 827.488281 521.148438 826.875 521.148438 826.464844 520.941406 C 825.648438 520.738281 824.625 520.535156 823.808594 520.328125 C 823.398438 520.328125 822.988281 520.125 822.582031 520.125 C 821.351562 519.921875 819.921875 519.714844 818.695312 519.511719 C 817.265625 519.308594 815.832031 519.101562 814.199219 518.898438 C 813.789062 518.898438 813.378906 518.898438 812.972656 518.695312 C 811.746094 518.695312 810.722656 518.488281 809.496094 518.488281 C 809.085938 518.488281 808.679688 518.488281 808.269531 518.488281 C 806.839844 518.488281 805.40625 518.488281 803.976562 518.488281 C 803.773438 518.488281 803.566406 518.488281 803.363281 518.488281 C 802.136719 518.488281 800.910156 518.488281 799.683594 518.488281 C 799.273438 518.488281 798.867188 518.488281 798.457031 518.488281 C 797.230469 518.488281 796.207031 518.695312 794.980469 518.695312 C 794.574219 518.695312 794.367188 518.695312 793.960938 518.695312 C 792.527344 518.898438 791.097656 519.101562 789.667969 519.308594 C 789.257812 519.308594 789.054688 519.511719 788.644531 519.511719 C 787.417969 519.714844 786.394531 519.921875 785.167969 520.125 C 784.757812 520.125 784.351562 520.328125 783.941406 520.328125 C 782.714844 520.535156 781.488281 520.941406 780.261719 521.148438 C 780.058594 521.148438 779.851562 521.148438 779.648438 521.351562 C 778.21875 521.761719 776.992188 522.167969 775.558594 522.578125 C 775.152344 522.78125 774.742188 522.78125 774.539062 522.984375 C 773.515625 523.394531 772.492188 523.597656 771.675781 524.007812 C 771.265625 524.210938 770.859375 524.417969 770.246094 524.417969 C 769.222656 524.824219 768.40625 525.234375 767.382812 525.4375 C 766.972656 525.644531 766.566406 525.847656 766.15625 525.847656 C 764.929688 526.460938 763.5 527.074219 762.273438 527.6875 C 760.839844 528.300781 759.613281 529.117188 758.183594 529.730469 L 801.933594 506.023438 C 803.160156 505.410156 804.179688 504.796875 805.40625 504.183594 C 805.613281 504.183594 805.816406 503.980469 806.019531 503.980469 C 807.246094 503.367188 808.679688 502.753906 809.90625 502.140625 C 810.3125 501.9375 810.722656 501.730469 811.132812 501.730469 C 812.152344 501.324219 812.972656 500.914062 813.992188 500.710938 C 814.402344 500.507812 814.8125 500.300781 815.425781 500.300781 C 816.445312 499.894531 817.46875 499.6875 818.285156 499.28125 C 818.695312 499.074219 819.105469 499.074219 819.308594 498.871094 C 820.738281 498.460938 821.964844 498.054688 823.398438 497.644531 C 823.398438 497.644531 823.398438 497.644531 823.601562 497.644531 C 823.808594 497.644531 824.011719 497.644531 824.011719 497.441406 C 825.238281 497.03125 826.464844 496.828125 827.691406 496.625 C 828.101562 496.625 828.507812 496.417969 828.917969 496.417969 C 830.144531 496.214844 831.167969 496.011719 832.394531 495.804688 C 832.800781 495.804688 833.007812 495.601562 833.414062 495.601562 C 834.847656 495.398438 836.277344 495.191406 837.707031 494.988281 C 838.117188 494.988281 838.320312 494.988281 838.730469 494.988281 C 839.957031 494.785156 840.980469 494.785156 842.207031 494.785156 C 842.613281 494.785156 843.023438 494.785156 843.433594 494.785156 C 844.660156 494.785156 845.886719 494.785156 847.113281 494.785156 C 847.316406 494.785156 847.519531 494.785156 847.726562 494.785156 C 849.15625 494.785156 850.585938 494.785156 852.019531 494.785156 C 852.425781 494.785156 852.835938 494.785156 853.246094 494.785156 C 854.265625 494.785156 855.492188 494.988281 856.515625 494.988281 C 856.925781 494.988281 857.332031 494.988281 857.742188 495.191406 C 859.171875 495.398438 860.605469 495.601562 862.242188 495.804688 C 863.46875 496.011719 864.898438 496.214844 866.125 496.417969 C 866.535156 496.417969 866.941406 496.625 867.351562 496.625 C 868.167969 496.828125 869.191406 497.03125 870.007812 497.238281 C 870.417969 497.441406 871.03125 497.441406 871.441406 497.644531 C 872.257812 497.847656 873.074219 498.054688 873.894531 498.257812 C 874.507812 498.460938 874.914062 498.460938 875.527344 498.667969 C 876.347656 498.871094 877.164062 499.074219 877.980469 499.28125 C 878.390625 499.484375 879.003906 499.484375 879.414062 499.6875 C 880.230469 499.894531 881.046875 500.300781 881.867188 500.507812 C 882.273438 500.710938 882.886719 500.710938 883.296875 500.914062 C 884.320312 501.324219 885.339844 501.730469 886.363281 502.140625 C 886.566406 502.140625 886.976562 502.34375 887.179688 502.34375 C 888.40625 502.753906 889.839844 503.367188 891.066406 503.980469 C 891.472656 504.183594 891.679688 504.183594 892.085938 504.390625 C 893.109375 504.796875 893.925781 505.207031 894.949219 505.617188 C 895.152344 505.617188 895.152344 505.820312 895.359375 505.820312 C 895.5625 506.023438 895.765625 506.023438 896.175781 506.226562 C 897.199219 506.839844 898.425781 507.25 899.449219 507.863281 C 899.855469 508.066406 900.265625 508.273438 900.675781 508.476562 C 902.105469 509.089844 903.332031 509.90625 904.761719 510.722656 C 904.761719 510.722656 904.761719 510.722656 904.96875 510.722656 C 906.398438 511.542969 907.625 512.359375 909.054688 513.175781 C 909.464844 513.382812 909.875 513.585938 910.28125 513.996094 C 911.304688 514.605469 912.328125 515.425781 913.347656 516.039062 C 913.554688 516.242188 913.757812 516.445312 914.167969 516.445312 C 914.371094 516.445312 914.371094 516.652344 914.574219 516.855469 C 915.1875 517.265625 916.007812 517.878906 916.621094 518.285156 C 917.027344 518.695312 917.4375 518.898438 918.050781 519.308594 C 918.867188 519.921875 919.480469 520.328125 920.300781 520.941406 C 920.707031 521.148438 921.117188 521.554688 921.527344 521.761719 C 922.546875 522.578125 923.367188 523.191406 924.183594 524.007812 C 924.386719 524.210938 924.59375 524.210938 924.59375 524.417969 C 925.613281 525.234375 926.636719 526.257812 927.863281 527.277344 C 927.863281 527.277344 928.066406 527.480469 928.066406 527.480469 C 929.90625 529.117188 931.953125 530.957031 933.792969 532.796875 C 933.792969 532.796875 933.792969 532.796875 933.996094 533 C 935.835938 534.839844 937.675781 536.882812 939.515625 538.925781 C 941.152344 540.96875 942.992188 542.808594 944.628906 544.851562 C 944.628906 544.851562 944.832031 545.058594 944.832031 545.058594 C 946.46875 547.101562 947.898438 549.144531 949.535156 551.1875 C 949.535156 551.394531 949.738281 551.394531 949.738281 551.597656 C 949.738281 551.597656 949.738281 551.597656 949.738281 551.800781 C 951.375 554.050781 952.804688 556.296875 954.234375 558.75 C 954.234375 558.953125 954.441406 558.953125 954.441406 559.160156 C 955.871094 561.609375 957.300781 564.0625 958.734375 566.71875 C 958.734375 566.71875 958.734375 566.71875 958.734375 566.925781 C 959.347656 568.152344 960.164062 569.582031 960.777344 570.808594 C 961.59375 572.238281 962.207031 573.871094 962.820312 575.304688 C 963.027344 575.710938 963.230469 576.121094 963.433594 576.734375 C 963.84375 577.753906 964.457031 578.980469 964.867188 580.003906 C 965.070312 580.414062 965.273438 581.027344 965.480469 581.433594 C 966.09375 582.660156 966.5 584.089844 966.910156 585.316406 C 966.910156 585.523438 967.113281 585.726562 967.113281 585.929688 C 967.113281 585.929688 967.113281 585.929688 967.113281 586.132812 C 967.726562 587.769531 968.136719 589.199219 968.75 590.835938 C 968.953125 591.242188 968.953125 591.652344 969.160156 592.0625 C 969.566406 593.289062 969.976562 594.511719 970.179688 595.738281 C 970.386719 596.351562 970.589844 596.964844 970.589844 597.578125 C 970.796875 598.601562 971.203125 599.621094 971.410156 600.644531 C 971.613281 601.257812 971.816406 601.871094 971.816406 602.6875 C 972.023438 603.710938 972.226562 604.527344 972.429688 605.550781 C 972.636719 606.164062 972.636719 606.980469 972.839844 607.59375 C 973.042969 608.613281 973.25 609.433594 973.453125 610.453125 C 973.65625 611.066406 973.65625 611.882812 973.863281 612.496094 C 974.066406 613.519531 974.066406 614.335938 974.269531 615.359375 C 974.269531 615.972656 974.476562 616.789062 974.476562 617.402344 C 974.679688 618.425781 974.679688 619.242188 974.882812 620.261719 C 974.882812 620.875 975.089844 621.695312 975.089844 622.308594 C 975.089844 623.328125 975.292969 624.351562 975.292969 625.167969 C 975.292969 625.78125 975.292969 626.394531 975.496094 627.007812 C 975.496094 628.027344 975.496094 629.050781 975.703125 630.277344 C 975.703125 630.890625 975.703125 631.296875 975.703125 631.910156 C 975.703125 633.546875 975.703125 634.976562 975.703125 636.613281 C 975.703125 638.246094 975.703125 639.675781 975.496094 641.3125 C 975.496094 641.925781 975.496094 642.335938 975.496094 642.742188 C 975.496094 643.765625 975.292969 644.785156 975.292969 645.808594 C 975.292969 646.421875 975.089844 647.035156 975.089844 647.648438 C 975.089844 648.667969 974.882812 649.488281 974.679688 650.507812 C 974.679688 651.121094 974.476562 651.734375 974.476562 652.347656 C 974.269531 653.164062 974.269531 654.1875 974.066406 655.003906 C 973.863281 655.617188 973.863281 656.230469 973.65625 656.84375 C 973.453125 657.660156 973.25 658.480469 973.25 659.5 C 973.042969 660.113281 973.042969 660.726562 972.839844 661.339844 C 972.632812 662.15625 972.429688 662.976562 972.226562 663.996094 C 972.019531 664.609375 972.019531 665.222656 971.816406 665.835938 C 971.613281 666.652344 971.40625 667.472656 971.203125 668.492188 C 971 669.105469 970.792969 669.71875 970.792969 670.332031 C 970.589844 671.148438 970.179688 672.171875 969.976562 672.988281 C 969.773438 673.601562 969.566406 674.011719 969.363281 674.625 C 968.953125 675.644531 968.546875 676.667969 968.136719 677.6875 C 967.933594 678.097656 967.933594 678.300781 967.726562 678.710938 C 967.113281 680.140625 966.707031 681.367188 966.09375 682.796875 C 965.886719 683.207031 965.683594 683.410156 965.683594 683.820312 C 965.273438 684.839844 964.867188 685.863281 964.253906 686.886719 C 964.046875 687.292969 963.84375 687.90625 963.433594 688.316406 C 963.027344 689.132812 962.617188 689.949219 962.207031 690.769531 C 962.003906 691.382812 961.59375 691.789062 961.390625 692.402344 C 960.980469 693.21875 960.574219 693.832031 960.164062 694.652344 C 959.753906 695.265625 959.550781 695.671875 959.140625 696.285156 C 958.734375 697.101562 958.324219 697.714844 957.710938 698.328125 C 957.300781 698.941406 957.097656 699.351562 956.6875 699.964844 C 956.28125 700.578125 955.667969 701.394531 955.257812 702.007812 C 954.847656 702.417969 954.441406 703.03125 954.234375 703.4375 C 953.828125 704.050781 953.214844 704.871094 952.601562 705.480469 C 952.191406 705.890625 951.78125 706.503906 951.375 706.914062 C 950.761719 707.527344 950.148438 708.34375 949.738281 708.957031 C 949.328125 709.367188 948.921875 709.773438 948.714844 710.183594 C 948.101562 711 947.488281 711.613281 946.671875 712.226562 C 946.261719 712.636719 946.058594 712.839844 945.648438 713.25 C 944.628906 714.269531 943.605469 715.292969 942.582031 716.3125 L 1018.222656 867.746094 L 974.476562 891.453125 L 898.835938 740.019531 C 899.855469 738.996094 900.878906 737.976562 901.902344 736.953125 C 902.71875 736.136719 902.921875 735.933594 903.332031 735.523438 Z M 903.332031 735.523438 " fill-opacity="1" fill-rule="nonzero"/><path fill="#f4f6fc" d="M 818.902344 519.714844 C 857.949219 525.234375 896.175781 552.414062 917.234375 594.511719 C 943.605469 647.238281 934.816406 706.503906 899.449219 739.609375 L 975.085938 891.042969 L 928.679688 913.523438 L 853.652344 763.113281 C 842.613281 765.359375 831.167969 765.566406 819.71875 763.929688 C 780.671875 758.414062 742.441406 731.230469 721.386719 689.132812 C 689.902344 626.394531 708.507812 554.253906 762.476562 528.09375 C 780.058594 519.511719 799.683594 516.855469 818.902344 519.714844 Z M 759.410156 670.742188 C 772.289062 696.492188 795.390625 713.042969 819.308594 716.3125 C 830.960938 717.949219 842.820312 716.3125 853.652344 711.203125 C 886.566406 695.265625 897.8125 651.324219 878.800781 613.109375 C 865.921875 587.359375 842.820312 570.808594 818.902344 567.539062 C 807.246094 565.902344 795.390625 567.539062 784.554688 572.644531 C 751.640625 588.382812 740.398438 632.320312 759.410156 670.742188 " fill-opacity="1" fill-rule="nonzero"/><g clip-path="url(#58ad8b0e44)"><path fill="#582308" d="M 1023.335938 868.769531 L 947.285156 716.519531 C 947.695312 716.109375 948.101562 715.699219 948.511719 715.292969 L 949.535156 714.269531 C 950.148438 713.453125 950.964844 712.839844 951.578125 712.023438 L 952.804688 710.589844 C 953.417969 709.976562 953.828125 709.363281 954.441406 708.753906 L 955.667969 707.320312 C 956.28125 706.707031 956.6875 705.890625 957.300781 705.277344 C 957.710938 704.664062 958.121094 704.257812 958.527344 703.644531 C 958.9375 703.03125 959.550781 702.210938 959.960938 701.597656 L 960.980469 699.964844 C 961.390625 699.148438 962.003906 698.535156 962.414062 697.511719 L 963.230469 696.082031 C 963.640625 695.265625 964.046875 694.445312 964.660156 693.425781 L 965.480469 691.996094 C 965.886719 691.175781 966.296875 690.359375 966.707031 689.335938 L 967.523438 687.90625 C 967.933594 686.886719 968.546875 685.863281 968.953125 684.839844 L 969.363281 683.820312 C 969.976562 682.390625 970.589844 680.957031 971 679.527344 L 971.40625 678.507812 C 971.816406 677.484375 972.226562 676.460938 972.632812 675.238281 L 973.246094 673.601562 C 973.453125 672.578125 973.859375 671.761719 974.066406 670.742188 L 974.679688 668.902344 C 974.882812 668.082031 975.089844 667.0625 975.496094 666.246094 L 975.90625 664.40625 C 976.109375 663.585938 976.316406 662.566406 976.519531 661.75 L 976.929688 659.703125 C 977.132812 658.886719 977.335938 657.867188 977.335938 657.046875 L 977.746094 655.003906 C 977.949219 654.1875 977.949219 653.164062 978.15625 652.347656 L 978.359375 650.304688 C 978.5625 649.28125 978.5625 648.464844 978.769531 647.441406 L 978.769531 647.035156 L 978.972656 645.605469 C 978.972656 644.582031 979.175781 643.558594 979.175781 642.335938 L 979.382812 640.699219 C 979.382812 639.0625 979.585938 637.429688 979.585938 635.792969 C 979.585938 634.160156 979.585938 632.523438 979.585938 630.890625 L 979.585938 629.253906 C 979.585938 628.234375 979.585938 627.007812 979.382812 625.984375 L 979.175781 624.144531 C 979.175781 623.125 978.972656 622.101562 978.972656 621.082031 L 978.769531 619.035156 C 978.769531 618.015625 978.5625 617.199219 978.359375 616.175781 L 978.15625 614.132812 C 977.949219 613.109375 977.949219 612.292969 977.746094 611.269531 L 977.335938 609.226562 C 977.132812 608.207031 976.929688 607.386719 976.722656 606.160156 L 976.316406 604.117188 C 976.109375 603.097656 975.90625 602.074219 975.703125 601.257812 L 975.292969 599.214844 C 975.089844 598.191406 974.679688 597.171875 974.476562 596.148438 L 974.066406 594.308594 C 973.65625 593.082031 973.246094 591.855469 972.839844 590.628906 L 972.429688 589.402344 C 971.816406 587.769531 971.40625 586.132812 970.792969 584.5 L 970.589844 583.886719 C 970.179688 582.457031 969.566406 581.230469 968.953125 579.800781 L 968.339844 578.367188 C 967.933594 577.347656 967.320312 576.121094 966.910156 575.097656 L 966.296875 573.667969 C 965.683594 572.035156 964.867188 570.601562 964.046875 569.171875 C 963.433594 567.742188 962.617188 566.515625 962.003906 565.289062 L 961.800781 564.878906 C 960.367188 562.222656 958.9375 559.769531 957.507812 557.320312 L 957.300781 556.910156 C 955.871094 554.457031 954.234375 552.003906 952.601562 549.554688 L 952.394531 549.144531 C 950.964844 546.894531 949.328125 544.851562 947.488281 542.605469 C 945.855469 540.5625 944.015625 538.515625 942.378906 536.472656 C 940.539062 534.429688 938.699219 532.386719 936.65625 530.34375 C 934.816406 528.503906 932.769531 526.664062 930.929688 524.824219 L 930.519531 524.621094 C 930.113281 524.210938 929.5 523.804688 929.089844 523.394531 C 919.480469 500.507812 904.148438 480.273438 886.773438 470.261719 L 86.824219 8.808594 C 73.738281 1.246094 60.859375 0.226562 50.433594 5.945312 L 24.878906 19.027344 C 23.449219 19.640625 22.019531 20.253906 20.585938 21.070312 C 8.320312 28.222656 1.164062 44.164062 1.164062 65.210938 L 1.164062 205.199219 C 1.164062 243.824219 24.878906 288.785156 53.910156 305.542969 L 716.683594 688.113281 C 717.09375 688.929688 717.5 689.949219 717.910156 690.769531 C 738.558594 732.253906 777.402344 761.683594 818.902344 767.609375 C 829.941406 769.242188 840.773438 769.039062 851.40625 767.199219 L 926.839844 918.222656 L 973.246094 895.746094 L 973.246094 895.949219 L 976.519531 894.3125 L 979.789062 892.679688 L 979.789062 892.476562 Z M 968.75 603.300781 C 968.953125 604.117188 969.160156 605.140625 969.363281 606.160156 L 969.773438 608.207031 C 969.976562 609.023438 970.179688 610.042969 970.386719 610.863281 L 970.792969 612.90625 C 971 613.722656 971 614.746094 971.203125 615.5625 L 971.40625 617.605469 C 971.613281 618.421875 971.613281 619.445312 971.816406 620.46875 L 971.816406 620.671875 L 936.042969 656.230469 C 936.042969 655.820312 936.042969 655.414062 936.042969 655.003906 L 936.042969 653.371094 C 936.042969 652.347656 936.042969 651.121094 935.835938 650.101562 L 935.632812 648.261719 C 935.632812 647.238281 935.425781 646.21875 935.425781 645.195312 L 935.222656 643.152344 C 935.019531 642.128906 935.019531 641.3125 934.8125 640.289062 L 934.609375 638.246094 C 934.609375 638.042969 934.609375 637.839844 934.40625 637.632812 Z M 934.40625 678.914062 C 934.609375 678.097656 934.609375 677.074219 934.816406 676.054688 L 935.019531 674.214844 C 935.019531 673.804688 935.019531 673.398438 935.222656 672.988281 C 935.222656 672.375 935.429688 671.964844 935.429688 671.355469 L 935.632812 669.515625 C 935.632812 668.492188 935.835938 667.472656 935.835938 666.246094 L 936.042969 664.609375 C 936.042969 662.976562 936.246094 661.339844 936.246094 659.703125 C 936.246094 658.886719 936.246094 658.273438 936.246094 657.457031 L 972.019531 621.695312 L 972.019531 621.898438 C 972.019531 622.917969 972.226562 623.738281 972.226562 624.757812 L 972.429688 626.597656 C 972.429688 627.621094 972.429688 628.640625 972.636719 629.664062 L 972.636719 631.09375 C 972.636719 632.730469 972.636719 634.160156 972.636719 635.589844 C 972.636719 637.019531 972.636719 638.65625 972.429688 640.085938 L 972.429688 641.3125 L 934.40625 679.324219 Z M 929.292969 698.941406 L 929.90625 697.308594 C 930.113281 696.285156 930.519531 695.46875 930.726562 694.445312 L 931.339844 692.609375 C 931.339844 692.402344 931.339844 692.402344 931.339844 692.199219 C 931.542969 691.789062 931.542969 691.382812 931.746094 690.972656 C 931.953125 690.5625 931.953125 690.15625 932.15625 689.746094 L 932.566406 687.90625 C 932.769531 687.089844 932.972656 686.066406 933.179688 685.25 L 933.585938 683.207031 C 933.585938 683.003906 933.792969 682.59375 933.792969 682.390625 C 933.792969 682.390625 933.792969 682.183594 933.792969 682.183594 C 933.792969 681.980469 933.996094 681.570312 933.996094 681.367188 L 972.226562 643.152344 C 972.226562 643.765625 972.226562 644.378906 972.019531 644.785156 L 971.816406 646.625 C 971.816406 647.441406 971.613281 648.464844 971.613281 649.28125 L 971.40625 651.121094 C 971.203125 651.9375 971.203125 652.960938 971 653.777344 L 970.589844 655.617188 C 970.386719 656.433594 970.179688 657.253906 970.179688 658.070312 L 969.773438 659.910156 C 969.566406 660.726562 969.363281 661.542969 969.160156 662.363281 L 968.75 664.199219 C 968.546875 665.019531 968.339844 665.835938 968.136719 666.652344 L 967.933594 667.675781 L 924.183594 711.410156 C 924.386719 711.203125 924.386719 710.796875 924.59375 710.589844 C 924.796875 709.976562 925.207031 709.570312 925.410156 708.957031 C 925.410156 708.753906 925.613281 708.753906 925.613281 708.546875 L 926.023438 707.527344 C 926.636719 706.09375 927.25 704.664062 927.863281 703.234375 L 928.273438 702.210938 C 928.273438 702.007812 928.476562 701.804688 928.476562 701.804688 C 928.679688 701.394531 928.886719 700.78125 929.089844 700.375 C 928.886719 699.761719 929.089844 699.351562 929.292969 698.941406 Z M 966.09375 672.785156 C 965.683594 673.804688 965.273438 674.828125 965.070312 675.851562 L 964.660156 676.871094 C 964.046875 678.300781 963.640625 679.527344 963.027344 680.753906 L 962.617188 681.777344 C 962.207031 682.796875 961.800781 683.820312 961.1875 684.636719 L 960.367188 686.273438 C 959.960938 687.089844 959.550781 687.703125 959.140625 688.519531 L 958.324219 689.949219 C 957.914062 690.769531 957.507812 691.382812 957.097656 692.199219 L 956.074219 693.628906 C 955.667969 694.242188 955.257812 695.058594 954.847656 695.671875 L 953.828125 697.101562 C 953.417969 697.714844 952.804688 698.535156 952.394531 699.148438 C 951.988281 699.554688 951.78125 700.167969 951.375 700.578125 C 950.964844 701.191406 950.351562 701.804688 949.941406 702.417969 L 948.921875 703.847656 C 948.511719 704.460938 947.898438 705.074219 947.285156 705.6875 L 946.261719 706.914062 C 945.648438 707.527344 945.035156 708.34375 944.421875 708.957031 L 943.402344 709.976562 C 942.582031 710.796875 941.5625 711.816406 940.742188 712.636719 L 915.1875 726.53125 C 915.1875 726.53125 915.1875 726.328125 915.394531 726.328125 C 915.597656 725.917969 916.007812 725.511719 916.210938 725.101562 C 916.210938 724.898438 916.414062 724.898438 916.414062 724.691406 C 916.824219 724.078125 917.234375 723.671875 917.4375 723.058594 C 917.847656 722.238281 918.460938 721.628906 918.867188 720.605469 L 919.6875 719.175781 C 919.890625 718.96875 920.09375 718.5625 920.300781 718.355469 C 920.503906 717.949219 920.914062 717.335938 921.117188 716.925781 C 921.117188 716.925781 921.117188 716.722656 921.320312 716.722656 L 922.140625 715.292969 C 922.34375 714.882812 922.546875 714.472656 922.753906 714.269531 L 967.113281 669.921875 C 966.910156 670.332031 966.910156 670.742188 966.707031 671.148438 Z M 963.84375 587.359375 C 964.457031 588.789062 964.867188 590.425781 965.480469 591.855469 L 965.886719 593.082031 C 966.296875 594.308594 966.707031 595.535156 966.910156 596.558594 L 967.320312 598.394531 C 967.523438 599.417969 967.933594 600.441406 968.136719 601.460938 L 968.339844 602.277344 L 934.199219 636.40625 C 934.199219 636.203125 934.199219 635.792969 933.996094 635.589844 L 933.585938 633.546875 C 933.382812 632.523438 933.179688 631.707031 932.972656 630.683594 L 932.566406 628.640625 C 932.359375 627.621094 932.15625 626.597656 931.746094 625.371094 L 931.339844 623.738281 C 931.132812 622.714844 930.726562 621.695312 930.519531 620.671875 L 930.316406 620.058594 L 963.433594 586.953125 L 963.640625 587.359375 Z M 961.59375 581.230469 L 962.207031 582.660156 C 962.617188 583.476562 963.027344 584.5 963.230469 585.316406 L 949.535156 599.007812 L 930.316406 618.21875 C 929.90625 616.992188 929.5 615.765625 929.089844 614.539062 L 928.679688 613.316406 C 928.066406 611.679688 927.660156 610.042969 927.046875 608.410156 L 926.839844 607.796875 C 926.433594 606.367188 925.820312 605.140625 925.207031 603.710938 L 925 603.300781 L 956.894531 571.421875 C 957.097656 571.828125 957.300781 572.03125 957.507812 572.441406 C 958.324219 573.871094 958.9375 575.304688 959.550781 576.734375 L 960.164062 577.960938 C 960.574219 579.1875 961.1875 580.207031 961.59375 581.230469 Z M 951.167969 560.996094 C 952.601562 563.246094 954.03125 565.699219 955.460938 568.355469 L 955.460938 568.558594 C 955.871094 569.171875 956.074219 569.785156 956.484375 570.398438 L 927.660156 599.214844 L 924.59375 602.277344 C 924.183594 601.257812 923.570312 600.03125 923.160156 599.007812 L 922.546875 597.578125 C 921.933594 595.945312 921.117188 594.511719 920.300781 593.082031 C 919.6875 591.652344 918.867188 590.425781 918.050781 588.789062 L 948.921875 557.933594 C 949.535156 558.953125 950.351562 559.976562 950.964844 560.996094 Z M 946.46875 553.84375 C 947.082031 554.664062 947.695312 555.683594 948.308594 556.707031 L 917.4375 587.566406 C 917.234375 587.359375 917.234375 587.15625 917.027344 586.953125 C 916.414062 585.726562 915.597656 584.5 914.984375 583.273438 C 914.574219 582.457031 914.167969 581.636719 913.554688 580.820312 L 913.347656 580.410156 C 912.941406 579.800781 912.53125 579.1875 912.328125 578.777344 C 911.714844 577.960938 911.304688 577.140625 910.691406 576.324219 C 910.28125 575.914062 910.078125 575.304688 909.667969 574.894531 L 928.273438 556.296875 L 939.515625 545.058594 C 940.128906 545.875 940.742188 546.691406 941.355469 547.507812 C 942.992188 549.554688 944.421875 551.390625 945.855469 553.640625 Z M 936.65625 541.378906 C 937.472656 542.402344 938.289062 543.21875 939.109375 544.238281 L 909.261719 574.078125 C 909.054688 573.871094 909.054688 573.667969 908.851562 573.464844 L 908.441406 573.054688 C 907.011719 570.808594 905.375 568.761719 903.535156 566.515625 C 902.515625 565.289062 901.492188 564.0625 900.46875 562.835938 L 906.808594 556.5 L 929.5 533.816406 C 930.113281 534.429688 930.726562 535.042969 931.339844 535.65625 C 933.179688 537.496094 934.816406 539.335938 936.65625 541.378906 Z M 922.34375 527.277344 C 923.367188 528.09375 924.386719 529.117188 925.613281 530.136719 C 926.636719 530.957031 927.453125 531.976562 928.476562 532.796875 L 899.652344 561.609375 C 899.242188 560.996094 898.835938 560.589844 898.425781 559.976562 C 896.585938 557.933594 894.746094 555.886719 892.699219 553.84375 C 891.882812 553.027344 890.859375 552.003906 889.839844 551.1875 L 917.640625 523.394531 L 919.074219 524.417969 C 919.890625 525.03125 920.914062 525.847656 921.730469 526.664062 Z M 911.507812 519.101562 L 912.121094 519.511719 L 912.53125 519.714844 L 916.824219 522.78125 L 889.019531 550.574219 C 888.203125 549.960938 887.589844 549.144531 886.773438 548.53125 L 886.566406 548.328125 C 885.546875 547.304688 884.320312 546.488281 883.296875 545.464844 L 882.683594 545.058594 C 881.660156 544.238281 880.84375 543.421875 879.820312 542.808594 L 878.59375 541.789062 C 878.390625 541.582031 878.1875 541.582031 877.980469 541.378906 L 904.558594 514.8125 C 905.375 515.425781 906.398438 515.832031 907.214844 516.445312 L 908.441406 517.261719 C 909.464844 517.875 910.488281 518.488281 911.507812 519.101562 Z M 894.539062 509.292969 L 894.949219 509.496094 C 895.972656 509.90625 896.996094 510.519531 898.015625 511.132812 L 899.242188 511.746094 C 900.46875 512.359375 901.902344 513.175781 903.332031 513.992188 C 903.535156 513.992188 903.535156 514.199219 903.742188 514.199219 L 877.164062 540.765625 C 876.960938 540.5625 876.753906 540.355469 876.347656 540.152344 L 874.914062 539.128906 C 874.300781 538.722656 873.484375 538.109375 872.871094 537.699219 L 871.644531 536.882812 C 870.621094 536.269531 869.601562 535.453125 868.578125 534.839844 L 867.351562 534.023438 C 866.535156 533.613281 865.921875 533 865.101562 532.589844 L 890.246094 507.453125 L 891.066406 507.863281 C 891.882812 508.273438 892.90625 508.679688 893.925781 509.292969 Z M 878.800781 503.367188 C 879.617188 503.570312 880.433594 503.980469 881.660156 504.183594 L 882.683594 504.59375 C 883.707031 505 884.726562 505.207031 885.75 505.613281 L 886.566406 505.820312 C 887.589844 506.226562 888.40625 506.636719 889.429688 507.046875 L 864.488281 531.976562 C 864.082031 531.773438 863.875 531.570312 863.46875 531.363281 C 862.035156 530.546875 860.808594 529.730469 859.378906 529.117188 L 858.152344 528.503906 C 857.128906 527.890625 855.902344 527.277344 854.878906 526.867188 L 853.652344 526.253906 C 852.835938 525.847656 852.019531 525.644531 851.199219 525.234375 L 874.507812 501.9375 L 875.324219 502.140625 C 876.140625 502.34375 876.960938 502.550781 877.777344 502.753906 Z M 865.714844 500.097656 L 866.941406 500.300781 C 867.761719 500.507812 868.578125 500.710938 869.394531 500.710938 L 870.828125 501.117188 C 871.441406 501.324219 872.054688 501.324219 872.667969 501.527344 L 849.566406 524.621094 L 849.15625 524.417969 C 847.929688 523.804688 846.5 523.394531 845.273438 522.78125 L 844.453125 522.371094 C 843.433594 521.964844 842.410156 521.554688 841.386719 521.148438 L 839.957031 520.738281 C 839.140625 520.535156 838.117188 520.125 837.300781 519.921875 L 835.664062 519.511719 C 835.460938 519.511719 835.253906 519.308594 835.050781 519.308594 C 835.050781 519.308594 834.847656 519.308594 834.847656 519.308594 L 855.496094 498.667969 C 855.902344 498.667969 856.109375 498.667969 856.515625 498.667969 L 857.742188 498.871094 C 859.175781 499.074219 860.605469 499.074219 862.035156 499.28125 C 863.261719 499.6875 864.488281 499.894531 865.714844 500.097656 Z M 793.550781 515.628906 C 793.140625 515.628906 792.9375 515.628906 792.527344 515.832031 L 794.777344 514.605469 Z M 798.253906 512.5625 L 803.773438 509.496094 C 804.792969 508.886719 806.019531 508.273438 807.042969 507.863281 L 807.65625 507.660156 C 808.882812 507.046875 810.109375 506.433594 811.335938 506.023438 L 812.5625 505.613281 C 813.378906 505.207031 814.402344 504.796875 815.21875 504.59375 L 816.449219 504.183594 C 817.46875 503.777344 818.289062 503.570312 819.308594 503.164062 L 820.332031 502.753906 C 821.558594 502.34375 822.988281 501.9375 824.214844 501.527344 L 824.625 501.527344 C 825.851562 501.324219 827.078125 500.914062 828.507812 500.710938 L 829.53125 500.507812 C 829.941406 500.507812 830.554688 500.300781 830.960938 500.300781 L 818.902344 512.359375 L 815.425781 515.832031 C 815.21875 515.832031 815.015625 515.832031 814.8125 515.832031 L 813.585938 515.628906 C 813.175781 515.628906 812.972656 515.628906 812.5625 515.628906 C 811.949219 515.628906 811.335938 515.628906 810.925781 515.425781 C 810.722656 515.425781 810.3125 515.425781 810.109375 515.425781 L 808.882812 515.425781 C 807.453125 515.425781 805.816406 515.425781 804.386719 515.425781 L 803.566406 515.425781 C 802.339844 515.425781 800.910156 515.425781 799.683594 515.628906 L 798.253906 515.628906 C 797.84375 515.628906 797.433594 515.628906 797.027344 515.628906 C 796.617188 515.628906 796.414062 515.628906 796.003906 515.628906 C 795.800781 515.628906 795.59375 515.628906 795.390625 515.628906 Z M 819.71875 512.972656 L 833.007812 499.6875 L 834.027344 499.484375 C 835.460938 499.28125 836.890625 499.074219 838.320312 498.871094 L 839.140625 498.871094 C 840.160156 498.667969 841.386719 498.667969 842.613281 498.667969 L 843.839844 498.667969 C 845.066406 498.667969 846.292969 498.667969 847.519531 498.667969 L 848.132812 498.667969 C 849.566406 498.667969 850.996094 498.667969 852.425781 498.667969 L 853.449219 498.667969 C 853.652344 498.667969 854.0625 498.667969 854.265625 498.667969 L 833.824219 519.101562 C 833.621094 519.101562 833.414062 519.101562 833.414062 518.898438 L 831.78125 518.488281 C 830.960938 518.285156 830.144531 518.082031 829.121094 517.875 L 827.691406 517.46875 C 827.691406 517.46875 827.488281 517.46875 827.488281 517.46875 C 827.28125 517.46875 826.875 517.265625 826.667969 517.265625 C 826.054688 517.058594 825.441406 517.058594 824.828125 516.855469 L 823.601562 516.652344 C 822.171875 516.445312 820.945312 516.242188 819.515625 516.039062 C 818.695312 515.832031 817.878906 515.832031 817.0625 515.832031 Z M 57.386719 299.207031 C 30.398438 283.675781 8.320312 241.375 8.320312 205.199219 L 8.320312 65.210938 C 8.320312 46.820312 14.046875 32.921875 24.0625 27.199219 C 27.332031 25.15625 31.21875 24.339844 35.304688 24.339844 C 41.03125 24.339844 47.164062 26.179688 53.707031 29.855469 L 853.246094 491.308594 L 852.425781 491.308594 C 850.996094 491.308594 849.359375 491.105469 847.929688 491.105469 L 847.113281 491.105469 C 845.886719 491.105469 844.453125 491.105469 843.226562 491.105469 L 841.796875 491.105469 C 840.570312 491.105469 839.34375 491.308594 838.117188 491.308594 L 837.09375 491.308594 C 835.664062 491.515625 834.027344 491.71875 832.597656 491.921875 L 831.574219 492.128906 C 830.347656 492.332031 829.328125 492.535156 828.101562 492.738281 L 826.667969 492.945312 C 825.441406 493.148438 824.011719 493.558594 822.785156 493.761719 L 822.171875 493.964844 C 820.742188 494.375 819.308594 494.785156 818.082031 495.191406 L 816.855469 495.601562 C 815.835938 496.011719 814.8125 496.214844 813.789062 496.625 L 812.359375 497.234375 C 811.335938 497.644531 810.519531 498.054688 809.292969 498.460938 L 808.269531 498.871094 C 806.839844 499.484375 805.613281 500.097656 804.179688 500.710938 L 803.566406 500.914062 C 802.339844 501.527344 801.113281 502.140625 799.886719 502.753906 L 756.34375 526.460938 C 734.265625 538.515625 717.296875 558.953125 708.710938 584.5 C 698.898438 613.109375 700.125 646.011719 711.777344 676.460938 Z M 930.113281 908.621094 L 855.492188 759.027344 L 852.835938 759.636719 C 842.207031 761.683594 831.167969 762.089844 820.128906 760.457031 C 780.875 754.9375 744.28125 726.941406 724.65625 687.5 C 708.507812 655.003906 705.234375 618.628906 715.867188 587.15625 C 724.453125 562.019531 741.625 541.992188 763.90625 531.160156 C 765.953125 530.136719 767.792969 529.320312 769.835938 528.503906 C 770.039062 528.503906 770.246094 528.300781 770.449219 528.300781 C 774.539062 526.664062 778.628906 525.4375 782.921875 524.417969 C 783.125 524.417969 783.328125 524.417969 783.328125 524.210938 C 787.621094 523.191406 792.121094 522.578125 796.617188 522.167969 C 796.820312 522.167969 796.820312 522.167969 797.027344 522.167969 C 801.320312 521.757812 805.816406 521.757812 810.3125 522.167969 C 810.722656 522.167969 811.132812 522.167969 811.746094 522.167969 C 813.789062 522.371094 816.039062 522.578125 818.082031 522.78125 C 820.332031 523.191406 822.582031 523.597656 824.828125 524.007812 C 825.035156 524.007812 825.441406 524.210938 825.648438 524.210938 C 827.894531 524.621094 829.941406 525.234375 832.1875 525.847656 C 832.394531 525.847656 832.800781 526.050781 833.007812 526.050781 C 835.253906 526.664062 837.300781 527.480469 839.546875 528.09375 C 839.753906 528.09375 839.753906 528.300781 839.957031 528.300781 C 863.261719 536.679688 884.523438 552.824219 900.265625 574.28125 C 900.46875 574.691406 900.878906 574.894531 901.082031 575.304688 C 902.105469 576.9375 903.332031 578.367188 904.355469 580.003906 C 904.96875 580.820312 905.582031 581.84375 905.988281 582.660156 C 907.214844 584.5 908.441406 586.542969 909.464844 588.382812 C 909.464844 588.585938 909.667969 588.585938 909.667969 588.789062 C 910.894531 591.039062 912.328125 593.492188 913.347656 595.738281 C 914.78125 598.804688 916.210938 601.871094 917.4375 604.933594 L 917.640625 605.34375 C 925.410156 624.351562 928.886719 643.96875 928.066406 662.976562 C 928.066406 663.179688 928.066406 663.179688 928.066406 663.382812 C 927.863281 666.246094 927.660156 669.105469 927.25 672.171875 C 927.25 672.375 927.25 672.785156 927.25 672.988281 L 927.25 673.191406 C 926.839844 675.851562 926.433594 678.507812 926.023438 681.164062 C 926.023438 681.367188 926.023438 681.777344 925.820312 681.980469 L 925.613281 682.796875 C 925.207031 685.046875 924.59375 687.5 923.980469 689.746094 C 923.980469 689.949219 923.773438 690.359375 923.773438 690.5625 L 923.367188 691.789062 C 922.753906 694.039062 921.933594 696.082031 921.320312 698.125 C 921.117188 698.535156 921.117188 698.941406 920.914062 699.351562 L 920.503906 700.375 C 919.6875 702.417969 918.867188 704.664062 917.847656 706.707031 C 917.640625 707.320312 917.234375 707.933594 917.027344 708.34375 L 916.621094 708.957031 C 915.597656 711 914.574219 712.839844 913.554688 714.679688 C 913.347656 715.085938 913.144531 715.292969 912.941406 715.699219 L 912.328125 716.722656 C 911.101562 718.765625 909.875 720.605469 908.441406 722.648438 C 908.441406 722.648438 908.441406 722.851562 908.238281 722.851562 L 907.421875 723.875 C 905.988281 725.917969 904.355469 727.960938 902.71875 729.800781 L 902.105469 730.414062 C 900.265625 732.457031 898.425781 734.5 896.382812 736.339844 L 893.722656 737.773438 L 925.820312 801.941406 L 969.363281 889 Z M 819.515625 563.859375 C 806.839844 562.019531 794.164062 563.859375 782.921875 569.375 C 767.792969 576.734375 756.34375 590.015625 750.621094 606.773438 C 743.667969 627.210938 745.714844 651.324219 756.140625 672.375 C 769.019531 698.125 792.9375 716.3125 818.695312 719.992188 C 821.761719 720.402344 824.828125 720.605469 828.101562 720.605469 C 837.707031 720.605469 846.90625 718.5625 855.289062 714.472656 C 870.417969 707.117188 881.867188 693.832031 887.589844 677.074219 C 894.539062 656.640625 892.496094 632.730469 882.070312 611.476562 C 869.191406 585.726562 845.273438 567.332031 819.515625 563.859375 Z M 880.84375 674.625 C 879.003906 679.9375 876.550781 685.046875 873.484375 689.542969 C 873.074219 689.542969 872.460938 689.542969 872.054688 689.542969 L 871.644531 689.542969 C 870.621094 689.542969 869.394531 689.542969 868.375 689.335938 L 867.351562 689.335938 C 866.125 689.335938 864.898438 689.132812 863.671875 688.929688 C 862.242188 688.722656 860.605469 688.519531 859.175781 688.113281 L 857.742188 687.703125 C 856.71875 687.5 855.699219 687.292969 854.675781 686.886719 L 852.835938 686.273438 C 851.8125 686.066406 850.996094 685.660156 849.972656 685.25 C 849.359375 685.046875 848.746094 684.839844 848.132812 684.636719 C 847.113281 684.226562 846.292969 683.820312 845.476562 683.410156 L 845.066406 683.207031 C 844.453125 683.003906 843.839844 682.796875 843.433594 682.390625 L 842.410156 681.980469 C 841.183594 681.367188 839.957031 680.753906 838.730469 680.140625 C 837.503906 679.527344 836.480469 678.710938 835.253906 678.097656 L 834.4375 677.484375 C 833.824219 677.074219 833.414062 676.871094 833.007812 676.460938 L 832.597656 676.054688 C 831.78125 675.441406 831.167969 675.03125 830.347656 674.417969 C 829.734375 674.011719 829.328125 673.601562 828.714844 673.191406 C 827.894531 672.578125 827.28125 671.964844 826.667969 671.355469 C 826.054688 670.945312 825.441406 670.332031 825.035156 669.921875 C 824.421875 669.308594 824.011719 668.902344 823.398438 668.289062 C 822.785156 667.675781 822.171875 667.0625 821.761719 666.652344 C 821.148438 666.039062 820.742188 665.425781 820.128906 665.019531 C 819.515625 664.40625 819.105469 663.792969 818.492188 663.179688 C 818.082031 662.566406 817.46875 661.953125 817.0625 661.339844 C 816.449219 660.726562 816.039062 660.113281 815.425781 659.296875 C 815.015625 658.683594 814.402344 658.070312 813.992188 657.457031 C 813.585938 656.84375 812.972656 656.027344 812.5625 655.414062 C 812.152344 654.800781 811.539062 653.984375 811.132812 653.164062 C 810.722656 652.550781 810.3125 651.734375 809.90625 651.121094 C 809.496094 650.304688 809.085938 649.691406 808.679688 648.875 C 808.066406 647.851562 807.453125 646.625 806.839844 645.398438 C 806.226562 643.96875 805.613281 642.742188 805 641.3125 L 804.589844 640.085938 C 804.179688 639.0625 803.773438 638.042969 803.363281 637.019531 L 802.339844 634.160156 C 802.136719 633.546875 801.933594 632.933594 801.726562 632.320312 L 801.320312 630.890625 C 801.113281 630.277344 800.910156 629.664062 800.707031 629.050781 L 800.296875 627.621094 C 800.09375 627.007812 800.09375 626.394531 799.886719 625.78125 L 799.480469 624.351562 C 799.273438 623.738281 799.273438 623.125 799.070312 622.511719 L 798.867188 621.082031 C 798.660156 620.46875 798.660156 619.648438 798.457031 618.832031 L 798.253906 617.808594 C 798.253906 616.992188 798.046875 616.378906 798.046875 615.5625 L 797.84375 614.539062 C 797.84375 613.519531 797.640625 612.292969 797.640625 611.269531 L 797.640625 610.863281 C 797.640625 609.839844 797.640625 609.023438 797.640625 608 L 797.640625 606.980469 C 797.640625 606.367188 797.640625 605.546875 797.640625 604.933594 L 797.640625 603.710938 C 797.640625 603.097656 797.640625 602.484375 797.84375 601.871094 L 798.046875 600.644531 C 798.046875 600.03125 798.253906 599.417969 798.253906 598.804688 L 798.457031 597.375 C 798.457031 596.761719 798.660156 596.148438 798.660156 595.738281 L 799.480469 591.449219 C 799.683594 590.835938 799.683594 590.425781 799.886719 589.8125 L 800.296875 588.585938 C 800.5 587.972656 800.707031 587.359375 800.910156 586.953125 L 801.320312 585.726562 C 801.523438 585.113281 801.726562 584.5 801.933594 584.089844 L 802.339844 583.070312 C 802.546875 582.457031 802.75 582.046875 803.160156 581.230469 L 803.566406 580.410156 C 803.976562 579.59375 804.386719 578.574219 805 577.550781 C 805.40625 576.734375 805.816406 575.917969 806.226562 575.097656 L 806.632812 574.28125 C 807.042969 573.667969 807.246094 573.257812 807.65625 572.644531 L 808.269531 571.625 C 808.472656 571.421875 808.472656 571.214844 808.679688 571.214844 C 811.949219 571.214844 815.21875 571.214844 818.492188 571.828125 C 842 575.097656 863.875 591.855469 875.527344 615.5625 C 885.339844 633.957031 887.179688 655.820312 880.84375 674.625 Z M 265.089844 251.796875 C 255.6875 246.480469 248.734375 244.234375 241.988281 243.417969 C 239.535156 243.007812 237.492188 244.847656 237.492188 248.320312 C 237.492188 252.613281 240.558594 257.925781 244.441406 260.175781 C 245.257812 260.582031 246.078125 260.992188 247.097656 261.195312 C 251.597656 261.808594 256.707031 263.445312 263.046875 267.125 C 274.492188 273.867188 280.832031 283.675781 280.832031 295.324219 L 280.832031 297.367188 C 275.3125 292.054688 269.585938 287.558594 261.613281 282.859375 C 244.03125 272.84375 232.175781 274.480469 232.175781 292.261719 L 232.175781 292.667969 C 232.175781 309.222656 244.03125 324.957031 257.527344 332.519531 C 268.566406 338.855469 275.925781 337.832031 280.832031 333.949219 L 280.832031 337.015625 C 280.832031 341.308594 284.101562 346.824219 288.804688 349.480469 C 293.300781 352.136719 296.777344 350.300781 296.777344 344.984375 L 296.777344 304.523438 C 296.777344 293.894531 294.324219 283.675781 289.007812 274.683594 C 283.691406 265.898438 275.71875 258.132812 265.089844 251.796875 Z M 280.832031 314.535156 C 280.832031 324.957031 272.652344 327.410156 261.820312 321.074219 C 254.050781 316.578125 247.917969 308.609375 247.917969 300.640625 L 247.917969 300.230469 C 247.917969 291.648438 254.050781 290.214844 264.679688 296.347656 C 271.222656 300.027344 276.742188 304.726562 281.035156 309.019531 L 281.035156 314.535156 Z M 185.769531 205.40625 C 165.324219 193.550781 150.8125 204.589844 150.8125 227.886719 L 150.8125 228.292969 C 150.8125 253.636719 166.757812 279.996094 187.609375 292.054688 C 198.648438 298.390625 206.824219 299.003906 213.367188 295.9375 C 214.59375 295.324219 215.617188 293.691406 215.617188 291.441406 C 215.617188 287.152344 212.753906 282.246094 209.074219 279.996094 C 207.234375 278.976562 206.007812 278.976562 204.78125 279.386719 C 200.078125 281.019531 194.765625 280.816406 187.8125 276.726562 C 177.183594 270.597656 169.003906 258.335938 167.164062 244.03125 L 211.9375 269.984375 C 216.230469 272.4375 219.707031 270.800781 219.707031 265.488281 C 219.707031 246.480469 208.460938 218.6875 185.769531 205.40625 Z M 167.164062 231.5625 C 168.597656 219.710938 175.753906 214.804688 185.769531 220.734375 C 196.605469 227.066406 202.941406 240.148438 203.964844 252.816406 Z M 137.933594 237.082031 L 137.933594 237.492188 C 137.933594 254.65625 126.277344 256.496094 111.355469 247.914062 C 102.359375 242.597656 92.34375 233.609375 84.164062 222.367188 C 82.324219 220.324219 81.097656 217.054688 81.097656 213.988281 C 81.097656 209.695312 83.960938 208.0625 87.640625 210.308594 C 89.070312 211.128906 90.296875 212.355469 91.117188 213.375 C 98.066406 222.570312 105.222656 229.519531 111.765625 233.199219 C 118.714844 237.285156 122.804688 236.265625 122.804688 230.746094 L 122.804688 230.335938 C 122.804688 224.003906 115.238281 217.460938 106.859375 209.695312 C 96.226562 200.09375 84.574219 188.441406 84.574219 172.707031 L 84.574219 172.296875 C 84.574219 156.765625 95.820312 153.703125 110.128906 162.082031 C 117.691406 166.371094 125.664062 173.523438 132.617188 181.699219 C 134.867188 184.355469 136.5 187.832031 136.5 191.101562 C 136.5 195.390625 133.433594 197.027344 129.753906 194.777344 C 128.324219 193.960938 127.503906 193.144531 126.484375 191.917969 C 120.757812 185.171875 114.625 179.453125 109.71875 176.589844 C 103.382812 172.910156 99.703125 174.136719 99.703125 178.839844 L 99.703125 179.246094 C 99.703125 185.378906 107.472656 192.324219 115.851562 200.296875 C 126.074219 210.105469 137.933594 222.367188 137.933594 237.082031 Z M 511.226562 424.6875 L 511.226562 468.421875 C 511.226562 473.734375 507.753906 475.777344 503.050781 473.121094 C 498.347656 470.464844 494.875 464.332031 494.875 459.019531 L 494.875 421.007812 C 494.875 408.339844 489.351562 397.710938 479.539062 392.195312 C 470.136719 386.675781 463.390625 390.558594 463.390625 403.230469 L 463.390625 441.035156 C 463.390625 446.351562 459.710938 448.1875 455.214844 445.53125 C 450.714844 442.875 447.035156 436.746094 447.035156 431.429688 L 447.035156 335.175781 C 447.035156 330.066406 450.511719 327.820312 455.214844 330.476562 C 459.914062 333.132812 463.390625 339.46875 463.390625 344.578125 L 463.390625 379.929688 C 468.09375 375.027344 474.632812 372.164062 485.671875 378.5 C 501.824219 387.902344 511.226562 405.679688 511.226562 424.6875 Z M 431.089844 415.082031 C 431.089844 417.535156 430.273438 419.167969 428.839844 419.578125 C 422.503906 422.847656 414.734375 423.050781 402.878906 416.308594 C 381.617188 404.046875 365.875 375.84375 365.875 352.546875 L 365.875 352.136719 C 365.875 328.839844 381.617188 318.417969 403.082031 330.882812 C 414.324219 337.425781 422.09375 346.007812 428.226562 355.613281 C 429.25 357.246094 430.886719 360.515625 430.886719 363.582031 C 430.886719 368.488281 427.410156 370.121094 423.320312 367.667969 C 421.277344 366.445312 419.4375 364.605469 418.414062 362.96875 C 414.121094 356.429688 409.625 350.910156 403.082031 347.234375 C 391.226562 340.285156 382.433594 347.027344 382.433594 361.335938 L 382.433594 361.742188 C 382.433594 376.253906 391.226562 393.011719 403.898438 400.367188 C 410.441406 404.046875 415.347656 404.046875 419.847656 402.207031 C 420.867188 401.796875 422.503906 401.59375 424.34375 402.820312 C 427.820312 405.066406 431.089844 410.585938 431.089844 415.082031 Z M 358.71875 315.148438 C 358.71875 320.054688 355.859375 321.6875 352.179688 320.460938 C 340.527344 315.964844 332.550781 321.6875 332.550781 341.101562 L 332.550781 365.421875 C 332.550781 370.53125 328.871094 372.574219 324.375 369.917969 C 319.878906 367.261719 316.199219 361.128906 316.199219 355.816406 L 316.199219 290.828125 C 316.199219 285.515625 319.671875 283.472656 324.375 286.128906 C 329.078125 288.785156 332.550781 295.121094 332.550781 300.433594 L 332.550781 308.8125 C 336.4375 300.84375 343.386719 296.960938 350.542969 301.25 C 355.652344 304.113281 358.71875 309.835938 358.71875 315.148438 Z M 358.71875 315.148438 " fill-opacity="1" fill-rule="nonzero"/></g></svg>