<?xml version="1.0" encoding="UTF-8"?>
<!DOCTYPE svg PUBLIC "-//W3C//DTD SVG 1.1//EN" "http://www.w3.org/Graphics/SVG/1.1/DTD/svg11.dtd">
<svg xmlns="http://www.w3.org/2000/svg" version="1.1" width="512px" height="512px" style="shape-rendering:geometricPrecision; text-rendering:geometricPrecision; image-rendering:optimizeQuality; fill-rule:evenodd; clip-rule:evenodd" xmlns:xlink="http://www.w3.org/1999/xlink">
<g><path style="opacity:0.947" fill="#000000" d="M 47.5,55.5 C 67.1695,55.3334 86.8362,55.5 106.5,56C 115.945,59.3007 122.778,65.4673 127,74.5C 130.012,85.5507 133.179,96.5507 136.5,107.5C 239.832,108.333 343.165,108.833 446.5,109C 463.172,114.495 470.006,125.995 467,143.5C 461,190.167 455,236.833 449,283.5C 446.238,293.928 439.738,300.761 429.5,304C 348.834,304.5 268.167,304.667 187.5,304.5C 187.334,311.841 187.5,319.174 188,326.5C 190.14,336.64 196.306,342.806 206.5,345C 289.167,345.333 371.833,345.667 454.5,346C 458.788,349.771 459.621,354.271 457,359.5C 455.352,360.717 453.519,361.55 451.5,362C 369.5,362.667 287.5,362.667 205.5,362C 185.785,359.284 174.285,348.118 171,328.5C 170.667,316.5 170.333,304.5 170,292.5C 150.439,220.587 130.106,148.921 109,77.5C 107.269,75.3834 105.102,73.8834 102.5,73C 84.1812,71.9653 65.8479,71.2986 47.5,71C 42.208,65.8349 42.208,60.6682 47.5,55.5 Z M 141.5,125.5 C 167.169,125.333 192.835,125.5 218.5,126C 220.599,150.417 222.266,174.917 223.5,199.5C 202.833,199.5 182.167,199.5 161.5,199.5C 154.833,174.833 148.167,150.167 141.5,125.5 Z M 234.5,125.5 C 255.5,125.5 276.5,125.5 297.5,125.5C 297.5,150.167 297.5,174.833 297.5,199.5C 277.833,199.5 258.167,199.5 238.5,199.5C 237.034,174.841 235.7,150.174 234.5,125.5 Z M 312.5,125.5 C 333.503,125.333 354.503,125.5 375.5,126C 373.401,150.417 371.734,174.917 370.5,199.5C 351.167,199.5 331.833,199.5 312.5,199.5C 312.5,174.833 312.5,150.167 312.5,125.5 Z M 390.5,125.5 C 408.503,125.333 426.503,125.5 444.5,126C 448.953,128.071 450.953,131.571 450.5,136.5C 448.078,157.545 445.411,178.545 442.5,199.5C 423.5,199.5 404.5,199.5 385.5,199.5C 386.903,174.791 388.569,150.124 390.5,125.5 Z M 166.5,214.5 C 185.833,214.5 205.167,214.5 224.5,214.5C 226.167,239.167 227.833,263.833 229.5,288.5C 215.151,288.833 200.818,288.499 186.5,287.5C 179.422,263.268 172.756,238.935 166.5,214.5 Z M 239.5,214.5 C 258.833,214.5 278.167,214.5 297.5,214.5C 297.5,239.167 297.5,263.833 297.5,288.5C 279.833,288.5 262.167,288.5 244.5,288.5C 242.999,263.816 241.332,239.149 239.5,214.5 Z M 312.5,214.5 C 331.5,214.5 350.5,214.5 369.5,214.5C 367.833,239.167 366.167,263.833 364.5,288.5C 347.167,288.5 329.833,288.5 312.5,288.5C 312.5,263.833 312.5,239.167 312.5,214.5 Z M 384.5,214.5 C 403.167,214.5 421.833,214.5 440.5,214.5C 438.165,234.512 435.665,254.512 433,274.5C 433.177,282.022 429.677,286.522 422.5,288C 408.171,288.5 393.837,288.667 379.5,288.5C 381.255,263.846 382.921,239.179 384.5,214.5 Z"/></g>
<g><path style="opacity:0.929" fill="#000000" d="M 209.5,380.5 C 239.823,378.993 254.99,393.327 255,423.5C 249.029,447.773 233.529,458.273 208.5,455C 187.908,448.326 178.408,434.159 180,412.5C 183.127,395.543 192.961,384.876 209.5,380.5 Z M 211.5,397.5 C 227.253,395.928 236.253,402.928 238.5,418.5C 234.957,435.106 224.957,441.273 208.5,437C 198.165,430.836 194.665,422.003 198,410.5C 201.076,404.589 205.576,400.255 211.5,397.5 Z"/></g>
<g><path style="opacity:0.933" fill="#000000" d="M 412.5,380.5 C 440.299,378.312 455.632,390.979 458.5,418.5C 455.18,445.642 439.847,457.809 412.5,455C 394.129,449.614 384.129,437.281 382.5,418C 384.292,398.728 394.292,386.228 412.5,380.5 Z M 414.5,397.5 C 435.322,396.483 443.822,406.15 440,426.5C 432.237,439.036 421.737,441.87 408.5,435C 396.5,423.667 396.5,412.333 408.5,401C 410.727,400.059 412.727,398.892 414.5,397.5 Z"/></g>
</svg>
