<?xml version="1.0" encoding="UTF-8"?>
<!DOCTYPE svg PUBLIC "-//W3C//DTD SVG 1.1//EN" "http://www.w3.org/Graphics/SVG/1.1/DTD/svg11.dtd">
<svg xmlns="http://www.w3.org/2000/svg" version="1.1" width="512px" height="512px" style="shape-rendering:geometricPrecision; text-rendering:geometricPrecision; image-rendering:optimizeQuality; fill-rule:evenodd; clip-rule:evenodd" xmlns:xlink="http://www.w3.org/1999/xlink">
<g><path style="opacity:0.971" fill="#000000" d="M 246.5,14.5 C 338.523,13.7505 409.689,51.4172 460,127.5C 496.213,189.202 504.546,254.535 485,323.5C 458.005,403.162 404.505,455.995 324.5,482C 261.377,499.444 200.877,492.944 143,462.5C 101.593,473.727 60.0932,484.727 18.5,495.5C 17.8333,495.167 17.1667,494.833 16.5,494.5C 27.8333,453.833 39.1667,413.167 50.5,372.5C 12.822,303.175 8.65531,231.841 38,158.5C 80.0786,70.9392 149.579,22.9392 246.5,14.5 Z M 253.5,55.5 C 330.55,57.5893 389.05,91.256 429,156.5C 462.999,220.839 462.999,285.172 429,349.5C 395.385,406.074 345.885,439.24 280.5,449C 233.065,454.015 189.231,443.848 149,418.5C 124.588,425.228 100.088,431.561 75.5,437.5C 81.6731,413.809 88.0064,390.142 94.5,366.5C 54.9675,304.047 49.4675,238.714 78,170.5C 114.652,99.0447 173.152,60.7113 253.5,55.5 Z"/></g>
<g><path style="opacity:0.974" fill="#000000" d="M 169.5,142.5 C 176.888,142.253 184.221,142.753 191.5,144C 195.551,147.721 198.384,152.221 200,157.5C 205.391,171.281 211.057,184.948 217,198.5C 217.854,202.625 217.52,206.625 216,210.5C 210.716,218.119 205.049,225.452 199,232.5C 198.333,234.833 198.333,237.167 199,239.5C 218.42,273.247 246.254,297.414 282.5,312C 285.303,312.755 287.97,312.422 290.5,311C 298.046,302.456 305.212,293.623 312,284.5C 313.722,282.556 315.889,281.556 318.5,281.5C 324.12,282.476 329.454,284.309 334.5,287C 348.776,294.054 362.942,301.221 377,308.5C 378.98,320.308 377.313,331.641 372,342.5C 355.044,363.268 333.21,371.435 306.5,367C 258.529,356.106 218.362,332.273 186,295.5C 172.51,279.678 160.176,263.012 149,245.5C 137.812,226.895 133.812,206.895 137,185.5C 140.17,170.654 147.337,158.154 158.5,148C 161.99,145.588 165.657,143.755 169.5,142.5 Z"/></g>
</svg>
